<?xml version="1.0" encoding="utf-8"?>
<svg xmlns="http://www.w3.org/2000/svg" xmlns:xlink="http://www.w3.org/1999/xlink" width="380" height="240" viewBox="0 0 1520 960">
<defs>
  <clipPath id="clip590">
    <rect x="0" y="0" width="1520" height="960"/>
  </clipPath>
</defs>
<path clip-path="url(#clip590)" d="M0 960 L1520 960 L1520 0 L0 0  Z" fill="#ffffff" fill-rule="evenodd" fill-opacity="1"/>
<defs>
  <clipPath id="clip591">
    <rect x="304" y="0" width="1065" height="960"/>
  </clipPath>
</defs>
<path clip-path="url(#clip590)" d="M200.024 854.667 L1472.76 854.667 L1472.76 120.289 L200.024 120.289  Z" fill="#d3d3d3" fill-rule="evenodd" fill-opacity="1"/>
<defs>
  <clipPath id="clip592">
    <rect x="200" y="120" width="1274" height="735"/>
  </clipPath>
</defs>
<polyline clip-path="url(#clip592)" style="stroke:#000000; stroke-linecap:round; stroke-linejoin:round; stroke-width:2; stroke-opacity:0.1; fill:none" points="236.044,854.667 236.044,120.289 "/>
<polyline clip-path="url(#clip592)" style="stroke:#000000; stroke-linecap:round; stroke-linejoin:round; stroke-width:2; stroke-opacity:0.1; fill:none" points="546.619,854.667 546.619,120.289 "/>
<polyline clip-path="url(#clip592)" style="stroke:#000000; stroke-linecap:round; stroke-linejoin:round; stroke-width:2; stroke-opacity:0.1; fill:none" points="701.907,854.667 701.907,120.289 "/>
<polyline clip-path="url(#clip592)" style="stroke:#000000; stroke-linecap:round; stroke-linejoin:round; stroke-width:2; stroke-opacity:0.1; fill:none" points="857.194,854.667 857.194,120.289 "/>
<polyline clip-path="url(#clip592)" style="stroke:#000000; stroke-linecap:round; stroke-linejoin:round; stroke-width:2; stroke-opacity:0.1; fill:none" points="1167.77,854.667 1167.77,120.289 "/>
<polyline clip-path="url(#clip592)" style="stroke:#000000; stroke-linecap:round; stroke-linejoin:round; stroke-width:2; stroke-opacity:0.1; fill:none" points="1436.74,854.667 1436.74,120.289 "/>
<polyline clip-path="url(#clip592)" style="stroke:#000000; stroke-linecap:round; stroke-linejoin:round; stroke-width:2; stroke-opacity:0.1; fill:none" points="200.024,833.809 1472.76,833.809 "/>
<polyline clip-path="url(#clip592)" style="stroke:#000000; stroke-linecap:round; stroke-linejoin:round; stroke-width:2; stroke-opacity:0.1; fill:none" points="200.024,718.341 1472.76,718.341 "/>
<polyline clip-path="url(#clip592)" style="stroke:#000000; stroke-linecap:round; stroke-linejoin:round; stroke-width:2; stroke-opacity:0.1; fill:none" points="200.024,602.873 1472.76,602.873 "/>
<polyline clip-path="url(#clip592)" style="stroke:#000000; stroke-linecap:round; stroke-linejoin:round; stroke-width:2; stroke-opacity:0.1; fill:none" points="200.024,487.404 1472.76,487.404 "/>
<polyline clip-path="url(#clip592)" style="stroke:#000000; stroke-linecap:round; stroke-linejoin:round; stroke-width:2; stroke-opacity:0.1; fill:none" points="200.024,371.936 1472.76,371.936 "/>
<polyline clip-path="url(#clip592)" style="stroke:#000000; stroke-linecap:round; stroke-linejoin:round; stroke-width:2; stroke-opacity:0.1; fill:none" points="200.024,256.468 1472.76,256.468 "/>
<polyline clip-path="url(#clip592)" style="stroke:#000000; stroke-linecap:round; stroke-linejoin:round; stroke-width:2; stroke-opacity:0.1; fill:none" points="200.024,141 1472.76,141 "/>
<polyline clip-path="url(#clip590)" style="stroke:#000000; stroke-linecap:round; stroke-linejoin:round; stroke-width:4; stroke-opacity:1; fill:none" points="200.024,854.667 1472.76,854.667 "/>
<polyline clip-path="url(#clip590)" style="stroke:#000000; stroke-linecap:round; stroke-linejoin:round; stroke-width:4; stroke-opacity:1; fill:none" points="236.044,854.667 236.044,835.769 "/>
<polyline clip-path="url(#clip590)" style="stroke:#000000; stroke-linecap:round; stroke-linejoin:round; stroke-width:4; stroke-opacity:1; fill:none" points="546.619,854.667 546.619,835.769 "/>
<polyline clip-path="url(#clip590)" style="stroke:#000000; stroke-linecap:round; stroke-linejoin:round; stroke-width:4; stroke-opacity:1; fill:none" points="701.907,854.667 701.907,835.769 "/>
<polyline clip-path="url(#clip590)" style="stroke:#000000; stroke-linecap:round; stroke-linejoin:round; stroke-width:4; stroke-opacity:1; fill:none" points="857.194,854.667 857.194,835.769 "/>
<polyline clip-path="url(#clip590)" style="stroke:#000000; stroke-linecap:round; stroke-linejoin:round; stroke-width:4; stroke-opacity:1; fill:none" points="1167.77,854.667 1167.77,835.769 "/>
<polyline clip-path="url(#clip590)" style="stroke:#000000; stroke-linecap:round; stroke-linejoin:round; stroke-width:4; stroke-opacity:1; fill:none" points="1436.74,854.667 1436.74,835.769 "/>
<path clip-path="url(#clip590)" d="M221.197 908.907 L221.197 907.431 L221.9 907.431 Q224.453 907.431 225.25 907.08 Q226.069 906.705 226.14 905.347 L226.14 879.746 Q226.093 878.504 225.296 878.13 Q224.5 877.731 221.9 877.731 L221.197 877.731 L221.197 876.279 Q223.446 876.373 227.943 876.373 Q229.77 876.373 231.339 876.326 Q232.932 876.279 233.19 876.279 L246.236 876.279 L247.571 887.077 L246.33 887.077 Q245.955 884.149 245.533 882.627 Q245.135 881.081 244.151 879.839 Q243.168 878.598 241.528 878.176 Q239.889 877.731 237.125 877.731 L233.026 877.731 Q231.48 877.731 230.941 878.036 Q230.402 878.34 230.402 879.605 L230.402 905.206 Q230.402 906.682 231.386 907.056 Q232.37 907.431 235.673 907.431 L236.539 907.431 L236.539 908.907 Q232.464 908.766 228.341 908.766 L228.037 908.766 Q225.039 908.766 221.197 908.907 Z" fill="#000000" fill-rule="nonzero" fill-opacity="1" /><path clip-path="url(#clip590)" d="M532.904 875.467 L537.58 875.467 L537.58 890.073 L553.089 875.467 L559.108 875.467 L541.955 891.578 L560.335 910.027 L554.177 910.027 L537.58 893.383 L537.58 910.027 L532.904 910.027 L532.904 875.467 Z" fill="#000000" fill-rule="nonzero" fill-opacity="1" /><path clip-path="url(#clip590)" d="M686.097 875.467 L693.064 875.467 L701.884 898.985 L710.749 875.467 L717.717 875.467 L717.717 910.027 L713.157 910.027 L713.157 879.68 L704.245 903.383 L699.546 903.383 L690.634 879.68 L690.634 910.027 L686.097 910.027 L686.097 875.467 Z" fill="#000000" fill-rule="nonzero" fill-opacity="1" /><path clip-path="url(#clip590)" d="M839.729 875.467 L844.405 875.467 L844.405 890.073 L859.914 875.467 L865.933 875.467 L848.78 891.578 L867.16 910.027 L861.002 910.027 L844.405 893.383 L844.405 910.027 L839.729 910.027 L839.729 875.467 Z" fill="#000000" fill-rule="nonzero" fill-opacity="1" /><path clip-path="url(#clip590)" d="M874.66 875.467 L874.66 888.314 L870.724 888.314 L870.724 875.467 L874.66 875.467 Z" fill="#000000" fill-rule="nonzero" fill-opacity="1" /><path clip-path="url(#clip590)" d="M1152.92 908.907 L1152.92 907.431 L1153.63 907.431 Q1156.18 907.431 1156.97 907.08 Q1157.79 906.705 1157.86 905.347 L1157.86 879.746 Q1157.82 878.504 1157.02 878.13 Q1156.23 877.731 1153.63 877.731 L1152.92 877.731 L1152.92 876.279 Q1155.17 876.373 1159.67 876.373 Q1161.5 876.373 1163.06 876.326 Q1164.66 876.279 1164.91 876.279 L1177.96 876.279 L1179.3 887.077 L1178.05 887.077 Q1177.68 884.149 1177.26 882.627 Q1176.86 881.081 1175.88 879.839 Q1174.89 878.598 1173.25 878.176 Q1171.61 877.731 1168.85 877.731 L1164.75 877.731 Q1163.2 877.731 1162.67 878.036 Q1162.13 878.34 1162.13 879.605 L1162.13 905.206 Q1162.13 906.682 1163.11 907.056 Q1164.09 907.431 1167.4 907.431 L1168.26 907.431 L1168.26 908.907 Q1164.19 908.766 1160.07 908.766 L1159.76 908.766 Q1156.76 908.766 1152.92 908.907 Z" fill="#000000" fill-rule="nonzero" fill-opacity="1" /><path clip-path="url(#clip590)" d="M1420.93 875.467 L1427.89 875.467 L1436.71 898.985 L1445.58 875.467 L1452.55 875.467 L1452.55 910.027 L1447.99 910.027 L1447.99 879.68 L1439.07 903.383 L1434.37 903.383 L1425.46 879.68 L1425.46 910.027 L1420.93 910.027 L1420.93 875.467 Z" fill="#000000" fill-rule="nonzero" fill-opacity="1" /><polyline clip-path="url(#clip590)" style="stroke:#000000; stroke-linecap:round; stroke-linejoin:round; stroke-width:4; stroke-opacity:1; fill:none" points="200.024,854.667 200.024,120.289 "/>
<polyline clip-path="url(#clip590)" style="stroke:#000000; stroke-linecap:round; stroke-linejoin:round; stroke-width:4; stroke-opacity:1; fill:none" points="200.024,833.809 218.921,833.809 "/>
<polyline clip-path="url(#clip590)" style="stroke:#000000; stroke-linecap:round; stroke-linejoin:round; stroke-width:4; stroke-opacity:1; fill:none" points="200.024,718.341 218.921,718.341 "/>
<polyline clip-path="url(#clip590)" style="stroke:#000000; stroke-linecap:round; stroke-linejoin:round; stroke-width:4; stroke-opacity:1; fill:none" points="200.024,602.873 218.921,602.873 "/>
<polyline clip-path="url(#clip590)" style="stroke:#000000; stroke-linecap:round; stroke-linejoin:round; stroke-width:4; stroke-opacity:1; fill:none" points="200.024,487.404 218.921,487.404 "/>
<polyline clip-path="url(#clip590)" style="stroke:#000000; stroke-linecap:round; stroke-linejoin:round; stroke-width:4; stroke-opacity:1; fill:none" points="200.024,371.936 218.921,371.936 "/>
<polyline clip-path="url(#clip590)" style="stroke:#000000; stroke-linecap:round; stroke-linejoin:round; stroke-width:4; stroke-opacity:1; fill:none" points="200.024,256.468 218.921,256.468 "/>
<polyline clip-path="url(#clip590)" style="stroke:#000000; stroke-linecap:round; stroke-linejoin:round; stroke-width:4; stroke-opacity:1; fill:none" points="200.024,141 218.921,141 "/>
<path clip-path="url(#clip590)" d="M116.159 834.26 L145.835 834.26 L145.835 838.196 L116.159 838.196 L116.159 834.26 Z" fill="#000000" fill-rule="nonzero" fill-opacity="1" /><path clip-path="url(#clip590)" d="M170.094 832.455 Q173.45 833.172 175.325 835.441 Q177.224 837.709 177.224 841.043 Q177.224 846.158 173.705 848.959 Q170.187 851.76 163.705 851.76 Q161.529 851.76 159.214 851.32 Q156.923 850.904 154.469 850.047 L154.469 845.533 Q156.414 846.668 158.728 847.246 Q161.043 847.825 163.566 847.825 Q167.964 847.825 170.256 846.089 Q172.571 844.353 172.571 841.043 Q172.571 837.987 170.418 836.274 Q168.288 834.538 164.469 834.538 L160.441 834.538 L160.441 830.696 L164.654 830.696 Q168.103 830.696 169.932 829.33 Q171.761 827.941 171.761 825.348 Q171.761 822.686 169.863 821.274 Q167.988 819.839 164.469 819.839 Q162.548 819.839 160.349 820.256 Q158.15 820.672 155.511 821.552 L155.511 817.385 Q158.173 816.645 160.488 816.274 Q162.826 815.904 164.886 815.904 Q170.21 815.904 173.312 818.335 Q176.413 820.742 176.413 824.862 Q176.413 827.733 174.77 829.723 Q173.126 831.691 170.094 832.455 Z" fill="#000000" fill-rule="nonzero" fill-opacity="1" /><path clip-path="url(#clip590)" d="M117.108 718.792 L146.784 718.792 L146.784 722.727 L117.108 722.727 L117.108 718.792 Z" fill="#000000" fill-rule="nonzero" fill-opacity="1" /><path clip-path="url(#clip590)" d="M160.904 731.686 L177.224 731.686 L177.224 735.621 L155.279 735.621 L155.279 731.686 Q157.941 728.931 162.525 724.301 Q167.131 719.649 168.312 718.306 Q170.557 715.783 171.437 714.047 Q172.339 712.288 172.339 710.598 Q172.339 707.843 170.395 706.107 Q168.474 704.371 165.372 704.371 Q163.173 704.371 160.719 705.135 Q158.289 705.899 155.511 707.45 L155.511 702.727 Q158.335 701.593 160.788 701.014 Q163.242 700.436 165.279 700.436 Q170.65 700.436 173.844 703.121 Q177.038 705.806 177.038 710.297 Q177.038 712.426 176.228 714.348 Q175.441 716.246 173.335 718.838 Q172.756 719.51 169.654 722.727 Q166.552 725.922 160.904 731.686 Z" fill="#000000" fill-rule="nonzero" fill-opacity="1" /><path clip-path="url(#clip590)" d="M116.738 603.324 L146.414 603.324 L146.414 607.259 L116.738 607.259 L116.738 603.324 Z" fill="#000000" fill-rule="nonzero" fill-opacity="1" /><path clip-path="url(#clip590)" d="M157.316 616.217 L164.955 616.217 L164.955 589.852 L156.645 591.518 L156.645 587.259 L164.909 585.593 L169.585 585.593 L169.585 616.217 L177.224 616.217 L177.224 620.153 L157.316 620.153 L157.316 616.217 Z" fill="#000000" fill-rule="nonzero" fill-opacity="1" /><path clip-path="url(#clip590)" d="M165.279 473.203 Q161.668 473.203 159.839 476.768 Q158.034 480.309 158.034 487.439 Q158.034 494.546 159.839 498.11 Q161.668 501.652 165.279 501.652 Q168.913 501.652 170.719 498.11 Q172.548 494.546 172.548 487.439 Q172.548 480.309 170.719 476.768 Q168.913 473.203 165.279 473.203 M165.279 469.499 Q171.089 469.499 174.145 474.106 Q177.224 478.689 177.224 487.439 Q177.224 496.166 174.145 500.772 Q171.089 505.356 165.279 505.356 Q159.469 505.356 156.39 500.772 Q153.335 496.166 153.335 487.439 Q153.335 478.689 156.39 474.106 Q159.469 469.499 165.279 469.499 Z" fill="#000000" fill-rule="nonzero" fill-opacity="1" /><path clip-path="url(#clip590)" d="M157.316 385.281 L164.955 385.281 L164.955 358.915 L156.645 360.582 L156.645 356.323 L164.909 354.656 L169.585 354.656 L169.585 385.281 L177.224 385.281 L177.224 389.216 L157.316 389.216 L157.316 385.281 Z" fill="#000000" fill-rule="nonzero" fill-opacity="1" /><path clip-path="url(#clip590)" d="M160.904 269.813 L177.224 269.813 L177.224 273.748 L155.279 273.748 L155.279 269.813 Q157.941 267.058 162.525 262.429 Q167.131 257.776 168.312 256.433 Q170.557 253.91 171.437 252.174 Q172.339 250.415 172.339 248.725 Q172.339 245.97 170.395 244.234 Q168.474 242.498 165.372 242.498 Q163.173 242.498 160.719 243.262 Q158.289 244.026 155.511 245.577 L155.511 240.855 Q158.335 239.72 160.788 239.142 Q163.242 238.563 165.279 238.563 Q170.65 238.563 173.844 241.248 Q177.038 243.933 177.038 248.424 Q177.038 250.554 176.228 252.475 Q175.441 254.373 173.335 256.966 Q172.756 257.637 169.654 260.854 Q166.552 264.049 160.904 269.813 Z" fill="#000000" fill-rule="nonzero" fill-opacity="1" /><path clip-path="url(#clip590)" d="M170.094 139.646 Q173.45 140.363 175.325 142.632 Q177.224 144.9 177.224 148.233 Q177.224 153.349 173.705 156.15 Q170.187 158.951 163.705 158.951 Q161.529 158.951 159.214 158.511 Q156.923 158.095 154.469 157.238 L154.469 152.724 Q156.414 153.858 158.728 154.437 Q161.043 155.016 163.566 155.016 Q167.964 155.016 170.256 153.28 Q172.571 151.544 172.571 148.233 Q172.571 145.178 170.418 143.465 Q168.288 141.729 164.469 141.729 L160.441 141.729 L160.441 137.886 L164.654 137.886 Q168.103 137.886 169.932 136.521 Q171.761 135.132 171.761 132.539 Q171.761 129.877 169.863 128.465 Q167.988 127.03 164.469 127.03 Q162.548 127.03 160.349 127.447 Q158.15 127.863 155.511 128.743 L155.511 124.576 Q158.173 123.835 160.488 123.465 Q162.826 123.095 164.886 123.095 Q170.21 123.095 173.312 125.525 Q176.413 127.933 176.413 132.053 Q176.413 134.923 174.77 136.914 Q173.126 138.882 170.094 139.646 Z" fill="#000000" fill-rule="nonzero" fill-opacity="1" /><path clip-path="url(#clip590)" d="M59.8787 517.62 Q59.1148 521.184 57.0459 523.094 Q55.0089 525.004 52.0489 525.004 Q47.561 525.004 45.0466 521.375 Q42.5639 517.779 42.5639 511.54 Q42.5639 509.121 42.9459 506.416 Q43.3278 503.71 44.0917 500.591 L49.4071 500.591 Q48.4841 503.679 48.0703 506.225 Q47.6565 508.803 47.6565 511.063 Q47.6565 514.85 49.1206 517.047 Q50.5847 519.275 52.6218 519.275 Q54.8498 519.275 56.282 517.11 Q57.6825 514.978 57.6825 511.286 L57.6825 506.352 L62.5204 506.352 L62.5204 511.063 Q62.5204 515.423 64.1437 517.715 Q65.9261 520.198 68.727 520.198 Q71.5916 520.198 73.374 517.524 Q75.1564 514.819 75.1564 510.012 Q75.1564 507.052 74.5835 504.347 Q73.9787 501.642 72.8011 499.382 L78.2437 499.382 Q79.1349 502.246 79.5805 504.92 Q80.0261 507.625 80.0261 510.172 Q80.0261 517.747 77.1297 521.853 Q74.2333 525.959 68.727 525.959 Q65.2895 525.959 62.966 523.762 Q60.6426 521.566 59.8787 517.62 Z" fill="#000000" fill-rule="nonzero" fill-opacity="1" /><path clip-path="url(#clip590)" d="M31.5831 478.407 L31.5831 472.996 L85.1505 489.547 L85.1505 494.958 L31.5831 478.407 Z" fill="#000000" fill-rule="nonzero" fill-opacity="1" /><path clip-path="url(#clip590)" d="M33.3337 461.06 L43.4551 461.06 L43.4551 448.997 L48.0066 448.997 L48.0066 461.06 L67.3584 461.06 Q71.7189 461.06 72.9602 459.883 Q74.2015 458.673 74.2015 455.013 L74.2015 448.997 L79.1031 448.997 L79.1031 455.013 Q79.1031 461.792 76.5887 464.37 Q74.0424 466.948 67.3584 466.948 L48.0066 466.948 L48.0066 471.245 L43.4551 471.245 L43.4551 466.948 L33.3337 466.948 L33.3337 461.06 Z" fill="#000000" fill-rule="nonzero" fill-opacity="1" /><path clip-path="url(#clip590)" d="M147.088 12.096 L181.845 12.096 L181.845 18.9825 L155.271 18.9825 L155.271 36.8065 L179.252 36.8065 L179.252 43.6931 L155.271 43.6931 L155.271 72.576 L147.088 72.576 L147.088 12.096 Z" fill="#000000" fill-rule="nonzero" fill-opacity="1" /><path clip-path="url(#clip590)" d="M194.483 9.54393 L201.937 9.54393 L201.937 72.576 L194.483 72.576 L194.483 9.54393 Z" fill="#000000" fill-rule="nonzero" fill-opacity="1" /><path clip-path="url(#clip590)" d="M235.114 32.4315 Q229.119 32.4315 225.635 37.1306 Q222.151 41.7891 222.151 49.9314 Q222.151 58.0738 225.594 62.7728 Q229.078 67.4314 235.114 67.4314 Q241.069 67.4314 244.553 62.7323 Q248.036 58.0333 248.036 49.9314 Q248.036 41.8701 244.553 37.1711 Q241.069 32.4315 235.114 32.4315 M235.114 26.1121 Q244.836 26.1121 250.386 32.4315 Q255.936 38.7509 255.936 49.9314 Q255.936 61.0714 250.386 67.4314 Q244.836 73.7508 235.114 73.7508 Q225.351 73.7508 219.802 67.4314 Q214.292 61.0714 214.292 49.9314 Q214.292 38.7509 219.802 32.4315 Q225.351 26.1121 235.114 26.1121 Z" fill="#000000" fill-rule="nonzero" fill-opacity="1" /><path clip-path="url(#clip590)" d="M272.747 49.9314 Q272.747 58.1548 276.109 62.8538 Q279.512 67.5124 285.426 67.5124 Q291.341 67.5124 294.743 62.8538 Q298.146 58.1548 298.146 49.9314 Q298.146 41.7081 294.743 37.0496 Q291.341 32.3505 285.426 32.3505 Q279.512 32.3505 276.109 37.0496 Q272.747 41.7081 272.747 49.9314 M298.146 65.7705 Q295.797 69.8214 292.191 71.8063 Q288.626 73.7508 283.603 73.7508 Q275.38 73.7508 270.195 67.1883 Q265.05 60.6258 265.05 49.9314 Q265.05 39.2371 270.195 32.6746 Q275.38 26.1121 283.603 26.1121 Q288.626 26.1121 292.191 28.0971 Q295.797 30.0415 298.146 34.0924 L298.146 27.2059 L305.6 27.2059 L305.6 89.8329 L298.146 89.8329 L298.146 65.7705 Z" fill="#000000" fill-rule="nonzero" fill-opacity="1" /><path clip-path="url(#clip590)" d="M320.183 54.671 L320.183 27.2059 L327.637 27.2059 L327.637 54.3874 Q327.637 60.8284 330.148 64.0691 Q332.66 67.2693 337.683 67.2693 Q343.719 67.2693 347.203 63.421 Q350.727 59.5726 350.727 52.9291 L350.727 27.2059 L358.181 27.2059 L358.181 72.576 L350.727 72.576 L350.727 65.6084 Q348.013 69.7404 344.407 71.7658 Q340.843 73.7508 336.103 73.7508 Q328.285 73.7508 324.234 68.8897 Q320.183 64.0286 320.183 54.671 M338.939 26.1121 L338.939 26.1121 Z" fill="#000000" fill-rule="nonzero" fill-opacity="1" /><path clip-path="url(#clip590)" d="M412.341 48.0275 L412.341 51.6733 L378.07 51.6733 Q378.557 59.3701 382.688 63.421 Q386.861 67.4314 394.274 67.4314 Q398.568 67.4314 402.578 66.3781 Q406.629 65.3249 410.599 63.2184 L410.599 70.267 Q406.589 71.9684 402.376 72.8596 Q398.163 73.7508 393.828 73.7508 Q382.972 73.7508 376.612 67.4314 Q370.293 61.1119 370.293 50.3365 Q370.293 39.1965 376.288 32.6746 Q382.324 26.1121 392.532 26.1121 Q401.687 26.1121 406.994 32.0264 Q412.341 37.9003 412.341 48.0275 M404.887 45.84 Q404.806 39.7232 401.444 36.0774 Q398.122 32.4315 392.613 32.4315 Q386.375 32.4315 382.607 35.9558 Q378.881 39.4801 378.313 45.8805 L404.887 45.84 Z" fill="#000000" fill-rule="nonzero" fill-opacity="1" /><path clip-path="url(#clip590)" d="M431.947 14.324 L431.947 27.2059 L447.3 27.2059 L447.3 32.9987 L431.947 32.9987 L431.947 57.6282 Q431.947 63.1779 433.446 64.7578 Q434.986 66.3376 439.644 66.3376 L447.3 66.3376 L447.3 72.576 L439.644 72.576 Q431.016 72.576 427.735 69.3758 Q424.453 66.1351 424.453 57.6282 L424.453 32.9987 L418.985 32.9987 L418.985 27.2059 L424.453 27.2059 L424.453 14.324 L431.947 14.324 Z" fill="#000000" fill-rule="nonzero" fill-opacity="1" /><path clip-path="url(#clip590)" d="M487.931 49.9314 Q487.931 58.1548 491.293 62.8538 Q494.696 67.5124 500.61 67.5124 Q506.525 67.5124 509.927 62.8538 Q513.33 58.1548 513.33 49.9314 Q513.33 41.7081 509.927 37.0496 Q506.525 32.3505 500.61 32.3505 Q494.696 32.3505 491.293 37.0496 Q487.931 41.7081 487.931 49.9314 M513.33 65.7705 Q510.981 69.8214 507.375 71.8063 Q503.811 73.7508 498.787 73.7508 Q490.564 73.7508 485.379 67.1883 Q480.234 60.6258 480.234 49.9314 Q480.234 39.2371 485.379 32.6746 Q490.564 26.1121 498.787 26.1121 Q503.811 26.1121 507.375 28.0971 Q510.981 30.0415 513.33 34.0924 L513.33 27.2059 L520.784 27.2059 L520.784 89.8329 L513.33 89.8329 L513.33 65.7705 Z" fill="#000000" fill-rule="nonzero" fill-opacity="1" /><path clip-path="url(#clip590)" d="M535.367 54.671 L535.367 27.2059 L542.821 27.2059 L542.821 54.3874 Q542.821 60.8284 545.332 64.0691 Q547.844 67.2693 552.867 67.2693 Q558.903 67.2693 562.387 63.421 Q565.911 59.5726 565.911 52.9291 L565.911 27.2059 L573.365 27.2059 L573.365 72.576 L565.911 72.576 L565.911 65.6084 Q563.197 69.7404 559.591 71.7658 Q556.027 73.7508 551.287 73.7508 Q543.469 73.7508 539.418 68.8897 Q535.367 64.0286 535.367 54.671 M554.123 26.1121 L554.123 26.1121 Z" fill="#000000" fill-rule="nonzero" fill-opacity="1" /><path clip-path="url(#clip590)" d="M609.337 49.7694 Q600.303 49.7694 596.819 51.8354 Q593.335 53.9013 593.335 58.8839 Q593.335 62.8538 595.928 65.2034 Q598.561 67.5124 603.058 67.5124 Q609.256 67.5124 612.982 63.1374 Q616.75 58.7219 616.75 51.4303 L616.75 49.7694 L609.337 49.7694 M624.203 46.6907 L624.203 72.576 L616.75 72.576 L616.75 65.6895 Q614.198 69.8214 610.39 71.8063 Q606.582 73.7508 601.073 73.7508 Q594.105 73.7508 589.973 69.8619 Q585.882 65.9325 585.882 59.3701 Q585.882 51.7138 590.986 47.825 Q596.131 43.9361 606.298 43.9361 L616.75 43.9361 L616.75 43.2069 Q616.75 38.0623 613.347 35.2672 Q609.985 32.4315 603.868 32.4315 Q599.979 32.4315 596.293 33.3632 Q592.606 34.295 589.204 36.1584 L589.204 29.2718 Q593.295 27.692 597.143 26.9223 Q600.992 26.1121 604.638 26.1121 Q614.481 26.1121 619.342 31.2163 Q624.203 36.3204 624.203 46.6907 Z" fill="#000000" fill-rule="nonzero" fill-opacity="1" /><path clip-path="url(#clip590)" d="M668.48 28.5427 L668.48 35.5912 Q665.32 33.9709 661.917 33.1607 Q658.515 32.3505 654.869 32.3505 Q649.319 32.3505 646.524 34.0519 Q643.769 35.7533 643.769 39.156 Q643.769 41.7486 645.754 43.2475 Q647.739 44.7058 653.734 46.0426 L656.287 46.6097 Q664.226 48.3111 667.548 51.4303 Q670.91 54.509 670.91 60.0587 Q670.91 66.3781 665.887 70.0644 Q660.905 73.7508 652.155 73.7508 Q648.509 73.7508 644.539 73.0216 Q640.61 72.3329 636.235 70.9151 L636.235 63.2184 Q640.366 65.3654 644.377 66.4591 Q648.387 67.5124 652.317 67.5124 Q657.583 67.5124 660.418 65.73 Q663.254 63.9071 663.254 60.6258 Q663.254 57.5877 661.188 55.9673 Q659.163 54.3469 652.236 52.8481 L649.643 52.2405 Q642.716 50.7821 639.637 47.7845 Q636.559 44.7463 636.559 39.4801 Q636.559 33.0797 641.096 29.5959 Q645.633 26.1121 653.978 26.1121 Q658.109 26.1121 661.755 26.7198 Q665.401 27.3274 668.48 28.5427 Z" fill="#000000" fill-rule="nonzero" fill-opacity="1" /><path clip-path="url(#clip590)" d="M682.779 27.2059 L690.233 27.2059 L690.233 72.576 L682.779 72.576 L682.779 27.2059 M682.779 9.54393 L690.233 9.54393 L690.233 18.9825 L682.779 18.9825 L682.779 9.54393 Z" fill="#000000" fill-rule="nonzero" fill-opacity="1" /><path clip-path="url(#clip590)" d="M744.637 48.0275 L744.637 51.6733 L710.366 51.6733 Q710.852 59.3701 714.984 63.421 Q719.157 67.4314 726.57 67.4314 Q730.864 67.4314 734.874 66.3781 Q738.925 65.3249 742.895 63.2184 L742.895 70.267 Q738.884 71.9684 734.672 72.8596 Q730.459 73.7508 726.124 73.7508 Q715.268 73.7508 708.908 67.4314 Q702.588 61.1119 702.588 50.3365 Q702.588 39.1965 708.584 32.6746 Q714.62 26.1121 724.828 26.1121 Q733.983 26.1121 739.29 32.0264 Q744.637 37.9003 744.637 48.0275 M737.183 45.84 Q737.102 39.7232 733.74 36.0774 Q730.418 32.4315 724.909 32.4315 Q718.67 32.4315 714.903 35.9558 Q711.176 39.4801 710.609 45.8805 L737.183 45.84 Z" fill="#000000" fill-rule="nonzero" fill-opacity="1" /><path clip-path="url(#clip590)" d="M794.584 45.1919 L794.584 72.576 L787.131 72.576 L787.131 45.4349 Q787.131 38.994 784.619 35.7938 Q782.108 32.5936 777.085 32.5936 Q771.049 32.5936 767.565 36.4419 Q764.081 40.2903 764.081 46.9338 L764.081 72.576 L756.587 72.576 L756.587 27.2059 L764.081 27.2059 L764.081 34.2544 Q766.755 30.163 770.36 28.1376 Q774.006 26.1121 778.745 26.1121 Q786.564 26.1121 790.574 30.9732 Q794.584 35.7938 794.584 45.1919 Z" fill="#000000" fill-rule="nonzero" fill-opacity="1" /><path clip-path="url(#clip590)" d="M848.259 48.0275 L848.259 51.6733 L813.988 51.6733 Q814.474 59.3701 818.606 63.421 Q822.779 67.4314 830.192 67.4314 Q834.486 67.4314 838.496 66.3781 Q842.547 65.3249 846.517 63.2184 L846.517 70.267 Q842.507 71.9684 838.294 72.8596 Q834.081 73.7508 829.746 73.7508 Q818.89 73.7508 812.53 67.4314 Q806.211 61.1119 806.211 50.3365 Q806.211 39.1965 812.206 32.6746 Q818.242 26.1121 828.45 26.1121 Q837.605 26.1121 842.912 32.0264 Q848.259 37.9003 848.259 48.0275 M840.805 45.84 Q840.724 39.7232 837.362 36.0774 Q834.04 32.4315 828.531 32.4315 Q822.293 32.4315 818.525 35.9558 Q814.798 39.4801 814.231 45.8805 L840.805 45.84 Z" fill="#000000" fill-rule="nonzero" fill-opacity="1" /><path clip-path="url(#clip590)" d="M886.783 34.1734 Q885.527 33.4443 884.028 33.1202 Q882.57 32.7556 880.788 32.7556 Q874.468 32.7556 871.065 36.8875 Q867.703 40.9789 867.703 48.6757 L867.703 72.576 L860.209 72.576 L860.209 27.2059 L867.703 27.2059 L867.703 34.2544 Q870.053 30.1225 873.82 28.1376 Q877.587 26.1121 882.975 26.1121 Q883.745 26.1121 884.677 26.2337 Q885.608 26.3147 886.742 26.5172 L886.783 34.1734 Z" fill="#000000" fill-rule="nonzero" fill-opacity="1" /><path clip-path="url(#clip590)" d="M922.998 49.3643 Q922.998 41.2625 919.636 36.8065 Q916.314 32.3505 910.278 32.3505 Q904.283 32.3505 900.921 36.8065 Q897.599 41.2625 897.599 49.3643 Q897.599 57.4256 900.921 61.8816 Q904.283 66.3376 910.278 66.3376 Q916.314 66.3376 919.636 61.8816 Q922.998 57.4256 922.998 49.3643 M930.452 66.9452 Q930.452 78.5308 925.307 84.1616 Q920.162 89.8329 909.549 89.8329 Q905.62 89.8329 902.136 89.2252 Q898.652 88.6581 895.371 87.4428 L895.371 80.1917 Q898.652 81.9741 901.852 82.8248 Q905.053 83.6755 908.374 83.6755 Q915.706 83.6755 919.352 79.8271 Q922.998 76.0193 922.998 68.282 L922.998 64.5957 Q920.689 68.6061 917.084 70.5911 Q913.478 72.576 908.455 72.576 Q900.11 72.576 895.006 66.2161 Q889.902 59.8562 889.902 49.3643 Q889.902 38.832 895.006 32.472 Q900.11 26.1121 908.455 26.1121 Q913.478 26.1121 917.084 28.0971 Q920.689 30.082 922.998 34.0924 L922.998 27.2059 L930.452 27.2059 L930.452 66.9452 Z" fill="#000000" fill-rule="nonzero" fill-opacity="1" /><path clip-path="url(#clip590)" d="M945.805 27.2059 L953.258 27.2059 L953.258 72.576 L945.805 72.576 L945.805 27.2059 M945.805 9.54393 L953.258 9.54393 L953.258 18.9825 L945.805 18.9825 L945.805 9.54393 Z" fill="#000000" fill-rule="nonzero" fill-opacity="1" /><path clip-path="url(#clip590)" d="M1007.66 48.0275 L1007.66 51.6733 L973.391 51.6733 Q973.877 59.3701 978.009 63.421 Q982.182 67.4314 989.595 67.4314 Q993.889 67.4314 997.899 66.3781 Q1001.95 65.3249 1005.92 63.2184 L1005.92 70.267 Q1001.91 71.9684 997.697 72.8596 Q993.484 73.7508 989.149 73.7508 Q978.293 73.7508 971.933 67.4314 Q965.614 61.1119 965.614 50.3365 Q965.614 39.1965 971.609 32.6746 Q977.645 26.1121 987.853 26.1121 Q997.008 26.1121 1002.31 32.0264 Q1007.66 37.9003 1007.66 48.0275 M1000.21 45.84 Q1000.13 39.7232 996.765 36.0774 Q993.443 32.4315 987.934 32.4315 Q981.696 32.4315 977.928 35.9558 Q974.202 39.4801 973.634 45.8805 L1000.21 45.84 Z" fill="#000000" fill-rule="nonzero" fill-opacity="1" /><path clip-path="url(#clip590)" d="M1048.82 28.5427 L1048.82 35.5912 Q1045.66 33.9709 1042.26 33.1607 Q1038.85 32.3505 1035.21 32.3505 Q1029.66 32.3505 1026.86 34.0519 Q1024.11 35.7533 1024.11 39.156 Q1024.11 41.7486 1026.09 43.2475 Q1028.08 44.7058 1034.07 46.0426 L1036.63 46.6097 Q1044.57 48.3111 1047.89 51.4303 Q1051.25 54.509 1051.25 60.0587 Q1051.25 66.3781 1046.23 70.0644 Q1041.24 73.7508 1032.49 73.7508 Q1028.85 73.7508 1024.88 73.0216 Q1020.95 72.3329 1016.57 70.9151 L1016.57 63.2184 Q1020.71 65.3654 1024.72 66.4591 Q1028.73 67.5124 1032.66 67.5124 Q1037.92 67.5124 1040.76 65.73 Q1043.59 63.9071 1043.59 60.6258 Q1043.59 57.5877 1041.53 55.9673 Q1039.5 54.3469 1032.58 52.8481 L1029.98 52.2405 Q1023.06 50.7821 1019.98 47.7845 Q1016.9 44.7463 1016.9 39.4801 Q1016.9 33.0797 1021.44 29.5959 Q1025.97 26.1121 1034.32 26.1121 Q1038.45 26.1121 1042.09 26.7198 Q1045.74 27.3274 1048.82 28.5427 Z" fill="#000000" fill-rule="nonzero" fill-opacity="1" /><path clip-path="url(#clip590)" d="M1107.4 9.62495 Q1101.97 18.942 1099.33 28.0566 Q1096.7 37.1711 1096.7 46.5287 Q1096.7 55.8863 1099.33 65.0818 Q1102.01 74.2369 1107.4 83.5134 L1100.91 83.5134 Q1094.84 73.9938 1091.8 64.7983 Q1088.8 55.6027 1088.8 46.5287 Q1088.8 37.4952 1091.8 28.3401 Q1094.8 19.1851 1100.91 9.62495 L1107.4 9.62495 Z" fill="#000000" fill-rule="nonzero" fill-opacity="1" /><path clip-path="url(#clip590)" d="M1144.83 9.54393 L1144.83 15.7418 L1137.7 15.7418 Q1133.69 15.7418 1132.11 17.3622 Q1130.57 18.9825 1130.57 23.1955 L1130.57 27.2059 L1142.84 27.2059 L1142.84 32.9987 L1130.57 32.9987 L1130.57 72.576 L1123.07 72.576 L1123.07 32.9987 L1115.94 32.9987 L1115.94 27.2059 L1123.07 27.2059 L1123.07 24.0462 Q1123.07 16.471 1126.6 13.0277 Q1130.12 9.54393 1137.78 9.54393 L1144.83 9.54393 Z" fill="#000000" fill-rule="nonzero" fill-opacity="1" /><path clip-path="url(#clip590)" d="M1151.06 27.2059 L1158.52 27.2059 L1158.52 72.576 L1151.06 72.576 L1151.06 27.2059 M1151.06 9.54393 L1158.52 9.54393 L1158.52 18.9825 L1151.06 18.9825 L1151.06 9.54393 Z" fill="#000000" fill-rule="nonzero" fill-opacity="1" /><path clip-path="url(#clip590)" d="M1200.4 34.1734 Q1199.15 33.4443 1197.65 33.1202 Q1196.19 32.7556 1194.41 32.7556 Q1188.09 32.7556 1184.69 36.8875 Q1181.32 40.9789 1181.32 48.6757 L1181.32 72.576 L1173.83 72.576 L1173.83 27.2059 L1181.32 27.2059 L1181.32 34.2544 Q1183.67 30.1225 1187.44 28.1376 Q1191.21 26.1121 1196.6 26.1121 Q1197.37 26.1121 1198.3 26.2337 Q1199.23 26.3147 1200.36 26.5172 L1200.4 34.1734 Z" fill="#000000" fill-rule="nonzero" fill-opacity="1" /><path clip-path="url(#clip590)" d="M1237.15 28.5427 L1237.15 35.5912 Q1233.99 33.9709 1230.58 33.1607 Q1227.18 32.3505 1223.53 32.3505 Q1217.98 32.3505 1215.19 34.0519 Q1212.44 35.7533 1212.44 39.156 Q1212.44 41.7486 1214.42 43.2475 Q1216.41 44.7058 1222.4 46.0426 L1224.95 46.6097 Q1232.89 48.3111 1236.21 51.4303 Q1239.58 54.509 1239.58 60.0587 Q1239.58 66.3781 1234.55 70.0644 Q1229.57 73.7508 1220.82 73.7508 Q1217.17 73.7508 1213.2 73.0216 Q1209.28 72.3329 1204.9 70.9151 L1204.9 63.2184 Q1209.03 65.3654 1213.04 66.4591 Q1217.05 67.5124 1220.98 67.5124 Q1226.25 67.5124 1229.08 65.73 Q1231.92 63.9071 1231.92 60.6258 Q1231.92 57.5877 1229.85 55.9673 Q1227.83 54.3469 1220.9 52.8481 L1218.31 52.2405 Q1211.38 50.7821 1208.3 47.7845 Q1205.22 44.7463 1205.22 39.4801 Q1205.22 33.0797 1209.76 29.5959 Q1214.3 26.1121 1222.64 26.1121 Q1226.78 26.1121 1230.42 26.7198 Q1234.07 27.3274 1237.15 28.5427 Z" fill="#000000" fill-rule="nonzero" fill-opacity="1" /><path clip-path="url(#clip590)" d="M1258.82 14.324 L1258.82 27.2059 L1274.17 27.2059 L1274.17 32.9987 L1258.82 32.9987 L1258.82 57.6282 Q1258.82 63.1779 1260.32 64.7578 Q1261.86 66.3376 1266.51 66.3376 L1274.17 66.3376 L1274.17 72.576 L1266.51 72.576 Q1257.89 72.576 1254.61 69.3758 Q1251.32 66.1351 1251.32 57.6282 L1251.32 32.9987 L1245.86 32.9987 L1245.86 27.2059 L1251.32 27.2059 L1251.32 14.324 L1258.82 14.324 Z" fill="#000000" fill-rule="nonzero" fill-opacity="1" /><path clip-path="url(#clip590)" d="M1307.1 27.2059 L1342.51 27.2059 L1342.51 34.0114 L1314.48 66.6212 L1342.51 66.6212 L1342.51 72.576 L1306.09 72.576 L1306.09 65.7705 L1334.12 33.1607 L1307.1 33.1607 L1307.1 27.2059 Z" fill="#000000" fill-rule="nonzero" fill-opacity="1" /><path clip-path="url(#clip590)" d="M1371.47 32.4315 Q1365.48 32.4315 1361.99 37.1306 Q1358.51 41.7891 1358.51 49.9314 Q1358.51 58.0738 1361.95 62.7728 Q1365.44 67.4314 1371.47 67.4314 Q1377.43 67.4314 1380.91 62.7323 Q1384.4 58.0333 1384.4 49.9314 Q1384.4 41.8701 1380.91 37.1711 Q1377.43 32.4315 1371.47 32.4315 M1371.47 26.1121 Q1381.2 26.1121 1386.75 32.4315 Q1392.3 38.7509 1392.3 49.9314 Q1392.3 61.0714 1386.75 67.4314 Q1381.2 73.7508 1371.47 73.7508 Q1361.71 73.7508 1356.16 67.4314 Q1350.65 61.0714 1350.65 49.9314 Q1350.65 38.7509 1356.16 32.4315 Q1361.71 26.1121 1371.47 26.1121 Z" fill="#000000" fill-rule="nonzero" fill-opacity="1" /><path clip-path="url(#clip590)" d="M1442.36 45.1919 L1442.36 72.576 L1434.91 72.576 L1434.91 45.4349 Q1434.91 38.994 1432.4 35.7938 Q1429.89 32.5936 1424.86 32.5936 Q1418.83 32.5936 1415.34 36.4419 Q1411.86 40.2903 1411.86 46.9338 L1411.86 72.576 L1404.37 72.576 L1404.37 27.2059 L1411.86 27.2059 L1411.86 34.2544 Q1414.53 30.163 1418.14 28.1376 Q1421.79 26.1121 1426.53 26.1121 Q1434.34 26.1121 1438.35 30.9732 Q1442.36 35.7938 1442.36 45.1919 Z" fill="#000000" fill-rule="nonzero" fill-opacity="1" /><path clip-path="url(#clip590)" d="M1496.04 48.0275 L1496.04 51.6733 L1461.77 51.6733 Q1462.25 59.3701 1466.39 63.421 Q1470.56 67.4314 1477.97 67.4314 Q1482.27 67.4314 1486.28 66.3781 Q1490.33 65.3249 1494.3 63.2184 L1494.3 70.267 Q1490.29 71.9684 1486.07 72.8596 Q1481.86 73.7508 1477.53 73.7508 Q1466.67 73.7508 1460.31 67.4314 Q1453.99 61.1119 1453.99 50.3365 Q1453.99 39.1965 1459.99 32.6746 Q1466.02 26.1121 1476.23 26.1121 Q1485.39 26.1121 1490.69 32.0264 Q1496.04 37.9003 1496.04 48.0275 M1488.59 45.84 Q1488.5 39.7232 1485.14 36.0774 Q1481.82 32.4315 1476.31 32.4315 Q1470.07 32.4315 1466.31 35.9558 Q1462.58 39.4801 1462.01 45.8805 L1488.59 45.84 Z" fill="#000000" fill-rule="nonzero" fill-opacity="1" /><path clip-path="url(#clip590)" d="M1507.1 9.62495 L1513.58 9.62495 Q1519.66 19.1851 1522.65 28.3401 Q1525.69 37.4952 1525.69 46.5287 Q1525.69 55.6027 1522.65 64.7983 Q1519.66 73.9938 1513.58 83.5134 L1507.1 83.5134 Q1512.49 74.2369 1515.12 65.0818 Q1517.79 55.8863 1517.79 46.5287 Q1517.79 37.1711 1515.12 28.0566 Q1512.49 18.942 1507.1 9.62495 Z" fill="#000000" fill-rule="nonzero" fill-opacity="1" /><circle clip-path="url(#clip592)" cx="236.044" cy="833.883" r="5.4" fill="#000000" fill-rule="evenodd" fill-opacity="1" stroke="none"/>
<circle clip-path="url(#clip592)" cx="270.35" cy="827.726" r="5.4" fill="#000000" fill-rule="evenodd" fill-opacity="1" stroke="none"/>
<circle clip-path="url(#clip592)" cx="304.655" cy="809.586" r="5.4" fill="#000000" fill-rule="evenodd" fill-opacity="1" stroke="none"/>
<circle clip-path="url(#clip592)" cx="338.961" cy="780.43" r="5.4" fill="#000000" fill-rule="evenodd" fill-opacity="1" stroke="none"/>
<circle clip-path="url(#clip592)" cx="373.266" cy="741.813" r="5.4" fill="#000000" fill-rule="evenodd" fill-opacity="1" stroke="none"/>
<circle clip-path="url(#clip592)" cx="407.572" cy="695.793" r="5.4" fill="#000000" fill-rule="evenodd" fill-opacity="1" stroke="none"/>
<circle clip-path="url(#clip592)" cx="441.877" cy="644.826" r="5.4" fill="#000000" fill-rule="evenodd" fill-opacity="1" stroke="none"/>
<circle clip-path="url(#clip592)" cx="476.182" cy="591.627" r="5.4" fill="#000000" fill-rule="evenodd" fill-opacity="1" stroke="none"/>
<circle clip-path="url(#clip592)" cx="510.488" cy="539.03" r="5.4" fill="#000000" fill-rule="evenodd" fill-opacity="1" stroke="none"/>
<circle clip-path="url(#clip592)" cx="544.793" cy="489.839" r="5.4" fill="#000000" fill-rule="evenodd" fill-opacity="1" stroke="none"/>
<circle clip-path="url(#clip592)" cx="579.099" cy="528.066" r="5.4" fill="#000000" fill-rule="evenodd" fill-opacity="1" stroke="none"/>
<circle clip-path="url(#clip592)" cx="613.404" cy="562.918" r="5.4" fill="#000000" fill-rule="evenodd" fill-opacity="1" stroke="none"/>
<circle clip-path="url(#clip592)" cx="647.71" cy="587.592" r="5.4" fill="#000000" fill-rule="evenodd" fill-opacity="1" stroke="none"/>
<circle clip-path="url(#clip592)" cx="682.015" cy="600.773" r="5.4" fill="#000000" fill-rule="evenodd" fill-opacity="1" stroke="none"/>
<circle clip-path="url(#clip592)" cx="716.321" cy="601.758" r="5.4" fill="#000000" fill-rule="evenodd" fill-opacity="1" stroke="none"/>
<circle clip-path="url(#clip592)" cx="750.626" cy="590.494" r="5.4" fill="#000000" fill-rule="evenodd" fill-opacity="1" stroke="none"/>
<circle clip-path="url(#clip592)" cx="784.932" cy="567.581" r="5.4" fill="#000000" fill-rule="evenodd" fill-opacity="1" stroke="none"/>
<circle clip-path="url(#clip592)" cx="819.237" cy="534.243" r="5.4" fill="#000000" fill-rule="evenodd" fill-opacity="1" stroke="none"/>
<circle clip-path="url(#clip592)" cx="853.542" cy="492.257" r="5.4" fill="#000000" fill-rule="evenodd" fill-opacity="1" stroke="none"/>
<circle clip-path="url(#clip592)" cx="887.848" cy="530.876" r="5.4" fill="#000000" fill-rule="evenodd" fill-opacity="1" stroke="none"/>
<circle clip-path="url(#clip592)" cx="922.153" cy="583.114" r="5.4" fill="#000000" fill-rule="evenodd" fill-opacity="1" stroke="none"/>
<circle clip-path="url(#clip592)" cx="956.459" cy="636.408" r="5.4" fill="#000000" fill-rule="evenodd" fill-opacity="1" stroke="none"/>
<circle clip-path="url(#clip592)" cx="990.764" cy="687.919" r="5.4" fill="#000000" fill-rule="evenodd" fill-opacity="1" stroke="none"/>
<circle clip-path="url(#clip592)" cx="1025.07" cy="734.901" r="5.4" fill="#000000" fill-rule="evenodd" fill-opacity="1" stroke="none"/>
<circle clip-path="url(#clip592)" cx="1059.38" cy="774.851" r="5.4" fill="#000000" fill-rule="evenodd" fill-opacity="1" stroke="none"/>
<circle clip-path="url(#clip592)" cx="1093.68" cy="805.636" r="5.4" fill="#000000" fill-rule="evenodd" fill-opacity="1" stroke="none"/>
<circle clip-path="url(#clip592)" cx="1127.99" cy="825.616" r="5.4" fill="#000000" fill-rule="evenodd" fill-opacity="1" stroke="none"/>
<circle clip-path="url(#clip592)" cx="1162.29" cy="833.725" r="5.4" fill="#000000" fill-rule="evenodd" fill-opacity="1" stroke="none"/>
<circle clip-path="url(#clip592)" cx="1196.6" cy="829.53" r="5.4" fill="#000000" fill-rule="evenodd" fill-opacity="1" stroke="none"/>
<circle clip-path="url(#clip592)" cx="1230.9" cy="813.258" r="5.4" fill="#000000" fill-rule="evenodd" fill-opacity="1" stroke="none"/>
<circle clip-path="url(#clip592)" cx="1265.21" cy="785.824" r="5.4" fill="#000000" fill-rule="evenodd" fill-opacity="1" stroke="none"/>
<circle clip-path="url(#clip592)" cx="1299.51" cy="748.908" r="5.4" fill="#000000" fill-rule="evenodd" fill-opacity="1" stroke="none"/>
<circle clip-path="url(#clip592)" cx="1333.82" cy="705.226" r="5.4" fill="#000000" fill-rule="evenodd" fill-opacity="1" stroke="none"/>
<circle clip-path="url(#clip592)" cx="1368.12" cy="659.329" r="5.4" fill="#000000" fill-rule="evenodd" fill-opacity="1" stroke="none"/>
<circle clip-path="url(#clip592)" cx="1402.43" cy="619.888" r="5.4" fill="#000000" fill-rule="evenodd" fill-opacity="1" stroke="none"/>
<circle clip-path="url(#clip592)" cx="1436.74" cy="602.848" r="5.4" fill="#000000" fill-rule="evenodd" fill-opacity="1" stroke="none"/>
<circle clip-path="url(#clip592)" cx="236.044" cy="833.883" r="5.4" fill="#000000" fill-rule="evenodd" fill-opacity="1" stroke="none"/>
<circle clip-path="url(#clip592)" cx="270.35" cy="827.726" r="5.4" fill="#000000" fill-rule="evenodd" fill-opacity="1" stroke="none"/>
<circle clip-path="url(#clip592)" cx="304.655" cy="809.586" r="5.4" fill="#000000" fill-rule="evenodd" fill-opacity="1" stroke="none"/>
<circle clip-path="url(#clip592)" cx="338.961" cy="780.43" r="5.4" fill="#000000" fill-rule="evenodd" fill-opacity="1" stroke="none"/>
<circle clip-path="url(#clip592)" cx="373.266" cy="741.813" r="5.4" fill="#000000" fill-rule="evenodd" fill-opacity="1" stroke="none"/>
<circle clip-path="url(#clip592)" cx="407.572" cy="695.793" r="5.4" fill="#000000" fill-rule="evenodd" fill-opacity="1" stroke="none"/>
<circle clip-path="url(#clip592)" cx="441.877" cy="644.826" r="5.4" fill="#000000" fill-rule="evenodd" fill-opacity="1" stroke="none"/>
<circle clip-path="url(#clip592)" cx="476.182" cy="591.627" r="5.4" fill="#000000" fill-rule="evenodd" fill-opacity="1" stroke="none"/>
<circle clip-path="url(#clip592)" cx="510.488" cy="539.03" r="5.4" fill="#000000" fill-rule="evenodd" fill-opacity="1" stroke="none"/>
<circle clip-path="url(#clip592)" cx="544.793" cy="489.839" r="5.4" fill="#000000" fill-rule="evenodd" fill-opacity="1" stroke="none"/>
<circle clip-path="url(#clip592)" cx="579.099" cy="528.066" r="5.4" fill="#000000" fill-rule="evenodd" fill-opacity="1" stroke="none"/>
<circle clip-path="url(#clip592)" cx="613.404" cy="562.918" r="5.4" fill="#000000" fill-rule="evenodd" fill-opacity="1" stroke="none"/>
<circle clip-path="url(#clip592)" cx="647.71" cy="587.592" r="5.4" fill="#000000" fill-rule="evenodd" fill-opacity="1" stroke="none"/>
<circle clip-path="url(#clip592)" cx="682.015" cy="600.773" r="5.4" fill="#000000" fill-rule="evenodd" fill-opacity="1" stroke="none"/>
<circle clip-path="url(#clip592)" cx="716.321" cy="601.758" r="5.4" fill="#000000" fill-rule="evenodd" fill-opacity="1" stroke="none"/>
<circle clip-path="url(#clip592)" cx="750.626" cy="590.494" r="5.4" fill="#000000" fill-rule="evenodd" fill-opacity="1" stroke="none"/>
<circle clip-path="url(#clip592)" cx="784.932" cy="567.581" r="5.4" fill="#000000" fill-rule="evenodd" fill-opacity="1" stroke="none"/>
<circle clip-path="url(#clip592)" cx="819.237" cy="534.243" r="5.4" fill="#000000" fill-rule="evenodd" fill-opacity="1" stroke="none"/>
<circle clip-path="url(#clip592)" cx="853.542" cy="492.257" r="5.4" fill="#000000" fill-rule="evenodd" fill-opacity="1" stroke="none"/>
<circle clip-path="url(#clip592)" cx="887.848" cy="530.876" r="5.4" fill="#000000" fill-rule="evenodd" fill-opacity="1" stroke="none"/>
<circle clip-path="url(#clip592)" cx="922.153" cy="583.114" r="5.4" fill="#000000" fill-rule="evenodd" fill-opacity="1" stroke="none"/>
<circle clip-path="url(#clip592)" cx="956.459" cy="636.408" r="5.4" fill="#000000" fill-rule="evenodd" fill-opacity="1" stroke="none"/>
<circle clip-path="url(#clip592)" cx="990.764" cy="687.919" r="5.4" fill="#000000" fill-rule="evenodd" fill-opacity="1" stroke="none"/>
<circle clip-path="url(#clip592)" cx="1025.07" cy="734.901" r="5.4" fill="#000000" fill-rule="evenodd" fill-opacity="1" stroke="none"/>
<circle clip-path="url(#clip592)" cx="1059.38" cy="774.851" r="5.4" fill="#000000" fill-rule="evenodd" fill-opacity="1" stroke="none"/>
<circle clip-path="url(#clip592)" cx="1093.68" cy="805.636" r="5.4" fill="#000000" fill-rule="evenodd" fill-opacity="1" stroke="none"/>
<circle clip-path="url(#clip592)" cx="1127.99" cy="825.616" r="5.4" fill="#000000" fill-rule="evenodd" fill-opacity="1" stroke="none"/>
<circle clip-path="url(#clip592)" cx="1162.29" cy="833.725" r="5.4" fill="#000000" fill-rule="evenodd" fill-opacity="1" stroke="none"/>
<circle clip-path="url(#clip592)" cx="1196.6" cy="829.53" r="5.4" fill="#000000" fill-rule="evenodd" fill-opacity="1" stroke="none"/>
<circle clip-path="url(#clip592)" cx="1230.9" cy="813.258" r="5.4" fill="#000000" fill-rule="evenodd" fill-opacity="1" stroke="none"/>
<circle clip-path="url(#clip592)" cx="1265.21" cy="785.824" r="5.4" fill="#000000" fill-rule="evenodd" fill-opacity="1" stroke="none"/>
<circle clip-path="url(#clip592)" cx="1299.51" cy="748.908" r="5.4" fill="#000000" fill-rule="evenodd" fill-opacity="1" stroke="none"/>
<circle clip-path="url(#clip592)" cx="1333.82" cy="705.226" r="5.4" fill="#000000" fill-rule="evenodd" fill-opacity="1" stroke="none"/>
<circle clip-path="url(#clip592)" cx="1368.12" cy="659.329" r="5.4" fill="#000000" fill-rule="evenodd" fill-opacity="1" stroke="none"/>
<circle clip-path="url(#clip592)" cx="1402.43" cy="619.888" r="5.4" fill="#000000" fill-rule="evenodd" fill-opacity="1" stroke="none"/>
<circle clip-path="url(#clip592)" cx="1436.74" cy="602.848" r="5.4" fill="#000000" fill-rule="evenodd" fill-opacity="1" stroke="none"/>
<circle clip-path="url(#clip592)" cx="236.044" cy="141.073" r="5.4" fill="#000000" fill-rule="evenodd" fill-opacity="1" stroke="none"/>
<circle clip-path="url(#clip592)" cx="270.35" cy="147.222" r="5.4" fill="#000000" fill-rule="evenodd" fill-opacity="1" stroke="none"/>
<circle clip-path="url(#clip592)" cx="304.655" cy="165.34" r="5.4" fill="#000000" fill-rule="evenodd" fill-opacity="1" stroke="none"/>
<circle clip-path="url(#clip592)" cx="338.961" cy="194.463" r="5.4" fill="#000000" fill-rule="evenodd" fill-opacity="1" stroke="none"/>
<circle clip-path="url(#clip592)" cx="373.266" cy="233.042" r="5.4" fill="#000000" fill-rule="evenodd" fill-opacity="1" stroke="none"/>
<circle clip-path="url(#clip592)" cx="407.572" cy="279.022" r="5.4" fill="#000000" fill-rule="evenodd" fill-opacity="1" stroke="none"/>
<circle clip-path="url(#clip592)" cx="441.877" cy="329.955" r="5.4" fill="#000000" fill-rule="evenodd" fill-opacity="1" stroke="none"/>
<circle clip-path="url(#clip592)" cx="476.182" cy="383.129" r="5.4" fill="#000000" fill-rule="evenodd" fill-opacity="1" stroke="none"/>
<circle clip-path="url(#clip592)" cx="510.488" cy="435.71" r="5.4" fill="#000000" fill-rule="evenodd" fill-opacity="1" stroke="none"/>
<circle clip-path="url(#clip592)" cx="544.793" cy="484.896" r="5.4" fill="#000000" fill-rule="evenodd" fill-opacity="1" stroke="none"/>
<circle clip-path="url(#clip592)" cx="579.099" cy="446.672" r="5.4" fill="#000000" fill-rule="evenodd" fill-opacity="1" stroke="none"/>
<circle clip-path="url(#clip592)" cx="613.404" cy="411.828" r="5.4" fill="#000000" fill-rule="evenodd" fill-opacity="1" stroke="none"/>
<circle clip-path="url(#clip592)" cx="647.71" cy="387.162" r="5.4" fill="#000000" fill-rule="evenodd" fill-opacity="1" stroke="none"/>
<circle clip-path="url(#clip592)" cx="682.015" cy="373.986" r="5.4" fill="#000000" fill-rule="evenodd" fill-opacity="1" stroke="none"/>
<circle clip-path="url(#clip592)" cx="716.321" cy="373.001" r="5.4" fill="#000000" fill-rule="evenodd" fill-opacity="1" stroke="none"/>
<circle clip-path="url(#clip592)" cx="750.626" cy="384.261" r="5.4" fill="#000000" fill-rule="evenodd" fill-opacity="1" stroke="none"/>
<circle clip-path="url(#clip592)" cx="784.932" cy="407.166" r="5.4" fill="#000000" fill-rule="evenodd" fill-opacity="1" stroke="none"/>
<circle clip-path="url(#clip592)" cx="819.237" cy="440.496" r="5.4" fill="#000000" fill-rule="evenodd" fill-opacity="1" stroke="none"/>
<circle clip-path="url(#clip592)" cx="853.542" cy="482.478" r="5.4" fill="#000000" fill-rule="evenodd" fill-opacity="1" stroke="none"/>
<circle clip-path="url(#clip592)" cx="887.848" cy="443.862" r="5.4" fill="#000000" fill-rule="evenodd" fill-opacity="1" stroke="none"/>
<circle clip-path="url(#clip592)" cx="922.153" cy="391.638" r="5.4" fill="#000000" fill-rule="evenodd" fill-opacity="1" stroke="none"/>
<circle clip-path="url(#clip592)" cx="956.459" cy="338.368" r="5.4" fill="#000000" fill-rule="evenodd" fill-opacity="1" stroke="none"/>
<circle clip-path="url(#clip592)" cx="990.764" cy="286.89" r="5.4" fill="#000000" fill-rule="evenodd" fill-opacity="1" stroke="none"/>
<circle clip-path="url(#clip592)" cx="1025.07" cy="239.946" r="5.4" fill="#000000" fill-rule="evenodd" fill-opacity="1" stroke="none"/>
<circle clip-path="url(#clip592)" cx="1059.38" cy="200.036" r="5.4" fill="#000000" fill-rule="evenodd" fill-opacity="1" stroke="none"/>
<circle clip-path="url(#clip592)" cx="1093.68" cy="169.285" r="5.4" fill="#000000" fill-rule="evenodd" fill-opacity="1" stroke="none"/>
<circle clip-path="url(#clip592)" cx="1127.99" cy="149.329" r="5.4" fill="#000000" fill-rule="evenodd" fill-opacity="1" stroke="none"/>
<circle clip-path="url(#clip592)" cx="1162.29" cy="141.231" r="5.4" fill="#000000" fill-rule="evenodd" fill-opacity="1" stroke="none"/>
<circle clip-path="url(#clip592)" cx="1196.6" cy="145.421" r="5.4" fill="#000000" fill-rule="evenodd" fill-opacity="1" stroke="none"/>
<circle clip-path="url(#clip592)" cx="1230.9" cy="161.672" r="5.4" fill="#000000" fill-rule="evenodd" fill-opacity="1" stroke="none"/>
<circle clip-path="url(#clip592)" cx="1265.21" cy="189.075" r="5.4" fill="#000000" fill-rule="evenodd" fill-opacity="1" stroke="none"/>
<circle clip-path="url(#clip592)" cx="1299.51" cy="225.953" r="5.4" fill="#000000" fill-rule="evenodd" fill-opacity="1" stroke="none"/>
<circle clip-path="url(#clip592)" cx="1333.82" cy="269.596" r="5.4" fill="#000000" fill-rule="evenodd" fill-opacity="1" stroke="none"/>
<circle clip-path="url(#clip592)" cx="1368.12" cy="315.46" r="5.4" fill="#000000" fill-rule="evenodd" fill-opacity="1" stroke="none"/>
<circle clip-path="url(#clip592)" cx="1402.43" cy="354.88" r="5.4" fill="#000000" fill-rule="evenodd" fill-opacity="1" stroke="none"/>
<circle clip-path="url(#clip592)" cx="1436.74" cy="371.912" r="5.4" fill="#000000" fill-rule="evenodd" fill-opacity="1" stroke="none"/>
<circle clip-path="url(#clip592)" cx="236.044" cy="141.073" r="5.4" fill="#000000" fill-rule="evenodd" fill-opacity="1" stroke="none"/>
<circle clip-path="url(#clip592)" cx="270.35" cy="147.222" r="5.4" fill="#000000" fill-rule="evenodd" fill-opacity="1" stroke="none"/>
<circle clip-path="url(#clip592)" cx="304.655" cy="165.34" r="5.4" fill="#000000" fill-rule="evenodd" fill-opacity="1" stroke="none"/>
<circle clip-path="url(#clip592)" cx="338.961" cy="194.463" r="5.4" fill="#000000" fill-rule="evenodd" fill-opacity="1" stroke="none"/>
<circle clip-path="url(#clip592)" cx="373.266" cy="233.042" r="5.4" fill="#000000" fill-rule="evenodd" fill-opacity="1" stroke="none"/>
<circle clip-path="url(#clip592)" cx="407.572" cy="279.022" r="5.4" fill="#000000" fill-rule="evenodd" fill-opacity="1" stroke="none"/>
<circle clip-path="url(#clip592)" cx="441.877" cy="329.955" r="5.4" fill="#000000" fill-rule="evenodd" fill-opacity="1" stroke="none"/>
<circle clip-path="url(#clip592)" cx="476.182" cy="383.129" r="5.4" fill="#000000" fill-rule="evenodd" fill-opacity="1" stroke="none"/>
<circle clip-path="url(#clip592)" cx="510.488" cy="435.71" r="5.4" fill="#000000" fill-rule="evenodd" fill-opacity="1" stroke="none"/>
<circle clip-path="url(#clip592)" cx="544.793" cy="484.896" r="5.4" fill="#000000" fill-rule="evenodd" fill-opacity="1" stroke="none"/>
<circle clip-path="url(#clip592)" cx="579.099" cy="446.672" r="5.4" fill="#000000" fill-rule="evenodd" fill-opacity="1" stroke="none"/>
<circle clip-path="url(#clip592)" cx="613.404" cy="411.828" r="5.4" fill="#000000" fill-rule="evenodd" fill-opacity="1" stroke="none"/>
<circle clip-path="url(#clip592)" cx="647.71" cy="387.162" r="5.4" fill="#000000" fill-rule="evenodd" fill-opacity="1" stroke="none"/>
<circle clip-path="url(#clip592)" cx="682.015" cy="373.986" r="5.4" fill="#000000" fill-rule="evenodd" fill-opacity="1" stroke="none"/>
<circle clip-path="url(#clip592)" cx="716.321" cy="373.001" r="5.4" fill="#000000" fill-rule="evenodd" fill-opacity="1" stroke="none"/>
<circle clip-path="url(#clip592)" cx="750.626" cy="384.261" r="5.4" fill="#000000" fill-rule="evenodd" fill-opacity="1" stroke="none"/>
<circle clip-path="url(#clip592)" cx="784.932" cy="407.166" r="5.4" fill="#000000" fill-rule="evenodd" fill-opacity="1" stroke="none"/>
<circle clip-path="url(#clip592)" cx="819.237" cy="440.496" r="5.4" fill="#000000" fill-rule="evenodd" fill-opacity="1" stroke="none"/>
<circle clip-path="url(#clip592)" cx="853.542" cy="482.478" r="5.4" fill="#000000" fill-rule="evenodd" fill-opacity="1" stroke="none"/>
<circle clip-path="url(#clip592)" cx="887.848" cy="443.862" r="5.4" fill="#000000" fill-rule="evenodd" fill-opacity="1" stroke="none"/>
<circle clip-path="url(#clip592)" cx="922.153" cy="391.638" r="5.4" fill="#000000" fill-rule="evenodd" fill-opacity="1" stroke="none"/>
<circle clip-path="url(#clip592)" cx="956.459" cy="338.368" r="5.4" fill="#000000" fill-rule="evenodd" fill-opacity="1" stroke="none"/>
<circle clip-path="url(#clip592)" cx="990.764" cy="286.89" r="5.4" fill="#000000" fill-rule="evenodd" fill-opacity="1" stroke="none"/>
<circle clip-path="url(#clip592)" cx="1025.07" cy="239.946" r="5.4" fill="#000000" fill-rule="evenodd" fill-opacity="1" stroke="none"/>
<circle clip-path="url(#clip592)" cx="1059.38" cy="200.036" r="5.4" fill="#000000" fill-rule="evenodd" fill-opacity="1" stroke="none"/>
<circle clip-path="url(#clip592)" cx="1093.68" cy="169.285" r="5.4" fill="#000000" fill-rule="evenodd" fill-opacity="1" stroke="none"/>
<circle clip-path="url(#clip592)" cx="1127.99" cy="149.329" r="5.4" fill="#000000" fill-rule="evenodd" fill-opacity="1" stroke="none"/>
<circle clip-path="url(#clip592)" cx="1162.29" cy="141.231" r="5.4" fill="#000000" fill-rule="evenodd" fill-opacity="1" stroke="none"/>
<circle clip-path="url(#clip592)" cx="1196.6" cy="145.421" r="5.4" fill="#000000" fill-rule="evenodd" fill-opacity="1" stroke="none"/>
<circle clip-path="url(#clip592)" cx="1230.9" cy="161.672" r="5.4" fill="#000000" fill-rule="evenodd" fill-opacity="1" stroke="none"/>
<circle clip-path="url(#clip592)" cx="1265.21" cy="189.075" r="5.4" fill="#000000" fill-rule="evenodd" fill-opacity="1" stroke="none"/>
<circle clip-path="url(#clip592)" cx="1299.51" cy="225.953" r="5.4" fill="#000000" fill-rule="evenodd" fill-opacity="1" stroke="none"/>
<circle clip-path="url(#clip592)" cx="1333.82" cy="269.596" r="5.4" fill="#000000" fill-rule="evenodd" fill-opacity="1" stroke="none"/>
<circle clip-path="url(#clip592)" cx="1368.12" cy="315.46" r="5.4" fill="#000000" fill-rule="evenodd" fill-opacity="1" stroke="none"/>
<circle clip-path="url(#clip592)" cx="1402.43" cy="354.88" r="5.4" fill="#000000" fill-rule="evenodd" fill-opacity="1" stroke="none"/>
<circle clip-path="url(#clip592)" cx="1436.74" cy="371.912" r="5.4" fill="#000000" fill-rule="evenodd" fill-opacity="1" stroke="none"/>
</svg>
