<?xml version="1.0" encoding="utf-8"?>
<svg xmlns="http://www.w3.org/2000/svg" xmlns:xlink="http://www.w3.org/1999/xlink" width="360" height="240" viewBox="0 0 1440 960">
<defs>
  <clipPath id="clip620">
    <rect x="0" y="0" width="1440" height="960"/>
  </clipPath>
</defs>
<path clip-path="url(#clip620)" d="M0 960 L1440 960 L1440 0 L0 0  Z" fill="#ffffff" fill-rule="evenodd" fill-opacity="1"/>
<defs>
  <clipPath id="clip621">
    <rect x="288" y="0" width="1009" height="960"/>
  </clipPath>
</defs>
<path clip-path="url(#clip620)" d="M232.535 852.848 L1392.76 852.848 L1392.76 123.472 L232.535 123.472  Z" fill="#d3d3d3" fill-rule="evenodd" fill-opacity="1"/>
<defs>
  <clipPath id="clip622">
    <rect x="232" y="123" width="1161" height="730"/>
  </clipPath>
</defs>
<polyline clip-path="url(#clip622)" style="stroke:#000000; stroke-linecap:round; stroke-linejoin:round; stroke-width:2; stroke-opacity:0.1; fill:none" points="265.371,852.848 265.371,123.472 "/>
<polyline clip-path="url(#clip622)" style="stroke:#000000; stroke-linecap:round; stroke-linejoin:round; stroke-width:2; stroke-opacity:0.1; fill:none" points="513.331,852.848 513.331,123.472 "/>
<polyline clip-path="url(#clip622)" style="stroke:#000000; stroke-linecap:round; stroke-linejoin:round; stroke-width:2; stroke-opacity:0.1; fill:none" points="863.999,852.848 863.999,123.472 "/>
<polyline clip-path="url(#clip622)" style="stroke:#000000; stroke-linecap:round; stroke-linejoin:round; stroke-width:2; stroke-opacity:0.1; fill:none" points="1111.96,852.848 1111.96,123.472 "/>
<polyline clip-path="url(#clip622)" style="stroke:#000000; stroke-linecap:round; stroke-linejoin:round; stroke-width:2; stroke-opacity:0.1; fill:none" points="1359.92,852.848 1359.92,123.472 "/>
<polyline clip-path="url(#clip622)" style="stroke:#000000; stroke-linecap:round; stroke-linejoin:round; stroke-width:2; stroke-opacity:0.1; fill:none" points="232.535,800.928 1392.76,800.928 "/>
<polyline clip-path="url(#clip622)" style="stroke:#000000; stroke-linecap:round; stroke-linejoin:round; stroke-width:2; stroke-opacity:0.1; fill:none" points="232.535,644.544 1392.76,644.544 "/>
<polyline clip-path="url(#clip622)" style="stroke:#000000; stroke-linecap:round; stroke-linejoin:round; stroke-width:2; stroke-opacity:0.1; fill:none" points="232.535,488.16 1392.76,488.16 "/>
<polyline clip-path="url(#clip622)" style="stroke:#000000; stroke-linecap:round; stroke-linejoin:round; stroke-width:2; stroke-opacity:0.1; fill:none" points="232.535,331.776 1392.76,331.776 "/>
<polyline clip-path="url(#clip622)" style="stroke:#000000; stroke-linecap:round; stroke-linejoin:round; stroke-width:2; stroke-opacity:0.1; fill:none" points="232.535,175.392 1392.76,175.392 "/>
<polyline clip-path="url(#clip620)" style="stroke:#000000; stroke-linecap:round; stroke-linejoin:round; stroke-width:4; stroke-opacity:1; fill:none" points="232.535,852.848 1392.76,852.848 "/>
<polyline clip-path="url(#clip620)" style="stroke:#000000; stroke-linecap:round; stroke-linejoin:round; stroke-width:4; stroke-opacity:1; fill:none" points="265.371,852.848 265.371,833.95 "/>
<polyline clip-path="url(#clip620)" style="stroke:#000000; stroke-linecap:round; stroke-linejoin:round; stroke-width:4; stroke-opacity:1; fill:none" points="513.331,852.848 513.331,833.95 "/>
<polyline clip-path="url(#clip620)" style="stroke:#000000; stroke-linecap:round; stroke-linejoin:round; stroke-width:4; stroke-opacity:1; fill:none" points="863.999,852.848 863.999,833.95 "/>
<polyline clip-path="url(#clip620)" style="stroke:#000000; stroke-linecap:round; stroke-linejoin:round; stroke-width:4; stroke-opacity:1; fill:none" points="1111.96,852.848 1111.96,833.95 "/>
<polyline clip-path="url(#clip620)" style="stroke:#000000; stroke-linecap:round; stroke-linejoin:round; stroke-width:4; stroke-opacity:1; fill:none" points="1359.92,852.848 1359.92,833.95 "/>
<path clip-path="url(#clip620)" d="M250.799 873.008 L255.823 873.008 L265.406 887.221 L274.92 873.008 L279.943 873.008 L267.721 891.11 L267.721 907.568 L263.022 907.568 L263.022 891.11 L250.799 873.008 Z" fill="#000000" fill-rule="nonzero" fill-opacity="1" /><path clip-path="url(#clip620)" d="M498.483 906.446 L498.483 904.97 L499.186 904.97 Q501.739 904.97 502.536 904.619 Q503.355 904.244 503.426 902.885 L503.426 877.285 Q503.379 876.043 502.582 875.669 Q501.786 875.27 499.186 875.27 L498.483 875.27 L498.483 873.818 Q500.732 873.912 505.229 873.912 Q507.056 873.912 508.625 873.865 Q510.218 873.818 510.476 873.818 L523.522 873.818 L524.857 884.616 L523.616 884.616 Q523.241 881.688 522.819 880.166 Q522.421 878.62 521.437 877.378 Q520.454 876.137 518.814 875.715 Q517.175 875.27 514.411 875.27 L510.312 875.27 Q508.766 875.27 508.227 875.575 Q507.688 875.879 507.688 877.144 L507.688 902.745 Q507.688 904.221 508.672 904.595 Q509.656 904.97 512.959 904.97 L513.825 904.97 L513.825 906.446 Q509.75 906.305 505.627 906.305 L505.323 906.305 Q502.325 906.305 498.483 906.446 Z" fill="#000000" fill-rule="nonzero" fill-opacity="1" /><path clip-path="url(#clip620)" d="M848.189 873.008 L855.157 873.008 L863.976 896.526 L872.842 873.008 L879.81 873.008 L879.81 907.568 L875.249 907.568 L875.249 877.221 L866.337 900.924 L861.638 900.924 L852.726 877.221 L852.726 907.568 L848.189 907.568 L848.189 873.008 Z" fill="#000000" fill-rule="nonzero" fill-opacity="1" /><path clip-path="url(#clip620)" d="M1098.74 873.008 L1103.77 873.008 L1112.35 885.855 L1120.99 873.008 L1126.01 873.008 L1114.9 889.605 L1126.75 907.568 L1121.73 907.568 L1112.01 892.869 L1102.21 907.568 L1097.17 907.568 L1109.51 889.119 L1098.74 873.008 Z" fill="#000000" fill-rule="nonzero" fill-opacity="1" /><path clip-path="url(#clip620)" d="M1345.07 906.446 L1345.07 904.97 L1345.77 904.97 Q1348.33 904.97 1349.12 904.619 Q1349.94 904.244 1350.01 902.885 L1350.01 877.285 Q1349.97 876.043 1349.17 875.669 Q1348.37 875.27 1345.77 875.27 L1345.07 875.27 L1345.07 873.818 Q1347.32 873.912 1351.82 873.912 Q1353.64 873.912 1355.21 873.865 Q1356.81 873.818 1357.06 873.818 L1370.11 873.818 L1371.45 884.616 L1370.2 884.616 Q1369.83 881.688 1369.41 880.166 Q1369.01 878.62 1368.03 877.378 Q1367.04 876.137 1365.4 875.715 Q1363.76 875.27 1361 875.27 L1356.9 875.27 Q1355.35 875.27 1354.82 875.575 Q1354.28 875.879 1354.28 877.144 L1354.28 902.745 Q1354.28 904.221 1355.26 904.595 Q1356.24 904.97 1359.55 904.97 L1360.41 904.97 L1360.41 906.446 Q1356.34 906.305 1352.22 906.305 L1351.91 906.305 Q1348.91 906.305 1345.07 906.446 Z" fill="#000000" fill-rule="nonzero" fill-opacity="1" /><polyline clip-path="url(#clip620)" style="stroke:#000000; stroke-linecap:round; stroke-linejoin:round; stroke-width:4; stroke-opacity:1; fill:none" points="232.535,852.848 232.535,123.472 "/>
<polyline clip-path="url(#clip620)" style="stroke:#000000; stroke-linecap:round; stroke-linejoin:round; stroke-width:4; stroke-opacity:1; fill:none" points="232.535,800.928 251.432,800.928 "/>
<polyline clip-path="url(#clip620)" style="stroke:#000000; stroke-linecap:round; stroke-linejoin:round; stroke-width:4; stroke-opacity:1; fill:none" points="232.535,644.544 251.432,644.544 "/>
<polyline clip-path="url(#clip620)" style="stroke:#000000; stroke-linecap:round; stroke-linejoin:round; stroke-width:4; stroke-opacity:1; fill:none" points="232.535,488.16 251.432,488.16 "/>
<polyline clip-path="url(#clip620)" style="stroke:#000000; stroke-linecap:round; stroke-linejoin:round; stroke-width:4; stroke-opacity:1; fill:none" points="232.535,331.776 251.432,331.776 "/>
<polyline clip-path="url(#clip620)" style="stroke:#000000; stroke-linecap:round; stroke-linejoin:round; stroke-width:4; stroke-opacity:1; fill:none" points="232.535,175.392 251.432,175.392 "/>
<path clip-path="url(#clip620)" d="M119.06 801.38 L148.736 801.38 L148.736 805.315 L119.06 805.315 L119.06 801.38 Z" fill="#000000" fill-rule="nonzero" fill-opacity="1" /><path clip-path="url(#clip620)" d="M159.639 814.273 L167.277 814.273 L167.277 787.908 L158.967 789.574 L158.967 785.315 L167.231 783.648 L171.907 783.648 L171.907 814.273 L179.546 814.273 L179.546 818.208 L159.639 818.208 L159.639 814.273 Z" fill="#000000" fill-rule="nonzero" fill-opacity="1" /><path clip-path="url(#clip620)" d="M198.99 786.727 Q195.379 786.727 193.55 790.292 Q191.745 793.834 191.745 800.963 Q191.745 808.07 193.55 811.634 Q195.379 815.176 198.99 815.176 Q202.625 815.176 204.43 811.634 Q206.259 808.07 206.259 800.963 Q206.259 793.834 204.43 790.292 Q202.625 786.727 198.99 786.727 M198.99 783.023 Q204.8 783.023 207.856 787.63 Q210.935 792.213 210.935 800.963 Q210.935 809.69 207.856 814.296 Q204.8 818.88 198.99 818.88 Q193.18 818.88 190.101 814.296 Q187.046 809.69 187.046 800.963 Q187.046 792.213 190.101 787.63 Q193.18 783.023 198.99 783.023 Z" fill="#000000" fill-rule="nonzero" fill-opacity="1" /><path clip-path="url(#clip620)" d="M150.217 644.996 L179.893 644.996 L179.893 648.931 L150.217 648.931 L150.217 644.996 Z" fill="#000000" fill-rule="nonzero" fill-opacity="1" /><path clip-path="url(#clip620)" d="M190.032 627.264 L208.388 627.264 L208.388 631.199 L194.314 631.199 L194.314 639.672 Q195.333 639.324 196.351 639.162 Q197.37 638.977 198.388 638.977 Q204.175 638.977 207.555 642.148 Q210.935 645.32 210.935 650.736 Q210.935 656.315 207.462 659.417 Q203.99 662.495 197.671 662.495 Q195.495 662.495 193.226 662.125 Q190.981 661.755 188.574 661.014 L188.574 656.315 Q190.657 657.449 192.879 658.005 Q195.101 658.56 197.578 658.56 Q201.583 658.56 203.921 656.454 Q206.259 654.347 206.259 650.736 Q206.259 647.125 203.921 645.019 Q201.583 642.912 197.578 642.912 Q195.703 642.912 193.828 643.329 Q191.976 643.746 190.032 644.625 L190.032 627.264 Z" fill="#000000" fill-rule="nonzero" fill-opacity="1" /><path clip-path="url(#clip620)" d="M198.99 473.959 Q195.379 473.959 193.55 477.523 Q191.745 481.065 191.745 488.195 Q191.745 495.301 193.55 498.866 Q195.379 502.408 198.99 502.408 Q202.625 502.408 204.43 498.866 Q206.259 495.301 206.259 488.195 Q206.259 481.065 204.43 477.523 Q202.625 473.959 198.99 473.959 M198.99 470.255 Q204.8 470.255 207.856 474.861 Q210.935 479.445 210.935 488.195 Q210.935 496.922 207.856 501.528 Q204.8 506.111 198.99 506.111 Q193.18 506.111 190.101 501.528 Q187.046 496.922 187.046 488.195 Q187.046 479.445 190.101 474.861 Q193.18 470.255 198.99 470.255 Z" fill="#000000" fill-rule="nonzero" fill-opacity="1" /><path clip-path="url(#clip620)" d="M190.032 314.496 L208.388 314.496 L208.388 318.431 L194.314 318.431 L194.314 326.903 Q195.333 326.556 196.351 326.394 Q197.37 326.209 198.388 326.209 Q204.175 326.209 207.555 329.38 Q210.935 332.551 210.935 337.968 Q210.935 343.547 207.462 346.648 Q203.99 349.727 197.671 349.727 Q195.495 349.727 193.226 349.357 Q190.981 348.986 188.574 348.246 L188.574 343.547 Q190.657 344.681 192.879 345.236 Q195.101 345.792 197.578 345.792 Q201.583 345.792 203.921 343.685 Q206.259 341.579 206.259 337.968 Q206.259 334.357 203.921 332.25 Q201.583 330.144 197.578 330.144 Q195.703 330.144 193.828 330.561 Q191.976 330.977 190.032 331.857 L190.032 314.496 Z" fill="#000000" fill-rule="nonzero" fill-opacity="1" /><path clip-path="url(#clip620)" d="M159.639 188.736 L167.277 188.736 L167.277 162.371 L158.967 164.038 L158.967 159.778 L167.231 158.112 L171.907 158.112 L171.907 188.736 L179.546 188.736 L179.546 192.672 L159.639 192.672 L159.639 188.736 Z" fill="#000000" fill-rule="nonzero" fill-opacity="1" /><path clip-path="url(#clip620)" d="M198.99 161.19 Q195.379 161.19 193.55 164.755 Q191.745 168.297 191.745 175.426 Q191.745 182.533 193.55 186.098 Q195.379 189.639 198.99 189.639 Q202.625 189.639 204.43 186.098 Q206.259 182.533 206.259 175.426 Q206.259 168.297 204.43 164.755 Q202.625 161.19 198.99 161.19 M198.99 157.487 Q204.8 157.487 207.856 162.093 Q210.935 166.676 210.935 175.426 Q210.935 184.153 207.856 188.76 Q204.8 193.343 198.99 193.343 Q193.18 193.343 190.101 188.76 Q187.046 184.153 187.046 175.426 Q187.046 166.676 190.101 162.093 Q193.18 157.487 198.99 157.487 Z" fill="#000000" fill-rule="nonzero" fill-opacity="1" /><path clip-path="url(#clip620)" d="M35.6842 598.096 L35.6842 568.05 L41.095 568.05 L41.095 591.666 L55.1632 591.666 L55.1632 569.036 L60.5741 569.036 L60.5741 591.666 L77.7933 591.666 L77.7933 567.477 L83.2042 567.477 L83.2042 598.096 L35.6842 598.096 Z" fill="#000000" fill-rule="nonzero" fill-opacity="1" /><path clip-path="url(#clip620)" d="M61.6881 527.532 L83.2042 527.532 L83.2042 533.388 L61.879 533.388 Q56.8183 533.388 54.3038 535.362 Q51.7894 537.335 51.7894 541.282 Q51.7894 546.024 54.8131 548.762 Q57.8368 551.499 63.0567 551.499 L83.2042 551.499 L83.2042 557.387 L47.5562 557.387 L47.5562 551.499 L53.0944 551.499 Q49.8797 549.398 48.2883 546.565 Q46.6968 543.701 46.6968 539.977 Q46.6968 533.834 50.5163 530.683 Q54.3038 527.532 61.6881 527.532 Z" fill="#000000" fill-rule="nonzero" fill-opacity="1" /><path clip-path="url(#clip620)" d="M63.9161 485.359 L66.7806 485.359 L66.7806 512.286 Q72.8281 511.904 76.0109 508.658 Q79.1619 505.379 79.1619 499.555 Q79.1619 496.181 78.3344 493.03 Q77.5069 489.847 75.8518 486.728 L81.3899 486.728 Q82.7267 489.879 83.427 493.189 Q84.1272 496.499 84.1272 499.905 Q84.1272 508.435 79.1619 513.432 Q74.1967 518.397 65.7303 518.397 Q56.9774 518.397 51.8531 513.686 Q46.6968 508.944 46.6968 500.923 Q46.6968 493.73 51.3438 489.56 Q55.9589 485.359 63.9161 485.359 M62.1973 491.216 Q57.3912 491.279 54.5266 493.921 Q51.6621 496.531 51.6621 500.86 Q51.6621 505.761 54.4312 508.721 Q57.2002 511.649 62.2292 512.095 L62.1973 491.216 Z" fill="#000000" fill-rule="nonzero" fill-opacity="1" /><path clip-path="url(#clip620)" d="M53.0307 455.09 Q52.4578 456.077 52.2032 457.254 Q51.9167 458.4 51.9167 459.801 Q51.9167 464.766 55.1632 467.44 Q58.3779 470.081 64.4253 470.081 L83.2042 470.081 L83.2042 475.97 L47.5562 475.97 L47.5562 470.081 L53.0944 470.081 Q49.8479 468.235 48.2883 465.275 Q46.6968 462.315 46.6968 458.082 Q46.6968 457.477 46.7923 456.745 Q46.856 456.013 47.0151 455.122 L53.0307 455.09 Z" fill="#000000" fill-rule="nonzero" fill-opacity="1" /><path clip-path="url(#clip620)" d="M64.9664 426.635 Q58.6007 426.635 55.0996 429.277 Q51.5984 431.887 51.5984 436.63 Q51.5984 441.34 55.0996 443.982 Q58.6007 446.592 64.9664 446.592 Q71.3003 446.592 74.8014 443.982 Q78.3026 441.34 78.3026 436.63 Q78.3026 431.887 74.8014 429.277 Q71.3003 426.635 64.9664 426.635 M78.78 420.779 Q87.883 420.779 92.3071 424.821 Q96.7631 428.863 96.7631 437.203 Q96.7631 440.29 96.2857 443.027 Q95.8401 445.764 94.8852 448.343 L89.1879 448.343 Q90.5884 445.764 91.2568 443.25 Q91.9252 440.735 91.9252 438.126 Q91.9252 432.365 88.9015 429.5 Q85.9096 426.635 79.8303 426.635 L76.9339 426.635 Q80.085 428.45 81.6446 431.282 Q83.2042 434.115 83.2042 438.062 Q83.2042 444.619 78.2071 448.629 Q73.21 452.639 64.9664 452.639 Q56.691 452.639 51.6939 448.629 Q46.6968 444.619 46.6968 438.062 Q46.6968 434.115 48.2564 431.282 Q49.816 428.45 52.9671 426.635 L47.5562 426.635 L47.5562 420.779 L78.78 420.779 Z" fill="#000000" fill-rule="nonzero" fill-opacity="1" /><path clip-path="url(#clip620)" d="M86.5143 393.884 Q92.88 396.367 94.8216 398.722 Q96.7631 401.077 96.7631 405.024 L96.7631 409.703 L91.8615 409.703 L91.8615 406.265 Q91.8615 403.846 90.7157 402.509 Q89.5699 401.173 85.3048 399.549 L82.6312 398.499 L47.5562 412.917 L47.5562 406.711 L75.438 395.571 L47.5562 384.431 L47.5562 378.224 L86.5143 393.884 Z" fill="#000000" fill-rule="nonzero" fill-opacity="1" /><path clip-path="url(#clip620)" d="M388.374 14.0809 L388.374 22.0612 Q383.715 19.8332 379.583 18.7395 Q375.451 17.6457 371.603 17.6457 Q364.919 17.6457 361.273 20.2383 Q357.668 22.8309 357.668 27.611 Q357.668 31.6214 360.058 33.6873 Q362.489 35.7128 369.213 36.9686 L374.155 37.9813 Q383.31 39.7232 387.645 44.1387 Q392.02 48.5136 392.02 55.8863 Q392.02 64.6767 386.105 69.2137 Q380.232 73.7508 368.848 73.7508 Q364.555 73.7508 359.693 72.7785 Q354.873 71.8063 349.688 69.9024 L349.688 61.4765 Q354.67 64.2716 359.45 65.6895 Q364.23 67.1073 368.848 67.1073 Q375.857 67.1073 379.664 64.3527 Q383.472 61.598 383.472 56.4939 Q383.472 52.0379 380.718 49.5264 Q378.004 47.0148 371.765 45.759 L366.783 44.7868 Q357.627 42.9639 353.536 39.075 Q349.445 35.1862 349.445 28.2591 Q349.445 20.2383 355.075 15.6203 Q360.747 11.0023 370.671 11.0023 Q374.925 11.0023 379.34 11.7719 Q383.756 12.5416 388.374 14.0809 Z" fill="#000000" fill-rule="nonzero" fill-opacity="1" /><path clip-path="url(#clip620)" d="M411.829 14.324 L411.829 27.2059 L427.181 27.2059 L427.181 32.9987 L411.829 32.9987 L411.829 57.6282 Q411.829 63.1779 413.327 64.7578 Q414.867 66.3376 419.525 66.3376 L427.181 66.3376 L427.181 72.576 L419.525 72.576 Q410.897 72.576 407.616 69.3758 Q404.334 66.1351 404.334 57.6282 L404.334 32.9987 L398.866 32.9987 L398.866 27.2059 L404.334 27.2059 L404.334 14.324 L411.829 14.324 Z" fill="#000000" fill-rule="nonzero" fill-opacity="1" /><path clip-path="url(#clip620)" d="M457.604 49.7694 Q448.57 49.7694 445.086 51.8354 Q441.603 53.9013 441.603 58.8839 Q441.603 62.8538 444.195 65.2034 Q446.828 67.5124 451.325 67.5124 Q457.523 67.5124 461.25 63.1374 Q465.017 58.7219 465.017 51.4303 L465.017 49.7694 L457.604 49.7694 M472.471 46.6907 L472.471 72.576 L465.017 72.576 L465.017 65.6895 Q462.465 69.8214 458.657 71.8063 Q454.849 73.7508 449.34 73.7508 Q442.372 73.7508 438.24 69.8619 Q434.149 65.9325 434.149 59.3701 Q434.149 51.7138 439.253 47.825 Q444.398 43.9361 454.566 43.9361 L465.017 43.9361 L465.017 43.2069 Q465.017 38.0623 461.614 35.2672 Q458.252 32.4315 452.135 32.4315 Q448.246 32.4315 444.56 33.3632 Q440.874 34.295 437.471 36.1584 L437.471 29.2718 Q441.562 27.692 445.411 26.9223 Q449.259 26.1121 452.905 26.1121 Q462.748 26.1121 467.61 31.2163 Q472.471 36.3204 472.471 46.6907 Z" fill="#000000" fill-rule="nonzero" fill-opacity="1" /><path clip-path="url(#clip620)" d="M495.196 14.324 L495.196 27.2059 L510.549 27.2059 L510.549 32.9987 L495.196 32.9987 L495.196 57.6282 Q495.196 63.1779 496.695 64.7578 Q498.234 66.3376 502.893 66.3376 L510.549 66.3376 L510.549 72.576 L502.893 72.576 Q494.264 72.576 490.983 69.3758 Q487.702 66.1351 487.702 57.6282 L487.702 32.9987 L482.233 32.9987 L482.233 27.2059 L487.702 27.2059 L487.702 14.324 L495.196 14.324 Z" fill="#000000" fill-rule="nonzero" fill-opacity="1" /><path clip-path="url(#clip620)" d="M520.352 27.2059 L527.806 27.2059 L527.806 72.576 L520.352 72.576 L520.352 27.2059 M520.352 9.54393 L527.806 9.54393 L527.806 18.9825 L520.352 18.9825 L520.352 9.54393 Z" fill="#000000" fill-rule="nonzero" fill-opacity="1" /><path clip-path="url(#clip620)" d="M576.052 28.9478 L576.052 35.9153 Q572.893 34.1734 569.692 33.3227 Q566.533 32.4315 563.292 32.4315 Q556.041 32.4315 552.03 37.0496 Q548.02 41.6271 548.02 49.9314 Q548.02 58.2358 552.03 62.8538 Q556.041 67.4314 563.292 67.4314 Q566.533 67.4314 569.692 66.5807 Q572.893 65.6895 576.052 63.9476 L576.052 70.8341 Q572.933 72.2924 569.571 73.0216 Q566.249 73.7508 562.482 73.7508 Q552.233 73.7508 546.197 67.3098 Q540.161 60.8689 540.161 49.9314 Q540.161 38.832 546.238 32.472 Q552.354 26.1121 562.968 26.1121 Q566.411 26.1121 569.692 26.8413 Q572.974 27.5299 576.052 28.9478 Z" fill="#000000" fill-rule="nonzero" fill-opacity="1" /><path clip-path="url(#clip620)" d="M622.759 14.324 L622.759 27.2059 L638.112 27.2059 L638.112 32.9987 L622.759 32.9987 L622.759 57.6282 Q622.759 63.1779 624.258 64.7578 Q625.797 66.3376 630.456 66.3376 L638.112 66.3376 L638.112 72.576 L630.456 72.576 Q621.827 72.576 618.546 69.3758 Q615.265 66.1351 615.265 57.6282 L615.265 32.9987 L609.796 32.9987 L609.796 27.2059 L615.265 27.2059 L615.265 14.324 L622.759 14.324 Z" fill="#000000" fill-rule="nonzero" fill-opacity="1" /><path clip-path="url(#clip620)" d="M643.581 27.2059 L651.034 27.2059 L660.352 62.6108 L669.628 27.2059 L678.419 27.2059 L687.736 62.6108 L697.012 27.2059 L704.466 27.2059 L692.597 72.576 L683.806 72.576 L674.044 35.3887 L664.24 72.576 L655.45 72.576 L643.581 27.2059 Z" fill="#000000" fill-rule="nonzero" fill-opacity="1" /><path clip-path="url(#clip620)" d="M733.349 32.4315 Q727.353 32.4315 723.87 37.1306 Q720.386 41.7891 720.386 49.9314 Q720.386 58.0738 723.829 62.7728 Q727.313 67.4314 733.349 67.4314 Q739.304 67.4314 742.787 62.7323 Q746.271 58.0333 746.271 49.9314 Q746.271 41.8701 742.787 37.1711 Q739.304 32.4315 733.349 32.4315 M733.349 26.1121 Q743.071 26.1121 748.621 32.4315 Q754.17 38.7509 754.17 49.9314 Q754.17 61.0714 748.621 67.4314 Q743.071 73.7508 733.349 73.7508 Q723.586 73.7508 718.036 67.4314 Q712.527 61.0714 712.527 49.9314 Q712.527 38.7509 718.036 32.4315 Q723.586 26.1121 733.349 26.1121 Z" fill="#000000" fill-rule="nonzero" fill-opacity="1" /><path clip-path="url(#clip620)" d="M764.298 46.5287 L786.132 46.5287 L786.132 53.1722 L764.298 53.1722 L764.298 46.5287 Z" fill="#000000" fill-rule="nonzero" fill-opacity="1" /><path clip-path="url(#clip620)" d="M830.571 49.9314 Q830.571 41.7081 827.168 37.0496 Q823.806 32.3505 817.891 32.3505 Q811.977 32.3505 808.574 37.0496 Q805.212 41.7081 805.212 49.9314 Q805.212 58.1548 808.574 62.8538 Q811.977 67.5124 817.891 67.5124 Q823.806 67.5124 827.168 62.8538 Q830.571 58.1548 830.571 49.9314 M805.212 34.0924 Q807.561 30.0415 811.126 28.0971 Q814.732 26.1121 819.714 26.1121 Q827.978 26.1121 833.123 32.6746 Q838.308 39.2371 838.308 49.9314 Q838.308 60.6258 833.123 67.1883 Q827.978 73.7508 819.714 73.7508 Q814.732 73.7508 811.126 71.8063 Q807.561 69.8214 805.212 65.7705 L805.212 72.576 L797.718 72.576 L797.718 9.54393 L805.212 9.54393 L805.212 34.0924 Z" fill="#000000" fill-rule="nonzero" fill-opacity="1" /><path clip-path="url(#clip620)" d="M871.282 49.7694 Q862.249 49.7694 858.765 51.8354 Q855.281 53.9013 855.281 58.8839 Q855.281 62.8538 857.874 65.2034 Q860.507 67.5124 865.003 67.5124 Q871.201 67.5124 874.928 63.1374 Q878.695 58.7219 878.695 51.4303 L878.695 49.7694 L871.282 49.7694 M886.149 46.6907 L886.149 72.576 L878.695 72.576 L878.695 65.6895 Q876.143 69.8214 872.335 71.8063 Q868.528 73.7508 863.018 73.7508 Q856.051 73.7508 851.919 69.8619 Q847.827 65.9325 847.827 59.3701 Q847.827 51.7138 852.932 47.825 Q858.076 43.9361 868.244 43.9361 L878.695 43.9361 L878.695 43.2069 Q878.695 38.0623 875.293 35.2672 Q871.93 32.4315 865.813 32.4315 Q861.925 32.4315 858.238 33.3632 Q854.552 34.295 851.149 36.1584 L851.149 29.2718 Q855.241 27.692 859.089 26.9223 Q862.937 26.1121 866.583 26.1121 Q876.427 26.1121 881.288 31.2163 Q886.149 36.3204 886.149 46.6907 Z" fill="#000000" fill-rule="nonzero" fill-opacity="1" /><path clip-path="url(#clip620)" d="M939.216 45.1919 L939.216 72.576 L931.762 72.576 L931.762 45.4349 Q931.762 38.994 929.251 35.7938 Q926.739 32.5936 921.716 32.5936 Q915.68 32.5936 912.196 36.4419 Q908.712 40.2903 908.712 46.9338 L908.712 72.576 L901.218 72.576 L901.218 27.2059 L908.712 27.2059 L908.712 34.2544 Q911.386 30.163 914.991 28.1376 Q918.637 26.1121 923.377 26.1121 Q931.195 26.1121 935.205 30.9732 Q939.216 35.7938 939.216 45.1919 Z" fill="#000000" fill-rule="nonzero" fill-opacity="1" /><path clip-path="url(#clip620)" d="M983.938 34.0924 L983.938 9.54393 L991.391 9.54393 L991.391 72.576 L983.938 72.576 L983.938 65.7705 Q981.588 69.8214 977.983 71.8063 Q974.418 73.7508 969.395 73.7508 Q961.172 73.7508 955.987 67.1883 Q950.842 60.6258 950.842 49.9314 Q950.842 39.2371 955.987 32.6746 Q961.172 26.1121 969.395 26.1121 Q974.418 26.1121 977.983 28.0971 Q981.588 30.0415 983.938 34.0924 M958.539 49.9314 Q958.539 58.1548 961.901 62.8538 Q965.304 67.5124 971.218 67.5124 Q977.132 67.5124 980.535 62.8538 Q983.938 58.1548 983.938 49.9314 Q983.938 41.7081 980.535 37.0496 Q977.132 32.3505 971.218 32.3505 Q965.304 32.3505 961.901 37.0496 Q958.539 41.7081 958.539 49.9314 Z" fill="#000000" fill-rule="nonzero" fill-opacity="1" /><path clip-path="url(#clip620)" d="M1068.44 35.9153 Q1071.23 30.8922 1075.12 28.5022 Q1079.01 26.1121 1084.28 26.1121 Q1091.37 26.1121 1095.22 31.0947 Q1099.06 36.0368 1099.06 45.1919 L1099.06 72.576 L1091.57 72.576 L1091.57 45.4349 Q1091.57 38.913 1089.26 35.7533 Q1086.95 32.5936 1082.21 32.5936 Q1076.42 32.5936 1073.06 36.4419 Q1069.7 40.2903 1069.7 46.9338 L1069.7 72.576 L1062.2 72.576 L1062.2 45.4349 Q1062.2 38.8725 1059.89 35.7533 Q1057.58 32.5936 1052.76 32.5936 Q1047.05 32.5936 1043.69 36.4824 Q1040.33 40.3308 1040.33 46.9338 L1040.33 72.576 L1032.83 72.576 L1032.83 27.2059 L1040.33 27.2059 L1040.33 34.2544 Q1042.88 30.082 1046.44 28.0971 Q1050.01 26.1121 1054.91 26.1121 Q1059.85 26.1121 1063.29 28.6237 Q1066.78 31.1352 1068.44 35.9153 Z" fill="#000000" fill-rule="nonzero" fill-opacity="1" /><path clip-path="url(#clip620)" d="M1131.51 32.4315 Q1125.52 32.4315 1122.03 37.1306 Q1118.55 41.7891 1118.55 49.9314 Q1118.55 58.0738 1121.99 62.7728 Q1125.48 67.4314 1131.51 67.4314 Q1137.47 67.4314 1140.95 62.7323 Q1144.43 58.0333 1144.43 49.9314 Q1144.43 41.8701 1140.95 37.1711 Q1137.47 32.4315 1131.51 32.4315 M1131.51 26.1121 Q1141.23 26.1121 1146.78 32.4315 Q1152.33 38.7509 1152.33 49.9314 Q1152.33 61.0714 1146.78 67.4314 Q1141.23 73.7508 1131.51 73.7508 Q1121.75 73.7508 1116.2 67.4314 Q1110.69 61.0714 1110.69 49.9314 Q1110.69 38.7509 1116.2 32.4315 Q1121.75 26.1121 1131.51 26.1121 Z" fill="#000000" fill-rule="nonzero" fill-opacity="1" /><path clip-path="url(#clip620)" d="M1194.54 34.0924 L1194.54 9.54393 L1202 9.54393 L1202 72.576 L1194.54 72.576 L1194.54 65.7705 Q1192.19 69.8214 1188.59 71.8063 Q1185.02 73.7508 1180 73.7508 Q1171.78 73.7508 1166.59 67.1883 Q1161.45 60.6258 1161.45 49.9314 Q1161.45 39.2371 1166.59 32.6746 Q1171.78 26.1121 1180 26.1121 Q1185.02 26.1121 1188.59 28.0971 Q1192.19 30.0415 1194.54 34.0924 M1169.15 49.9314 Q1169.15 58.1548 1172.51 62.8538 Q1175.91 67.5124 1181.82 67.5124 Q1187.74 67.5124 1191.14 62.8538 Q1194.54 58.1548 1194.54 49.9314 Q1194.54 41.7081 1191.14 37.0496 Q1187.74 32.3505 1181.82 32.3505 Q1175.91 32.3505 1172.51 37.0496 Q1169.15 41.7081 1169.15 49.9314 Z" fill="#000000" fill-rule="nonzero" fill-opacity="1" /><path clip-path="url(#clip620)" d="M1256.16 48.0275 L1256.16 51.6733 L1221.89 51.6733 Q1222.37 59.3701 1226.51 63.421 Q1230.68 67.4314 1238.09 67.4314 Q1242.39 67.4314 1246.4 66.3781 Q1250.45 65.3249 1254.42 63.2184 L1254.42 70.267 Q1250.41 71.9684 1246.19 72.8596 Q1241.98 73.7508 1237.65 73.7508 Q1226.79 73.7508 1220.43 67.4314 Q1214.11 61.1119 1214.11 50.3365 Q1214.11 39.1965 1220.11 32.6746 Q1226.14 26.1121 1236.35 26.1121 Q1245.5 26.1121 1250.81 32.0264 Q1256.16 37.9003 1256.16 48.0275 M1248.7 45.84 Q1248.62 39.7232 1245.26 36.0774 Q1241.94 32.4315 1236.43 32.4315 Q1230.19 32.4315 1226.42 35.9558 Q1222.7 39.4801 1222.13 45.8805 L1248.7 45.84 Z" fill="#000000" fill-rule="nonzero" fill-opacity="1" /><path clip-path="url(#clip620)" d="M1268.39 9.54393 L1275.85 9.54393 L1275.85 72.576 L1268.39 72.576 L1268.39 9.54393 Z" fill="#000000" fill-rule="nonzero" fill-opacity="1" /><circle clip-path="url(#clip622)" cx="265.371" cy="738.375" r="5.4" fill="#000000" fill-rule="evenodd" fill-opacity="1" stroke="none"/>
<circle clip-path="url(#clip622)" cx="274.569" cy="737.844" r="5.4" fill="#000000" fill-rule="evenodd" fill-opacity="1" stroke="none"/>
<circle clip-path="url(#clip622)" cx="283.767" cy="736.258" r="5.4" fill="#000000" fill-rule="evenodd" fill-opacity="1" stroke="none"/>
<circle clip-path="url(#clip622)" cx="292.965" cy="733.63" r="5.4" fill="#000000" fill-rule="evenodd" fill-opacity="1" stroke="none"/>
<circle clip-path="url(#clip622)" cx="302.163" cy="729.986" r="5.4" fill="#000000" fill-rule="evenodd" fill-opacity="1" stroke="none"/>
<circle clip-path="url(#clip622)" cx="311.361" cy="725.36" r="5.4" fill="#000000" fill-rule="evenodd" fill-opacity="1" stroke="none"/>
<circle clip-path="url(#clip622)" cx="320.558" cy="719.795" r="5.4" fill="#000000" fill-rule="evenodd" fill-opacity="1" stroke="none"/>
<circle clip-path="url(#clip622)" cx="329.756" cy="713.34" r="5.4" fill="#000000" fill-rule="evenodd" fill-opacity="1" stroke="none"/>
<circle clip-path="url(#clip622)" cx="338.954" cy="706.054" r="5.4" fill="#000000" fill-rule="evenodd" fill-opacity="1" stroke="none"/>
<circle clip-path="url(#clip622)" cx="348.152" cy="698" r="5.4" fill="#000000" fill-rule="evenodd" fill-opacity="1" stroke="none"/>
<circle clip-path="url(#clip622)" cx="357.35" cy="689.248" r="5.4" fill="#000000" fill-rule="evenodd" fill-opacity="1" stroke="none"/>
<circle clip-path="url(#clip622)" cx="366.548" cy="679.868" r="5.4" fill="#000000" fill-rule="evenodd" fill-opacity="1" stroke="none"/>
<circle clip-path="url(#clip622)" cx="375.746" cy="669.938" r="5.4" fill="#000000" fill-rule="evenodd" fill-opacity="1" stroke="none"/>
<circle clip-path="url(#clip622)" cx="384.944" cy="659.531" r="5.4" fill="#000000" fill-rule="evenodd" fill-opacity="1" stroke="none"/>
<circle clip-path="url(#clip622)" cx="394.142" cy="648.726" r="5.4" fill="#000000" fill-rule="evenodd" fill-opacity="1" stroke="none"/>
<circle clip-path="url(#clip622)" cx="403.339" cy="637.598" r="5.4" fill="#000000" fill-rule="evenodd" fill-opacity="1" stroke="none"/>
<circle clip-path="url(#clip622)" cx="412.537" cy="626.223" r="5.4" fill="#000000" fill-rule="evenodd" fill-opacity="1" stroke="none"/>
<circle clip-path="url(#clip622)" cx="421.735" cy="614.672" r="5.4" fill="#000000" fill-rule="evenodd" fill-opacity="1" stroke="none"/>
<circle clip-path="url(#clip622)" cx="430.933" cy="603.02" r="5.4" fill="#000000" fill-rule="evenodd" fill-opacity="1" stroke="none"/>
<circle clip-path="url(#clip622)" cx="440.131" cy="591.339" r="5.4" fill="#000000" fill-rule="evenodd" fill-opacity="1" stroke="none"/>
<circle clip-path="url(#clip622)" cx="449.329" cy="579.71" r="5.4" fill="#000000" fill-rule="evenodd" fill-opacity="1" stroke="none"/>
<circle clip-path="url(#clip622)" cx="458.527" cy="568.226" r="5.4" fill="#000000" fill-rule="evenodd" fill-opacity="1" stroke="none"/>
<circle clip-path="url(#clip622)" cx="467.725" cy="557.012" r="5.4" fill="#000000" fill-rule="evenodd" fill-opacity="1" stroke="none"/>
<circle clip-path="url(#clip622)" cx="476.922" cy="546.257" r="5.4" fill="#000000" fill-rule="evenodd" fill-opacity="1" stroke="none"/>
<circle clip-path="url(#clip622)" cx="486.12" cy="536.29" r="5.4" fill="#000000" fill-rule="evenodd" fill-opacity="1" stroke="none"/>
<circle clip-path="url(#clip622)" cx="495.318" cy="527.713" r="5.4" fill="#000000" fill-rule="evenodd" fill-opacity="1" stroke="none"/>
<circle clip-path="url(#clip622)" cx="504.516" cy="521.605" r="5.4" fill="#000000" fill-rule="evenodd" fill-opacity="1" stroke="none"/>
<circle clip-path="url(#clip622)" cx="513.714" cy="519.441" r="5.4" fill="#000000" fill-rule="evenodd" fill-opacity="1" stroke="none"/>
<circle clip-path="url(#clip622)" cx="522.912" cy="521.992" r="5.4" fill="#000000" fill-rule="evenodd" fill-opacity="1" stroke="none"/>
<circle clip-path="url(#clip622)" cx="532.11" cy="528.454" r="5.4" fill="#000000" fill-rule="evenodd" fill-opacity="1" stroke="none"/>
<circle clip-path="url(#clip622)" cx="541.308" cy="537.487" r="5.4" fill="#000000" fill-rule="evenodd" fill-opacity="1" stroke="none"/>
<circle clip-path="url(#clip622)" cx="550.506" cy="548.16" r="5.4" fill="#000000" fill-rule="evenodd" fill-opacity="1" stroke="none"/>
<circle clip-path="url(#clip622)" cx="559.703" cy="559.979" r="5.4" fill="#000000" fill-rule="evenodd" fill-opacity="1" stroke="none"/>
<circle clip-path="url(#clip622)" cx="568.901" cy="572.678" r="5.4" fill="#000000" fill-rule="evenodd" fill-opacity="1" stroke="none"/>
<circle clip-path="url(#clip622)" cx="578.099" cy="586.098" r="5.4" fill="#000000" fill-rule="evenodd" fill-opacity="1" stroke="none"/>
<circle clip-path="url(#clip622)" cx="587.297" cy="600.116" r="5.4" fill="#000000" fill-rule="evenodd" fill-opacity="1" stroke="none"/>
<circle clip-path="url(#clip622)" cx="596.495" cy="614.616" r="5.4" fill="#000000" fill-rule="evenodd" fill-opacity="1" stroke="none"/>
<circle clip-path="url(#clip622)" cx="605.693" cy="629.48" r="5.4" fill="#000000" fill-rule="evenodd" fill-opacity="1" stroke="none"/>
<circle clip-path="url(#clip622)" cx="614.891" cy="644.581" r="5.4" fill="#000000" fill-rule="evenodd" fill-opacity="1" stroke="none"/>
<circle clip-path="url(#clip622)" cx="624.089" cy="659.782" r="5.4" fill="#000000" fill-rule="evenodd" fill-opacity="1" stroke="none"/>
<circle clip-path="url(#clip622)" cx="633.287" cy="674.945" r="5.4" fill="#000000" fill-rule="evenodd" fill-opacity="1" stroke="none"/>
<circle clip-path="url(#clip622)" cx="642.484" cy="689.926" r="5.4" fill="#000000" fill-rule="evenodd" fill-opacity="1" stroke="none"/>
<circle clip-path="url(#clip622)" cx="651.682" cy="704.585" r="5.4" fill="#000000" fill-rule="evenodd" fill-opacity="1" stroke="none"/>
<circle clip-path="url(#clip622)" cx="660.88" cy="718.784" r="5.4" fill="#000000" fill-rule="evenodd" fill-opacity="1" stroke="none"/>
<circle clip-path="url(#clip622)" cx="670.078" cy="732.398" r="5.4" fill="#000000" fill-rule="evenodd" fill-opacity="1" stroke="none"/>
<circle clip-path="url(#clip622)" cx="679.276" cy="745.312" r="5.4" fill="#000000" fill-rule="evenodd" fill-opacity="1" stroke="none"/>
<circle clip-path="url(#clip622)" cx="688.474" cy="757.425" r="5.4" fill="#000000" fill-rule="evenodd" fill-opacity="1" stroke="none"/>
<circle clip-path="url(#clip622)" cx="697.672" cy="768.654" r="5.4" fill="#000000" fill-rule="evenodd" fill-opacity="1" stroke="none"/>
<circle clip-path="url(#clip622)" cx="706.87" cy="778.935" r="5.4" fill="#000000" fill-rule="evenodd" fill-opacity="1" stroke="none"/>
<circle clip-path="url(#clip622)" cx="716.067" cy="788.223" r="5.4" fill="#000000" fill-rule="evenodd" fill-opacity="1" stroke="none"/>
<circle clip-path="url(#clip622)" cx="725.265" cy="796.495" r="5.4" fill="#000000" fill-rule="evenodd" fill-opacity="1" stroke="none"/>
<circle clip-path="url(#clip622)" cx="734.463" cy="803.748" r="5.4" fill="#000000" fill-rule="evenodd" fill-opacity="1" stroke="none"/>
<circle clip-path="url(#clip622)" cx="743.661" cy="809.999" r="5.4" fill="#000000" fill-rule="evenodd" fill-opacity="1" stroke="none"/>
<circle clip-path="url(#clip622)" cx="752.859" cy="815.284" r="5.4" fill="#000000" fill-rule="evenodd" fill-opacity="1" stroke="none"/>
<circle clip-path="url(#clip622)" cx="762.057" cy="819.658" r="5.4" fill="#000000" fill-rule="evenodd" fill-opacity="1" stroke="none"/>
<circle clip-path="url(#clip622)" cx="771.255" cy="823.19" r="5.4" fill="#000000" fill-rule="evenodd" fill-opacity="1" stroke="none"/>
<circle clip-path="url(#clip622)" cx="780.453" cy="825.962" r="5.4" fill="#000000" fill-rule="evenodd" fill-opacity="1" stroke="none"/>
<circle clip-path="url(#clip622)" cx="789.651" cy="828.067" r="5.4" fill="#000000" fill-rule="evenodd" fill-opacity="1" stroke="none"/>
<circle clip-path="url(#clip622)" cx="798.848" cy="829.603" r="5.4" fill="#000000" fill-rule="evenodd" fill-opacity="1" stroke="none"/>
<circle clip-path="url(#clip622)" cx="808.046" cy="830.671" r="5.4" fill="#000000" fill-rule="evenodd" fill-opacity="1" stroke="none"/>
<circle clip-path="url(#clip622)" cx="817.244" cy="831.372" r="5.4" fill="#000000" fill-rule="evenodd" fill-opacity="1" stroke="none"/>
<circle clip-path="url(#clip622)" cx="826.442" cy="831.798" r="5.4" fill="#000000" fill-rule="evenodd" fill-opacity="1" stroke="none"/>
<circle clip-path="url(#clip622)" cx="835.64" cy="832.032" r="5.4" fill="#000000" fill-rule="evenodd" fill-opacity="1" stroke="none"/>
<circle clip-path="url(#clip622)" cx="844.838" cy="832.146" r="5.4" fill="#000000" fill-rule="evenodd" fill-opacity="1" stroke="none"/>
<circle clip-path="url(#clip622)" cx="854.036" cy="832.193" r="5.4" fill="#000000" fill-rule="evenodd" fill-opacity="1" stroke="none"/>
<circle clip-path="url(#clip622)" cx="863.234" cy="832.205" r="5.4" fill="#000000" fill-rule="evenodd" fill-opacity="1" stroke="none"/>
<circle clip-path="url(#clip622)" cx="872.432" cy="832.196" r="5.4" fill="#000000" fill-rule="evenodd" fill-opacity="1" stroke="none"/>
<circle clip-path="url(#clip622)" cx="881.629" cy="832.158" r="5.4" fill="#000000" fill-rule="evenodd" fill-opacity="1" stroke="none"/>
<circle clip-path="url(#clip622)" cx="890.827" cy="832.06" r="5.4" fill="#000000" fill-rule="evenodd" fill-opacity="1" stroke="none"/>
<circle clip-path="url(#clip622)" cx="900.025" cy="831.855" r="5.4" fill="#000000" fill-rule="evenodd" fill-opacity="1" stroke="none"/>
<circle clip-path="url(#clip622)" cx="909.223" cy="831.479" r="5.4" fill="#000000" fill-rule="evenodd" fill-opacity="1" stroke="none"/>
<circle clip-path="url(#clip622)" cx="918.421" cy="830.858" r="5.4" fill="#000000" fill-rule="evenodd" fill-opacity="1" stroke="none"/>
<circle clip-path="url(#clip622)" cx="927.619" cy="829.91" r="5.4" fill="#000000" fill-rule="evenodd" fill-opacity="1" stroke="none"/>
<circle clip-path="url(#clip622)" cx="936.817" cy="828.554" r="5.4" fill="#000000" fill-rule="evenodd" fill-opacity="1" stroke="none"/>
<circle clip-path="url(#clip622)" cx="946.015" cy="826.709" r="5.4" fill="#000000" fill-rule="evenodd" fill-opacity="1" stroke="none"/>
<circle clip-path="url(#clip622)" cx="955.213" cy="824.307" r="5.4" fill="#000000" fill-rule="evenodd" fill-opacity="1" stroke="none"/>
<circle clip-path="url(#clip622)" cx="964.41" cy="821.291" r="5.4" fill="#000000" fill-rule="evenodd" fill-opacity="1" stroke="none"/>
<circle clip-path="url(#clip622)" cx="973.608" cy="817.622" r="5.4" fill="#000000" fill-rule="evenodd" fill-opacity="1" stroke="none"/>
<circle clip-path="url(#clip622)" cx="982.806" cy="813.285" r="5.4" fill="#000000" fill-rule="evenodd" fill-opacity="1" stroke="none"/>
<circle clip-path="url(#clip622)" cx="992.004" cy="808.288" r="5.4" fill="#000000" fill-rule="evenodd" fill-opacity="1" stroke="none"/>
<circle clip-path="url(#clip622)" cx="1001.2" cy="802.668" r="5.4" fill="#000000" fill-rule="evenodd" fill-opacity="1" stroke="none"/>
<circle clip-path="url(#clip622)" cx="1010.4" cy="796.491" r="5.4" fill="#000000" fill-rule="evenodd" fill-opacity="1" stroke="none"/>
<circle clip-path="url(#clip622)" cx="1019.6" cy="789.856" r="5.4" fill="#000000" fill-rule="evenodd" fill-opacity="1" stroke="none"/>
<circle clip-path="url(#clip622)" cx="1028.8" cy="782.892" r="5.4" fill="#000000" fill-rule="evenodd" fill-opacity="1" stroke="none"/>
<circle clip-path="url(#clip622)" cx="1037.99" cy="775.762" r="5.4" fill="#000000" fill-rule="evenodd" fill-opacity="1" stroke="none"/>
<circle clip-path="url(#clip622)" cx="1047.19" cy="768.655" r="5.4" fill="#000000" fill-rule="evenodd" fill-opacity="1" stroke="none"/>
<circle clip-path="url(#clip622)" cx="1056.39" cy="761.789" r="5.4" fill="#000000" fill-rule="evenodd" fill-opacity="1" stroke="none"/>
<circle clip-path="url(#clip622)" cx="1065.59" cy="755.396" r="5.4" fill="#000000" fill-rule="evenodd" fill-opacity="1" stroke="none"/>
<circle clip-path="url(#clip622)" cx="1074.79" cy="749.718" r="5.4" fill="#000000" fill-rule="evenodd" fill-opacity="1" stroke="none"/>
<circle clip-path="url(#clip622)" cx="1083.98" cy="744.989" r="5.4" fill="#000000" fill-rule="evenodd" fill-opacity="1" stroke="none"/>
<circle clip-path="url(#clip622)" cx="1093.18" cy="741.419" r="5.4" fill="#000000" fill-rule="evenodd" fill-opacity="1" stroke="none"/>
<circle clip-path="url(#clip622)" cx="1102.38" cy="739.177" r="5.4" fill="#000000" fill-rule="evenodd" fill-opacity="1" stroke="none"/>
<circle clip-path="url(#clip622)" cx="1111.58" cy="738.376" r="5.4" fill="#000000" fill-rule="evenodd" fill-opacity="1" stroke="none"/>
<circle clip-path="url(#clip622)" cx="1120.77" cy="737.887" r="5.4" fill="#000000" fill-rule="evenodd" fill-opacity="1" stroke="none"/>
<circle clip-path="url(#clip622)" cx="1129.97" cy="736.345" r="5.4" fill="#000000" fill-rule="evenodd" fill-opacity="1" stroke="none"/>
<circle clip-path="url(#clip622)" cx="1139.17" cy="733.76" r="5.4" fill="#000000" fill-rule="evenodd" fill-opacity="1" stroke="none"/>
<circle clip-path="url(#clip622)" cx="1148.37" cy="730.158" r="5.4" fill="#000000" fill-rule="evenodd" fill-opacity="1" stroke="none"/>
<circle clip-path="url(#clip622)" cx="1157.57" cy="725.572" r="5.4" fill="#000000" fill-rule="evenodd" fill-opacity="1" stroke="none"/>
<circle clip-path="url(#clip622)" cx="1166.76" cy="720.044" r="5.4" fill="#000000" fill-rule="evenodd" fill-opacity="1" stroke="none"/>
<circle clip-path="url(#clip622)" cx="1175.96" cy="713.626" r="5.4" fill="#000000" fill-rule="evenodd" fill-opacity="1" stroke="none"/>
<circle clip-path="url(#clip622)" cx="1185.16" cy="706.373" r="5.4" fill="#000000" fill-rule="evenodd" fill-opacity="1" stroke="none"/>
<circle clip-path="url(#clip622)" cx="1194.36" cy="698.35" r="5.4" fill="#000000" fill-rule="evenodd" fill-opacity="1" stroke="none"/>
<circle clip-path="url(#clip622)" cx="1203.56" cy="689.625" r="5.4" fill="#000000" fill-rule="evenodd" fill-opacity="1" stroke="none"/>
<circle clip-path="url(#clip622)" cx="1212.75" cy="680.27" r="5.4" fill="#000000" fill-rule="evenodd" fill-opacity="1" stroke="none"/>
<circle clip-path="url(#clip622)" cx="1221.95" cy="670.361" r="5.4" fill="#000000" fill-rule="evenodd" fill-opacity="1" stroke="none"/>
<circle clip-path="url(#clip622)" cx="1231.15" cy="659.973" r="5.4" fill="#000000" fill-rule="evenodd" fill-opacity="1" stroke="none"/>
<circle clip-path="url(#clip622)" cx="1240.35" cy="649.183" r="5.4" fill="#000000" fill-rule="evenodd" fill-opacity="1" stroke="none"/>
<circle clip-path="url(#clip622)" cx="1249.54" cy="638.067" r="5.4" fill="#000000" fill-rule="evenodd" fill-opacity="1" stroke="none"/>
<circle clip-path="url(#clip622)" cx="1258.74" cy="626.7" r="5.4" fill="#000000" fill-rule="evenodd" fill-opacity="1" stroke="none"/>
<circle clip-path="url(#clip622)" cx="1267.94" cy="615.156" r="5.4" fill="#000000" fill-rule="evenodd" fill-opacity="1" stroke="none"/>
<circle clip-path="url(#clip622)" cx="1277.14" cy="603.506" r="5.4" fill="#000000" fill-rule="evenodd" fill-opacity="1" stroke="none"/>
<circle clip-path="url(#clip622)" cx="1286.34" cy="591.825" r="5.4" fill="#000000" fill-rule="evenodd" fill-opacity="1" stroke="none"/>
<circle clip-path="url(#clip622)" cx="1295.53" cy="580.192" r="5.4" fill="#000000" fill-rule="evenodd" fill-opacity="1" stroke="none"/>
<circle clip-path="url(#clip622)" cx="1304.73" cy="568.7" r="5.4" fill="#000000" fill-rule="evenodd" fill-opacity="1" stroke="none"/>
<circle clip-path="url(#clip622)" cx="1313.93" cy="557.471" r="5.4" fill="#000000" fill-rule="evenodd" fill-opacity="1" stroke="none"/>
<circle clip-path="url(#clip622)" cx="1323.13" cy="546.692" r="5.4" fill="#000000" fill-rule="evenodd" fill-opacity="1" stroke="none"/>
<circle clip-path="url(#clip622)" cx="1332.33" cy="536.683" r="5.4" fill="#000000" fill-rule="evenodd" fill-opacity="1" stroke="none"/>
<circle clip-path="url(#clip622)" cx="1341.52" cy="528.03" r="5.4" fill="#000000" fill-rule="evenodd" fill-opacity="1" stroke="none"/>
<circle clip-path="url(#clip622)" cx="1350.72" cy="521.791" r="5.4" fill="#000000" fill-rule="evenodd" fill-opacity="1" stroke="none"/>
<circle clip-path="url(#clip622)" cx="1359.92" cy="519.437" r="5.4" fill="#000000" fill-rule="evenodd" fill-opacity="1" stroke="none"/>
<circle clip-path="url(#clip622)" cx="265.371" cy="237.945" r="5.4" fill="#000000" fill-rule="evenodd" fill-opacity="1" stroke="none"/>
<circle clip-path="url(#clip622)" cx="274.569" cy="238.476" r="5.4" fill="#000000" fill-rule="evenodd" fill-opacity="1" stroke="none"/>
<circle clip-path="url(#clip622)" cx="283.767" cy="240.062" r="5.4" fill="#000000" fill-rule="evenodd" fill-opacity="1" stroke="none"/>
<circle clip-path="url(#clip622)" cx="292.965" cy="242.69" r="5.4" fill="#000000" fill-rule="evenodd" fill-opacity="1" stroke="none"/>
<circle clip-path="url(#clip622)" cx="302.163" cy="246.334" r="5.4" fill="#000000" fill-rule="evenodd" fill-opacity="1" stroke="none"/>
<circle clip-path="url(#clip622)" cx="311.361" cy="250.96" r="5.4" fill="#000000" fill-rule="evenodd" fill-opacity="1" stroke="none"/>
<circle clip-path="url(#clip622)" cx="320.558" cy="256.525" r="5.4" fill="#000000" fill-rule="evenodd" fill-opacity="1" stroke="none"/>
<circle clip-path="url(#clip622)" cx="329.756" cy="262.98" r="5.4" fill="#000000" fill-rule="evenodd" fill-opacity="1" stroke="none"/>
<circle clip-path="url(#clip622)" cx="338.954" cy="270.266" r="5.4" fill="#000000" fill-rule="evenodd" fill-opacity="1" stroke="none"/>
<circle clip-path="url(#clip622)" cx="348.152" cy="278.32" r="5.4" fill="#000000" fill-rule="evenodd" fill-opacity="1" stroke="none"/>
<circle clip-path="url(#clip622)" cx="357.35" cy="287.072" r="5.4" fill="#000000" fill-rule="evenodd" fill-opacity="1" stroke="none"/>
<circle clip-path="url(#clip622)" cx="366.548" cy="296.452" r="5.4" fill="#000000" fill-rule="evenodd" fill-opacity="1" stroke="none"/>
<circle clip-path="url(#clip622)" cx="375.746" cy="306.382" r="5.4" fill="#000000" fill-rule="evenodd" fill-opacity="1" stroke="none"/>
<circle clip-path="url(#clip622)" cx="384.944" cy="316.789" r="5.4" fill="#000000" fill-rule="evenodd" fill-opacity="1" stroke="none"/>
<circle clip-path="url(#clip622)" cx="394.142" cy="327.594" r="5.4" fill="#000000" fill-rule="evenodd" fill-opacity="1" stroke="none"/>
<circle clip-path="url(#clip622)" cx="403.339" cy="338.722" r="5.4" fill="#000000" fill-rule="evenodd" fill-opacity="1" stroke="none"/>
<circle clip-path="url(#clip622)" cx="412.537" cy="350.097" r="5.4" fill="#000000" fill-rule="evenodd" fill-opacity="1" stroke="none"/>
<circle clip-path="url(#clip622)" cx="421.735" cy="361.648" r="5.4" fill="#000000" fill-rule="evenodd" fill-opacity="1" stroke="none"/>
<circle clip-path="url(#clip622)" cx="430.933" cy="373.3" r="5.4" fill="#000000" fill-rule="evenodd" fill-opacity="1" stroke="none"/>
<circle clip-path="url(#clip622)" cx="440.131" cy="384.981" r="5.4" fill="#000000" fill-rule="evenodd" fill-opacity="1" stroke="none"/>
<circle clip-path="url(#clip622)" cx="449.329" cy="396.61" r="5.4" fill="#000000" fill-rule="evenodd" fill-opacity="1" stroke="none"/>
<circle clip-path="url(#clip622)" cx="458.527" cy="408.094" r="5.4" fill="#000000" fill-rule="evenodd" fill-opacity="1" stroke="none"/>
<circle clip-path="url(#clip622)" cx="467.725" cy="419.308" r="5.4" fill="#000000" fill-rule="evenodd" fill-opacity="1" stroke="none"/>
<circle clip-path="url(#clip622)" cx="476.922" cy="430.063" r="5.4" fill="#000000" fill-rule="evenodd" fill-opacity="1" stroke="none"/>
<circle clip-path="url(#clip622)" cx="486.12" cy="440.03" r="5.4" fill="#000000" fill-rule="evenodd" fill-opacity="1" stroke="none"/>
<circle clip-path="url(#clip622)" cx="495.318" cy="448.607" r="5.4" fill="#000000" fill-rule="evenodd" fill-opacity="1" stroke="none"/>
<circle clip-path="url(#clip622)" cx="504.516" cy="454.715" r="5.4" fill="#000000" fill-rule="evenodd" fill-opacity="1" stroke="none"/>
<circle clip-path="url(#clip622)" cx="513.714" cy="456.879" r="5.4" fill="#000000" fill-rule="evenodd" fill-opacity="1" stroke="none"/>
<circle clip-path="url(#clip622)" cx="522.912" cy="454.328" r="5.4" fill="#000000" fill-rule="evenodd" fill-opacity="1" stroke="none"/>
<circle clip-path="url(#clip622)" cx="532.11" cy="447.866" r="5.4" fill="#000000" fill-rule="evenodd" fill-opacity="1" stroke="none"/>
<circle clip-path="url(#clip622)" cx="541.308" cy="438.833" r="5.4" fill="#000000" fill-rule="evenodd" fill-opacity="1" stroke="none"/>
<circle clip-path="url(#clip622)" cx="550.506" cy="428.16" r="5.4" fill="#000000" fill-rule="evenodd" fill-opacity="1" stroke="none"/>
<circle clip-path="url(#clip622)" cx="559.703" cy="416.341" r="5.4" fill="#000000" fill-rule="evenodd" fill-opacity="1" stroke="none"/>
<circle clip-path="url(#clip622)" cx="568.901" cy="403.642" r="5.4" fill="#000000" fill-rule="evenodd" fill-opacity="1" stroke="none"/>
<circle clip-path="url(#clip622)" cx="578.099" cy="390.222" r="5.4" fill="#000000" fill-rule="evenodd" fill-opacity="1" stroke="none"/>
<circle clip-path="url(#clip622)" cx="587.297" cy="376.204" r="5.4" fill="#000000" fill-rule="evenodd" fill-opacity="1" stroke="none"/>
<circle clip-path="url(#clip622)" cx="596.495" cy="361.704" r="5.4" fill="#000000" fill-rule="evenodd" fill-opacity="1" stroke="none"/>
<circle clip-path="url(#clip622)" cx="605.693" cy="346.84" r="5.4" fill="#000000" fill-rule="evenodd" fill-opacity="1" stroke="none"/>
<circle clip-path="url(#clip622)" cx="614.891" cy="331.739" r="5.4" fill="#000000" fill-rule="evenodd" fill-opacity="1" stroke="none"/>
<circle clip-path="url(#clip622)" cx="624.089" cy="316.538" r="5.4" fill="#000000" fill-rule="evenodd" fill-opacity="1" stroke="none"/>
<circle clip-path="url(#clip622)" cx="633.287" cy="301.375" r="5.4" fill="#000000" fill-rule="evenodd" fill-opacity="1" stroke="none"/>
<circle clip-path="url(#clip622)" cx="642.484" cy="286.394" r="5.4" fill="#000000" fill-rule="evenodd" fill-opacity="1" stroke="none"/>
<circle clip-path="url(#clip622)" cx="651.682" cy="271.735" r="5.4" fill="#000000" fill-rule="evenodd" fill-opacity="1" stroke="none"/>
<circle clip-path="url(#clip622)" cx="660.88" cy="257.536" r="5.4" fill="#000000" fill-rule="evenodd" fill-opacity="1" stroke="none"/>
<circle clip-path="url(#clip622)" cx="670.078" cy="243.922" r="5.4" fill="#000000" fill-rule="evenodd" fill-opacity="1" stroke="none"/>
<circle clip-path="url(#clip622)" cx="679.276" cy="231.008" r="5.4" fill="#000000" fill-rule="evenodd" fill-opacity="1" stroke="none"/>
<circle clip-path="url(#clip622)" cx="688.474" cy="218.895" r="5.4" fill="#000000" fill-rule="evenodd" fill-opacity="1" stroke="none"/>
<circle clip-path="url(#clip622)" cx="697.672" cy="207.666" r="5.4" fill="#000000" fill-rule="evenodd" fill-opacity="1" stroke="none"/>
<circle clip-path="url(#clip622)" cx="706.87" cy="197.385" r="5.4" fill="#000000" fill-rule="evenodd" fill-opacity="1" stroke="none"/>
<circle clip-path="url(#clip622)" cx="716.067" cy="188.097" r="5.4" fill="#000000" fill-rule="evenodd" fill-opacity="1" stroke="none"/>
<circle clip-path="url(#clip622)" cx="725.265" cy="179.825" r="5.4" fill="#000000" fill-rule="evenodd" fill-opacity="1" stroke="none"/>
<circle clip-path="url(#clip622)" cx="734.463" cy="172.572" r="5.4" fill="#000000" fill-rule="evenodd" fill-opacity="1" stroke="none"/>
<circle clip-path="url(#clip622)" cx="743.661" cy="166.321" r="5.4" fill="#000000" fill-rule="evenodd" fill-opacity="1" stroke="none"/>
<circle clip-path="url(#clip622)" cx="752.859" cy="161.036" r="5.4" fill="#000000" fill-rule="evenodd" fill-opacity="1" stroke="none"/>
<circle clip-path="url(#clip622)" cx="762.057" cy="156.662" r="5.4" fill="#000000" fill-rule="evenodd" fill-opacity="1" stroke="none"/>
<circle clip-path="url(#clip622)" cx="771.255" cy="153.13" r="5.4" fill="#000000" fill-rule="evenodd" fill-opacity="1" stroke="none"/>
<circle clip-path="url(#clip622)" cx="780.453" cy="150.358" r="5.4" fill="#000000" fill-rule="evenodd" fill-opacity="1" stroke="none"/>
<circle clip-path="url(#clip622)" cx="789.651" cy="148.253" r="5.4" fill="#000000" fill-rule="evenodd" fill-opacity="1" stroke="none"/>
<circle clip-path="url(#clip622)" cx="798.848" cy="146.717" r="5.4" fill="#000000" fill-rule="evenodd" fill-opacity="1" stroke="none"/>
<circle clip-path="url(#clip622)" cx="808.046" cy="145.649" r="5.4" fill="#000000" fill-rule="evenodd" fill-opacity="1" stroke="none"/>
<circle clip-path="url(#clip622)" cx="817.244" cy="144.948" r="5.4" fill="#000000" fill-rule="evenodd" fill-opacity="1" stroke="none"/>
<circle clip-path="url(#clip622)" cx="826.442" cy="144.522" r="5.4" fill="#000000" fill-rule="evenodd" fill-opacity="1" stroke="none"/>
<circle clip-path="url(#clip622)" cx="835.64" cy="144.288" r="5.4" fill="#000000" fill-rule="evenodd" fill-opacity="1" stroke="none"/>
<circle clip-path="url(#clip622)" cx="844.838" cy="144.174" r="5.4" fill="#000000" fill-rule="evenodd" fill-opacity="1" stroke="none"/>
<circle clip-path="url(#clip622)" cx="854.036" cy="144.127" r="5.4" fill="#000000" fill-rule="evenodd" fill-opacity="1" stroke="none"/>
<circle clip-path="url(#clip622)" cx="863.234" cy="144.115" r="5.4" fill="#000000" fill-rule="evenodd" fill-opacity="1" stroke="none"/>
<circle clip-path="url(#clip622)" cx="872.432" cy="144.124" r="5.4" fill="#000000" fill-rule="evenodd" fill-opacity="1" stroke="none"/>
<circle clip-path="url(#clip622)" cx="881.629" cy="144.162" r="5.4" fill="#000000" fill-rule="evenodd" fill-opacity="1" stroke="none"/>
<circle clip-path="url(#clip622)" cx="890.827" cy="144.26" r="5.4" fill="#000000" fill-rule="evenodd" fill-opacity="1" stroke="none"/>
<circle clip-path="url(#clip622)" cx="900.025" cy="144.465" r="5.4" fill="#000000" fill-rule="evenodd" fill-opacity="1" stroke="none"/>
<circle clip-path="url(#clip622)" cx="909.223" cy="144.841" r="5.4" fill="#000000" fill-rule="evenodd" fill-opacity="1" stroke="none"/>
<circle clip-path="url(#clip622)" cx="918.421" cy="145.462" r="5.4" fill="#000000" fill-rule="evenodd" fill-opacity="1" stroke="none"/>
<circle clip-path="url(#clip622)" cx="927.619" cy="146.41" r="5.4" fill="#000000" fill-rule="evenodd" fill-opacity="1" stroke="none"/>
<circle clip-path="url(#clip622)" cx="936.817" cy="147.766" r="5.4" fill="#000000" fill-rule="evenodd" fill-opacity="1" stroke="none"/>
<circle clip-path="url(#clip622)" cx="946.015" cy="149.611" r="5.4" fill="#000000" fill-rule="evenodd" fill-opacity="1" stroke="none"/>
<circle clip-path="url(#clip622)" cx="955.213" cy="152.013" r="5.4" fill="#000000" fill-rule="evenodd" fill-opacity="1" stroke="none"/>
<circle clip-path="url(#clip622)" cx="964.41" cy="155.029" r="5.4" fill="#000000" fill-rule="evenodd" fill-opacity="1" stroke="none"/>
<circle clip-path="url(#clip622)" cx="973.608" cy="158.698" r="5.4" fill="#000000" fill-rule="evenodd" fill-opacity="1" stroke="none"/>
<circle clip-path="url(#clip622)" cx="982.806" cy="163.035" r="5.4" fill="#000000" fill-rule="evenodd" fill-opacity="1" stroke="none"/>
<circle clip-path="url(#clip622)" cx="992.004" cy="168.032" r="5.4" fill="#000000" fill-rule="evenodd" fill-opacity="1" stroke="none"/>
<circle clip-path="url(#clip622)" cx="1001.2" cy="173.652" r="5.4" fill="#000000" fill-rule="evenodd" fill-opacity="1" stroke="none"/>
<circle clip-path="url(#clip622)" cx="1010.4" cy="179.829" r="5.4" fill="#000000" fill-rule="evenodd" fill-opacity="1" stroke="none"/>
<circle clip-path="url(#clip622)" cx="1019.6" cy="186.464" r="5.4" fill="#000000" fill-rule="evenodd" fill-opacity="1" stroke="none"/>
<circle clip-path="url(#clip622)" cx="1028.8" cy="193.428" r="5.4" fill="#000000" fill-rule="evenodd" fill-opacity="1" stroke="none"/>
<circle clip-path="url(#clip622)" cx="1037.99" cy="200.558" r="5.4" fill="#000000" fill-rule="evenodd" fill-opacity="1" stroke="none"/>
<circle clip-path="url(#clip622)" cx="1047.19" cy="207.665" r="5.4" fill="#000000" fill-rule="evenodd" fill-opacity="1" stroke="none"/>
<circle clip-path="url(#clip622)" cx="1056.39" cy="214.531" r="5.4" fill="#000000" fill-rule="evenodd" fill-opacity="1" stroke="none"/>
<circle clip-path="url(#clip622)" cx="1065.59" cy="220.924" r="5.4" fill="#000000" fill-rule="evenodd" fill-opacity="1" stroke="none"/>
<circle clip-path="url(#clip622)" cx="1074.79" cy="226.602" r="5.4" fill="#000000" fill-rule="evenodd" fill-opacity="1" stroke="none"/>
<circle clip-path="url(#clip622)" cx="1083.98" cy="231.331" r="5.4" fill="#000000" fill-rule="evenodd" fill-opacity="1" stroke="none"/>
<circle clip-path="url(#clip622)" cx="1093.18" cy="234.901" r="5.4" fill="#000000" fill-rule="evenodd" fill-opacity="1" stroke="none"/>
<circle clip-path="url(#clip622)" cx="1102.38" cy="237.143" r="5.4" fill="#000000" fill-rule="evenodd" fill-opacity="1" stroke="none"/>
<circle clip-path="url(#clip622)" cx="1111.58" cy="237.944" r="5.4" fill="#000000" fill-rule="evenodd" fill-opacity="1" stroke="none"/>
<circle clip-path="url(#clip622)" cx="1120.77" cy="238.433" r="5.4" fill="#000000" fill-rule="evenodd" fill-opacity="1" stroke="none"/>
<circle clip-path="url(#clip622)" cx="1129.97" cy="239.975" r="5.4" fill="#000000" fill-rule="evenodd" fill-opacity="1" stroke="none"/>
<circle clip-path="url(#clip622)" cx="1139.17" cy="242.56" r="5.4" fill="#000000" fill-rule="evenodd" fill-opacity="1" stroke="none"/>
<circle clip-path="url(#clip622)" cx="1148.37" cy="246.162" r="5.4" fill="#000000" fill-rule="evenodd" fill-opacity="1" stroke="none"/>
<circle clip-path="url(#clip622)" cx="1157.57" cy="250.748" r="5.4" fill="#000000" fill-rule="evenodd" fill-opacity="1" stroke="none"/>
<circle clip-path="url(#clip622)" cx="1166.76" cy="256.276" r="5.4" fill="#000000" fill-rule="evenodd" fill-opacity="1" stroke="none"/>
<circle clip-path="url(#clip622)" cx="1175.96" cy="262.694" r="5.4" fill="#000000" fill-rule="evenodd" fill-opacity="1" stroke="none"/>
<circle clip-path="url(#clip622)" cx="1185.16" cy="269.947" r="5.4" fill="#000000" fill-rule="evenodd" fill-opacity="1" stroke="none"/>
<circle clip-path="url(#clip622)" cx="1194.36" cy="277.97" r="5.4" fill="#000000" fill-rule="evenodd" fill-opacity="1" stroke="none"/>
<circle clip-path="url(#clip622)" cx="1203.56" cy="286.695" r="5.4" fill="#000000" fill-rule="evenodd" fill-opacity="1" stroke="none"/>
<circle clip-path="url(#clip622)" cx="1212.75" cy="296.05" r="5.4" fill="#000000" fill-rule="evenodd" fill-opacity="1" stroke="none"/>
<circle clip-path="url(#clip622)" cx="1221.95" cy="305.959" r="5.4" fill="#000000" fill-rule="evenodd" fill-opacity="1" stroke="none"/>
<circle clip-path="url(#clip622)" cx="1231.15" cy="316.347" r="5.4" fill="#000000" fill-rule="evenodd" fill-opacity="1" stroke="none"/>
<circle clip-path="url(#clip622)" cx="1240.35" cy="327.137" r="5.4" fill="#000000" fill-rule="evenodd" fill-opacity="1" stroke="none"/>
<circle clip-path="url(#clip622)" cx="1249.54" cy="338.253" r="5.4" fill="#000000" fill-rule="evenodd" fill-opacity="1" stroke="none"/>
<circle clip-path="url(#clip622)" cx="1258.74" cy="349.62" r="5.4" fill="#000000" fill-rule="evenodd" fill-opacity="1" stroke="none"/>
<circle clip-path="url(#clip622)" cx="1267.94" cy="361.164" r="5.4" fill="#000000" fill-rule="evenodd" fill-opacity="1" stroke="none"/>
<circle clip-path="url(#clip622)" cx="1277.14" cy="372.814" r="5.4" fill="#000000" fill-rule="evenodd" fill-opacity="1" stroke="none"/>
<circle clip-path="url(#clip622)" cx="1286.34" cy="384.495" r="5.4" fill="#000000" fill-rule="evenodd" fill-opacity="1" stroke="none"/>
<circle clip-path="url(#clip622)" cx="1295.53" cy="396.128" r="5.4" fill="#000000" fill-rule="evenodd" fill-opacity="1" stroke="none"/>
<circle clip-path="url(#clip622)" cx="1304.73" cy="407.62" r="5.4" fill="#000000" fill-rule="evenodd" fill-opacity="1" stroke="none"/>
<circle clip-path="url(#clip622)" cx="1313.93" cy="418.849" r="5.4" fill="#000000" fill-rule="evenodd" fill-opacity="1" stroke="none"/>
<circle clip-path="url(#clip622)" cx="1323.13" cy="429.628" r="5.4" fill="#000000" fill-rule="evenodd" fill-opacity="1" stroke="none"/>
<circle clip-path="url(#clip622)" cx="1332.33" cy="439.637" r="5.4" fill="#000000" fill-rule="evenodd" fill-opacity="1" stroke="none"/>
<circle clip-path="url(#clip622)" cx="1341.52" cy="448.29" r="5.4" fill="#000000" fill-rule="evenodd" fill-opacity="1" stroke="none"/>
<circle clip-path="url(#clip622)" cx="1350.72" cy="454.529" r="5.4" fill="#000000" fill-rule="evenodd" fill-opacity="1" stroke="none"/>
<circle clip-path="url(#clip622)" cx="1359.92" cy="456.883" r="5.4" fill="#000000" fill-rule="evenodd" fill-opacity="1" stroke="none"/>
</svg>
