<?xml version="1.0" encoding="utf-8"?>
<svg xmlns="http://www.w3.org/2000/svg" xmlns:xlink="http://www.w3.org/1999/xlink" width="380" height="240" viewBox="0 0 1520 960">
<defs>
  <clipPath id="clip000">
    <rect x="0" y="0" width="1520" height="960"/>
  </clipPath>
</defs>
<path clip-path="url(#clip000)" d="M0 960 L1520 960 L1520 0 L0 0  Z" fill="#ffffff" fill-rule="evenodd" fill-opacity="1"/>
<defs>
  <clipPath id="clip001">
    <rect x="304" y="0" width="1065" height="960"/>
  </clipPath>
</defs>
<path clip-path="url(#clip000)" d="M164.144 793.9 L1472.76 793.9 L1472.76 47.2441 L164.144 47.2441  Z" fill="#ffffff" fill-rule="evenodd" fill-opacity="1"/>
<defs>
  <clipPath id="clip002">
    <rect x="164" y="47" width="1310" height="748"/>
  </clipPath>
</defs>
<polyline clip-path="url(#clip002)" style="stroke:#000000; stroke-linecap:round; stroke-linejoin:round; stroke-width:2; stroke-opacity:0.1; fill:none" points="221.092,793.9 221.092,47.2441 "/>
<polyline clip-path="url(#clip002)" style="stroke:#000000; stroke-linecap:round; stroke-linejoin:round; stroke-width:2; stroke-opacity:0.1; fill:none" points="420.212,793.9 420.212,47.2441 "/>
<polyline clip-path="url(#clip002)" style="stroke:#000000; stroke-linecap:round; stroke-linejoin:round; stroke-width:2; stroke-opacity:0.1; fill:none" points="619.331,793.9 619.331,47.2441 "/>
<polyline clip-path="url(#clip002)" style="stroke:#000000; stroke-linecap:round; stroke-linejoin:round; stroke-width:2; stroke-opacity:0.1; fill:none" points="818.45,793.9 818.45,47.2441 "/>
<polyline clip-path="url(#clip002)" style="stroke:#000000; stroke-linecap:round; stroke-linejoin:round; stroke-width:2; stroke-opacity:0.1; fill:none" points="1017.57,793.9 1017.57,47.2441 "/>
<polyline clip-path="url(#clip002)" style="stroke:#000000; stroke-linecap:round; stroke-linejoin:round; stroke-width:2; stroke-opacity:0.1; fill:none" points="1216.69,793.9 1216.69,47.2441 "/>
<polyline clip-path="url(#clip002)" style="stroke:#000000; stroke-linecap:round; stroke-linejoin:round; stroke-width:2; stroke-opacity:0.1; fill:none" points="1415.81,793.9 1415.81,47.2441 "/>
<polyline clip-path="url(#clip002)" style="stroke:#000000; stroke-linecap:round; stroke-linejoin:round; stroke-width:2; stroke-opacity:0.1; fill:none" points="164.144,775.892 1472.76,775.892 "/>
<polyline clip-path="url(#clip002)" style="stroke:#000000; stroke-linecap:round; stroke-linejoin:round; stroke-width:2; stroke-opacity:0.1; fill:none" points="164.144,665.839 1472.76,665.839 "/>
<polyline clip-path="url(#clip002)" style="stroke:#000000; stroke-linecap:round; stroke-linejoin:round; stroke-width:2; stroke-opacity:0.1; fill:none" points="164.144,555.786 1472.76,555.786 "/>
<polyline clip-path="url(#clip002)" style="stroke:#000000; stroke-linecap:round; stroke-linejoin:round; stroke-width:2; stroke-opacity:0.1; fill:none" points="164.144,445.734 1472.76,445.734 "/>
<polyline clip-path="url(#clip002)" style="stroke:#000000; stroke-linecap:round; stroke-linejoin:round; stroke-width:2; stroke-opacity:0.1; fill:none" points="164.144,335.681 1472.76,335.681 "/>
<polyline clip-path="url(#clip002)" style="stroke:#000000; stroke-linecap:round; stroke-linejoin:round; stroke-width:2; stroke-opacity:0.1; fill:none" points="164.144,225.628 1472.76,225.628 "/>
<polyline clip-path="url(#clip002)" style="stroke:#000000; stroke-linecap:round; stroke-linejoin:round; stroke-width:2; stroke-opacity:0.1; fill:none" points="164.144,115.575 1472.76,115.575 "/>
<polyline clip-path="url(#clip000)" style="stroke:#000000; stroke-linecap:round; stroke-linejoin:round; stroke-width:4; stroke-opacity:1; fill:none" points="164.144,793.9 1472.76,793.9 "/>
<polyline clip-path="url(#clip000)" style="stroke:#000000; stroke-linecap:round; stroke-linejoin:round; stroke-width:4; stroke-opacity:1; fill:none" points="221.092,793.9 221.092,775.002 "/>
<polyline clip-path="url(#clip000)" style="stroke:#000000; stroke-linecap:round; stroke-linejoin:round; stroke-width:4; stroke-opacity:1; fill:none" points="420.212,793.9 420.212,775.002 "/>
<polyline clip-path="url(#clip000)" style="stroke:#000000; stroke-linecap:round; stroke-linejoin:round; stroke-width:4; stroke-opacity:1; fill:none" points="619.331,793.9 619.331,775.002 "/>
<polyline clip-path="url(#clip000)" style="stroke:#000000; stroke-linecap:round; stroke-linejoin:round; stroke-width:4; stroke-opacity:1; fill:none" points="818.45,793.9 818.45,775.002 "/>
<polyline clip-path="url(#clip000)" style="stroke:#000000; stroke-linecap:round; stroke-linejoin:round; stroke-width:4; stroke-opacity:1; fill:none" points="1017.57,793.9 1017.57,775.002 "/>
<polyline clip-path="url(#clip000)" style="stroke:#000000; stroke-linecap:round; stroke-linejoin:round; stroke-width:4; stroke-opacity:1; fill:none" points="1216.69,793.9 1216.69,775.002 "/>
<polyline clip-path="url(#clip000)" style="stroke:#000000; stroke-linecap:round; stroke-linejoin:round; stroke-width:4; stroke-opacity:1; fill:none" points="1415.81,793.9 1415.81,775.002 "/>
<path clip-path="url(#clip000)" d="M190.56 832.431 L220.236 832.431 L220.236 836.366 L190.56 836.366 L190.56 832.431 Z" fill="#000000" fill-rule="nonzero" fill-opacity="1" /><path clip-path="url(#clip000)" d="M244.495 830.626 Q247.851 831.343 249.726 833.612 Q251.625 835.88 251.625 839.214 Q251.625 844.329 248.106 847.13 Q244.588 849.931 238.106 849.931 Q235.93 849.931 233.615 849.491 Q231.324 849.075 228.87 848.218 L228.87 843.704 Q230.814 844.839 233.129 845.417 Q235.444 845.996 237.967 845.996 Q242.365 845.996 244.657 844.26 Q246.972 842.524 246.972 839.214 Q246.972 836.158 244.819 834.445 Q242.689 832.709 238.87 832.709 L234.842 832.709 L234.842 828.866 L239.055 828.866 Q242.504 828.866 244.333 827.501 Q246.162 826.112 246.162 823.519 Q246.162 820.857 244.263 819.445 Q242.388 818.01 238.87 818.01 Q236.949 818.01 234.75 818.427 Q232.551 818.843 229.912 819.723 L229.912 815.556 Q232.574 814.816 234.888 814.445 Q237.226 814.075 239.287 814.075 Q244.611 814.075 247.712 816.505 Q250.814 818.913 250.814 823.033 Q250.814 825.903 249.171 827.894 Q247.527 829.862 244.495 830.626 Z" fill="#000000" fill-rule="nonzero" fill-opacity="1" /><path clip-path="url(#clip000)" d="M390.154 832.431 L419.83 832.431 L419.83 836.366 L390.154 836.366 L390.154 832.431 Z" fill="#000000" fill-rule="nonzero" fill-opacity="1" /><path clip-path="url(#clip000)" d="M433.95 845.325 L450.269 845.325 L450.269 849.26 L428.325 849.26 L428.325 845.325 Q430.987 842.57 435.57 837.94 Q440.177 833.288 441.357 831.945 Q443.603 829.422 444.482 827.686 Q445.385 825.927 445.385 824.237 Q445.385 821.482 443.441 819.746 Q441.519 818.01 438.417 818.01 Q436.218 818.01 433.765 818.774 Q431.334 819.538 428.556 821.089 L428.556 816.367 Q431.38 815.232 433.834 814.654 Q436.288 814.075 438.325 814.075 Q443.695 814.075 446.89 816.76 Q450.084 819.445 450.084 823.936 Q450.084 826.066 449.274 827.987 Q448.487 829.885 446.38 832.478 Q445.802 833.149 442.7 836.366 Q439.598 839.561 433.95 845.325 Z" fill="#000000" fill-rule="nonzero" fill-opacity="1" /><path clip-path="url(#clip000)" d="M589.088 832.431 L618.764 832.431 L618.764 836.366 L589.088 836.366 L589.088 832.431 Z" fill="#000000" fill-rule="nonzero" fill-opacity="1" /><path clip-path="url(#clip000)" d="M629.666 845.325 L637.305 845.325 L637.305 818.959 L628.995 820.626 L628.995 816.367 L637.259 814.7 L641.935 814.7 L641.935 845.325 L649.574 845.325 L649.574 849.26 L629.666 849.26 L629.666 845.325 Z" fill="#000000" fill-rule="nonzero" fill-opacity="1" /><path clip-path="url(#clip000)" d="M818.45 817.779 Q814.839 817.779 813.01 821.343 Q811.205 824.885 811.205 832.015 Q811.205 839.121 813.01 842.686 Q814.839 846.227 818.45 846.227 Q822.084 846.227 823.89 842.686 Q825.719 839.121 825.719 832.015 Q825.719 824.885 823.89 821.343 Q822.084 817.779 818.45 817.779 M818.45 814.075 Q824.26 814.075 827.316 818.681 Q830.394 823.265 830.394 832.015 Q830.394 840.741 827.316 845.348 Q824.26 849.931 818.45 849.931 Q812.64 849.931 809.561 845.348 Q806.506 840.741 806.506 832.015 Q806.506 823.265 809.561 818.681 Q812.64 814.075 818.45 814.075 Z" fill="#000000" fill-rule="nonzero" fill-opacity="1" /><path clip-path="url(#clip000)" d="M1007.95 845.325 L1015.59 845.325 L1015.59 818.959 L1007.28 820.626 L1007.28 816.367 L1015.54 814.7 L1020.22 814.7 L1020.22 845.325 L1027.86 845.325 L1027.86 849.26 L1007.95 849.26 L1007.95 845.325 Z" fill="#000000" fill-rule="nonzero" fill-opacity="1" /><path clip-path="url(#clip000)" d="M1211.34 845.325 L1227.66 845.325 L1227.66 849.26 L1205.72 849.26 L1205.72 845.325 Q1208.38 842.57 1212.96 837.94 Q1217.57 833.288 1218.75 831.945 Q1220.99 829.422 1221.87 827.686 Q1222.78 825.927 1222.78 824.237 Q1222.78 821.482 1220.83 819.746 Q1218.91 818.01 1215.81 818.01 Q1213.61 818.01 1211.16 818.774 Q1208.73 819.538 1205.95 821.089 L1205.95 816.367 Q1208.77 815.232 1211.23 814.654 Q1213.68 814.075 1215.72 814.075 Q1221.09 814.075 1224.28 816.76 Q1227.48 819.445 1227.48 823.936 Q1227.48 826.066 1226.67 827.987 Q1225.88 829.885 1223.77 832.478 Q1223.19 833.149 1220.09 836.366 Q1216.99 839.561 1211.34 845.325 Z" fill="#000000" fill-rule="nonzero" fill-opacity="1" /><path clip-path="url(#clip000)" d="M1420.06 830.626 Q1423.41 831.343 1425.29 833.612 Q1427.19 835.88 1427.19 839.214 Q1427.19 844.329 1423.67 847.13 Q1420.15 849.931 1413.67 849.931 Q1411.49 849.931 1409.18 849.491 Q1406.88 849.075 1404.43 848.218 L1404.43 843.704 Q1406.37 844.839 1408.69 845.417 Q1411 845.996 1413.53 845.996 Q1417.93 845.996 1420.22 844.26 Q1422.53 842.524 1422.53 839.214 Q1422.53 836.158 1420.38 834.445 Q1418.25 832.709 1414.43 832.709 L1410.4 832.709 L1410.4 828.866 L1414.62 828.866 Q1418.06 828.866 1419.89 827.501 Q1421.72 826.112 1421.72 823.519 Q1421.72 820.857 1419.82 819.445 Q1417.95 818.01 1414.43 818.01 Q1412.51 818.01 1410.31 818.427 Q1408.11 818.843 1405.47 819.723 L1405.47 815.556 Q1408.13 814.816 1410.45 814.445 Q1412.79 814.075 1414.85 814.075 Q1420.17 814.075 1423.27 816.505 Q1426.37 818.913 1426.37 823.033 Q1426.37 825.903 1424.73 827.894 Q1423.09 829.862 1420.06 830.626 Z" fill="#000000" fill-rule="nonzero" fill-opacity="1" /><path clip-path="url(#clip000)" d="M663.843 878.044 L693.889 878.044 L693.889 883.455 L670.272 883.455 L670.272 897.523 L692.902 897.523 L692.902 902.934 L670.272 902.934 L670.272 920.153 L694.462 920.153 L694.462 925.564 L663.843 925.564 L663.843 878.044 Z" fill="#000000" fill-rule="nonzero" fill-opacity="1" /><path clip-path="url(#clip000)" d="M734.407 904.048 L734.407 925.564 L728.55 925.564 L728.55 904.239 Q728.55 899.178 726.577 896.664 Q724.604 894.149 720.657 894.149 Q715.914 894.149 713.177 897.173 Q710.44 900.197 710.44 905.416 L710.44 925.564 L704.552 925.564 L704.552 889.916 L710.44 889.916 L710.44 895.454 Q712.541 892.239 715.373 890.648 Q718.238 889.057 721.962 889.057 Q728.105 889.057 731.256 892.876 Q734.407 896.664 734.407 904.048 Z" fill="#000000" fill-rule="nonzero" fill-opacity="1" /><path clip-path="url(#clip000)" d="M776.58 906.276 L776.58 909.14 L749.653 909.14 Q750.035 915.188 753.281 918.371 Q756.559 921.522 762.384 921.522 Q765.758 921.522 768.909 920.694 Q772.092 919.867 775.211 918.211 L775.211 923.75 Q772.06 925.086 768.75 925.787 Q765.44 926.487 762.034 926.487 Q753.504 926.487 748.507 921.522 Q743.542 916.556 743.542 908.09 Q743.542 899.337 748.252 894.213 Q752.995 889.057 761.015 889.057 Q768.209 889.057 772.378 893.703 Q776.58 898.319 776.58 906.276 M770.723 904.557 Q770.659 899.751 768.018 896.886 Q765.408 894.022 761.079 894.022 Q756.178 894.022 753.217 896.791 Q750.289 899.56 749.844 904.589 L770.723 904.557 Z" fill="#000000" fill-rule="nonzero" fill-opacity="1" /><path clip-path="url(#clip000)" d="M806.849 895.39 Q805.862 894.817 804.684 894.563 Q803.538 894.276 802.138 894.276 Q797.173 894.276 794.499 897.523 Q791.857 900.738 791.857 906.785 L791.857 925.564 L785.969 925.564 L785.969 889.916 L791.857 889.916 L791.857 895.454 Q793.703 892.208 796.663 890.648 Q799.623 889.057 803.857 889.057 Q804.461 889.057 805.193 889.152 Q805.926 889.216 806.817 889.375 L806.849 895.39 Z" fill="#000000" fill-rule="nonzero" fill-opacity="1" /><path clip-path="url(#clip000)" d="M835.303 907.326 Q835.303 900.96 832.661 897.459 Q830.052 893.958 825.309 893.958 Q820.598 893.958 817.957 897.459 Q815.347 900.96 815.347 907.326 Q815.347 913.66 817.957 917.161 Q820.598 920.662 825.309 920.662 Q830.052 920.662 832.661 917.161 Q835.303 913.66 835.303 907.326 M841.16 921.14 Q841.16 930.243 837.117 934.667 Q833.075 939.123 824.736 939.123 Q821.649 939.123 818.912 938.645 Q816.174 938.2 813.596 937.245 L813.596 931.548 Q816.174 932.948 818.689 933.616 Q821.203 934.285 823.813 934.285 Q829.574 934.285 832.439 931.261 Q835.303 928.269 835.303 922.19 L835.303 919.294 Q833.489 922.445 830.656 924.004 Q827.824 925.564 823.877 925.564 Q817.32 925.564 813.31 920.567 Q809.299 915.57 809.299 907.326 Q809.299 899.051 813.31 894.054 Q817.32 889.057 823.877 889.057 Q827.824 889.057 830.656 890.616 Q833.489 892.176 835.303 895.327 L835.303 889.916 L841.16 889.916 L841.16 921.14 Z" fill="#000000" fill-rule="nonzero" fill-opacity="1" /><path clip-path="url(#clip000)" d="M868.055 928.874 Q865.572 935.24 863.217 937.181 Q860.862 939.123 856.915 939.123 L852.236 939.123 L852.236 934.221 L855.673 934.221 Q858.092 934.221 859.429 933.075 Q860.766 931.93 862.389 927.665 L863.44 924.991 L849.021 889.916 L855.228 889.916 L866.368 917.798 L877.508 889.916 L883.714 889.916 L868.055 928.874 Z" fill="#000000" fill-rule="nonzero" fill-opacity="1" /><path clip-path="url(#clip000)" d="M922.927 878.044 L928.338 878.044 L911.787 931.611 L906.376 931.611 L922.927 878.044 Z" fill="#000000" fill-rule="nonzero" fill-opacity="1" /><path clip-path="url(#clip000)" d="M960.994 879.794 L960.994 889.916 L973.057 889.916 L973.057 894.467 L960.994 894.467 L960.994 913.819 Q960.994 918.18 962.172 919.421 Q963.381 920.662 967.042 920.662 L973.057 920.662 L973.057 925.564 L967.042 925.564 Q960.262 925.564 957.684 923.049 Q955.106 920.503 955.106 913.819 L955.106 894.467 L950.809 894.467 L950.809 889.916 L955.106 889.916 L955.106 879.794 L960.994 879.794 Z" fill="#000000" fill-rule="nonzero" fill-opacity="1" /><polyline clip-path="url(#clip000)" style="stroke:#000000; stroke-linecap:round; stroke-linejoin:round; stroke-width:4; stroke-opacity:1; fill:none" points="164.144,793.9 164.144,47.2441 "/>
<polyline clip-path="url(#clip000)" style="stroke:#000000; stroke-linecap:round; stroke-linejoin:round; stroke-width:4; stroke-opacity:1; fill:none" points="164.144,775.892 183.042,775.892 "/>
<polyline clip-path="url(#clip000)" style="stroke:#000000; stroke-linecap:round; stroke-linejoin:round; stroke-width:4; stroke-opacity:1; fill:none" points="164.144,665.839 183.042,665.839 "/>
<polyline clip-path="url(#clip000)" style="stroke:#000000; stroke-linecap:round; stroke-linejoin:round; stroke-width:4; stroke-opacity:1; fill:none" points="164.144,555.786 183.042,555.786 "/>
<polyline clip-path="url(#clip000)" style="stroke:#000000; stroke-linecap:round; stroke-linejoin:round; stroke-width:4; stroke-opacity:1; fill:none" points="164.144,445.734 183.042,445.734 "/>
<polyline clip-path="url(#clip000)" style="stroke:#000000; stroke-linecap:round; stroke-linejoin:round; stroke-width:4; stroke-opacity:1; fill:none" points="164.144,335.681 183.042,335.681 "/>
<polyline clip-path="url(#clip000)" style="stroke:#000000; stroke-linecap:round; stroke-linejoin:round; stroke-width:4; stroke-opacity:1; fill:none" points="164.144,225.628 183.042,225.628 "/>
<polyline clip-path="url(#clip000)" style="stroke:#000000; stroke-linecap:round; stroke-linejoin:round; stroke-width:4; stroke-opacity:1; fill:none" points="164.144,115.575 183.042,115.575 "/>
<path clip-path="url(#clip000)" d="M129.4 761.691 Q125.789 761.691 123.96 765.255 Q122.154 768.797 122.154 775.927 Q122.154 783.033 123.96 786.598 Q125.789 790.14 129.4 790.14 Q133.034 790.14 134.84 786.598 Q136.668 783.033 136.668 775.927 Q136.668 768.797 134.84 765.255 Q133.034 761.691 129.4 761.691 M129.4 757.987 Q135.21 757.987 138.265 762.593 Q141.344 767.177 141.344 775.927 Q141.344 784.654 138.265 789.26 Q135.21 793.843 129.4 793.843 Q123.59 793.843 120.511 789.26 Q117.455 784.654 117.455 775.927 Q117.455 767.177 120.511 762.593 Q123.59 757.987 129.4 757.987 Z" fill="#000000" fill-rule="nonzero" fill-opacity="1" /><path clip-path="url(#clip000)" d="M121.437 679.184 L129.076 679.184 L129.076 652.818 L120.766 654.485 L120.766 650.226 L129.029 648.559 L133.705 648.559 L133.705 679.184 L141.344 679.184 L141.344 683.119 L121.437 683.119 L121.437 679.184 Z" fill="#000000" fill-rule="nonzero" fill-opacity="1" /><path clip-path="url(#clip000)" d="M125.025 569.131 L141.344 569.131 L141.344 573.066 L119.4 573.066 L119.4 569.131 Q122.062 566.377 126.645 561.747 Q131.252 557.094 132.432 555.752 Q134.678 553.229 135.557 551.493 Q136.46 549.733 136.46 548.043 Q136.46 545.289 134.515 543.553 Q132.594 541.817 129.492 541.817 Q127.293 541.817 124.84 542.581 Q122.409 543.344 119.631 544.895 L119.631 540.173 Q122.455 539.039 124.909 538.46 Q127.363 537.881 129.4 537.881 Q134.77 537.881 137.965 540.567 Q141.159 543.252 141.159 547.743 Q141.159 549.872 140.349 551.793 Q139.562 553.692 137.455 556.284 Q136.877 556.955 133.775 560.173 Q130.673 563.367 125.025 569.131 Z" fill="#000000" fill-rule="nonzero" fill-opacity="1" /><path clip-path="url(#clip000)" d="M134.215 444.38 Q137.571 445.097 139.446 447.366 Q141.344 449.634 141.344 452.967 Q141.344 458.083 137.826 460.884 Q134.307 463.685 127.826 463.685 Q125.65 463.685 123.335 463.245 Q121.043 462.829 118.59 461.972 L118.59 457.458 Q120.534 458.592 122.849 459.171 Q125.164 459.75 127.687 459.75 Q132.085 459.75 134.377 458.014 Q136.691 456.278 136.691 452.967 Q136.691 449.912 134.539 448.199 Q132.409 446.463 128.59 446.463 L124.562 446.463 L124.562 442.62 L128.775 442.62 Q132.224 442.62 134.053 441.255 Q135.881 439.866 135.881 437.273 Q135.881 434.611 133.983 433.199 Q132.108 431.764 128.59 431.764 Q126.668 431.764 124.469 432.181 Q122.27 432.597 119.631 433.477 L119.631 429.31 Q122.293 428.569 124.608 428.199 Q126.946 427.829 129.006 427.829 Q134.33 427.829 137.432 430.259 Q140.534 432.667 140.534 436.787 Q140.534 439.657 138.89 441.648 Q137.247 443.616 134.215 444.38 Z" fill="#000000" fill-rule="nonzero" fill-opacity="1" /><path clip-path="url(#clip000)" d="M131.761 322.475 L119.955 340.924 L131.761 340.924 L131.761 322.475 M130.534 318.401 L136.414 318.401 L136.414 340.924 L141.344 340.924 L141.344 344.813 L136.414 344.813 L136.414 352.961 L131.761 352.961 L131.761 344.813 L116.159 344.813 L116.159 340.299 L130.534 318.401 Z" fill="#000000" fill-rule="nonzero" fill-opacity="1" /><path clip-path="url(#clip000)" d="M120.441 208.348 L138.798 208.348 L138.798 212.283 L124.724 212.283 L124.724 220.756 Q125.742 220.408 126.761 220.246 Q127.779 220.061 128.798 220.061 Q134.585 220.061 137.965 223.232 Q141.344 226.404 141.344 231.82 Q141.344 237.399 137.872 240.501 Q134.4 243.58 128.08 243.58 Q125.904 243.58 123.636 243.209 Q121.391 242.839 118.983 242.098 L118.983 237.399 Q121.066 238.533 123.289 239.089 Q125.511 239.644 127.988 239.644 Q131.992 239.644 134.33 237.538 Q136.668 235.431 136.668 231.82 Q136.668 228.209 134.33 226.103 Q131.992 223.996 127.988 223.996 Q126.113 223.996 124.238 224.413 Q122.386 224.83 120.441 225.709 L120.441 208.348 Z" fill="#000000" fill-rule="nonzero" fill-opacity="1" /><path clip-path="url(#clip000)" d="M129.816 113.712 Q126.668 113.712 124.816 115.865 Q122.988 118.018 122.988 121.768 Q122.988 125.494 124.816 127.67 Q126.668 129.823 129.816 129.823 Q132.965 129.823 134.793 127.67 Q136.645 125.494 136.645 121.768 Q136.645 118.018 134.793 115.865 Q132.965 113.712 129.816 113.712 M139.099 99.0593 L139.099 103.319 Q137.34 102.485 135.534 102.045 Q133.752 101.606 131.992 101.606 Q127.363 101.606 124.909 104.731 Q122.479 107.856 122.131 114.175 Q123.497 112.161 125.557 111.096 Q127.617 110.008 130.094 110.008 Q135.303 110.008 138.312 113.18 Q141.344 116.328 141.344 121.768 Q141.344 127.092 138.196 130.309 Q135.048 133.527 129.816 133.527 Q123.821 133.527 120.65 128.943 Q117.479 124.337 117.479 115.61 Q117.479 107.416 121.367 102.555 Q125.256 97.6705 131.807 97.6705 Q133.566 97.6705 135.349 98.0177 Q137.154 98.3649 139.099 99.0593 Z" fill="#000000" fill-rule="nonzero" fill-opacity="1" /><path clip-path="url(#clip000)" d="M36.8666 480.569 L73.8196 480.569 L73.8196 472.803 Q73.8196 462.968 69.3636 458.416 Q64.9076 453.833 55.2954 453.833 Q45.7468 453.833 41.3226 458.416 Q36.8666 462.968 36.8666 472.803 L36.8666 480.569 M31.5831 486.998 L31.5831 473.789 Q31.5831 459.976 37.3441 453.515 Q43.0732 447.053 55.2954 447.053 Q67.5812 447.053 73.3421 453.546 Q79.1031 460.039 79.1031 473.789 L79.1031 486.998 L31.5831 486.998 Z" fill="#000000" fill-rule="nonzero" fill-opacity="1" /><path clip-path="url(#clip000)" d="M35.9436 417.516 Q35.9436 424.519 41.1635 428.656 Q46.3834 432.762 55.3908 432.762 Q64.3665 432.762 69.5864 428.656 Q74.8063 424.519 74.8063 417.516 Q74.8063 410.514 69.5864 406.44 Q64.3665 402.334 55.3908 402.334 Q46.3834 402.334 41.1635 406.44 Q35.9436 410.514 35.9436 417.516 M30.7237 417.516 Q30.7237 407.522 37.4396 401.539 Q44.1235 395.555 55.3908 395.555 Q66.6263 395.555 73.3421 401.539 Q80.0261 407.522 80.0261 417.516 Q80.0261 427.542 73.3421 433.558 Q66.6581 439.542 55.3908 439.542 Q44.1235 439.542 37.4396 433.558 Q30.7237 427.542 30.7237 417.516 Z" fill="#000000" fill-rule="nonzero" fill-opacity="1" /><path clip-path="url(#clip000)" d="M33.1427 357.01 L39.4129 357.01 Q37.6624 360.671 36.803 363.917 Q35.9436 367.164 35.9436 370.187 Q35.9436 375.439 37.9806 378.304 Q40.0177 381.136 43.7734 381.136 Q46.9245 381.136 48.5477 379.259 Q50.1391 377.349 51.1258 372.065 L51.9215 368.182 Q53.2902 360.989 56.7595 357.583 Q60.197 354.146 65.9897 354.146 Q72.8965 354.146 76.4613 358.793 Q80.0261 363.408 80.0261 372.352 Q80.0261 375.726 79.2622 379.545 Q78.4984 383.333 77.0024 387.407 L70.3821 387.407 Q72.5783 383.492 73.6923 379.736 Q74.8063 375.98 74.8063 372.352 Q74.8063 366.845 72.6419 363.854 Q70.4776 360.862 66.4672 360.862 Q62.966 360.862 60.9927 363.026 Q59.0193 365.158 58.0326 370.06 L57.2687 373.975 Q55.8364 381.168 52.7809 384.383 Q49.7254 387.598 44.2827 387.598 Q37.9806 387.598 34.3522 383.173 Q30.7237 378.717 30.7237 370.919 Q30.7237 367.577 31.3285 364.108 Q31.9332 360.639 33.1427 357.01 Z" fill="#000000" fill-rule="nonzero" fill-opacity="1" /><polyline clip-path="url(#clip002)" style="stroke:#009af9; stroke-linecap:round; stroke-linejoin:round; stroke-width:8; stroke-opacity:1; fill:none" points="201.18,772.733 203.654,772.291 206.128,771.703 208.602,770.884 211.076,769.66 213.55,767.636 216.024,763.652 218.499,752.414 220.973,679.893 223.447,607.917 225.921,596.436 228.395,592.109 230.869,589.717 233.343,588.113 235.817,586.905 238.291,585.923 240.765,585.081 243.239,584.332 245.713,583.647 248.187,583.008 250.661,582.402 253.135,581.82 255.609,581.259 258.083,580.715 260.557,580.181 263.031,579.647 265.505,579.137 267.979,578.614 270.453,578.101 272.927,577.605 275.401,577.103 277.875,576.595 280.349,576.088 282.823,575.587 285.297,575.09 287.771,574.591 290.245,574.07 292.719,573.528 295.193,573.028 297.667,572.566 300.141,572.003 302.615,571.484 305.089,571.019 307.563,570.413 310.038,569.988 312.512,569.351 314.986,568.934 317.46,568.295 319.934,567.821 322.408,567.295 324.882,566.641 327.356,566.224 329.83,565.649 332.304,564.966 334.778,564.492 337.252,564.028 339.726,563.374 342.2,562.681 344.674,562.123 347.148,561.657 349.622,561.148 352.096,560.536 354.57,559.855 357.044,559.158 359.518,558.482 361.992,557.847 364.466,557.234 366.94,556.626 369.414,556.021 371.888,555.395 374.362,554.762 376.836,554.1 379.31,553.429 381.784,552.728 384.258,552.022 386.732,551.295 389.206,550.586 391.68,549.889 394.154,549.24 396.628,548.638 399.102,548.049 401.577,547.442 404.051,546.727 406.525,545.867 408.999,544.917 411.473,543.985 413.947,543.219 416.421,542.664 418.895,542.115 421.369,541.303 423.843,540.211 426.317,539.142 428.791,538.423 431.265,537.93 433.739,537.153 436.213,535.94 438.687,534.799 441.161,534.192 443.635,533.63 446.109,532.459 448.583,531.104 451.057,530.399 453.531,529.867 456.005,528.573 458.479,527.147 460.953,526.554 463.427,525.821 465.901,524.22 468.375,523.06 470.849,522.588 473.323,521.207 475.797,519.574 478.271,519.025 480.745,517.931 483.219,516.046 485.693,515.282 488.167,514.322 490.641,512.287 493.116,511.384 495.59,510.433 498.064,508.26 500.538,507.316 503.012,506.192 505.486,503.893 507.96,503.05 510.434,501.574 512.908,499.218 515.382,498.479 517.856,496.454 520.33,494.301 522.804,493.463 525.278,490.799 527.752,489.153 530.226,487.742 532.7,484.724 535.174,483.6 537.648,481.112 540.122,478.445 542.596,477.16 545.07,473.669 547.544,471.875 550.018,469.346 552.492,465.843 554.966,464.247 557.44,460.176 559.914,457.697 562.388,454.635 564.862,450.296 567.336,448.057 569.81,442.974 572.284,439.753 574.758,435.466 577.232,430.072 579.706,426.609 582.18,419.782 584.654,415.401 587.129,408.707 589.603,401.595 592.077,395.483 594.551,385.456 597.025,378.262 599.499,366.436 601.973,355.075 604.447,341.814 606.921,323.221 609.395,305.307 611.869,275.272 614.343,239.643 616.817,176.456 619.291,69.1826 621.765,179.618 624.239,248.668 626.713,293.388 629.187,327.916 631.661,351.398 634.135,375.412 636.609,392.148 639.083,409.303 641.557,424.085 644.031,436.214 646.505,449.857 648.979,459.441 651.453,471.025 653.927,480.288 656.401,489.162 658.875,498.742 661.349,505.718 663.823,514.705 666.297,521.468 668.771,528.733 671.245,536.153 673.719,541.827 676.193,549.209 678.668,554.685 681.142,560.835 683.616,567.037 686.09,571.877 688.564,578.188 691.038,582.97 693.512,588.176 695.986,593.727 698.46,597.949 700.934,603.385 703.408,607.929 705.882,612.267 708.356,617.428 710.83,621.276 713.304,625.936 715.778,630.411 718.252,634.158 720.726,638.759 723.2,642.741 725.674,646.512 728.148,650.914 730.622,654.533 733.096,658.365 735.57,662.553 738.044,665.904 740.518,669.668 742.992,673.716 745.466,677.039 747.94,680.65 750.414,684.461 752.888,687.677 755.362,691.15 757.836,694.92 760.31,698.186 762.784,701.49 765.258,705.149 767.732,708.469 770.207,711.591 772.681,715.052 775.155,718.455 777.629,721.535 780.103,724.73 782.577,728.112 785.051,731.3 787.525,734.317 789.999,737.481 792.473,740.734 794.947,743.842 797.421,746.854 799.895,749.967 802.369,753.159 804.843,756.259 807.317,759.213 809.791,762.105 812.265,764.99 814.739,767.783 817.213,770.164 819.687,770.248 822.161,767.906 824.635,765.143 827.109,762.289 829.583,759.393 832.057,756.389 834.531,753.25 837.005,750.091 839.479,747.047 841.953,744.035 844.427,740.875 846.901,737.64 849.375,734.557 851.849,731.519 854.323,728.236 856.797,724.876 859.271,721.77 861.745,718.624 864.22,715.146 866.694,711.789 869.168,708.701 871.642,705.264 874.116,701.656 876.59,698.467 879.064,695.072 881.538,691.272 884.012,687.932 886.486,684.579 888.96,680.697 891.434,677.29 893.908,673.879 896.382,669.767 898.856,666.184 901.33,662.648 903.804,658.451 906.278,654.85 908.752,650.995 911.226,646.618 913.7,643.056 916.174,638.789 918.648,634.358 921.122,630.668 923.596,625.937 926.07,621.597 928.544,617.543 931.018,612.365 933.492,608.253 935.966,603.414 938.44,598.194 940.914,593.945 943.388,588.199 945.862,583.352 948.336,578.238 950.81,572.068 953.284,567.321 955.759,560.826 958.233,555.088 960.707,549.267 963.181,542.036 965.655,536.47 968.129,528.732 970.603,521.937 973.077,514.745 975.551,506.02 978.025,499.06 980.499,489.2 982.973,480.846 985.447,471.042 987.921,459.929 990.395,450.153 992.869,436.409 995.343,424.769 997.817,409.364 1000.29,393.007 1002.77,375.754 1005.24,352.087 1007.71,329 1010.19,293.992 1012.66,251.089 1015.14,181.832 1017.61,68.3759 1020.08,174.238 1022.56,237.16 1025.03,274.405 1027.51,304.261 1029.98,322.273 1032.45,341.438 1034.93,354.109 1037.4,366.225 1039.88,377.588 1042.35,385.063 1044.82,395.182 1047.3,400.99 1049.77,408.592 1052.25,414.844 1054.72,419.58 1057.19,426.302 1059.67,429.654 1062.14,435.354 1064.62,439.281 1067.09,442.838 1069.56,447.758 1072.04,449.975 1074.51,454.516 1076.99,457.294 1079.46,460.051 1081.93,463.98 1084.41,465.555 1086.88,469.229 1089.36,471.526 1091.83,473.527 1094.3,476.941 1096.78,478.158 1099.25,480.997 1101.73,483.308 1104.2,484.539 1106.67,487.578 1109.15,488.864 1111.62,490.664 1114.1,493.246 1116.57,494.058 1119.04,496.32 1121.52,498.238 1123.99,499.018 1126.47,501.42 1128.94,502.808 1131.41,503.715 1133.89,506.023 1136.36,507.084 1138.84,508.086 1141.31,510.255 1143.78,511.167 1146.26,512.11 1148.73,514.142 1151.21,515.076 1153.68,515.862 1156.15,517.749 1158.63,518.832 1161.1,519.387 1163.58,521.02 1166.05,522.402 1168.52,522.879 1171,524.026 1173.47,525.63 1175.95,526.383 1178.42,526.963 1180.89,528.368 1183.37,529.684 1185.84,530.24 1188.32,530.912 1190.79,532.244 1193.27,533.45 1195.74,534.045 1198.21,534.618 1200.69,535.714 1203.16,536.947 1205.64,537.78 1208.11,538.281 1210.58,538.947 1213.06,539.976 1215.53,541.087 1218.01,541.952 1220.48,542.535 1222.95,543.074 1225.43,543.786 1227.9,544.674 1230.38,545.624 1232.85,546.518 1235.32,547.275 1237.8,547.92 1240.27,548.522 1242.75,549.111 1245.22,549.74 1247.69,550.405 1250.17,551.09 1252.64,551.797 1255.12,552.489 1257.59,553.184 1260.06,553.851 1262.54,554.513 1265.01,555.149 1267.49,555.782 1269.96,556.403 1272.43,557.03 1274.91,557.678 1277.38,558.345 1279.86,559.041 1282.33,559.734 1284.8,560.372 1287.28,560.92 1289.75,561.397 1292.23,561.903 1294.7,562.54 1297.17,563.246 1299.65,563.814 1302.12,564.241 1304.6,564.809 1307.07,565.503 1309.54,565.977 1312.02,566.462 1314.49,567.142 1316.97,567.577 1319.44,568.155 1321.91,568.705 1324.39,569.189 1326.86,569.771 1329.34,570.253 1331.81,570.789 1334.28,571.334 1336.76,571.789 1339.23,572.361 1341.71,572.871 1344.18,573.339 1346.65,573.85 1349.13,574.38 1351.6,574.898 1354.08,575.404 1356.55,575.907 1359.02,576.408 1361.5,576.906 1363.97,577.401 1366.45,577.91 1368.92,578.434 1371.4,578.94 1373.87,579.467 1376.34,579.988 1378.82,580.53 1381.29,581.078 1383.77,581.641 1386.24,582.224 1388.71,582.831 1391.19,583.475 1393.66,584.166 1396.14,584.924 1398.61,585.778 1401.08,586.779 1403.56,588.019 1406.03,589.681 1408.51,592.199 1410.98,596.878 1413.45,610.091 1415.93,694.961 1418.4,754.379 1420.88,764.214 1423.35,767.893 1425.82,769.805 1428.3,770.976 1430.77,771.767 1433.25,772.337 1435.72,772.768 "/>
<path clip-path="url(#clip000)" d="M1245.84 175.813 L1429.14 175.813 L1429.14 72.1326 L1245.84 72.1326  Z" fill="#ffffff" fill-rule="evenodd" fill-opacity="1"/>
<polyline clip-path="url(#clip000)" style="stroke:#000000; stroke-linecap:round; stroke-linejoin:round; stroke-width:4; stroke-opacity:1; fill:none" points="1245.84,175.813 1429.14,175.813 1429.14,72.1326 1245.84,72.1326 1245.84,175.813 "/>
<polyline clip-path="url(#clip000)" style="stroke:#009af9; stroke-linecap:round; stroke-linejoin:round; stroke-width:8; stroke-opacity:1; fill:none" points="1260.38,123.973 1347.62,123.973 "/>
<path clip-path="url(#clip000)" d="M1376.01 143.66 Q1374.2 148.29 1372.49 149.702 Q1370.78 151.114 1367.91 151.114 L1364.5 151.114 L1364.5 147.549 L1367 147.549 Q1368.76 147.549 1369.73 146.716 Q1370.71 145.882 1371.89 142.78 L1372.65 140.836 L1362.17 115.327 L1366.68 115.327 L1374.78 135.605 L1382.88 115.327 L1387.4 115.327 L1376.01 143.66 Z" fill="#000000" fill-rule="nonzero" fill-opacity="1" /><path clip-path="url(#clip000)" d="M1394.69 137.317 L1402.33 137.317 L1402.33 110.952 L1394.02 112.619 L1394.02 108.359 L1402.28 106.693 L1406.96 106.693 L1406.96 137.317 L1414.6 137.317 L1414.6 141.253 L1394.69 141.253 L1394.69 137.317 Z" fill="#000000" fill-rule="nonzero" fill-opacity="1" /></svg>
