<?xml version="1.0" encoding="utf-8"?>
<svg xmlns="http://www.w3.org/2000/svg" xmlns:xlink="http://www.w3.org/1999/xlink" width="420" height="260" viewBox="0 0 1680 1040">
<defs>
  <clipPath id="clip530">
    <rect x="0" y="0" width="1680" height="1040"/>
  </clipPath>
</defs>
<path clip-path="url(#clip530)" d="M0 1040 L1680 1040 L1680 0 L0 0  Z" fill="#ffffff" fill-rule="evenodd" fill-opacity="1"/>
<defs>
  <clipPath id="clip531">
    <rect x="336" y="0" width="1177" height="1040"/>
  </clipPath>
</defs>
<path clip-path="url(#clip530)" d="M163.555 874.643 L1632.76 874.643 L1632.76 47.2441 L163.555 47.2441  Z" fill="#ffffff" fill-rule="evenodd" fill-opacity="1"/>
<defs>
  <clipPath id="clip532">
    <rect x="163" y="47" width="1470" height="828"/>
  </clipPath>
</defs>
<polyline clip-path="url(#clip532)" style="stroke:#000000; stroke-linecap:round; stroke-linejoin:round; stroke-width:2; stroke-opacity:0.1; fill:none" points="205.136,874.643 205.136,47.2441 "/>
<polyline clip-path="url(#clip532)" style="stroke:#000000; stroke-linecap:round; stroke-linejoin:round; stroke-width:2; stroke-opacity:0.1; fill:none" points="551.646,874.643 551.646,47.2441 "/>
<polyline clip-path="url(#clip532)" style="stroke:#000000; stroke-linecap:round; stroke-linejoin:round; stroke-width:2; stroke-opacity:0.1; fill:none" points="898.155,874.643 898.155,47.2441 "/>
<polyline clip-path="url(#clip532)" style="stroke:#000000; stroke-linecap:round; stroke-linejoin:round; stroke-width:2; stroke-opacity:0.1; fill:none" points="1244.67,874.643 1244.67,47.2441 "/>
<polyline clip-path="url(#clip532)" style="stroke:#000000; stroke-linecap:round; stroke-linejoin:round; stroke-width:2; stroke-opacity:0.1; fill:none" points="1591.17,874.643 1591.17,47.2441 "/>
<polyline clip-path="url(#clip532)" style="stroke:#000000; stroke-linecap:round; stroke-linejoin:round; stroke-width:2; stroke-opacity:0.1; fill:none" points="163.555,731.755 1632.76,731.755 "/>
<polyline clip-path="url(#clip532)" style="stroke:#000000; stroke-linecap:round; stroke-linejoin:round; stroke-width:2; stroke-opacity:0.1; fill:none" points="163.555,531.106 1632.76,531.106 "/>
<polyline clip-path="url(#clip532)" style="stroke:#000000; stroke-linecap:round; stroke-linejoin:round; stroke-width:2; stroke-opacity:0.1; fill:none" points="163.555,330.456 1632.76,330.456 "/>
<polyline clip-path="url(#clip532)" style="stroke:#000000; stroke-linecap:round; stroke-linejoin:round; stroke-width:2; stroke-opacity:0.1; fill:none" points="163.555,129.806 1632.76,129.806 "/>
<polyline clip-path="url(#clip530)" style="stroke:#000000; stroke-linecap:round; stroke-linejoin:round; stroke-width:4; stroke-opacity:1; fill:none" points="163.555,874.643 1632.76,874.643 "/>
<polyline clip-path="url(#clip530)" style="stroke:#000000; stroke-linecap:round; stroke-linejoin:round; stroke-width:4; stroke-opacity:1; fill:none" points="205.136,874.643 205.136,855.745 "/>
<polyline clip-path="url(#clip530)" style="stroke:#000000; stroke-linecap:round; stroke-linejoin:round; stroke-width:4; stroke-opacity:1; fill:none" points="551.646,874.643 551.646,855.745 "/>
<polyline clip-path="url(#clip530)" style="stroke:#000000; stroke-linecap:round; stroke-linejoin:round; stroke-width:4; stroke-opacity:1; fill:none" points="898.155,874.643 898.155,855.745 "/>
<polyline clip-path="url(#clip530)" style="stroke:#000000; stroke-linecap:round; stroke-linejoin:round; stroke-width:4; stroke-opacity:1; fill:none" points="1244.67,874.643 1244.67,855.745 "/>
<polyline clip-path="url(#clip530)" style="stroke:#000000; stroke-linecap:round; stroke-linejoin:round; stroke-width:4; stroke-opacity:1; fill:none" points="1591.17,874.643 1591.17,855.745 "/>
<path clip-path="url(#clip530)" d="M205.136 899.801 Q201.525 899.801 199.696 903.366 Q197.89 906.908 197.89 914.037 Q197.89 921.144 199.696 924.709 Q201.525 928.25 205.136 928.25 Q208.77 928.25 210.576 924.709 Q212.404 921.144 212.404 914.037 Q212.404 906.908 210.576 903.366 Q208.77 899.801 205.136 899.801 M205.136 896.098 Q210.946 896.098 214.001 900.704 Q217.08 905.287 217.08 914.037 Q217.08 922.764 214.001 927.371 Q210.946 931.954 205.136 931.954 Q199.326 931.954 196.247 927.371 Q193.191 922.764 193.191 914.037 Q193.191 905.287 196.247 900.704 Q199.326 896.098 205.136 896.098 Z" fill="#000000" fill-rule="nonzero" fill-opacity="1" /><path clip-path="url(#clip530)" d="M542.028 927.348 L549.666 927.348 L549.666 900.982 L541.356 902.649 L541.356 898.389 L549.62 896.723 L554.296 896.723 L554.296 927.348 L561.935 927.348 L561.935 931.283 L542.028 931.283 L542.028 927.348 Z" fill="#000000" fill-rule="nonzero" fill-opacity="1" /><path clip-path="url(#clip530)" d="M892.808 927.348 L909.127 927.348 L909.127 931.283 L887.183 931.283 L887.183 927.348 Q889.845 924.593 894.428 919.963 Q899.035 915.311 900.215 913.968 Q902.461 911.445 903.34 909.709 Q904.243 907.949 904.243 906.26 Q904.243 903.505 902.299 901.769 Q900.377 900.033 897.276 900.033 Q895.077 900.033 892.623 900.797 Q890.192 901.561 887.415 903.112 L887.415 898.389 Q890.239 897.255 892.692 896.676 Q895.146 896.098 897.183 896.098 Q902.553 896.098 905.748 898.783 Q908.942 901.468 908.942 905.959 Q908.942 908.088 908.132 910.01 Q907.345 911.908 905.239 914.5 Q904.66 915.172 901.558 918.389 Q898.456 921.584 892.808 927.348 Z" fill="#000000" fill-rule="nonzero" fill-opacity="1" /><path clip-path="url(#clip530)" d="M1248.91 912.649 Q1252.27 913.366 1254.14 915.635 Q1256.04 917.903 1256.04 921.236 Q1256.04 926.352 1252.52 929.153 Q1249.01 931.954 1242.52 931.954 Q1240.35 931.954 1238.03 931.514 Q1235.74 931.098 1233.29 930.241 L1233.29 925.727 Q1235.23 926.861 1237.55 927.44 Q1239.86 928.019 1242.38 928.019 Q1246.78 928.019 1249.07 926.283 Q1251.39 924.547 1251.39 921.236 Q1251.39 918.181 1249.24 916.468 Q1247.11 914.732 1243.29 914.732 L1239.26 914.732 L1239.26 910.889 L1243.47 910.889 Q1246.92 910.889 1248.75 909.524 Q1250.58 908.135 1250.58 905.542 Q1250.58 902.88 1248.68 901.468 Q1246.81 900.033 1243.29 900.033 Q1241.37 900.033 1239.17 900.45 Q1236.97 900.866 1234.33 901.746 L1234.33 897.579 Q1236.99 896.838 1239.31 896.468 Q1241.64 896.098 1243.7 896.098 Q1249.03 896.098 1252.13 898.528 Q1255.23 900.936 1255.23 905.056 Q1255.23 907.926 1253.59 909.917 Q1251.95 911.885 1248.91 912.649 Z" fill="#000000" fill-rule="nonzero" fill-opacity="1" /><path clip-path="url(#clip530)" d="M1594.18 900.797 L1582.38 919.246 L1594.18 919.246 L1594.18 900.797 M1592.96 896.723 L1598.84 896.723 L1598.84 919.246 L1603.77 919.246 L1603.77 923.135 L1598.84 923.135 L1598.84 931.283 L1594.18 931.283 L1594.18 923.135 L1578.58 923.135 L1578.58 918.621 L1592.96 896.723 Z" fill="#000000" fill-rule="nonzero" fill-opacity="1" /><path clip-path="url(#clip530)" d="M863.239 1009.63 Q850.031 1009.63 850.031 990.724 Q850.031 983.244 854.964 973.059 L861.266 973.059 Q856.715 983.244 856.715 990.883 Q856.715 1004.66 863.78 1004.66 Q870.242 1004.66 870.242 987.541 L875.652 987.541 Q875.652 1004.66 882.114 1004.66 Q889.18 1004.66 889.18 990.883 Q889.18 983.244 884.628 973.059 L890.93 973.059 Q895.864 983.244 895.864 990.724 Q895.864 1009.63 882.655 1009.63 Q873.997 1009.63 872.947 1000.11 Q871.642 1009.63 863.239 1009.63 Z" fill="#000000" fill-rule="nonzero" fill-opacity="1" /><path clip-path="url(#clip530)" d="M916.87 961.187 L922.281 961.187 L905.73 1014.75 L900.32 1014.75 L916.87 961.187 Z" fill="#000000" fill-rule="nonzero" fill-opacity="1" /><path clip-path="url(#clip530)" d="M934.217 962.937 L934.217 973.059 L946.28 973.059 L946.28 977.61 L934.217 977.61 L934.217 996.962 Q934.217 1001.32 935.395 1002.56 Q936.604 1003.81 940.264 1003.81 L946.28 1003.81 L946.28 1008.71 L940.264 1008.71 Q933.485 1008.71 930.907 1006.19 Q928.329 1003.65 928.329 996.962 L928.329 977.61 L924.032 977.61 L924.032 973.059 L928.329 973.059 L928.329 962.937 L934.217 962.937 Z" fill="#000000" fill-rule="nonzero" fill-opacity="1" /><polyline clip-path="url(#clip530)" style="stroke:#000000; stroke-linecap:round; stroke-linejoin:round; stroke-width:4; stroke-opacity:1; fill:none" points="163.555,874.643 163.555,47.2441 "/>
<polyline clip-path="url(#clip530)" style="stroke:#000000; stroke-linecap:round; stroke-linejoin:round; stroke-width:4; stroke-opacity:1; fill:none" points="163.555,731.755 182.452,731.755 "/>
<polyline clip-path="url(#clip530)" style="stroke:#000000; stroke-linecap:round; stroke-linejoin:round; stroke-width:4; stroke-opacity:1; fill:none" points="163.555,531.106 182.452,531.106 "/>
<polyline clip-path="url(#clip530)" style="stroke:#000000; stroke-linecap:round; stroke-linejoin:round; stroke-width:4; stroke-opacity:1; fill:none" points="163.555,330.456 182.452,330.456 "/>
<polyline clip-path="url(#clip530)" style="stroke:#000000; stroke-linecap:round; stroke-linejoin:round; stroke-width:4; stroke-opacity:1; fill:none" points="163.555,129.806 182.452,129.806 "/>
<path clip-path="url(#clip530)" d="M126.41 717.554 Q122.799 717.554 120.97 721.119 Q119.165 724.661 119.165 731.79 Q119.165 738.897 120.97 742.461 Q122.799 746.003 126.41 746.003 Q130.044 746.003 131.85 742.461 Q133.679 738.897 133.679 731.79 Q133.679 724.661 131.85 721.119 Q130.044 717.554 126.41 717.554 M126.41 713.85 Q132.22 713.85 135.276 718.457 Q138.355 723.04 138.355 731.79 Q138.355 740.517 135.276 745.123 Q132.22 749.707 126.41 749.707 Q120.6 749.707 117.521 745.123 Q114.466 740.517 114.466 731.79 Q114.466 723.04 117.521 718.457 Q120.6 713.85 126.41 713.85 Z" fill="#000000" fill-rule="nonzero" fill-opacity="1" /><path clip-path="url(#clip530)" d="M118.447 544.45 L126.086 544.45 L126.086 518.085 L117.776 519.751 L117.776 515.492 L126.04 513.826 L130.716 513.826 L130.716 544.45 L138.355 544.45 L138.355 548.386 L118.447 548.386 L118.447 544.45 Z" fill="#000000" fill-rule="nonzero" fill-opacity="1" /><path clip-path="url(#clip530)" d="M122.035 343.801 L138.355 343.801 L138.355 347.736 L116.41 347.736 L116.41 343.801 Q119.072 341.046 123.656 336.416 Q128.262 331.764 129.443 330.421 Q131.688 327.898 132.568 326.162 Q133.47 324.402 133.47 322.713 Q133.47 319.958 131.526 318.222 Q129.605 316.486 126.503 316.486 Q124.304 316.486 121.85 317.25 Q119.42 318.014 116.642 319.565 L116.642 314.842 Q119.466 313.708 121.92 313.129 Q124.373 312.551 126.41 312.551 Q131.781 312.551 134.975 315.236 Q138.169 317.921 138.169 322.412 Q138.169 324.541 137.359 326.463 Q136.572 328.361 134.466 330.953 Q133.887 331.625 130.785 334.842 Q127.683 338.037 122.035 343.801 Z" fill="#000000" fill-rule="nonzero" fill-opacity="1" /><path clip-path="url(#clip530)" d="M131.225 128.452 Q134.582 129.169 136.456 131.438 Q138.355 133.706 138.355 137.04 Q138.355 142.155 134.836 144.956 Q131.318 147.757 124.836 147.757 Q122.66 147.757 120.345 147.317 Q118.054 146.901 115.6 146.044 L115.6 141.53 Q117.545 142.665 119.859 143.243 Q122.174 143.822 124.697 143.822 Q129.095 143.822 131.387 142.086 Q133.702 140.35 133.702 137.04 Q133.702 133.984 131.549 132.271 Q129.419 130.535 125.6 130.535 L121.572 130.535 L121.572 126.692 L125.785 126.692 Q129.234 126.692 131.063 125.327 Q132.892 123.938 132.892 121.345 Q132.892 118.683 130.994 117.271 Q129.119 115.836 125.6 115.836 Q123.679 115.836 121.48 116.253 Q119.281 116.669 116.642 117.549 L116.642 113.382 Q119.304 112.642 121.619 112.271 Q123.957 111.901 126.017 111.901 Q131.341 111.901 134.443 114.331 Q137.544 116.739 137.544 120.859 Q137.544 123.729 135.901 125.72 Q134.257 127.688 131.225 128.452 Z" fill="#000000" fill-rule="nonzero" fill-opacity="1" /><path clip-path="url(#clip530)" d="M39.3619 549.968 L39.3619 515.816 L45.2184 515.816 L45.2184 520.304 L67.1164 520.304 Q69.408 520.304 70.4266 519.54 Q71.4132 518.744 71.4132 516.993 Q71.4132 516.516 71.3496 515.816 Q71.2541 515.116 71.2223 514.893 L75.4555 514.893 Q75.8692 516.007 76.0602 517.184 Q76.2512 518.362 76.2512 519.54 Q76.2512 523.359 74.1823 524.823 Q72.0816 526.287 66.4798 526.287 L45.2184 526.287 L45.2184 539.433 L75.0099 539.433 L75.0099 545.416 L45.2184 545.416 L45.2184 549.968 L39.3619 549.968 Z" fill="#000000" fill-rule="nonzero" fill-opacity="1" /><path clip-path="url(#clip530)" d="M44.0089 493.122 Q44.0089 497.96 47.51 500.57 Q51.1703 503.307 57.2177 503.307 Q63.6153 503.307 67.3074 500.602 Q70.9676 497.864 70.9676 493.122 Q70.9676 488.443 67.2755 485.706 Q63.5834 482.969 57.2177 482.969 Q51.3931 482.969 47.51 485.706 Q44.0089 488.22 44.0089 493.122 M39.3619 493.122 L39.3619 473.675 L45.2184 473.675 L45.2184 480.231 Q50.1836 476.762 57.2177 476.762 Q65.9706 476.762 70.9358 481.123 Q75.9329 485.483 75.9329 493.122 Q75.9329 500.793 70.9358 505.121 Q65.9706 509.482 57.2177 509.482 Q48.4012 509.482 43.4678 505.121 Q39.3619 501.525 39.3619 493.122 Z" fill="#000000" fill-rule="nonzero" fill-opacity="1" /><path clip-path="url(#clip530)" d="M25.5483 451.554 Q32.8689 455.819 40.0303 457.888 Q47.1917 459.957 54.5441 459.957 Q61.8965 459.957 69.1216 457.888 Q76.3148 455.787 83.6036 451.554 L83.6036 456.647 Q76.1239 461.421 68.8988 463.808 Q61.6737 466.163 54.5441 466.163 Q47.4464 466.163 40.2531 463.808 Q33.0599 461.453 25.5483 456.647 L25.5483 451.554 Z" fill="#000000" fill-rule="nonzero" fill-opacity="1" /><path clip-path="url(#clip530)" d="M75.9329 428.828 Q75.9329 442.037 57.0268 442.037 Q49.547 442.037 39.3619 437.104 L39.3619 430.802 Q49.547 435.353 57.1859 435.353 Q70.9676 435.353 70.9676 428.287 Q70.9676 421.826 53.8439 421.826 L53.8439 416.415 Q70.9676 416.415 70.9676 409.954 Q70.9676 402.888 57.1859 402.888 Q49.547 402.888 39.3619 407.44 L39.3619 401.138 Q49.547 396.204 57.0268 396.204 Q75.9329 396.204 75.9329 409.413 Q75.9329 418.07 66.4162 419.121 Q75.9329 420.426 75.9329 428.828 Z" fill="#000000" fill-rule="nonzero" fill-opacity="1" /><path clip-path="url(#clip530)" d="M25.5483 386.528 L25.5483 381.436 Q33.0599 376.661 40.2531 374.306 Q47.4464 371.919 54.5441 371.919 Q61.6737 371.919 68.8988 374.306 Q76.1239 376.661 83.6036 381.436 L83.6036 386.528 Q76.3148 382.295 69.1216 380.226 Q61.8965 378.126 54.5441 378.126 Q47.1917 378.126 40.0303 380.226 Q32.8689 382.295 25.5483 386.528 Z" fill="#000000" fill-rule="nonzero" fill-opacity="1" /><polyline clip-path="url(#clip532)" style="stroke:#009af9; stroke-linecap:round; stroke-linejoin:round; stroke-width:4; stroke-opacity:1; fill:none" points="205.136,731.755 212.879,613.533 220.622,560.409 228.366,544.371 236.109,527.136 243.852,537.789 251.595,527.055 259.338,535.349 267.082,525.389 274.825,527.991 282.568,529.172 290.311,526.937 298.055,528.487 305.798,523.308 313.541,523.603 321.284,528.527 329.028,520.183 336.771,532.384 344.514,513.084 352.257,532.339 360,513.035 367.744,530.587 375.487,516.139 383.23,522.876 390.973,519.515 398.717,518.875 406.46,520.896 414.203,517.929 421.946,515.528 429.69,520.331 437.433,510.173 445.176,522.908 452.919,508.137 460.663,518.715 468.406,510.312 476.149,510.348 483.892,514.371 491.635,503.92 499.379,514.646 507.122,503.248 514.865,508.994 522.608,505.579 530.352,500.586 538.095,505.646 545.838,496.791 553.581,502.004 561.325,498.491 569.068,494.996 576.811,498.982 584.554,489.539 592.298,494.346 600.041,490.408 607.784,485.047 615.527,490.467 623.27,479.007 631.014,483.244 638.757,481.728 646.5,472.394 654.243,478.616 661.987,469.554 669.73,469.159 677.473,468.287 685.216,460.702 692.96,464.052 700.703,453.333 708.446,453.224 716.189,452.633 723.932,441.911 731.676,444.655 739.419,434.39 747.162,431.328 754.905,430.314 762.649,417.377 770.392,419.277 778.135,408.463 785.878,401.347 793.622,399.354 801.365,382.086 809.108,380.836 816.851,368.057 824.595,353.762 832.338,349.227 840.081,323.985 847.824,315.074 855.567,295.106 863.311,262.683 871.054,246.09 878.797,188.733 886.54,145.18 894.284,70.661 902.027,78.3584 909.77,168.667 917.513,225.071 925.257,291.791 933,319.629 940.743,358.936 948.486,386.714 956.23,403.932 963.973,433.002 971.716,445.509 979.459,463.928 987.202,480.844 994.946,489.137 1002.69,507.411 1010.43,515.389 1018.18,525.914 1025.92,538.304 1033.66,542.98 1041.41,555.642 1049.15,561.618 1056.89,568.104 1064.63,577.908 1072.38,580.913 1080.12,590.171 1087.86,595.03 1095.61,599.245 1103.35,607.221 1111.09,609.3 1118.84,616.11 1126.58,620.039 1134.32,622.754 1142.07,629.142 1149.81,630.733 1157.55,636.184 1165.3,639.563 1173.04,641.537 1180.78,646.732 1188.53,647.766 1196.27,652.011 1204.01,654.766 1211.76,656.443 1219.5,660.797 1227.24,661.49 1234.99,664.95 1242.73,667.052 1250.47,668.544 1258.22,672.134 1265.96,672.597 1273.7,675.601 1281.45,677.111 1289.19,678.562 1296.93,681.398 1304.68,681.703 1312.42,684.417 1320.16,685.414 1327.9,686.962 1335.65,689.018 1343.39,689.296 1351.13,691.739 1358.88,692.328 1366.62,694.039 1374.36,695.311 1382.11,695.776 1389.85,697.815 1397.59,698.151 1405.34,699.959 1413.08,700.544 1420.82,701.416 1428.57,702.836 1436.31,703.184 1444.05,704.825 1451.8,704.975 1459.54,706.266 1467.28,706.978 1475.03,707.68 1482.77,708.769 1490.51,708.916 1498.26,710.244 1506,710.477 1513.74,711.589 1521.49,711.982 1529.23,712.598 1536.97,713.386 1544.72,713.707 1552.46,714.699 1560.2,714.791 1567.95,715.736 1575.69,715.934 1583.43,716.746 1591.17,717.101 "/>
<polyline clip-path="url(#clip532)" style="stroke:#e26f46; stroke-linecap:round; stroke-linejoin:round; stroke-width:4; stroke-opacity:1; fill:none" points="205.136,731.755 212.879,851.226 220.622,788.364 228.366,793.852 236.109,766.527 243.852,774.029 251.595,760.692 259.338,756.591 267.082,754.642 274.825,751.878 282.568,752.119 290.311,749.074 298.055,742.648 305.798,750.347 313.541,740.842 321.284,753.437 329.028,737.578 336.771,747.352 344.514,739.836 352.257,743.757 360,746.326 367.744,737.268 375.487,747.52 383.23,735.366 390.973,746.661 398.717,739.764 406.46,740.722 414.203,743.518 421.946,735.424 429.69,746.595 437.433,736.406 445.176,744.235 452.919,739.158 460.663,739.179 468.406,741.893 476.149,738.961 483.892,741.134 491.635,742.361 499.379,737.194 507.122,744.738 514.865,735.779 522.608,741.959 530.352,739.802 538.095,737.173 545.838,745.734 553.581,735.816 561.325,744.191 569.068,739.093 576.811,737.929 584.554,744.377 592.298,735.661 600.041,742.71 607.784,738.816 615.527,738.212 623.27,742.393 631.014,737.258 638.757,742.366 646.5,737.365 654.243,740.168 661.987,742.02 669.73,735.453 677.473,744.075 685.216,738.007 692.96,737.994 700.703,743.047 708.446,736.609 716.189,742.941 723.932,737.502 731.676,736.997 739.419,742.981 747.162,735.317 754.905,741.635 762.649,738.099 770.392,735.868 778.135,742.393 785.878,733.233 793.622,738.701 801.365,736.971 809.108,732.189 816.851,740.109 824.595,729.396 832.338,732.945 840.081,733.007 847.824,722.808 855.567,731.332 863.311,715.217 871.054,711.268 878.797,706.426 886.54,657.715 894.284,615.247 902.027,423.137 909.77,383.505 917.513,341.734 925.257,341.517 933,343.356 940.743,334.797 948.486,347.133 956.23,344.601 963.973,349.735 971.716,357.901 979.459,355.484 987.202,366.029 994.946,368.018 1002.69,371.789 1010.43,380.209 1018.18,379.56 1025.92,388.099 1033.66,391.631 1041.41,394.195 1049.15,402.034 1056.89,402.27 1064.63,409.18 1072.38,413.278 1080.12,415.192 1087.86,422.273 1095.61,423.066 1103.35,428.589 1111.09,432.724 1118.84,434.164 1126.58,440.386 1134.32,441.658 1142.07,446.403 1149.81,450.481 1157.55,451.902 1165.3,457.388 1173.04,458.58 1180.78,462.507 1188.53,466.266 1196.27,467.772 1204.01,472.737 1211.76,473.962 1219.5,477.445 1227.24,480.685 1234.99,482.194 1242.73,486.641 1250.47,487.826 1258.22,491.099 1265.96,493.821 1273.7,495.43 1281.45,499.357 1289.19,500.414 1296.93,503.566 1304.68,505.772 1312.42,507.602 1320.16,510.987 1327.9,511.938 1335.65,514.983 1343.39,516.683 1351.13,518.814 1358.88,521.587 1366.62,522.579 1374.36,525.452 1382.11,526.719 1389.85,529.142 1397.59,531.212 1405.34,532.483 1413.08,535.027 1420.82,536.078 1428.57,538.618 1436.31,539.985 1444.05,541.721 1451.8,543.724 1459.54,544.934 1467.28,547.242 1475.03,548.176 1482.77,550.265 1490.51,551.61 1498.26,553.288 1506,555.003 1513.74,556.088 1521.49,558.028 1529.23,559.025 1536.97,560.984 1544.72,562.038 1552.46,563.633 1560.2,564.956 1567.95,566.28 1575.69,567.866 1583.43,568.877 1591.17,570.502 "/>
<path clip-path="url(#clip530)" d="M1384.06 230.344 L1583.78 230.344 L1583.78 74.824 L1384.06 74.824  Z" fill="#ffffff" fill-rule="evenodd" fill-opacity="1"/>
<polyline clip-path="url(#clip530)" style="stroke:#000000; stroke-linecap:round; stroke-linejoin:round; stroke-width:4; stroke-opacity:1; fill:none" points="1384.06,230.344 1583.78,230.344 1583.78,74.824 1384.06,74.824 1384.06,230.344 "/>
<polyline clip-path="url(#clip530)" style="stroke:#009af9; stroke-linecap:round; stroke-linejoin:round; stroke-width:4; stroke-opacity:1; fill:none" points="1400.39,126.664 1498.33,126.664 "/>
<path clip-path="url(#clip530)" d="M1531.05 127.74 Q1532.55 128.25 1533.96 129.916 Q1535.4 131.583 1536.83 134.5 L1541.58 143.944 L1536.56 143.944 L1532.13 135.078 Q1530.42 131.606 1528.8 130.472 Q1527.2 129.338 1524.43 129.338 L1519.33 129.338 L1519.33 143.944 L1514.66 143.944 L1514.66 109.384 L1525.21 109.384 Q1531.14 109.384 1534.06 111.861 Q1536.97 114.338 1536.97 119.338 Q1536.97 122.602 1535.44 124.754 Q1533.94 126.907 1531.05 127.74 M1519.33 113.227 L1519.33 125.495 L1525.21 125.495 Q1528.59 125.495 1530.31 123.944 Q1532.04 122.37 1532.04 119.338 Q1532.04 116.305 1530.31 114.778 Q1528.59 113.227 1525.21 113.227 L1519.33 113.227 Z" fill="#000000" fill-rule="nonzero" fill-opacity="1" /><path clip-path="url(#clip530)" d="M1567.46 129.916 L1567.46 132 L1547.87 132 Q1548.15 136.398 1550.51 138.713 Q1552.9 141.004 1557.13 141.004 Q1559.59 141.004 1561.88 140.402 Q1564.19 139.801 1566.46 138.597 L1566.46 142.625 Q1564.17 143.597 1561.76 144.106 Q1559.36 144.615 1556.88 144.615 Q1550.68 144.615 1547.04 141.004 Q1543.43 137.393 1543.43 131.236 Q1543.43 124.87 1546.86 121.143 Q1550.31 117.393 1556.14 117.393 Q1561.37 117.393 1564.4 120.773 Q1567.46 124.129 1567.46 129.916 M1563.2 128.666 Q1563.15 125.171 1561.23 123.088 Q1559.33 121.004 1556.18 121.004 Q1552.62 121.004 1550.47 123.018 Q1548.34 125.032 1548.01 128.69 L1563.2 128.666 Z" fill="#000000" fill-rule="nonzero" fill-opacity="1" /><polyline clip-path="url(#clip530)" style="stroke:#e26f46; stroke-linecap:round; stroke-linejoin:round; stroke-width:4; stroke-opacity:1; fill:none" points="1400.39,178.504 1498.33,178.504 "/>
<path clip-path="url(#clip530)" d="M1514.66 161.224 L1519.33 161.224 L1519.33 195.784 L1514.66 195.784 L1514.66 161.224 Z" fill="#000000" fill-rule="nonzero" fill-opacity="1" /><path clip-path="url(#clip530)" d="M1548.64 174.835 Q1550.24 171.965 1552.46 170.599 Q1554.68 169.233 1557.69 169.233 Q1561.74 169.233 1563.94 172.08 Q1566.14 174.905 1566.14 180.136 L1566.14 195.784 L1561.86 195.784 L1561.86 180.275 Q1561.86 176.548 1560.54 174.742 Q1559.22 172.937 1556.51 172.937 Q1553.2 172.937 1551.28 175.136 Q1549.36 177.335 1549.36 181.131 L1549.36 195.784 L1545.07 195.784 L1545.07 180.275 Q1545.07 176.525 1543.75 174.742 Q1542.44 172.937 1539.68 172.937 Q1536.42 172.937 1534.5 175.159 Q1532.57 177.358 1532.57 181.131 L1532.57 195.784 L1528.29 195.784 L1528.29 169.858 L1532.57 169.858 L1532.57 173.886 Q1534.03 171.502 1536.07 170.368 Q1538.11 169.233 1540.91 169.233 Q1543.73 169.233 1545.7 170.668 Q1547.69 172.104 1548.64 174.835 Z" fill="#000000" fill-rule="nonzero" fill-opacity="1" /></svg>
