<?xml version="1.0" encoding="utf-8"?>
<svg xmlns="http://www.w3.org/2000/svg" xmlns:xlink="http://www.w3.org/1999/xlink" width="760" height="280" viewBox="0 0 3040 1120">
<defs>
  <clipPath id="clip510">
    <rect x="0" y="0" width="3040" height="1120"/>
  </clipPath>
</defs>
<path clip-path="url(#clip510)" d="M0 1120 L3040 1120 L3040 0 L0 0  Z" fill="#ffffff" fill-rule="evenodd" fill-opacity="1"/>
<defs>
  <clipPath id="clip511">
    <rect x="608" y="0" width="2129" height="1120"/>
  </clipPath>
</defs>
<path clip-path="url(#clip510)" d="M234.683 984.7 L1276.01 984.7 L1276.01 96.4153 L234.683 96.4153  Z" fill="#d3d3d3" fill-rule="evenodd" fill-opacity="1"/>
<defs>
  <clipPath id="clip512">
    <rect x="234" y="96" width="1042" height="889"/>
  </clipPath>
</defs>
<polyline clip-path="url(#clip510)" style="stroke:#000000; stroke-linecap:round; stroke-linejoin:round; stroke-width:4; stroke-opacity:1; fill:none" points="234.683,984.7 1276.01,984.7 "/>
<polyline clip-path="url(#clip510)" style="stroke:#000000; stroke-linecap:round; stroke-linejoin:round; stroke-width:4; stroke-opacity:1; fill:none" points="336.345,984.7 336.345,965.802 "/>
<polyline clip-path="url(#clip510)" style="stroke:#000000; stroke-linecap:round; stroke-linejoin:round; stroke-width:4; stroke-opacity:1; fill:none" points="545.846,984.7 545.846,965.802 "/>
<polyline clip-path="url(#clip510)" style="stroke:#000000; stroke-linecap:round; stroke-linejoin:round; stroke-width:4; stroke-opacity:1; fill:none" points="755.347,984.7 755.347,965.802 "/>
<polyline clip-path="url(#clip510)" style="stroke:#000000; stroke-linecap:round; stroke-linejoin:round; stroke-width:4; stroke-opacity:1; fill:none" points="964.848,984.7 964.848,965.802 "/>
<polyline clip-path="url(#clip510)" style="stroke:#000000; stroke-linecap:round; stroke-linejoin:round; stroke-width:4; stroke-opacity:1; fill:none" points="1174.35,984.7 1174.35,965.802 "/>
<path clip-path="url(#clip510)" d="M298.649 1020.74 Q295.037 1020.74 293.209 1024.3 Q291.403 1027.84 291.403 1034.97 Q291.403 1042.08 293.209 1045.65 Q295.037 1049.19 298.649 1049.19 Q302.283 1049.19 304.088 1045.65 Q305.917 1042.08 305.917 1034.97 Q305.917 1027.84 304.088 1024.3 Q302.283 1020.74 298.649 1020.74 M298.649 1017.03 Q304.459 1017.03 307.514 1021.64 Q310.593 1026.22 310.593 1034.97 Q310.593 1043.7 307.514 1048.31 Q304.459 1052.89 298.649 1052.89 Q292.838 1052.89 289.76 1048.31 Q286.704 1043.7 286.704 1034.97 Q286.704 1026.22 289.76 1021.64 Q292.838 1017.03 298.649 1017.03 Z" fill="#000000" fill-rule="nonzero" fill-opacity="1" /><path clip-path="url(#clip510)" d="M318.81 1046.34 L323.695 1046.34 L323.695 1052.22 L318.81 1052.22 L318.81 1046.34 Z" fill="#000000" fill-rule="nonzero" fill-opacity="1" /><path clip-path="url(#clip510)" d="M343.88 1020.74 Q340.269 1020.74 338.44 1024.3 Q336.634 1027.84 336.634 1034.97 Q336.634 1042.08 338.44 1045.65 Q340.269 1049.19 343.88 1049.19 Q347.514 1049.19 349.32 1045.65 Q351.148 1042.08 351.148 1034.97 Q351.148 1027.84 349.32 1024.3 Q347.514 1020.74 343.88 1020.74 M343.88 1017.03 Q349.69 1017.03 352.745 1021.64 Q355.824 1026.22 355.824 1034.97 Q355.824 1043.7 352.745 1048.31 Q349.69 1052.89 343.88 1052.89 Q338.07 1052.89 334.991 1048.31 Q331.935 1043.7 331.935 1034.97 Q331.935 1026.22 334.991 1021.64 Q338.07 1017.03 343.88 1017.03 Z" fill="#000000" fill-rule="nonzero" fill-opacity="1" /><path clip-path="url(#clip510)" d="M374.042 1020.74 Q370.431 1020.74 368.602 1024.3 Q366.796 1027.84 366.796 1034.97 Q366.796 1042.08 368.602 1045.65 Q370.431 1049.19 374.042 1049.19 Q377.676 1049.19 379.481 1045.65 Q381.31 1042.08 381.31 1034.97 Q381.31 1027.84 379.481 1024.3 Q377.676 1020.74 374.042 1020.74 M374.042 1017.03 Q379.852 1017.03 382.907 1021.64 Q385.986 1026.22 385.986 1034.97 Q385.986 1043.7 382.907 1048.31 Q379.852 1052.89 374.042 1052.89 Q368.232 1052.89 365.153 1048.31 Q362.097 1043.7 362.097 1034.97 Q362.097 1026.22 365.153 1021.64 Q368.232 1017.03 374.042 1017.03 Z" fill="#000000" fill-rule="nonzero" fill-opacity="1" /><path clip-path="url(#clip510)" d="M508.647 1020.74 Q505.036 1020.74 503.208 1024.3 Q501.402 1027.84 501.402 1034.97 Q501.402 1042.08 503.208 1045.65 Q505.036 1049.19 508.647 1049.19 Q512.282 1049.19 514.087 1045.65 Q515.916 1042.08 515.916 1034.97 Q515.916 1027.84 514.087 1024.3 Q512.282 1020.74 508.647 1020.74 M508.647 1017.03 Q514.457 1017.03 517.513 1021.64 Q520.592 1026.22 520.592 1034.97 Q520.592 1043.7 517.513 1048.31 Q514.457 1052.89 508.647 1052.89 Q502.837 1052.89 499.758 1048.31 Q496.703 1043.7 496.703 1034.97 Q496.703 1026.22 499.758 1021.64 Q502.837 1017.03 508.647 1017.03 Z" fill="#000000" fill-rule="nonzero" fill-opacity="1" /><path clip-path="url(#clip510)" d="M528.809 1046.34 L533.693 1046.34 L533.693 1052.22 L528.809 1052.22 L528.809 1046.34 Z" fill="#000000" fill-rule="nonzero" fill-opacity="1" /><path clip-path="url(#clip510)" d="M547.906 1048.28 L564.226 1048.28 L564.226 1052.22 L542.281 1052.22 L542.281 1048.28 Q544.943 1045.53 549.527 1040.9 Q554.133 1036.25 555.314 1034.91 Q557.559 1032.38 558.439 1030.65 Q559.341 1028.89 559.341 1027.2 Q559.341 1024.44 557.397 1022.71 Q555.476 1020.97 552.374 1020.97 Q550.175 1020.97 547.721 1021.73 Q545.291 1022.5 542.513 1024.05 L542.513 1019.33 Q545.337 1018.19 547.791 1017.61 Q550.244 1017.03 552.281 1017.03 Q557.652 1017.03 560.846 1019.72 Q564.041 1022.41 564.041 1026.9 Q564.041 1029.03 563.23 1030.95 Q562.443 1032.84 560.337 1035.44 Q559.758 1036.11 556.656 1039.33 Q553.554 1042.52 547.906 1048.28 Z" fill="#000000" fill-rule="nonzero" fill-opacity="1" /><path clip-path="url(#clip510)" d="M574.087 1017.66 L592.443 1017.66 L592.443 1021.6 L578.369 1021.6 L578.369 1030.07 Q579.388 1029.72 580.406 1029.56 Q581.425 1029.37 582.443 1029.37 Q588.23 1029.37 591.61 1032.54 Q594.989 1035.72 594.989 1041.13 Q594.989 1046.71 591.517 1049.81 Q588.045 1052.89 581.726 1052.89 Q579.55 1052.89 577.281 1052.52 Q575.036 1052.15 572.628 1051.41 L572.628 1046.71 Q574.712 1047.84 576.934 1048.4 Q579.156 1048.96 581.633 1048.96 Q585.638 1048.96 587.976 1046.85 Q590.314 1044.74 590.314 1041.13 Q590.314 1037.52 587.976 1035.41 Q585.638 1033.31 581.633 1033.31 Q579.758 1033.31 577.883 1033.72 Q576.031 1034.14 574.087 1035.02 L574.087 1017.66 Z" fill="#000000" fill-rule="nonzero" fill-opacity="1" /><path clip-path="url(#clip510)" d="M717.651 1020.74 Q714.04 1020.74 712.211 1024.3 Q710.405 1027.84 710.405 1034.97 Q710.405 1042.08 712.211 1045.65 Q714.04 1049.19 717.651 1049.19 Q721.285 1049.19 723.09 1045.65 Q724.919 1042.08 724.919 1034.97 Q724.919 1027.84 723.09 1024.3 Q721.285 1020.74 717.651 1020.74 M717.651 1017.03 Q723.461 1017.03 726.516 1021.64 Q729.595 1026.22 729.595 1034.97 Q729.595 1043.7 726.516 1048.31 Q723.461 1052.89 717.651 1052.89 Q711.841 1052.89 708.762 1048.31 Q705.706 1043.7 705.706 1034.97 Q705.706 1026.22 708.762 1021.64 Q711.841 1017.03 717.651 1017.03 Z" fill="#000000" fill-rule="nonzero" fill-opacity="1" /><path clip-path="url(#clip510)" d="M737.813 1046.34 L742.697 1046.34 L742.697 1052.22 L737.813 1052.22 L737.813 1046.34 Z" fill="#000000" fill-rule="nonzero" fill-opacity="1" /><path clip-path="url(#clip510)" d="M752.928 1017.66 L771.285 1017.66 L771.285 1021.6 L757.211 1021.6 L757.211 1030.07 Q758.229 1029.72 759.248 1029.56 Q760.266 1029.37 761.285 1029.37 Q767.072 1029.37 770.451 1032.54 Q773.831 1035.72 773.831 1041.13 Q773.831 1046.71 770.359 1049.81 Q766.887 1052.89 760.567 1052.89 Q758.391 1052.89 756.123 1052.52 Q753.877 1052.15 751.47 1051.41 L751.47 1046.71 Q753.553 1047.84 755.776 1048.4 Q757.998 1048.96 760.475 1048.96 Q764.479 1048.96 766.817 1046.85 Q769.155 1044.74 769.155 1041.13 Q769.155 1037.52 766.817 1035.41 Q764.479 1033.31 760.475 1033.31 Q758.6 1033.31 756.725 1033.72 Q754.873 1034.14 752.928 1035.02 L752.928 1017.66 Z" fill="#000000" fill-rule="nonzero" fill-opacity="1" /><path clip-path="url(#clip510)" d="M793.044 1020.74 Q789.433 1020.74 787.604 1024.3 Q785.798 1027.84 785.798 1034.97 Q785.798 1042.08 787.604 1045.65 Q789.433 1049.19 793.044 1049.19 Q796.678 1049.19 798.484 1045.65 Q800.312 1042.08 800.312 1034.97 Q800.312 1027.84 798.484 1024.3 Q796.678 1020.74 793.044 1020.74 M793.044 1017.03 Q798.854 1017.03 801.91 1021.64 Q804.988 1026.22 804.988 1034.97 Q804.988 1043.7 801.91 1048.31 Q798.854 1052.89 793.044 1052.89 Q787.234 1052.89 784.155 1048.31 Q781.099 1043.7 781.099 1034.97 Q781.099 1026.22 784.155 1021.64 Q787.234 1017.03 793.044 1017.03 Z" fill="#000000" fill-rule="nonzero" fill-opacity="1" /><path clip-path="url(#clip510)" d="M927.649 1020.74 Q924.038 1020.74 922.21 1024.3 Q920.404 1027.84 920.404 1034.97 Q920.404 1042.08 922.21 1045.65 Q924.038 1049.19 927.649 1049.19 Q931.284 1049.19 933.089 1045.65 Q934.918 1042.08 934.918 1034.97 Q934.918 1027.84 933.089 1024.3 Q931.284 1020.74 927.649 1020.74 M927.649 1017.03 Q933.46 1017.03 936.515 1021.64 Q939.594 1026.22 939.594 1034.97 Q939.594 1043.7 936.515 1048.31 Q933.46 1052.89 927.649 1052.89 Q921.839 1052.89 918.761 1048.31 Q915.705 1043.7 915.705 1034.97 Q915.705 1026.22 918.761 1021.64 Q921.839 1017.03 927.649 1017.03 Z" fill="#000000" fill-rule="nonzero" fill-opacity="1" /><path clip-path="url(#clip510)" d="M947.811 1046.34 L952.696 1046.34 L952.696 1052.22 L947.811 1052.22 L947.811 1046.34 Z" fill="#000000" fill-rule="nonzero" fill-opacity="1" /><path clip-path="url(#clip510)" d="M961.7 1017.66 L983.922 1017.66 L983.922 1019.65 L971.376 1052.22 L966.492 1052.22 L978.297 1021.6 L961.7 1021.6 L961.7 1017.66 Z" fill="#000000" fill-rule="nonzero" fill-opacity="1" /><path clip-path="url(#clip510)" d="M993.089 1017.66 L1011.45 1017.66 L1011.45 1021.6 L997.371 1021.6 L997.371 1030.07 Q998.39 1029.72 999.408 1029.56 Q1000.43 1029.37 1001.45 1029.37 Q1007.23 1029.37 1010.61 1032.54 Q1013.99 1035.72 1013.99 1041.13 Q1013.99 1046.71 1010.52 1049.81 Q1007.05 1052.89 1000.73 1052.89 Q998.552 1052.89 996.283 1052.52 Q994.038 1052.15 991.631 1051.41 L991.631 1046.71 Q993.714 1047.84 995.936 1048.4 Q998.158 1048.96 1000.64 1048.96 Q1004.64 1048.96 1006.98 1046.85 Q1009.32 1044.74 1009.32 1041.13 Q1009.32 1037.52 1006.98 1035.41 Q1004.64 1033.31 1000.64 1033.31 Q998.76 1033.31 996.885 1033.72 Q995.033 1034.14 993.089 1035.02 L993.089 1017.66 Z" fill="#000000" fill-rule="nonzero" fill-opacity="1" /><path clip-path="url(#clip510)" d="M1126.42 1048.28 L1134.06 1048.28 L1134.06 1021.92 L1125.75 1023.59 L1125.75 1019.33 L1134.01 1017.66 L1138.69 1017.66 L1138.69 1048.28 L1146.33 1048.28 L1146.33 1052.22 L1126.42 1052.22 L1126.42 1048.28 Z" fill="#000000" fill-rule="nonzero" fill-opacity="1" /><path clip-path="url(#clip510)" d="M1155.77 1046.34 L1160.66 1046.34 L1160.66 1052.22 L1155.77 1052.22 L1155.77 1046.34 Z" fill="#000000" fill-rule="nonzero" fill-opacity="1" /><path clip-path="url(#clip510)" d="M1180.84 1020.74 Q1177.23 1020.74 1175.4 1024.3 Q1173.6 1027.84 1173.6 1034.97 Q1173.6 1042.08 1175.4 1045.65 Q1177.23 1049.19 1180.84 1049.19 Q1184.48 1049.19 1186.28 1045.65 Q1188.11 1042.08 1188.11 1034.97 Q1188.11 1027.84 1186.28 1024.3 Q1184.48 1020.74 1180.84 1020.74 M1180.84 1017.03 Q1186.65 1017.03 1189.71 1021.64 Q1192.79 1026.22 1192.79 1034.97 Q1192.79 1043.7 1189.71 1048.31 Q1186.65 1052.89 1180.84 1052.89 Q1175.03 1052.89 1171.95 1048.31 Q1168.9 1043.7 1168.9 1034.97 Q1168.9 1026.22 1171.95 1021.64 Q1175.03 1017.03 1180.84 1017.03 Z" fill="#000000" fill-rule="nonzero" fill-opacity="1" /><path clip-path="url(#clip510)" d="M1211 1020.74 Q1207.39 1020.74 1205.56 1024.3 Q1203.76 1027.84 1203.76 1034.97 Q1203.76 1042.08 1205.56 1045.65 Q1207.39 1049.19 1211 1049.19 Q1214.64 1049.19 1216.44 1045.65 Q1218.27 1042.08 1218.27 1034.97 Q1218.27 1027.84 1216.44 1024.3 Q1214.64 1020.74 1211 1020.74 M1211 1017.03 Q1216.81 1017.03 1219.87 1021.64 Q1222.95 1026.22 1222.95 1034.97 Q1222.95 1043.7 1219.87 1048.31 Q1216.81 1052.89 1211 1052.89 Q1205.19 1052.89 1202.12 1048.31 Q1199.06 1043.7 1199.06 1034.97 Q1199.06 1026.22 1202.12 1021.64 Q1205.19 1017.03 1211 1017.03 Z" fill="#000000" fill-rule="nonzero" fill-opacity="1" /><path clip-path="url(#clip510)" d="M771.962 1103.52 L759.071 1120.86 L772.63 1139.16 L765.723 1139.16 L755.347 1125.16 L744.971 1139.16 L738.064 1139.16 L751.91 1120.51 L739.242 1103.52 L746.149 1103.52 L755.602 1116.22 L765.055 1103.52 L771.962 1103.52 Z" fill="#000000" fill-rule="nonzero" fill-opacity="1" /><polyline clip-path="url(#clip510)" style="stroke:#000000; stroke-linecap:round; stroke-linejoin:round; stroke-width:4; stroke-opacity:1; fill:none" points="234.683,984.7 234.683,96.4153 "/>
<polyline clip-path="url(#clip510)" style="stroke:#000000; stroke-linecap:round; stroke-linejoin:round; stroke-width:4; stroke-opacity:1; fill:none" points="234.683,959.56 253.581,959.56 "/>
<polyline clip-path="url(#clip510)" style="stroke:#000000; stroke-linecap:round; stroke-linejoin:round; stroke-width:4; stroke-opacity:1; fill:none" points="234.683,750.059 253.581,750.059 "/>
<polyline clip-path="url(#clip510)" style="stroke:#000000; stroke-linecap:round; stroke-linejoin:round; stroke-width:4; stroke-opacity:1; fill:none" points="234.683,540.558 253.581,540.558 "/>
<polyline clip-path="url(#clip510)" style="stroke:#000000; stroke-linecap:round; stroke-linejoin:round; stroke-width:4; stroke-opacity:1; fill:none" points="234.683,331.056 253.581,331.056 "/>
<polyline clip-path="url(#clip510)" style="stroke:#000000; stroke-linecap:round; stroke-linejoin:round; stroke-width:4; stroke-opacity:1; fill:none" points="234.683,121.555 253.581,121.555 "/>
<path clip-path="url(#clip510)" d="M101.746 945.358 Q98.1345 945.358 96.3058 948.923 Q94.5003 952.465 94.5003 959.594 Q94.5003 966.701 96.3058 970.266 Q98.1345 973.807 101.746 973.807 Q105.38 973.807 107.185 970.266 Q109.014 966.701 109.014 959.594 Q109.014 952.465 107.185 948.923 Q105.38 945.358 101.746 945.358 M101.746 941.655 Q107.556 941.655 110.611 946.261 Q113.69 950.844 113.69 959.594 Q113.69 968.321 110.611 972.928 Q107.556 977.511 101.746 977.511 Q95.9354 977.511 92.8567 972.928 Q89.8012 968.321 89.8012 959.594 Q89.8012 950.844 92.8567 946.261 Q95.9354 941.655 101.746 941.655 Z" fill="#000000" fill-rule="nonzero" fill-opacity="1" /><path clip-path="url(#clip510)" d="M121.908 970.96 L126.792 970.96 L126.792 976.84 L121.908 976.84 L121.908 970.96 Z" fill="#000000" fill-rule="nonzero" fill-opacity="1" /><path clip-path="url(#clip510)" d="M146.977 945.358 Q143.366 945.358 141.537 948.923 Q139.731 952.465 139.731 959.594 Q139.731 966.701 141.537 970.266 Q143.366 973.807 146.977 973.807 Q150.611 973.807 152.417 970.266 Q154.245 966.701 154.245 959.594 Q154.245 952.465 152.417 948.923 Q150.611 945.358 146.977 945.358 M146.977 941.655 Q152.787 941.655 155.843 946.261 Q158.921 950.844 158.921 959.594 Q158.921 968.321 155.843 972.928 Q152.787 977.511 146.977 977.511 Q141.167 977.511 138.088 972.928 Q135.032 968.321 135.032 959.594 Q135.032 950.844 138.088 946.261 Q141.167 941.655 146.977 941.655 Z" fill="#000000" fill-rule="nonzero" fill-opacity="1" /><path clip-path="url(#clip510)" d="M177.139 945.358 Q173.528 945.358 171.699 948.923 Q169.893 952.465 169.893 959.594 Q169.893 966.701 171.699 970.266 Q173.528 973.807 177.139 973.807 Q180.773 973.807 182.578 970.266 Q184.407 966.701 184.407 959.594 Q184.407 952.465 182.578 948.923 Q180.773 945.358 177.139 945.358 M177.139 941.655 Q182.949 941.655 186.004 946.261 Q189.083 950.844 189.083 959.594 Q189.083 968.321 186.004 972.928 Q182.949 977.511 177.139 977.511 Q171.329 977.511 168.25 972.928 Q165.194 968.321 165.194 959.594 Q165.194 950.844 168.25 946.261 Q171.329 941.655 177.139 941.655 Z" fill="#000000" fill-rule="nonzero" fill-opacity="1" /><path clip-path="url(#clip510)" d="M102.741 735.857 Q99.1299 735.857 97.3012 739.422 Q95.4956 742.964 95.4956 750.093 Q95.4956 757.2 97.3012 760.765 Q99.1299 764.306 102.741 764.306 Q106.375 764.306 108.181 760.765 Q110.009 757.2 110.009 750.093 Q110.009 742.964 108.181 739.422 Q106.375 735.857 102.741 735.857 M102.741 732.154 Q108.551 732.154 111.607 736.76 Q114.685 741.343 114.685 750.093 Q114.685 758.82 111.607 763.427 Q108.551 768.01 102.741 768.01 Q96.9308 768.01 93.8521 763.427 Q90.7966 758.82 90.7966 750.093 Q90.7966 741.343 93.8521 736.76 Q96.9308 732.154 102.741 732.154 Z" fill="#000000" fill-rule="nonzero" fill-opacity="1" /><path clip-path="url(#clip510)" d="M122.903 761.459 L127.787 761.459 L127.787 767.339 L122.903 767.339 L122.903 761.459 Z" fill="#000000" fill-rule="nonzero" fill-opacity="1" /><path clip-path="url(#clip510)" d="M142 763.403 L158.319 763.403 L158.319 767.339 L136.375 767.339 L136.375 763.403 Q139.037 760.649 143.62 756.019 Q148.227 751.367 149.407 750.024 Q151.653 747.501 152.532 745.765 Q153.435 744.005 153.435 742.316 Q153.435 739.561 151.491 737.825 Q149.569 736.089 146.468 736.089 Q144.269 736.089 141.815 736.853 Q139.384 737.617 136.607 739.167 L136.607 734.445 Q139.431 733.311 141.884 732.732 Q144.338 732.154 146.375 732.154 Q151.745 732.154 154.94 734.839 Q158.134 737.524 158.134 742.015 Q158.134 744.144 157.324 746.066 Q156.537 747.964 154.43 750.556 Q153.852 751.228 150.75 754.445 Q147.648 757.64 142 763.403 Z" fill="#000000" fill-rule="nonzero" fill-opacity="1" /><path clip-path="url(#clip510)" d="M168.18 732.779 L186.537 732.779 L186.537 736.714 L172.463 736.714 L172.463 745.186 Q173.481 744.839 174.5 744.677 Q175.518 744.492 176.537 744.492 Q182.324 744.492 185.703 747.663 Q189.083 750.834 189.083 756.251 Q189.083 761.829 185.611 764.931 Q182.139 768.01 175.819 768.01 Q173.643 768.01 171.375 767.64 Q169.129 767.269 166.722 766.528 L166.722 761.829 Q168.805 762.964 171.028 763.519 Q173.25 764.075 175.727 764.075 Q179.731 764.075 182.069 761.968 Q184.407 759.862 184.407 756.251 Q184.407 752.64 182.069 750.533 Q179.731 748.427 175.727 748.427 Q173.852 748.427 171.977 748.843 Q170.125 749.26 168.18 750.14 L168.18 732.779 Z" fill="#000000" fill-rule="nonzero" fill-opacity="1" /><path clip-path="url(#clip510)" d="M101.746 526.356 Q98.1345 526.356 96.3058 529.921 Q94.5003 533.463 94.5003 540.592 Q94.5003 547.699 96.3058 551.264 Q98.1345 554.805 101.746 554.805 Q105.38 554.805 107.185 551.264 Q109.014 547.699 109.014 540.592 Q109.014 533.463 107.185 529.921 Q105.38 526.356 101.746 526.356 M101.746 522.653 Q107.556 522.653 110.611 527.259 Q113.69 531.842 113.69 540.592 Q113.69 549.319 110.611 553.926 Q107.556 558.509 101.746 558.509 Q95.9354 558.509 92.8567 553.926 Q89.8012 549.319 89.8012 540.592 Q89.8012 531.842 92.8567 527.259 Q95.9354 522.653 101.746 522.653 Z" fill="#000000" fill-rule="nonzero" fill-opacity="1" /><path clip-path="url(#clip510)" d="M121.908 551.958 L126.792 551.958 L126.792 557.838 L121.908 557.838 L121.908 551.958 Z" fill="#000000" fill-rule="nonzero" fill-opacity="1" /><path clip-path="url(#clip510)" d="M137.023 523.278 L155.38 523.278 L155.38 527.213 L141.306 527.213 L141.306 535.685 Q142.324 535.338 143.343 535.176 Q144.361 534.99 145.38 534.99 Q151.167 534.99 154.546 538.162 Q157.926 541.333 157.926 546.75 Q157.926 552.328 154.454 555.43 Q150.981 558.509 144.662 558.509 Q142.486 558.509 140.218 558.138 Q137.972 557.768 135.565 557.027 L135.565 552.328 Q137.648 553.463 139.87 554.018 Q142.093 554.574 144.569 554.574 Q148.574 554.574 150.912 552.467 Q153.25 550.361 153.25 546.75 Q153.25 543.139 150.912 541.032 Q148.574 538.926 144.569 538.926 Q142.694 538.926 140.819 539.342 Q138.968 539.759 137.023 540.639 L137.023 523.278 Z" fill="#000000" fill-rule="nonzero" fill-opacity="1" /><path clip-path="url(#clip510)" d="M177.139 526.356 Q173.528 526.356 171.699 529.921 Q169.893 533.463 169.893 540.592 Q169.893 547.699 171.699 551.264 Q173.528 554.805 177.139 554.805 Q180.773 554.805 182.578 551.264 Q184.407 547.699 184.407 540.592 Q184.407 533.463 182.578 529.921 Q180.773 526.356 177.139 526.356 M177.139 522.653 Q182.949 522.653 186.004 527.259 Q189.083 531.842 189.083 540.592 Q189.083 549.319 186.004 553.926 Q182.949 558.509 177.139 558.509 Q171.329 558.509 168.25 553.926 Q165.194 549.319 165.194 540.592 Q165.194 531.842 168.25 527.259 Q171.329 522.653 177.139 522.653 Z" fill="#000000" fill-rule="nonzero" fill-opacity="1" /><path clip-path="url(#clip510)" d="M102.741 316.855 Q99.1299 316.855 97.3012 320.42 Q95.4956 323.962 95.4956 331.091 Q95.4956 338.198 97.3012 341.762 Q99.1299 345.304 102.741 345.304 Q106.375 345.304 108.181 341.762 Q110.009 338.198 110.009 331.091 Q110.009 323.962 108.181 320.42 Q106.375 316.855 102.741 316.855 M102.741 313.151 Q108.551 313.151 111.607 317.758 Q114.685 322.341 114.685 331.091 Q114.685 339.818 111.607 344.424 Q108.551 349.008 102.741 349.008 Q96.9308 349.008 93.8521 344.424 Q90.7966 339.818 90.7966 331.091 Q90.7966 322.341 93.8521 317.758 Q96.9308 313.151 102.741 313.151 Z" fill="#000000" fill-rule="nonzero" fill-opacity="1" /><path clip-path="url(#clip510)" d="M122.903 342.457 L127.787 342.457 L127.787 348.336 L122.903 348.336 L122.903 342.457 Z" fill="#000000" fill-rule="nonzero" fill-opacity="1" /><path clip-path="url(#clip510)" d="M136.792 313.776 L159.014 313.776 L159.014 315.767 L146.468 348.336 L141.583 348.336 L153.389 317.712 L136.792 317.712 L136.792 313.776 Z" fill="#000000" fill-rule="nonzero" fill-opacity="1" /><path clip-path="url(#clip510)" d="M168.18 313.776 L186.537 313.776 L186.537 317.712 L172.463 317.712 L172.463 326.184 Q173.481 325.837 174.5 325.675 Q175.518 325.489 176.537 325.489 Q182.324 325.489 185.703 328.661 Q189.083 331.832 189.083 337.249 Q189.083 342.827 185.611 345.929 Q182.139 349.008 175.819 349.008 Q173.643 349.008 171.375 348.637 Q169.129 348.267 166.722 347.526 L166.722 342.827 Q168.805 343.962 171.028 344.517 Q173.25 345.073 175.727 345.073 Q179.731 345.073 182.069 342.966 Q184.407 340.86 184.407 337.249 Q184.407 333.637 182.069 331.531 Q179.731 329.425 175.727 329.425 Q173.852 329.425 171.977 329.841 Q170.125 330.258 168.18 331.138 L168.18 313.776 Z" fill="#000000" fill-rule="nonzero" fill-opacity="1" /><path clip-path="url(#clip510)" d="M92.5558 134.9 L100.195 134.9 L100.195 108.535 L91.8845 110.201 L91.8845 105.942 L100.148 104.275 L104.824 104.275 L104.824 134.9 L112.463 134.9 L112.463 138.835 L92.5558 138.835 L92.5558 134.9 Z" fill="#000000" fill-rule="nonzero" fill-opacity="1" /><path clip-path="url(#clip510)" d="M121.908 132.956 L126.792 132.956 L126.792 138.835 L121.908 138.835 L121.908 132.956 Z" fill="#000000" fill-rule="nonzero" fill-opacity="1" /><path clip-path="url(#clip510)" d="M146.977 107.354 Q143.366 107.354 141.537 110.919 Q139.731 114.461 139.731 121.59 Q139.731 128.697 141.537 132.261 Q143.366 135.803 146.977 135.803 Q150.611 135.803 152.417 132.261 Q154.245 128.697 154.245 121.59 Q154.245 114.461 152.417 110.919 Q150.611 107.354 146.977 107.354 M146.977 103.65 Q152.787 103.65 155.843 108.257 Q158.921 112.84 158.921 121.59 Q158.921 130.317 155.843 134.923 Q152.787 139.507 146.977 139.507 Q141.167 139.507 138.088 134.923 Q135.032 130.317 135.032 121.59 Q135.032 112.84 138.088 108.257 Q141.167 103.65 146.977 103.65 Z" fill="#000000" fill-rule="nonzero" fill-opacity="1" /><path clip-path="url(#clip510)" d="M177.139 107.354 Q173.528 107.354 171.699 110.919 Q169.893 114.461 169.893 121.59 Q169.893 128.697 171.699 132.261 Q173.528 135.803 177.139 135.803 Q180.773 135.803 182.578 132.261 Q184.407 128.697 184.407 121.59 Q184.407 114.461 182.578 110.919 Q180.773 107.354 177.139 107.354 M177.139 103.65 Q182.949 103.65 186.004 108.257 Q189.083 112.84 189.083 121.59 Q189.083 130.317 186.004 134.923 Q182.949 139.507 177.139 139.507 Q171.329 139.507 168.25 134.923 Q165.194 130.317 165.194 121.59 Q165.194 112.84 168.25 108.257 Q171.329 103.65 177.139 103.65 Z" fill="#000000" fill-rule="nonzero" fill-opacity="1" /><path clip-path="url(#clip510)" d="M33.2554 538.871 Q39.6211 541.353 41.5626 543.709 Q43.5042 546.064 43.5042 550.011 L43.5042 554.689 L38.6026 554.689 L38.6026 551.252 Q38.6026 548.833 37.4567 547.496 Q36.3109 546.159 32.0459 544.536 L29.3723 543.486 L-5.70275 557.904 L-5.70275 551.698 L22.179 540.558 L-5.70275 529.418 L-5.70275 523.211 L33.2554 538.871 Z" fill="#000000" fill-rule="nonzero" fill-opacity="1" /><path clip-path="url(#clip510)" d="M653.183 14.0809 L653.183 22.0612 Q648.525 19.8332 644.393 18.7395 Q640.261 17.6457 636.413 17.6457 Q629.729 17.6457 626.083 20.2383 Q622.478 22.8309 622.478 27.611 Q622.478 31.6214 624.868 33.6873 Q627.298 35.7128 634.023 36.9686 L638.965 37.9813 Q648.12 39.7232 652.454 44.1387 Q656.829 48.5136 656.829 55.8863 Q656.829 64.6767 650.915 69.2137 Q645.041 73.7508 633.658 73.7508 Q629.364 73.7508 624.503 72.7785 Q619.682 71.8063 614.497 69.9024 L614.497 61.4765 Q619.48 64.2716 624.26 65.6895 Q629.04 67.1073 633.658 67.1073 Q640.666 67.1073 644.474 64.3527 Q648.282 61.598 648.282 56.4939 Q648.282 52.0379 645.527 49.5264 Q642.813 47.0148 636.575 45.759 L631.592 44.7868 Q622.437 42.9639 618.346 39.075 Q614.254 35.1862 614.254 28.2591 Q614.254 20.2383 619.885 15.6203 Q625.556 11.0023 635.481 11.0023 Q639.734 11.0023 644.15 11.7719 Q648.565 12.5416 653.183 14.0809 Z" fill="#000000" fill-rule="nonzero" fill-opacity="1" /><path clip-path="url(#clip510)" d="M673.722 49.9314 Q673.722 58.1548 677.084 62.8538 Q680.487 67.5124 686.401 67.5124 Q692.315 67.5124 695.718 62.8538 Q699.121 58.1548 699.121 49.9314 Q699.121 41.7081 695.718 37.0496 Q692.315 32.3505 686.401 32.3505 Q680.487 32.3505 677.084 37.0496 Q673.722 41.7081 673.722 49.9314 M699.121 65.7705 Q696.771 69.8214 693.166 71.8063 Q689.601 73.7508 684.578 73.7508 Q676.355 73.7508 671.169 67.1883 Q666.025 60.6258 666.025 49.9314 Q666.025 39.2371 671.169 32.6746 Q676.355 26.1121 684.578 26.1121 Q689.601 26.1121 693.166 28.0971 Q696.771 30.0415 699.121 34.0924 L699.121 27.2059 L706.574 27.2059 L706.574 89.8329 L699.121 89.8329 L699.121 65.7705 Z" fill="#000000" fill-rule="nonzero" fill-opacity="1" /><path clip-path="url(#clip510)" d="M721.158 54.671 L721.158 27.2059 L728.611 27.2059 L728.611 54.3874 Q728.611 60.8284 731.123 64.0691 Q733.634 67.2693 738.658 67.2693 Q744.693 67.2693 748.177 63.421 Q751.701 59.5726 751.701 52.9291 L751.701 27.2059 L759.155 27.2059 L759.155 72.576 L751.701 72.576 L751.701 65.6084 Q748.987 69.7404 745.382 71.7658 Q741.817 73.7508 737.078 73.7508 Q729.259 73.7508 725.209 68.8897 Q721.158 64.0286 721.158 54.671 M739.913 26.1121 L739.913 26.1121 Z" fill="#000000" fill-rule="nonzero" fill-opacity="1" /><path clip-path="url(#clip510)" d="M795.127 49.7694 Q786.094 49.7694 782.61 51.8354 Q779.126 53.9013 779.126 58.8839 Q779.126 62.8538 781.719 65.2034 Q784.352 67.5124 788.848 67.5124 Q795.046 67.5124 798.773 63.1374 Q802.54 58.7219 802.54 51.4303 L802.54 49.7694 L795.127 49.7694 M809.994 46.6907 L809.994 72.576 L802.54 72.576 L802.54 65.6895 Q799.988 69.8214 796.18 71.8063 Q792.373 73.7508 786.863 73.7508 Q779.896 73.7508 775.764 69.8619 Q771.672 65.9325 771.672 59.3701 Q771.672 51.7138 776.777 47.825 Q781.921 43.9361 792.089 43.9361 L802.54 43.9361 L802.54 43.2069 Q802.54 38.0623 799.138 35.2672 Q795.775 32.4315 789.658 32.4315 Q785.77 32.4315 782.083 33.3632 Q778.397 34.295 774.994 36.1584 L774.994 29.2718 Q779.086 27.692 782.934 26.9223 Q786.782 26.1121 790.428 26.1121 Q800.272 26.1121 805.133 31.2163 Q809.994 36.3204 809.994 46.6907 Z" fill="#000000" fill-rule="nonzero" fill-opacity="1" /><path clip-path="url(#clip510)" d="M851.637 34.1734 Q850.381 33.4443 848.883 33.1202 Q847.424 32.7556 845.642 32.7556 Q839.323 32.7556 835.92 36.8875 Q832.557 40.9789 832.557 48.6757 L832.557 72.576 L825.063 72.576 L825.063 27.2059 L832.557 27.2059 L832.557 34.2544 Q834.907 30.1225 838.674 28.1376 Q842.442 26.1121 847.829 26.1121 Q848.599 26.1121 849.531 26.2337 Q850.462 26.3147 851.597 26.5172 L851.637 34.1734 Z" fill="#000000" fill-rule="nonzero" fill-opacity="1" /><path clip-path="url(#clip510)" d="M896.44 48.0275 L896.44 51.6733 L862.17 51.6733 Q862.656 59.3701 866.788 63.421 Q870.96 67.4314 878.373 67.4314 Q882.667 67.4314 886.678 66.3781 Q890.728 65.3249 894.698 63.2184 L894.698 70.267 Q890.688 71.9684 886.475 72.8596 Q882.262 73.7508 877.928 73.7508 Q867.071 73.7508 860.711 67.4314 Q854.392 61.1119 854.392 50.3365 Q854.392 39.1965 860.387 32.6746 Q866.423 26.1121 876.631 26.1121 Q885.786 26.1121 891.093 32.0264 Q896.44 37.9003 896.44 48.0275 M888.987 45.84 Q888.906 39.7232 885.543 36.0774 Q882.222 32.4315 876.712 32.4315 Q870.474 32.4315 866.707 35.9558 Q862.98 39.4801 862.413 45.8805 L888.987 45.84 Z" fill="#000000" fill-rule="nonzero" fill-opacity="1" /><circle clip-path="url(#clip512)" cx="336.345" cy="959.56" r="14.4" fill="#a40025" fill-rule="evenodd" fill-opacity="1" stroke="none"/>
<path clip-path="url(#clip510)" d="M1951.43 984.7 L2992.76 984.7 L2992.76 96.4153 L1951.43 96.4153  Z" fill="#d3d3d3" fill-rule="evenodd" fill-opacity="1"/>
<defs>
  <clipPath id="clip513">
    <rect x="1951" y="96" width="1042" height="889"/>
  </clipPath>
</defs>
<polyline clip-path="url(#clip510)" style="stroke:#000000; stroke-linecap:round; stroke-linejoin:round; stroke-width:4; stroke-opacity:1; fill:none" points="1951.43,984.7 2992.76,984.7 "/>
<polyline clip-path="url(#clip510)" style="stroke:#000000; stroke-linecap:round; stroke-linejoin:round; stroke-width:4; stroke-opacity:1; fill:none" points="1980.9,984.7 1980.9,965.802 "/>
<polyline clip-path="url(#clip510)" style="stroke:#000000; stroke-linecap:round; stroke-linejoin:round; stroke-width:4; stroke-opacity:1; fill:none" points="2226.5,984.7 2226.5,965.802 "/>
<polyline clip-path="url(#clip510)" style="stroke:#000000; stroke-linecap:round; stroke-linejoin:round; stroke-width:4; stroke-opacity:1; fill:none" points="2472.09,984.7 2472.09,965.802 "/>
<polyline clip-path="url(#clip510)" style="stroke:#000000; stroke-linecap:round; stroke-linejoin:round; stroke-width:4; stroke-opacity:1; fill:none" points="2717.69,984.7 2717.69,965.802 "/>
<polyline clip-path="url(#clip510)" style="stroke:#000000; stroke-linecap:round; stroke-linejoin:round; stroke-width:4; stroke-opacity:1; fill:none" points="2963.28,984.7 2963.28,965.802 "/>
<path clip-path="url(#clip510)" d="M1943.2 1020.74 Q1939.59 1020.74 1937.76 1024.3 Q1935.96 1027.84 1935.96 1034.97 Q1935.96 1042.08 1937.76 1045.65 Q1939.59 1049.19 1943.2 1049.19 Q1946.84 1049.19 1948.64 1045.65 Q1950.47 1042.08 1950.47 1034.97 Q1950.47 1027.84 1948.64 1024.3 Q1946.84 1020.74 1943.2 1020.74 M1943.2 1017.03 Q1949.01 1017.03 1952.07 1021.64 Q1955.15 1026.22 1955.15 1034.97 Q1955.15 1043.7 1952.07 1048.31 Q1949.01 1052.89 1943.2 1052.89 Q1937.39 1052.89 1934.31 1048.31 Q1931.26 1043.7 1931.26 1034.97 Q1931.26 1026.22 1934.31 1021.64 Q1937.39 1017.03 1943.2 1017.03 Z" fill="#000000" fill-rule="nonzero" fill-opacity="1" /><path clip-path="url(#clip510)" d="M1963.36 1046.34 L1968.25 1046.34 L1968.25 1052.22 L1963.36 1052.22 L1963.36 1046.34 Z" fill="#000000" fill-rule="nonzero" fill-opacity="1" /><path clip-path="url(#clip510)" d="M1988.43 1020.74 Q1984.82 1020.74 1982.99 1024.3 Q1981.19 1027.84 1981.19 1034.97 Q1981.19 1042.08 1982.99 1045.65 Q1984.82 1049.19 1988.43 1049.19 Q1992.07 1049.19 1993.87 1045.65 Q1995.7 1042.08 1995.7 1034.97 Q1995.7 1027.84 1993.87 1024.3 Q1992.07 1020.74 1988.43 1020.74 M1988.43 1017.03 Q1994.24 1017.03 1997.3 1021.64 Q2000.38 1026.22 2000.38 1034.97 Q2000.38 1043.7 1997.3 1048.31 Q1994.24 1052.89 1988.43 1052.89 Q1982.62 1052.89 1979.54 1048.31 Q1976.49 1043.7 1976.49 1034.97 Q1976.49 1026.22 1979.54 1021.64 Q1982.62 1017.03 1988.43 1017.03 Z" fill="#000000" fill-rule="nonzero" fill-opacity="1" /><path clip-path="url(#clip510)" d="M2018.6 1020.74 Q2014.98 1020.74 2013.16 1024.3 Q2011.35 1027.84 2011.35 1034.97 Q2011.35 1042.08 2013.16 1045.65 Q2014.98 1049.19 2018.6 1049.19 Q2022.23 1049.19 2024.04 1045.65 Q2025.86 1042.08 2025.86 1034.97 Q2025.86 1027.84 2024.04 1024.3 Q2022.23 1020.74 2018.6 1020.74 M2018.6 1017.03 Q2024.41 1017.03 2027.46 1021.64 Q2030.54 1026.22 2030.54 1034.97 Q2030.54 1043.7 2027.46 1048.31 Q2024.41 1052.89 2018.6 1052.89 Q2012.79 1052.89 2009.71 1048.31 Q2006.65 1043.7 2006.65 1034.97 Q2006.65 1026.22 2009.71 1021.64 Q2012.79 1017.03 2018.6 1017.03 Z" fill="#000000" fill-rule="nonzero" fill-opacity="1" /><path clip-path="url(#clip510)" d="M2189.3 1020.74 Q2185.69 1020.74 2183.86 1024.3 Q2182.05 1027.84 2182.05 1034.97 Q2182.05 1042.08 2183.86 1045.65 Q2185.69 1049.19 2189.3 1049.19 Q2192.93 1049.19 2194.74 1045.65 Q2196.57 1042.08 2196.57 1034.97 Q2196.57 1027.84 2194.74 1024.3 Q2192.93 1020.74 2189.3 1020.74 M2189.3 1017.03 Q2195.11 1017.03 2198.16 1021.64 Q2201.24 1026.22 2201.24 1034.97 Q2201.24 1043.7 2198.16 1048.31 Q2195.11 1052.89 2189.3 1052.89 Q2183.49 1052.89 2180.41 1048.31 Q2177.35 1043.7 2177.35 1034.97 Q2177.35 1026.22 2180.41 1021.64 Q2183.49 1017.03 2189.3 1017.03 Z" fill="#000000" fill-rule="nonzero" fill-opacity="1" /><path clip-path="url(#clip510)" d="M2209.46 1046.34 L2214.34 1046.34 L2214.34 1052.22 L2209.46 1052.22 L2209.46 1046.34 Z" fill="#000000" fill-rule="nonzero" fill-opacity="1" /><path clip-path="url(#clip510)" d="M2228.56 1048.28 L2244.87 1048.28 L2244.87 1052.22 L2222.93 1052.22 L2222.93 1048.28 Q2225.59 1045.53 2230.18 1040.9 Q2234.78 1036.25 2235.96 1034.91 Q2238.21 1032.38 2239.09 1030.65 Q2239.99 1028.89 2239.99 1027.2 Q2239.99 1024.44 2238.05 1022.71 Q2236.12 1020.97 2233.02 1020.97 Q2230.82 1020.97 2228.37 1021.73 Q2225.94 1022.5 2223.16 1024.05 L2223.16 1019.33 Q2225.99 1018.19 2228.44 1017.61 Q2230.89 1017.03 2232.93 1017.03 Q2238.3 1017.03 2241.5 1019.72 Q2244.69 1022.41 2244.69 1026.9 Q2244.69 1029.03 2243.88 1030.95 Q2243.09 1032.84 2240.99 1035.44 Q2240.41 1036.11 2237.31 1039.33 Q2234.2 1042.52 2228.56 1048.28 Z" fill="#000000" fill-rule="nonzero" fill-opacity="1" /><path clip-path="url(#clip510)" d="M2254.74 1017.66 L2273.09 1017.66 L2273.09 1021.6 L2259.02 1021.6 L2259.02 1030.07 Q2260.04 1029.72 2261.06 1029.56 Q2262.07 1029.37 2263.09 1029.37 Q2268.88 1029.37 2272.26 1032.54 Q2275.64 1035.72 2275.64 1041.13 Q2275.64 1046.71 2272.17 1049.81 Q2268.69 1052.89 2262.37 1052.89 Q2260.2 1052.89 2257.93 1052.52 Q2255.69 1052.15 2253.28 1051.41 L2253.28 1046.71 Q2255.36 1047.84 2257.58 1048.4 Q2259.81 1048.96 2262.28 1048.96 Q2266.29 1048.96 2268.62 1046.85 Q2270.96 1044.74 2270.96 1041.13 Q2270.96 1037.52 2268.62 1035.41 Q2266.29 1033.31 2262.28 1033.31 Q2260.41 1033.31 2258.53 1033.72 Q2256.68 1034.14 2254.74 1035.02 L2254.74 1017.66 Z" fill="#000000" fill-rule="nonzero" fill-opacity="1" /><path clip-path="url(#clip510)" d="M2434.4 1020.74 Q2430.78 1020.74 2428.96 1024.3 Q2427.15 1027.84 2427.15 1034.97 Q2427.15 1042.08 2428.96 1045.65 Q2430.78 1049.19 2434.4 1049.19 Q2438.03 1049.19 2439.83 1045.65 Q2441.66 1042.08 2441.66 1034.97 Q2441.66 1027.84 2439.83 1024.3 Q2438.03 1020.74 2434.4 1020.74 M2434.4 1017.03 Q2440.21 1017.03 2443.26 1021.64 Q2446.34 1026.22 2446.34 1034.97 Q2446.34 1043.7 2443.26 1048.31 Q2440.21 1052.89 2434.4 1052.89 Q2428.59 1052.89 2425.51 1048.31 Q2422.45 1043.7 2422.45 1034.97 Q2422.45 1026.22 2425.51 1021.64 Q2428.59 1017.03 2434.4 1017.03 Z" fill="#000000" fill-rule="nonzero" fill-opacity="1" /><path clip-path="url(#clip510)" d="M2454.56 1046.34 L2459.44 1046.34 L2459.44 1052.22 L2454.56 1052.22 L2454.56 1046.34 Z" fill="#000000" fill-rule="nonzero" fill-opacity="1" /><path clip-path="url(#clip510)" d="M2469.67 1017.66 L2488.03 1017.66 L2488.03 1021.6 L2473.96 1021.6 L2473.96 1030.07 Q2474.97 1029.72 2475.99 1029.56 Q2477.01 1029.37 2478.03 1029.37 Q2483.82 1029.37 2487.2 1032.54 Q2490.58 1035.72 2490.58 1041.13 Q2490.58 1046.71 2487.1 1049.81 Q2483.63 1052.89 2477.31 1052.89 Q2475.14 1052.89 2472.87 1052.52 Q2470.62 1052.15 2468.21 1051.41 L2468.21 1046.71 Q2470.3 1047.84 2472.52 1048.4 Q2474.74 1048.96 2477.22 1048.96 Q2481.22 1048.96 2483.56 1046.85 Q2485.9 1044.74 2485.9 1041.13 Q2485.9 1037.52 2483.56 1035.41 Q2481.22 1033.31 2477.22 1033.31 Q2475.34 1033.31 2473.47 1033.72 Q2471.62 1034.14 2469.67 1035.02 L2469.67 1017.66 Z" fill="#000000" fill-rule="nonzero" fill-opacity="1" /><path clip-path="url(#clip510)" d="M2509.79 1020.74 Q2506.18 1020.74 2504.35 1024.3 Q2502.54 1027.84 2502.54 1034.97 Q2502.54 1042.08 2504.35 1045.65 Q2506.18 1049.19 2509.79 1049.19 Q2513.42 1049.19 2515.23 1045.65 Q2517.06 1042.08 2517.06 1034.97 Q2517.06 1027.84 2515.23 1024.3 Q2513.42 1020.74 2509.79 1020.74 M2509.79 1017.03 Q2515.6 1017.03 2518.65 1021.64 Q2521.73 1026.22 2521.73 1034.97 Q2521.73 1043.7 2518.65 1048.31 Q2515.6 1052.89 2509.79 1052.89 Q2503.98 1052.89 2500.9 1048.31 Q2497.84 1043.7 2497.84 1034.97 Q2497.84 1026.22 2500.9 1021.64 Q2503.98 1017.03 2509.79 1017.03 Z" fill="#000000" fill-rule="nonzero" fill-opacity="1" /><path clip-path="url(#clip510)" d="M2680.49 1020.74 Q2676.88 1020.74 2675.05 1024.3 Q2673.24 1027.84 2673.24 1034.97 Q2673.24 1042.08 2675.05 1045.65 Q2676.88 1049.19 2680.49 1049.19 Q2684.12 1049.19 2685.93 1045.65 Q2687.76 1042.08 2687.76 1034.97 Q2687.76 1027.84 2685.93 1024.3 Q2684.12 1020.74 2680.49 1020.74 M2680.49 1017.03 Q2686.3 1017.03 2689.35 1021.64 Q2692.43 1026.22 2692.43 1034.97 Q2692.43 1043.7 2689.35 1048.31 Q2686.3 1052.89 2680.49 1052.89 Q2674.68 1052.89 2671.6 1048.31 Q2668.54 1043.7 2668.54 1034.97 Q2668.54 1026.22 2671.6 1021.64 Q2674.68 1017.03 2680.49 1017.03 Z" fill="#000000" fill-rule="nonzero" fill-opacity="1" /><path clip-path="url(#clip510)" d="M2700.65 1046.34 L2705.54 1046.34 L2705.54 1052.22 L2700.65 1052.22 L2700.65 1046.34 Z" fill="#000000" fill-rule="nonzero" fill-opacity="1" /><path clip-path="url(#clip510)" d="M2714.54 1017.66 L2736.76 1017.66 L2736.76 1019.65 L2724.22 1052.22 L2719.33 1052.22 L2731.14 1021.6 L2714.54 1021.6 L2714.54 1017.66 Z" fill="#000000" fill-rule="nonzero" fill-opacity="1" /><path clip-path="url(#clip510)" d="M2745.93 1017.66 L2764.29 1017.66 L2764.29 1021.6 L2750.21 1021.6 L2750.21 1030.07 Q2751.23 1029.72 2752.25 1029.56 Q2753.27 1029.37 2754.29 1029.37 Q2760.07 1029.37 2763.45 1032.54 Q2766.83 1035.72 2766.83 1041.13 Q2766.83 1046.71 2763.36 1049.81 Q2759.89 1052.89 2753.57 1052.89 Q2751.39 1052.89 2749.12 1052.52 Q2746.88 1052.15 2744.47 1051.41 L2744.47 1046.71 Q2746.55 1047.84 2748.78 1048.4 Q2751 1048.96 2753.47 1048.96 Q2757.48 1048.96 2759.82 1046.85 Q2762.16 1044.74 2762.16 1041.13 Q2762.16 1037.52 2759.82 1035.41 Q2757.48 1033.31 2753.47 1033.31 Q2751.6 1033.31 2749.72 1033.72 Q2747.87 1034.14 2745.93 1035.02 L2745.93 1017.66 Z" fill="#000000" fill-rule="nonzero" fill-opacity="1" /><path clip-path="url(#clip510)" d="M2915.36 1048.28 L2923 1048.28 L2923 1021.92 L2914.69 1023.59 L2914.69 1019.33 L2922.95 1017.66 L2927.62 1017.66 L2927.62 1048.28 L2935.26 1048.28 L2935.26 1052.22 L2915.36 1052.22 L2915.36 1048.28 Z" fill="#000000" fill-rule="nonzero" fill-opacity="1" /><path clip-path="url(#clip510)" d="M2944.71 1046.34 L2949.59 1046.34 L2949.59 1052.22 L2944.71 1052.22 L2944.71 1046.34 Z" fill="#000000" fill-rule="nonzero" fill-opacity="1" /><path clip-path="url(#clip510)" d="M2969.78 1020.74 Q2966.17 1020.74 2964.34 1024.3 Q2962.53 1027.84 2962.53 1034.97 Q2962.53 1042.08 2964.34 1045.65 Q2966.17 1049.19 2969.78 1049.19 Q2973.41 1049.19 2975.22 1045.65 Q2977.05 1042.08 2977.05 1034.97 Q2977.05 1027.84 2975.22 1024.3 Q2973.41 1020.74 2969.78 1020.74 M2969.78 1017.03 Q2975.59 1017.03 2978.64 1021.64 Q2981.72 1026.22 2981.72 1034.97 Q2981.72 1043.7 2978.64 1048.31 Q2975.59 1052.89 2969.78 1052.89 Q2963.97 1052.89 2960.89 1048.31 Q2957.83 1043.7 2957.83 1034.97 Q2957.83 1026.22 2960.89 1021.64 Q2963.97 1017.03 2969.78 1017.03 Z" fill="#000000" fill-rule="nonzero" fill-opacity="1" /><path clip-path="url(#clip510)" d="M2999.94 1020.74 Q2996.33 1020.74 2994.5 1024.3 Q2992.69 1027.84 2992.69 1034.97 Q2992.69 1042.08 2994.5 1045.65 Q2996.33 1049.19 2999.94 1049.19 Q3003.57 1049.19 3005.38 1045.65 Q3007.21 1042.08 3007.21 1034.97 Q3007.21 1027.84 3005.38 1024.3 Q3003.57 1020.74 2999.94 1020.74 M2999.94 1017.03 Q3005.75 1017.03 3008.8 1021.64 Q3011.88 1026.22 3011.88 1034.97 Q3011.88 1043.7 3008.8 1048.31 Q3005.75 1052.89 2999.94 1052.89 Q2994.13 1052.89 2991.05 1048.31 Q2987.99 1043.7 2987.99 1034.97 Q2987.99 1026.22 2991.05 1021.64 Q2994.13 1017.03 2999.94 1017.03 Z" fill="#000000" fill-rule="nonzero" fill-opacity="1" /><path clip-path="url(#clip510)" d="M2488.71 1103.52 L2475.82 1120.86 L2489.37 1139.16 L2482.47 1139.16 L2472.09 1125.16 L2461.72 1139.16 L2454.81 1139.16 L2468.65 1120.51 L2455.99 1103.52 L2462.89 1103.52 L2472.35 1116.22 L2481.8 1103.52 L2488.71 1103.52 Z" fill="#000000" fill-rule="nonzero" fill-opacity="1" /><polyline clip-path="url(#clip510)" style="stroke:#000000; stroke-linecap:round; stroke-linejoin:round; stroke-width:4; stroke-opacity:1; fill:none" points="1951.43,984.7 1951.43,96.4153 "/>
<polyline clip-path="url(#clip510)" style="stroke:#000000; stroke-linecap:round; stroke-linejoin:round; stroke-width:4; stroke-opacity:1; fill:none" points="1951.43,933.512 1970.33,933.512 "/>
<polyline clip-path="url(#clip510)" style="stroke:#000000; stroke-linecap:round; stroke-linejoin:round; stroke-width:4; stroke-opacity:1; fill:none" points="1951.43,737.035 1970.33,737.035 "/>
<polyline clip-path="url(#clip510)" style="stroke:#000000; stroke-linecap:round; stroke-linejoin:round; stroke-width:4; stroke-opacity:1; fill:none" points="1951.43,540.558 1970.33,540.558 "/>
<polyline clip-path="url(#clip510)" style="stroke:#000000; stroke-linecap:round; stroke-linejoin:round; stroke-width:4; stroke-opacity:1; fill:none" points="1951.43,344.081 1970.33,344.081 "/>
<polyline clip-path="url(#clip510)" style="stroke:#000000; stroke-linecap:round; stroke-linejoin:round; stroke-width:4; stroke-opacity:1; fill:none" points="1951.43,147.603 1970.33,147.603 "/>
<path clip-path="url(#clip510)" d="M1798.4 933.963 L1828.07 933.963 L1828.07 937.898 L1798.4 937.898 L1798.4 933.963 Z" fill="#000000" fill-rule="nonzero" fill-opacity="1" /><path clip-path="url(#clip510)" d="M1848.17 919.31 Q1844.55 919.31 1842.73 922.875 Q1840.92 926.417 1840.92 933.546 Q1840.92 940.653 1842.73 944.218 Q1844.55 947.759 1848.17 947.759 Q1851.8 947.759 1853.61 944.218 Q1855.43 940.653 1855.43 933.546 Q1855.43 926.417 1853.61 922.875 Q1851.8 919.31 1848.17 919.31 M1848.17 915.607 Q1853.98 915.607 1857.03 920.213 Q1860.11 924.796 1860.11 933.546 Q1860.11 942.273 1857.03 946.88 Q1853.98 951.463 1848.17 951.463 Q1842.36 951.463 1839.28 946.88 Q1836.22 942.273 1836.22 933.546 Q1836.22 924.796 1839.28 920.213 Q1842.36 915.607 1848.17 915.607 Z" fill="#000000" fill-rule="nonzero" fill-opacity="1" /><path clip-path="url(#clip510)" d="M1868.33 944.912 L1873.21 944.912 L1873.21 950.792 L1868.33 950.792 L1868.33 944.912 Z" fill="#000000" fill-rule="nonzero" fill-opacity="1" /><path clip-path="url(#clip510)" d="M1896.24 920.306 L1884.44 938.755 L1896.24 938.755 L1896.24 920.306 M1895.02 916.232 L1900.9 916.232 L1900.9 938.755 L1905.83 938.755 L1905.83 942.644 L1900.9 942.644 L1900.9 950.792 L1896.24 950.792 L1896.24 942.644 L1880.64 942.644 L1880.64 938.13 L1895.02 916.232 Z" fill="#000000" fill-rule="nonzero" fill-opacity="1" /><path clip-path="url(#clip510)" d="M1800.48 737.486 L1830.16 737.486 L1830.16 741.421 L1800.48 741.421 L1800.48 737.486 Z" fill="#000000" fill-rule="nonzero" fill-opacity="1" /><path clip-path="url(#clip510)" d="M1850.25 722.833 Q1846.64 722.833 1844.81 726.398 Q1843 729.94 1843 737.069 Q1843 744.176 1844.81 747.741 Q1846.64 751.282 1850.25 751.282 Q1853.88 751.282 1855.69 747.741 Q1857.52 744.176 1857.52 737.069 Q1857.52 729.94 1855.69 726.398 Q1853.88 722.833 1850.25 722.833 M1850.25 719.13 Q1856.06 719.13 1859.11 723.736 Q1862.19 728.319 1862.19 737.069 Q1862.19 745.796 1859.11 750.403 Q1856.06 754.986 1850.25 754.986 Q1844.44 754.986 1841.36 750.403 Q1838.3 745.796 1838.3 737.069 Q1838.3 728.319 1841.36 723.736 Q1844.44 719.13 1850.25 719.13 Z" fill="#000000" fill-rule="nonzero" fill-opacity="1" /><path clip-path="url(#clip510)" d="M1870.41 748.435 L1875.3 748.435 L1875.3 754.315 L1870.41 754.315 L1870.41 748.435 Z" fill="#000000" fill-rule="nonzero" fill-opacity="1" /><path clip-path="url(#clip510)" d="M1889.51 750.379 L1905.83 750.379 L1905.83 754.315 L1883.88 754.315 L1883.88 750.379 Q1886.55 747.625 1891.13 742.995 Q1895.74 738.342 1896.92 737 Q1899.16 734.477 1900.04 732.741 Q1900.94 730.981 1900.94 729.292 Q1900.94 726.537 1899 724.801 Q1897.08 723.065 1893.98 723.065 Q1891.78 723.065 1889.32 723.829 Q1886.89 724.593 1884.11 726.143 L1884.11 721.421 Q1886.94 720.287 1889.39 719.708 Q1891.85 719.13 1893.88 719.13 Q1899.25 719.13 1902.45 721.815 Q1905.64 724.5 1905.64 728.991 Q1905.64 731.12 1904.83 733.042 Q1904.05 734.94 1901.94 737.532 Q1901.36 738.204 1898.26 741.421 Q1895.16 744.616 1889.51 750.379 Z" fill="#000000" fill-rule="nonzero" fill-opacity="1" /><path clip-path="url(#clip510)" d="M1848.65 526.356 Q1845.04 526.356 1843.21 529.921 Q1841.41 533.463 1841.41 540.592 Q1841.41 547.699 1843.21 551.264 Q1845.04 554.805 1848.65 554.805 Q1852.29 554.805 1854.09 551.264 Q1855.92 547.699 1855.92 540.592 Q1855.92 533.463 1854.09 529.921 Q1852.29 526.356 1848.65 526.356 M1848.65 522.653 Q1854.46 522.653 1857.52 527.259 Q1860.6 531.842 1860.6 540.592 Q1860.6 549.319 1857.52 553.926 Q1854.46 558.509 1848.65 558.509 Q1842.84 558.509 1839.76 553.926 Q1836.71 549.319 1836.71 540.592 Q1836.71 531.842 1839.76 527.259 Q1842.84 522.653 1848.65 522.653 Z" fill="#000000" fill-rule="nonzero" fill-opacity="1" /><path clip-path="url(#clip510)" d="M1868.81 551.958 L1873.7 551.958 L1873.7 557.838 L1868.81 557.838 L1868.81 551.958 Z" fill="#000000" fill-rule="nonzero" fill-opacity="1" /><path clip-path="url(#clip510)" d="M1893.88 526.356 Q1890.27 526.356 1888.44 529.921 Q1886.64 533.463 1886.64 540.592 Q1886.64 547.699 1888.44 551.264 Q1890.27 554.805 1893.88 554.805 Q1897.52 554.805 1899.32 551.264 Q1901.15 547.699 1901.15 540.592 Q1901.15 533.463 1899.32 529.921 Q1897.52 526.356 1893.88 526.356 M1893.88 522.653 Q1899.69 522.653 1902.75 527.259 Q1905.83 531.842 1905.83 540.592 Q1905.83 549.319 1902.75 553.926 Q1899.69 558.509 1893.88 558.509 Q1888.07 558.509 1884.99 553.926 Q1881.94 549.319 1881.94 540.592 Q1881.94 531.842 1884.99 527.259 Q1888.07 522.653 1893.88 522.653 Z" fill="#000000" fill-rule="nonzero" fill-opacity="1" /><path clip-path="url(#clip510)" d="M1850.25 329.879 Q1846.64 329.879 1844.81 333.444 Q1843 336.986 1843 344.115 Q1843 351.222 1844.81 354.786 Q1846.64 358.328 1850.25 358.328 Q1853.88 358.328 1855.69 354.786 Q1857.52 351.222 1857.52 344.115 Q1857.52 336.986 1855.69 333.444 Q1853.88 329.879 1850.25 329.879 M1850.25 326.176 Q1856.06 326.176 1859.11 330.782 Q1862.19 335.365 1862.19 344.115 Q1862.19 352.842 1859.11 357.448 Q1856.06 362.032 1850.25 362.032 Q1844.44 362.032 1841.36 357.448 Q1838.3 352.842 1838.3 344.115 Q1838.3 335.365 1841.36 330.782 Q1844.44 326.176 1850.25 326.176 Z" fill="#000000" fill-rule="nonzero" fill-opacity="1" /><path clip-path="url(#clip510)" d="M1870.41 355.481 L1875.3 355.481 L1875.3 361.361 L1870.41 361.361 L1870.41 355.481 Z" fill="#000000" fill-rule="nonzero" fill-opacity="1" /><path clip-path="url(#clip510)" d="M1889.51 357.425 L1905.83 357.425 L1905.83 361.361 L1883.88 361.361 L1883.88 357.425 Q1886.55 354.671 1891.13 350.041 Q1895.74 345.388 1896.92 344.046 Q1899.16 341.523 1900.04 339.787 Q1900.94 338.027 1900.94 336.338 Q1900.94 333.583 1899 331.847 Q1897.08 330.111 1893.98 330.111 Q1891.78 330.111 1889.32 330.875 Q1886.89 331.638 1884.11 333.189 L1884.11 328.467 Q1886.94 327.333 1889.39 326.754 Q1891.85 326.176 1893.88 326.176 Q1899.25 326.176 1902.45 328.861 Q1905.64 331.546 1905.64 336.037 Q1905.64 338.166 1904.83 340.087 Q1904.05 341.986 1901.94 344.578 Q1901.36 345.249 1898.26 348.467 Q1895.16 351.661 1889.51 357.425 Z" fill="#000000" fill-rule="nonzero" fill-opacity="1" /><path clip-path="url(#clip510)" d="M1848.17 133.402 Q1844.55 133.402 1842.73 136.967 Q1840.92 140.509 1840.92 147.638 Q1840.92 154.745 1842.73 158.309 Q1844.55 161.851 1848.17 161.851 Q1851.8 161.851 1853.61 158.309 Q1855.43 154.745 1855.43 147.638 Q1855.43 140.509 1853.61 136.967 Q1851.8 133.402 1848.17 133.402 M1848.17 129.698 Q1853.98 129.698 1857.03 134.305 Q1860.11 138.888 1860.11 147.638 Q1860.11 156.365 1857.03 160.971 Q1853.98 165.555 1848.17 165.555 Q1842.36 165.555 1839.28 160.971 Q1836.22 156.365 1836.22 147.638 Q1836.22 138.888 1839.28 134.305 Q1842.36 129.698 1848.17 129.698 Z" fill="#000000" fill-rule="nonzero" fill-opacity="1" /><path clip-path="url(#clip510)" d="M1868.33 159.004 L1873.21 159.004 L1873.21 164.883 L1868.33 164.883 L1868.33 159.004 Z" fill="#000000" fill-rule="nonzero" fill-opacity="1" /><path clip-path="url(#clip510)" d="M1896.24 134.398 L1884.44 152.846 L1896.24 152.846 L1896.24 134.398 M1895.02 130.323 L1900.9 130.323 L1900.9 152.846 L1905.83 152.846 L1905.83 156.735 L1900.9 156.735 L1900.9 164.883 L1896.24 164.883 L1896.24 156.735 L1880.64 156.735 L1880.64 152.221 L1895.02 130.323 Z" fill="#000000" fill-rule="nonzero" fill-opacity="1" /><path clip-path="url(#clip510)" d="M1741.85 538.871 Q1748.22 541.353 1750.16 543.709 Q1752.1 546.064 1752.1 550.011 L1752.1 554.689 L1747.2 554.689 L1747.2 551.252 Q1747.2 548.833 1746.05 547.496 Q1744.91 546.159 1740.64 544.536 L1737.97 543.486 L1702.89 557.904 L1702.89 551.698 L1730.78 540.558 L1702.89 529.418 L1702.89 523.211 L1741.85 538.871 Z" fill="#000000" fill-rule="nonzero" fill-opacity="1" /><path clip-path="url(#clip510)" d="M2230.58 12.096 L2238.76 12.096 L2238.76 36.8875 L2268.49 36.8875 L2268.49 12.096 L2276.68 12.096 L2276.68 72.576 L2268.49 72.576 L2268.49 43.7741 L2238.76 43.7741 L2238.76 72.576 L2230.58 72.576 L2230.58 12.096 Z" fill="#000000" fill-rule="nonzero" fill-opacity="1" /><path clip-path="url(#clip510)" d="M2310.22 32.4315 Q2304.22 32.4315 2300.74 37.1306 Q2297.25 41.7891 2297.25 49.9314 Q2297.25 58.0738 2300.7 62.7728 Q2304.18 67.4314 2310.22 67.4314 Q2316.17 67.4314 2319.66 62.7323 Q2323.14 58.0333 2323.14 49.9314 Q2323.14 41.8701 2319.66 37.1711 Q2316.17 32.4315 2310.22 32.4315 M2310.22 26.1121 Q2319.94 26.1121 2325.49 32.4315 Q2331.04 38.7509 2331.04 49.9314 Q2331.04 61.0714 2325.49 67.4314 Q2319.94 73.7508 2310.22 73.7508 Q2300.45 73.7508 2294.91 67.4314 Q2289.4 61.0714 2289.4 49.9314 Q2289.4 38.7509 2294.91 32.4315 Q2300.45 26.1121 2310.22 26.1121 Z" fill="#000000" fill-rule="nonzero" fill-opacity="1" /><path clip-path="url(#clip510)" d="M2381.11 45.1919 L2381.11 72.576 L2373.65 72.576 L2373.65 45.4349 Q2373.65 38.994 2371.14 35.7938 Q2368.63 32.5936 2363.61 32.5936 Q2357.57 32.5936 2354.09 36.4419 Q2350.61 40.2903 2350.61 46.9338 L2350.61 72.576 L2343.11 72.576 L2343.11 27.2059 L2350.61 27.2059 L2350.61 34.2544 Q2353.28 30.163 2356.88 28.1376 Q2360.53 26.1121 2365.27 26.1121 Q2373.09 26.1121 2377.1 30.9732 Q2381.11 35.7938 2381.11 45.1919 Z" fill="#000000" fill-rule="nonzero" fill-opacity="1" /><path clip-path="url(#clip510)" d="M2434.78 48.0275 L2434.78 51.6733 L2400.51 51.6733 Q2401 59.3701 2405.13 63.421 Q2409.3 67.4314 2416.72 67.4314 Q2421.01 67.4314 2425.02 66.3781 Q2429.07 65.3249 2433.04 63.2184 L2433.04 70.267 Q2429.03 71.9684 2424.82 72.8596 Q2420.6 73.7508 2416.27 73.7508 Q2405.41 73.7508 2399.05 67.4314 Q2392.73 61.1119 2392.73 50.3365 Q2392.73 39.1965 2398.73 32.6746 Q2404.77 26.1121 2414.97 26.1121 Q2424.13 26.1121 2429.44 32.0264 Q2434.78 37.9003 2434.78 48.0275 M2427.33 45.84 Q2427.25 39.7232 2423.89 36.0774 Q2420.56 32.4315 2415.05 32.4315 Q2408.82 32.4315 2405.05 35.9558 Q2401.32 39.4801 2400.76 45.8805 L2427.33 45.84 Z" fill="#000000" fill-rule="nonzero" fill-opacity="1" /><path clip-path="url(#clip510)" d="M2465.89 76.7889 Q2462.73 84.8907 2459.74 87.3618 Q2456.74 89.8329 2451.72 89.8329 L2445.76 89.8329 L2445.76 83.5945 L2450.14 83.5945 Q2453.21 83.5945 2454.92 82.1361 Q2456.62 80.6778 2458.68 75.2496 L2460.02 71.8468 L2441.67 27.2059 L2449.57 27.2059 L2463.75 62.6918 L2477.93 27.2059 L2485.82 27.2059 L2465.89 76.7889 Z" fill="#000000" fill-rule="nonzero" fill-opacity="1" /><path clip-path="url(#clip510)" d="M2528.76 28.9478 L2528.76 35.9153 Q2525.6 34.1734 2522.4 33.3227 Q2519.24 32.4315 2516 32.4315 Q2508.75 32.4315 2504.74 37.0496 Q2500.73 41.6271 2500.73 49.9314 Q2500.73 58.2358 2504.74 62.8538 Q2508.75 67.4314 2516 67.4314 Q2519.24 67.4314 2522.4 66.5807 Q2525.6 65.6895 2528.76 63.9476 L2528.76 70.8341 Q2525.64 72.2924 2522.28 73.0216 Q2518.96 73.7508 2515.19 73.7508 Q2504.94 73.7508 2498.91 67.3098 Q2492.87 60.8689 2492.87 49.9314 Q2492.87 38.832 2498.95 32.472 Q2505.07 26.1121 2515.68 26.1121 Q2519.12 26.1121 2522.4 26.8413 Q2525.69 27.5299 2528.76 28.9478 Z" fill="#000000" fill-rule="nonzero" fill-opacity="1" /><path clip-path="url(#clip510)" d="M2559.31 32.4315 Q2553.31 32.4315 2549.83 37.1306 Q2546.34 41.7891 2546.34 49.9314 Q2546.34 58.0738 2549.79 62.7728 Q2553.27 67.4314 2559.31 67.4314 Q2565.26 67.4314 2568.75 62.7323 Q2572.23 58.0333 2572.23 49.9314 Q2572.23 41.8701 2568.75 37.1711 Q2565.26 32.4315 2559.31 32.4315 M2559.31 26.1121 Q2569.03 26.1121 2574.58 32.4315 Q2580.13 38.7509 2580.13 49.9314 Q2580.13 61.0714 2574.58 67.4314 Q2569.03 73.7508 2559.31 73.7508 Q2549.55 73.7508 2544 67.4314 Q2538.49 61.0714 2538.49 49.9314 Q2538.49 38.7509 2544 32.4315 Q2549.55 26.1121 2559.31 26.1121 Z" fill="#000000" fill-rule="nonzero" fill-opacity="1" /><path clip-path="url(#clip510)" d="M2627.81 35.9153 Q2630.6 30.8922 2634.49 28.5022 Q2638.38 26.1121 2643.65 26.1121 Q2650.74 26.1121 2654.58 31.0947 Q2658.43 36.0368 2658.43 45.1919 L2658.43 72.576 L2650.94 72.576 L2650.94 45.4349 Q2650.94 38.913 2648.63 35.7533 Q2646.32 32.5936 2641.58 32.5936 Q2635.79 32.5936 2632.43 36.4419 Q2629.06 40.2903 2629.06 46.9338 L2629.06 72.576 L2621.57 72.576 L2621.57 45.4349 Q2621.57 38.8725 2619.26 35.7533 Q2616.95 32.5936 2612.13 32.5936 Q2606.42 32.5936 2603.06 36.4824 Q2599.7 40.3308 2599.7 46.9338 L2599.7 72.576 L2592.2 72.576 L2592.2 27.2059 L2599.7 27.2059 L2599.7 34.2544 Q2602.25 30.082 2605.81 28.0971 Q2609.38 26.1121 2614.28 26.1121 Q2619.22 26.1121 2622.66 28.6237 Q2626.15 31.1352 2627.81 35.9153 Z" fill="#000000" fill-rule="nonzero" fill-opacity="1" /><path clip-path="url(#clip510)" d="M2705.87 49.9314 Q2705.87 41.7081 2702.47 37.0496 Q2699.1 32.3505 2693.19 32.3505 Q2687.28 32.3505 2683.87 37.0496 Q2680.51 41.7081 2680.51 49.9314 Q2680.51 58.1548 2683.87 62.8538 Q2687.28 67.5124 2693.19 67.5124 Q2699.1 67.5124 2702.47 62.8538 Q2705.87 58.1548 2705.87 49.9314 M2680.51 34.0924 Q2682.86 30.0415 2686.43 28.0971 Q2690.03 26.1121 2695.01 26.1121 Q2703.28 26.1121 2708.42 32.6746 Q2713.61 39.2371 2713.61 49.9314 Q2713.61 60.6258 2708.42 67.1883 Q2703.28 73.7508 2695.01 73.7508 Q2690.03 73.7508 2686.43 71.8063 Q2682.86 69.8214 2680.51 65.7705 L2680.51 72.576 L2673.02 72.576 L2673.02 9.54393 L2680.51 9.54393 L2680.51 34.0924 Z" fill="#000000" fill-rule="nonzero" fill-opacity="1" /><circle clip-path="url(#clip513)" cx="1980.9" cy="540.558" r="14.4" fill="#a40025" fill-rule="evenodd" fill-opacity="1" stroke="none"/>
<circle clip-path="url(#clip513)" cx="2963.28" cy="540.558" r="14.4" fill="#a40025" fill-rule="evenodd" fill-opacity="1" stroke="none"/>
</svg>
