<?xml version="1.0" encoding="utf-8"?>
<svg xmlns="http://www.w3.org/2000/svg" xmlns:xlink="http://www.w3.org/1999/xlink" width="420" height="260" viewBox="0 0 1680 1040">
<defs>
  <clipPath id="clip080">
    <rect x="0" y="0" width="1680" height="1040"/>
  </clipPath>
</defs>
<path clip-path="url(#clip080)" d="M0 1040 L1680 1040 L1680 0 L0 0  Z" fill="#ffffff" fill-rule="evenodd" fill-opacity="1"/>
<defs>
  <clipPath id="clip081">
    <rect x="185" y="113" width="1392" height="831"/>
  </clipPath>
</defs>
<path clip-path="url(#clip080)" d="M238.948 874.643 L807.594 874.643 L807.594 47.2441 L238.948 47.2441  Z" fill="#ffffff" fill-rule="evenodd" fill-opacity="1"/>
<defs>
  <clipPath id="clip082">
    <rect x="238" y="47" width="570" height="828"/>
  </clipPath>
</defs>
<polyline clip-path="url(#clip082)" style="stroke:#000000; stroke-linecap:round; stroke-linejoin:round; stroke-width:2; stroke-opacity:0.1; fill:none" points="245.792,874.643 245.792,47.2441 "/>
<polyline clip-path="url(#clip082)" style="stroke:#000000; stroke-linecap:round; stroke-linejoin:round; stroke-width:2; stroke-opacity:0.1; fill:none" points="338.285,874.643 338.285,47.2441 "/>
<polyline clip-path="url(#clip082)" style="stroke:#000000; stroke-linecap:round; stroke-linejoin:round; stroke-width:2; stroke-opacity:0.1; fill:none" points="430.778,874.643 430.778,47.2441 "/>
<polyline clip-path="url(#clip082)" style="stroke:#000000; stroke-linecap:round; stroke-linejoin:round; stroke-width:2; stroke-opacity:0.1; fill:none" points="523.271,874.643 523.271,47.2441 "/>
<polyline clip-path="url(#clip082)" style="stroke:#000000; stroke-linecap:round; stroke-linejoin:round; stroke-width:2; stroke-opacity:0.1; fill:none" points="615.764,874.643 615.764,47.2441 "/>
<polyline clip-path="url(#clip082)" style="stroke:#000000; stroke-linecap:round; stroke-linejoin:round; stroke-width:2; stroke-opacity:0.1; fill:none" points="708.256,874.643 708.256,47.2441 "/>
<polyline clip-path="url(#clip082)" style="stroke:#000000; stroke-linecap:round; stroke-linejoin:round; stroke-width:2; stroke-opacity:0.1; fill:none" points="800.749,874.643 800.749,47.2441 "/>
<polyline clip-path="url(#clip082)" style="stroke:#000000; stroke-linecap:round; stroke-linejoin:round; stroke-width:2; stroke-opacity:0.1; fill:none" points="238.948,851.226 807.594,851.226 "/>
<polyline clip-path="url(#clip082)" style="stroke:#000000; stroke-linecap:round; stroke-linejoin:round; stroke-width:2; stroke-opacity:0.1; fill:none" points="238.948,656.085 807.594,656.085 "/>
<polyline clip-path="url(#clip082)" style="stroke:#000000; stroke-linecap:round; stroke-linejoin:round; stroke-width:2; stroke-opacity:0.1; fill:none" points="238.948,460.943 807.594,460.943 "/>
<polyline clip-path="url(#clip082)" style="stroke:#000000; stroke-linecap:round; stroke-linejoin:round; stroke-width:2; stroke-opacity:0.1; fill:none" points="238.948,265.802 807.594,265.802 "/>
<polyline clip-path="url(#clip082)" style="stroke:#000000; stroke-linecap:round; stroke-linejoin:round; stroke-width:2; stroke-opacity:0.1; fill:none" points="238.948,70.661 807.594,70.661 "/>
<polyline clip-path="url(#clip080)" style="stroke:#000000; stroke-linecap:round; stroke-linejoin:round; stroke-width:4; stroke-opacity:1; fill:none" points="238.948,874.643 807.594,874.643 "/>
<polyline clip-path="url(#clip080)" style="stroke:#000000; stroke-linecap:round; stroke-linejoin:round; stroke-width:4; stroke-opacity:1; fill:none" points="245.792,874.643 245.792,855.745 "/>
<polyline clip-path="url(#clip080)" style="stroke:#000000; stroke-linecap:round; stroke-linejoin:round; stroke-width:4; stroke-opacity:1; fill:none" points="338.285,874.643 338.285,855.745 "/>
<polyline clip-path="url(#clip080)" style="stroke:#000000; stroke-linecap:round; stroke-linejoin:round; stroke-width:4; stroke-opacity:1; fill:none" points="430.778,874.643 430.778,855.745 "/>
<polyline clip-path="url(#clip080)" style="stroke:#000000; stroke-linecap:round; stroke-linejoin:round; stroke-width:4; stroke-opacity:1; fill:none" points="523.271,874.643 523.271,855.745 "/>
<polyline clip-path="url(#clip080)" style="stroke:#000000; stroke-linecap:round; stroke-linejoin:round; stroke-width:4; stroke-opacity:1; fill:none" points="615.764,874.643 615.764,855.745 "/>
<polyline clip-path="url(#clip080)" style="stroke:#000000; stroke-linecap:round; stroke-linejoin:round; stroke-width:4; stroke-opacity:1; fill:none" points="708.256,874.643 708.256,855.745 "/>
<polyline clip-path="url(#clip080)" style="stroke:#000000; stroke-linecap:round; stroke-linejoin:round; stroke-width:4; stroke-opacity:1; fill:none" points="800.749,874.643 800.749,855.745 "/>
<path clip-path="url(#clip080)" d="M245.792 899.801 Q242.181 899.801 240.352 903.366 Q238.547 906.908 238.547 914.037 Q238.547 921.144 240.352 924.709 Q242.181 928.25 245.792 928.25 Q249.426 928.25 251.232 924.709 Q253.061 921.144 253.061 914.037 Q253.061 906.908 251.232 903.366 Q249.426 899.801 245.792 899.801 M245.792 896.098 Q251.602 896.098 254.658 900.704 Q257.737 905.287 257.737 914.037 Q257.737 922.764 254.658 927.371 Q251.602 931.954 245.792 931.954 Q239.982 931.954 236.903 927.371 Q233.848 922.764 233.848 914.037 Q233.848 905.287 236.903 900.704 Q239.982 896.098 245.792 896.098 Z" fill="#000000" fill-rule="nonzero" fill-opacity="1" /><path clip-path="url(#clip080)" d="M312.973 927.348 L320.612 927.348 L320.612 900.982 L312.301 902.649 L312.301 898.389 L320.565 896.723 L325.241 896.723 L325.241 927.348 L332.88 927.348 L332.88 931.283 L312.973 931.283 L312.973 927.348 Z" fill="#000000" fill-rule="nonzero" fill-opacity="1" /><path clip-path="url(#clip080)" d="M352.324 899.801 Q348.713 899.801 346.885 903.366 Q345.079 906.908 345.079 914.037 Q345.079 921.144 346.885 924.709 Q348.713 928.25 352.324 928.25 Q355.959 928.25 357.764 924.709 Q359.593 921.144 359.593 914.037 Q359.593 906.908 357.764 903.366 Q355.959 899.801 352.324 899.801 M352.324 896.098 Q358.134 896.098 361.19 900.704 Q364.269 905.287 364.269 914.037 Q364.269 922.764 361.19 927.371 Q358.134 931.954 352.324 931.954 Q346.514 931.954 343.436 927.371 Q340.38 922.764 340.38 914.037 Q340.38 905.287 343.436 900.704 Q346.514 896.098 352.324 896.098 Z" fill="#000000" fill-rule="nonzero" fill-opacity="1" /><path clip-path="url(#clip080)" d="M409.551 927.348 L425.871 927.348 L425.871 931.283 L403.926 931.283 L403.926 927.348 Q406.588 924.593 411.172 919.963 Q415.778 915.311 416.959 913.968 Q419.204 911.445 420.084 909.709 Q420.986 907.949 420.986 906.26 Q420.986 903.505 419.042 901.769 Q417.121 900.033 414.019 900.033 Q411.82 900.033 409.366 900.797 Q406.935 901.561 404.158 903.112 L404.158 898.389 Q406.982 897.255 409.435 896.676 Q411.889 896.098 413.926 896.098 Q419.296 896.098 422.491 898.783 Q425.685 901.468 425.685 905.959 Q425.685 908.088 424.875 910.01 Q424.088 911.908 421.982 914.5 Q421.403 915.172 418.301 918.389 Q415.199 921.584 409.551 927.348 Z" fill="#000000" fill-rule="nonzero" fill-opacity="1" /><path clip-path="url(#clip080)" d="M445.685 899.801 Q442.074 899.801 440.245 903.366 Q438.44 906.908 438.44 914.037 Q438.44 921.144 440.245 924.709 Q442.074 928.25 445.685 928.25 Q449.319 928.25 451.125 924.709 Q452.954 921.144 452.954 914.037 Q452.954 906.908 451.125 903.366 Q449.319 899.801 445.685 899.801 M445.685 896.098 Q451.495 896.098 454.551 900.704 Q457.63 905.287 457.63 914.037 Q457.63 922.764 454.551 927.371 Q451.495 931.954 445.685 931.954 Q439.875 931.954 436.796 927.371 Q433.741 922.764 433.741 914.037 Q433.741 905.287 436.796 900.704 Q439.875 896.098 445.685 896.098 Z" fill="#000000" fill-rule="nonzero" fill-opacity="1" /><path clip-path="url(#clip080)" d="M512.113 912.649 Q515.47 913.366 517.345 915.635 Q519.243 917.903 519.243 921.236 Q519.243 926.352 515.725 929.153 Q512.206 931.954 505.725 931.954 Q503.549 931.954 501.234 931.514 Q498.942 931.098 496.489 930.241 L496.489 925.727 Q498.433 926.861 500.748 927.44 Q503.063 928.019 505.586 928.019 Q509.984 928.019 512.275 926.283 Q514.59 924.547 514.59 921.236 Q514.59 918.181 512.437 916.468 Q510.308 914.732 506.488 914.732 L502.461 914.732 L502.461 910.889 L506.674 910.889 Q510.123 910.889 511.951 909.524 Q513.78 908.135 513.78 905.542 Q513.78 902.88 511.882 901.468 Q510.007 900.033 506.488 900.033 Q504.567 900.033 502.368 900.45 Q500.169 900.866 497.53 901.746 L497.53 897.579 Q500.192 896.838 502.507 896.468 Q504.845 896.098 506.905 896.098 Q512.229 896.098 515.331 898.528 Q518.433 900.936 518.433 905.056 Q518.433 907.926 516.789 909.917 Q515.146 911.885 512.113 912.649 Z" fill="#000000" fill-rule="nonzero" fill-opacity="1" /><path clip-path="url(#clip080)" d="M538.109 899.801 Q534.498 899.801 532.669 903.366 Q530.863 906.908 530.863 914.037 Q530.863 921.144 532.669 924.709 Q534.498 928.25 538.109 928.25 Q541.743 928.25 543.548 924.709 Q545.377 921.144 545.377 914.037 Q545.377 906.908 543.548 903.366 Q541.743 899.801 538.109 899.801 M538.109 896.098 Q543.919 896.098 546.974 900.704 Q550.053 905.287 550.053 914.037 Q550.053 922.764 546.974 927.371 Q543.919 931.954 538.109 931.954 Q532.298 931.954 529.22 927.371 Q526.164 922.764 526.164 914.037 Q526.164 905.287 529.22 900.704 Q532.298 896.098 538.109 896.098 Z" fill="#000000" fill-rule="nonzero" fill-opacity="1" /><path clip-path="url(#clip080)" d="M603.935 900.797 L592.129 919.246 L603.935 919.246 L603.935 900.797 M602.708 896.723 L608.588 896.723 L608.588 919.246 L613.518 919.246 L613.518 923.135 L608.588 923.135 L608.588 931.283 L603.935 931.283 L603.935 923.135 L588.333 923.135 L588.333 918.621 L602.708 896.723 Z" fill="#000000" fill-rule="nonzero" fill-opacity="1" /><path clip-path="url(#clip080)" d="M631.25 899.801 Q627.639 899.801 625.81 903.366 Q624.004 906.908 624.004 914.037 Q624.004 921.144 625.81 924.709 Q627.639 928.25 631.25 928.25 Q634.884 928.25 636.689 924.709 Q638.518 921.144 638.518 914.037 Q638.518 906.908 636.689 903.366 Q634.884 899.801 631.25 899.801 M631.25 896.098 Q637.06 896.098 640.115 900.704 Q643.194 905.287 643.194 914.037 Q643.194 922.764 640.115 927.371 Q637.06 931.954 631.25 931.954 Q625.439 931.954 622.361 927.371 Q619.305 922.764 619.305 914.037 Q619.305 905.287 622.361 900.704 Q625.439 896.098 631.25 896.098 Z" fill="#000000" fill-rule="nonzero" fill-opacity="1" /><path clip-path="url(#clip080)" d="M682.956 896.723 L701.312 896.723 L701.312 900.658 L687.238 900.658 L687.238 909.13 Q688.257 908.783 689.275 908.621 Q690.294 908.436 691.312 908.436 Q697.099 908.436 700.479 911.607 Q703.858 914.778 703.858 920.195 Q703.858 925.773 700.386 928.875 Q696.914 931.954 690.595 931.954 Q688.419 931.954 686.15 931.584 Q683.905 931.213 681.497 930.473 L681.497 925.773 Q683.581 926.908 685.803 927.463 Q688.025 928.019 690.502 928.019 Q694.507 928.019 696.844 925.912 Q699.182 923.806 699.182 920.195 Q699.182 916.584 696.844 914.477 Q694.507 912.371 690.502 912.371 Q688.627 912.371 686.752 912.787 Q684.9 913.204 682.956 914.084 L682.956 896.723 Z" fill="#000000" fill-rule="nonzero" fill-opacity="1" /><path clip-path="url(#clip080)" d="M723.071 899.801 Q719.46 899.801 717.631 903.366 Q715.826 906.908 715.826 914.037 Q715.826 921.144 717.631 924.709 Q719.46 928.25 723.071 928.25 Q726.705 928.25 728.511 924.709 Q730.34 921.144 730.34 914.037 Q730.34 906.908 728.511 903.366 Q726.705 899.801 723.071 899.801 M723.071 896.098 Q728.881 896.098 731.937 900.704 Q735.016 905.287 735.016 914.037 Q735.016 922.764 731.937 927.371 Q728.881 931.954 723.071 931.954 Q717.261 931.954 714.182 927.371 Q711.127 922.764 711.127 914.037 Q711.127 905.287 714.182 900.704 Q717.261 896.098 723.071 896.098 Z" fill="#000000" fill-rule="nonzero" fill-opacity="1" /><path clip-path="url(#clip080)" d="M786.154 912.139 Q783.006 912.139 781.155 914.292 Q779.326 916.445 779.326 920.195 Q779.326 923.922 781.155 926.098 Q783.006 928.25 786.154 928.25 Q789.303 928.25 791.131 926.098 Q792.983 923.922 792.983 920.195 Q792.983 916.445 791.131 914.292 Q789.303 912.139 786.154 912.139 M795.437 897.487 L795.437 901.746 Q793.678 900.912 791.872 900.473 Q790.09 900.033 788.33 900.033 Q783.701 900.033 781.247 903.158 Q778.817 906.283 778.469 912.602 Q779.835 910.588 781.895 909.524 Q783.955 908.436 786.432 908.436 Q791.641 908.436 794.65 911.607 Q797.682 914.755 797.682 920.195 Q797.682 925.519 794.534 928.736 Q791.386 931.954 786.154 931.954 Q780.159 931.954 776.988 927.371 Q773.817 922.764 773.817 914.037 Q773.817 905.843 777.705 900.982 Q781.594 896.098 788.145 896.098 Q789.904 896.098 791.687 896.445 Q793.492 896.792 795.437 897.487 Z" fill="#000000" fill-rule="nonzero" fill-opacity="1" /><path clip-path="url(#clip080)" d="M815.738 899.801 Q812.127 899.801 810.298 903.366 Q808.492 906.908 808.492 914.037 Q808.492 921.144 810.298 924.709 Q812.127 928.25 815.738 928.25 Q819.372 928.25 821.177 924.709 Q823.006 921.144 823.006 914.037 Q823.006 906.908 821.177 903.366 Q819.372 899.801 815.738 899.801 M815.738 896.098 Q821.548 896.098 824.603 900.704 Q827.682 905.287 827.682 914.037 Q827.682 922.764 824.603 927.371 Q821.548 931.954 815.738 931.954 Q809.928 931.954 806.849 927.371 Q803.793 922.764 803.793 914.037 Q803.793 905.287 806.849 900.704 Q809.928 896.098 815.738 896.098 Z" fill="#000000" fill-rule="nonzero" fill-opacity="1" /><path clip-path="url(#clip080)" d="M395.829 959.182 L401.718 959.182 L401.718 988.432 L419.191 973.059 L426.671 973.059 L407.765 989.737 L427.467 1008.71 L419.828 1008.71 L401.718 991.296 L401.718 1008.71 L395.829 1008.71 L395.829 959.182 Z" fill="#000000" fill-rule="nonzero" fill-opacity="1" /><path clip-path="url(#clip080)" d="M436.188 1005.08 L449.683 1005.08 L449.683 1008.71 L430.65 1008.71 L430.65 1005.21 Q431.732 1004.22 433.737 1002.44 Q444.686 992.729 444.686 989.737 Q444.686 987.636 443.031 986.363 Q441.376 985.058 438.671 985.058 Q437.015 985.058 435.074 985.631 Q433.132 986.172 430.841 987.286 L430.841 983.371 Q433.292 982.48 435.392 982.034 Q437.525 981.589 439.339 981.589 Q443.954 981.589 446.723 983.689 Q449.492 985.79 449.492 989.228 Q449.492 993.652 438.957 1002.69 Q437.175 1004.22 436.188 1005.08 Z" fill="#000000" fill-rule="nonzero" fill-opacity="1" /><path clip-path="url(#clip080)" d="M480.652 973.059 L486.509 973.059 L486.509 1008.71 L480.652 1008.71 L480.652 973.059 M480.652 959.182 L486.509 959.182 L486.509 966.598 L480.652 966.598 L480.652 959.182 Z" fill="#000000" fill-rule="nonzero" fill-opacity="1" /><path clip-path="url(#clip080)" d="M528.395 987.191 L528.395 1008.71 L522.539 1008.71 L522.539 987.382 Q522.539 982.321 520.565 979.806 Q518.592 977.292 514.645 977.292 Q509.903 977.292 507.166 980.316 Q504.428 983.339 504.428 988.559 L504.428 1008.71 L498.54 1008.71 L498.54 973.059 L504.428 973.059 L504.428 978.597 Q506.529 975.382 509.362 973.791 Q512.226 972.199 515.95 972.199 Q522.093 972.199 525.244 976.019 Q528.395 979.806 528.395 987.191 Z" fill="#000000" fill-rule="nonzero" fill-opacity="1" /><path clip-path="url(#clip080)" d="M563.534 978.47 L563.534 959.182 L569.39 959.182 L569.39 1008.71 L563.534 1008.71 L563.534 1003.36 Q561.688 1006.54 558.855 1008.1 Q556.054 1009.63 552.107 1009.63 Q545.646 1009.63 541.572 1004.47 Q537.53 999.317 537.53 990.915 Q537.53 982.512 541.572 977.356 Q545.646 972.199 552.107 972.199 Q556.054 972.199 558.855 973.759 Q561.688 975.287 563.534 978.47 M543.577 990.915 Q543.577 997.376 546.219 1001.07 Q548.893 1004.73 553.54 1004.73 Q558.187 1004.73 560.86 1001.07 Q563.534 997.376 563.534 990.915 Q563.534 984.453 560.86 980.793 Q558.187 977.101 553.54 977.101 Q548.893 977.101 546.219 980.793 Q543.577 984.453 543.577 990.915 Z" fill="#000000" fill-rule="nonzero" fill-opacity="1" /><path clip-path="url(#clip080)" d="M611.945 989.419 L611.945 992.283 L585.018 992.283 Q585.4 998.331 588.647 1001.51 Q591.925 1004.66 597.75 1004.66 Q601.123 1004.66 604.274 1003.84 Q607.457 1003.01 610.576 1001.35 L610.576 1006.89 Q607.425 1008.23 604.115 1008.93 Q600.805 1009.63 597.399 1009.63 Q588.869 1009.63 583.872 1004.66 Q578.907 999.699 578.907 991.233 Q578.907 982.48 583.618 977.356 Q588.36 972.199 596.381 972.199 Q603.574 972.199 607.744 976.846 Q611.945 981.461 611.945 989.419 M606.089 987.7 Q606.025 982.894 603.383 980.029 Q600.773 977.165 596.445 977.165 Q591.543 977.165 588.583 979.934 Q585.655 982.703 585.209 987.732 L606.089 987.7 Z" fill="#000000" fill-rule="nonzero" fill-opacity="1" /><path clip-path="url(#clip080)" d="M650.044 973.059 L637.153 990.405 L650.712 1008.71 L643.805 1008.71 L633.429 994.702 L623.053 1008.71 L616.146 1008.71 L629.992 990.055 L617.324 973.059 L624.231 973.059 L633.684 985.758 L643.137 973.059 L650.044 973.059 Z" fill="#000000" fill-rule="nonzero" fill-opacity="1" /><polyline clip-path="url(#clip080)" style="stroke:#000000; stroke-linecap:round; stroke-linejoin:round; stroke-width:4; stroke-opacity:1; fill:none" points="238.948,874.643 238.948,47.2441 "/>
<polyline clip-path="url(#clip080)" style="stroke:#000000; stroke-linecap:round; stroke-linejoin:round; stroke-width:4; stroke-opacity:1; fill:none" points="238.948,851.226 257.845,851.226 "/>
<polyline clip-path="url(#clip080)" style="stroke:#000000; stroke-linecap:round; stroke-linejoin:round; stroke-width:4; stroke-opacity:1; fill:none" points="238.948,656.085 257.845,656.085 "/>
<polyline clip-path="url(#clip080)" style="stroke:#000000; stroke-linecap:round; stroke-linejoin:round; stroke-width:4; stroke-opacity:1; fill:none" points="238.948,460.943 257.845,460.943 "/>
<polyline clip-path="url(#clip080)" style="stroke:#000000; stroke-linecap:round; stroke-linejoin:round; stroke-width:4; stroke-opacity:1; fill:none" points="238.948,265.802 257.845,265.802 "/>
<polyline clip-path="url(#clip080)" style="stroke:#000000; stroke-linecap:round; stroke-linejoin:round; stroke-width:4; stroke-opacity:1; fill:none" points="238.948,70.661 257.845,70.661 "/>
<path clip-path="url(#clip080)" d="M126.41 837.024 Q122.799 837.024 120.97 840.589 Q119.165 844.131 119.165 851.26 Q119.165 858.367 120.97 861.932 Q122.799 865.473 126.41 865.473 Q130.044 865.473 131.85 861.932 Q133.679 858.367 133.679 851.26 Q133.679 844.131 131.85 840.589 Q130.044 837.024 126.41 837.024 M126.41 833.321 Q132.22 833.321 135.276 837.927 Q138.355 842.511 138.355 851.26 Q138.355 859.987 135.276 864.594 Q132.22 869.177 126.41 869.177 Q120.6 869.177 117.521 864.594 Q114.466 859.987 114.466 851.26 Q114.466 842.511 117.521 837.927 Q120.6 833.321 126.41 833.321 Z" fill="#000000" fill-rule="nonzero" fill-opacity="1" /><path clip-path="url(#clip080)" d="M146.572 862.626 L151.456 862.626 L151.456 868.506 L146.572 868.506 L146.572 862.626 Z" fill="#000000" fill-rule="nonzero" fill-opacity="1" /><path clip-path="url(#clip080)" d="M171.641 837.024 Q168.03 837.024 166.202 840.589 Q164.396 844.131 164.396 851.26 Q164.396 858.367 166.202 861.932 Q168.03 865.473 171.641 865.473 Q175.276 865.473 177.081 861.932 Q178.91 858.367 178.91 851.26 Q178.91 844.131 177.081 840.589 Q175.276 837.024 171.641 837.024 M171.641 833.321 Q177.452 833.321 180.507 837.927 Q183.586 842.511 183.586 851.26 Q183.586 859.987 180.507 864.594 Q177.452 869.177 171.641 869.177 Q165.831 869.177 162.753 864.594 Q159.697 859.987 159.697 851.26 Q159.697 842.511 162.753 837.927 Q165.831 833.321 171.641 833.321 Z" fill="#000000" fill-rule="nonzero" fill-opacity="1" /><path clip-path="url(#clip080)" d="M201.803 837.024 Q198.192 837.024 196.364 840.589 Q194.558 844.131 194.558 851.26 Q194.558 858.367 196.364 861.932 Q198.192 865.473 201.803 865.473 Q205.438 865.473 207.243 861.932 Q209.072 858.367 209.072 851.26 Q209.072 844.131 207.243 840.589 Q205.438 837.024 201.803 837.024 M201.803 833.321 Q207.614 833.321 210.669 837.927 Q213.748 842.511 213.748 851.26 Q213.748 859.987 210.669 864.594 Q207.614 869.177 201.803 869.177 Q195.993 869.177 192.915 864.594 Q189.859 859.987 189.859 851.26 Q189.859 842.511 192.915 837.927 Q195.993 833.321 201.803 833.321 Z" fill="#000000" fill-rule="nonzero" fill-opacity="1" /><path clip-path="url(#clip080)" d="M127.406 641.883 Q123.795 641.883 121.966 645.448 Q120.16 648.99 120.16 656.119 Q120.16 663.226 121.966 666.791 Q123.795 670.332 127.406 670.332 Q131.04 670.332 132.845 666.791 Q134.674 663.226 134.674 656.119 Q134.674 648.99 132.845 645.448 Q131.04 641.883 127.406 641.883 M127.406 638.18 Q133.216 638.18 136.271 642.786 Q139.35 647.369 139.35 656.119 Q139.35 664.846 136.271 669.453 Q133.216 674.036 127.406 674.036 Q121.595 674.036 118.517 669.453 Q115.461 664.846 115.461 656.119 Q115.461 647.369 118.517 642.786 Q121.595 638.18 127.406 638.18 Z" fill="#000000" fill-rule="nonzero" fill-opacity="1" /><path clip-path="url(#clip080)" d="M147.568 667.485 L152.452 667.485 L152.452 673.365 L147.568 673.365 L147.568 667.485 Z" fill="#000000" fill-rule="nonzero" fill-opacity="1" /><path clip-path="url(#clip080)" d="M166.665 669.429 L182.984 669.429 L182.984 673.365 L161.04 673.365 L161.04 669.429 Q163.702 666.675 168.285 662.045 Q172.891 657.392 174.072 656.05 Q176.317 653.527 177.197 651.791 Q178.1 650.031 178.1 648.342 Q178.1 645.587 176.155 643.851 Q174.234 642.115 171.132 642.115 Q168.933 642.115 166.479 642.879 Q164.049 643.643 161.271 645.193 L161.271 640.471 Q164.095 639.337 166.549 638.758 Q169.003 638.18 171.04 638.18 Q176.41 638.18 179.604 640.865 Q182.799 643.55 182.799 648.041 Q182.799 650.17 181.989 652.092 Q181.202 653.99 179.095 656.582 Q178.516 657.254 175.415 660.471 Q172.313 663.666 166.665 669.429 Z" fill="#000000" fill-rule="nonzero" fill-opacity="1" /><path clip-path="url(#clip080)" d="M192.845 638.805 L211.201 638.805 L211.201 642.74 L197.127 642.74 L197.127 651.212 Q198.146 650.865 199.164 650.703 Q200.183 650.517 201.202 650.517 Q206.989 650.517 210.368 653.689 Q213.748 656.86 213.748 662.277 Q213.748 667.855 210.276 670.957 Q206.803 674.036 200.484 674.036 Q198.308 674.036 196.04 673.666 Q193.794 673.295 191.387 672.554 L191.387 667.855 Q193.47 668.99 195.692 669.545 Q197.914 670.101 200.391 670.101 Q204.396 670.101 206.734 667.994 Q209.072 665.888 209.072 662.277 Q209.072 658.666 206.734 656.559 Q204.396 654.453 200.391 654.453 Q198.516 654.453 196.641 654.869 Q194.79 655.286 192.845 656.166 L192.845 638.805 Z" fill="#000000" fill-rule="nonzero" fill-opacity="1" /><path clip-path="url(#clip080)" d="M126.41 446.742 Q122.799 446.742 120.97 450.307 Q119.165 453.849 119.165 460.978 Q119.165 468.085 120.97 471.649 Q122.799 475.191 126.41 475.191 Q130.044 475.191 131.85 471.649 Q133.679 468.085 133.679 460.978 Q133.679 453.849 131.85 450.307 Q130.044 446.742 126.41 446.742 M126.41 443.038 Q132.22 443.038 135.276 447.645 Q138.355 452.228 138.355 460.978 Q138.355 469.705 135.276 474.311 Q132.22 478.895 126.41 478.895 Q120.6 478.895 117.521 474.311 Q114.466 469.705 114.466 460.978 Q114.466 452.228 117.521 447.645 Q120.6 443.038 126.41 443.038 Z" fill="#000000" fill-rule="nonzero" fill-opacity="1" /><path clip-path="url(#clip080)" d="M146.572 472.344 L151.456 472.344 L151.456 478.223 L146.572 478.223 L146.572 472.344 Z" fill="#000000" fill-rule="nonzero" fill-opacity="1" /><path clip-path="url(#clip080)" d="M161.688 443.663 L180.044 443.663 L180.044 447.599 L165.97 447.599 L165.97 456.071 Q166.989 455.724 168.007 455.561 Q169.026 455.376 170.044 455.376 Q175.831 455.376 179.211 458.548 Q182.591 461.719 182.591 467.135 Q182.591 472.714 179.118 475.816 Q175.646 478.895 169.327 478.895 Q167.151 478.895 164.882 478.524 Q162.637 478.154 160.23 477.413 L160.23 472.714 Q162.313 473.848 164.535 474.404 Q166.757 474.96 169.234 474.96 Q173.239 474.96 175.577 472.853 Q177.915 470.747 177.915 467.135 Q177.915 463.524 175.577 461.418 Q173.239 459.311 169.234 459.311 Q167.359 459.311 165.484 459.728 Q163.632 460.145 161.688 461.024 L161.688 443.663 Z" fill="#000000" fill-rule="nonzero" fill-opacity="1" /><path clip-path="url(#clip080)" d="M201.803 446.742 Q198.192 446.742 196.364 450.307 Q194.558 453.849 194.558 460.978 Q194.558 468.085 196.364 471.649 Q198.192 475.191 201.803 475.191 Q205.438 475.191 207.243 471.649 Q209.072 468.085 209.072 460.978 Q209.072 453.849 207.243 450.307 Q205.438 446.742 201.803 446.742 M201.803 443.038 Q207.614 443.038 210.669 447.645 Q213.748 452.228 213.748 460.978 Q213.748 469.705 210.669 474.311 Q207.614 478.895 201.803 478.895 Q195.993 478.895 192.915 474.311 Q189.859 469.705 189.859 460.978 Q189.859 452.228 192.915 447.645 Q195.993 443.038 201.803 443.038 Z" fill="#000000" fill-rule="nonzero" fill-opacity="1" /><path clip-path="url(#clip080)" d="M127.406 251.601 Q123.795 251.601 121.966 255.166 Q120.16 258.707 120.16 265.837 Q120.16 272.943 121.966 276.508 Q123.795 280.05 127.406 280.05 Q131.04 280.05 132.845 276.508 Q134.674 272.943 134.674 265.837 Q134.674 258.707 132.845 255.166 Q131.04 251.601 127.406 251.601 M127.406 247.897 Q133.216 247.897 136.271 252.504 Q139.35 257.087 139.35 265.837 Q139.35 274.564 136.271 279.17 Q133.216 283.754 127.406 283.754 Q121.595 283.754 118.517 279.17 Q115.461 274.564 115.461 265.837 Q115.461 257.087 118.517 252.504 Q121.595 247.897 127.406 247.897 Z" fill="#000000" fill-rule="nonzero" fill-opacity="1" /><path clip-path="url(#clip080)" d="M147.568 277.203 L152.452 277.203 L152.452 283.082 L147.568 283.082 L147.568 277.203 Z" fill="#000000" fill-rule="nonzero" fill-opacity="1" /><path clip-path="url(#clip080)" d="M161.456 248.522 L183.678 248.522 L183.678 250.513 L171.132 283.082 L166.248 283.082 L178.053 252.457 L161.456 252.457 L161.456 248.522 Z" fill="#000000" fill-rule="nonzero" fill-opacity="1" /><path clip-path="url(#clip080)" d="M192.845 248.522 L211.201 248.522 L211.201 252.457 L197.127 252.457 L197.127 260.93 Q198.146 260.582 199.164 260.42 Q200.183 260.235 201.202 260.235 Q206.989 260.235 210.368 263.406 Q213.748 266.578 213.748 271.994 Q213.748 277.573 210.276 280.675 Q206.803 283.754 200.484 283.754 Q198.308 283.754 196.04 283.383 Q193.794 283.013 191.387 282.272 L191.387 277.573 Q193.47 278.707 195.692 279.263 Q197.914 279.818 200.391 279.818 Q204.396 279.818 206.734 277.712 Q209.072 275.605 209.072 271.994 Q209.072 268.383 206.734 266.277 Q204.396 264.17 200.391 264.17 Q198.516 264.17 196.641 264.587 Q194.79 265.004 192.845 265.883 L192.845 248.522 Z" fill="#000000" fill-rule="nonzero" fill-opacity="1" /><path clip-path="url(#clip080)" d="M117.22 84.0059 L124.859 84.0059 L124.859 57.6403 L116.549 59.3069 L116.549 55.0477 L124.813 53.381 L129.489 53.381 L129.489 84.0059 L137.128 84.0059 L137.128 87.941 L117.22 87.941 L117.22 84.0059 Z" fill="#000000" fill-rule="nonzero" fill-opacity="1" /><path clip-path="url(#clip080)" d="M146.572 82.0614 L151.456 82.0614 L151.456 87.941 L146.572 87.941 L146.572 82.0614 Z" fill="#000000" fill-rule="nonzero" fill-opacity="1" /><path clip-path="url(#clip080)" d="M171.641 56.4597 Q168.03 56.4597 166.202 60.0245 Q164.396 63.5662 164.396 70.6958 Q164.396 77.8022 166.202 81.367 Q168.03 84.9086 171.641 84.9086 Q175.276 84.9086 177.081 81.367 Q178.91 77.8022 178.91 70.6958 Q178.91 63.5662 177.081 60.0245 Q175.276 56.4597 171.641 56.4597 M171.641 52.756 Q177.452 52.756 180.507 57.3625 Q183.586 61.9458 183.586 70.6958 Q183.586 79.4226 180.507 84.029 Q177.452 88.6123 171.641 88.6123 Q165.831 88.6123 162.753 84.029 Q159.697 79.4226 159.697 70.6958 Q159.697 61.9458 162.753 57.3625 Q165.831 52.756 171.641 52.756 Z" fill="#000000" fill-rule="nonzero" fill-opacity="1" /><path clip-path="url(#clip080)" d="M201.803 56.4597 Q198.192 56.4597 196.364 60.0245 Q194.558 63.5662 194.558 70.6958 Q194.558 77.8022 196.364 81.367 Q198.192 84.9086 201.803 84.9086 Q205.438 84.9086 207.243 81.367 Q209.072 77.8022 209.072 70.6958 Q209.072 63.5662 207.243 60.0245 Q205.438 56.4597 201.803 56.4597 M201.803 52.756 Q207.614 52.756 210.669 57.3625 Q213.748 61.9458 213.748 70.6958 Q213.748 79.4226 210.669 84.029 Q207.614 88.6123 201.803 88.6123 Q195.993 88.6123 192.915 84.029 Q189.859 79.4226 189.859 70.6958 Q189.859 61.9458 192.915 57.3625 Q195.993 52.756 201.803 52.756 Z" fill="#000000" fill-rule="nonzero" fill-opacity="1" /><path clip-path="url(#clip080)" d="M69.6627 684.109 L88.5688 684.109 L88.5688 689.997 L39.3619 689.997 L39.3619 684.109 L44.7728 684.109 Q41.5899 682.263 40.0621 679.462 Q38.5025 676.629 38.5025 672.715 Q38.5025 666.222 43.6588 662.179 Q48.815 658.105 57.2177 658.105 Q65.6205 658.105 70.7767 662.179 Q75.9329 666.222 75.9329 672.715 Q75.9329 676.629 74.4051 679.462 Q72.8455 682.263 69.6627 684.109 M57.2177 664.184 Q50.7565 664.184 47.0962 666.858 Q43.4041 669.5 43.4041 674.147 Q43.4041 678.794 47.0962 681.467 Q50.7565 684.109 57.2177 684.109 Q63.6789 684.109 67.371 681.467 Q71.0313 678.794 71.0313 674.147 Q71.0313 669.5 67.371 666.858 Q63.6789 664.184 57.2177 664.184 Z" fill="#000000" fill-rule="nonzero" fill-opacity="1" /><path clip-path="url(#clip080)" d="M43.4678 634.584 Q43.4678 639.295 47.1599 642.032 Q50.8202 644.769 57.2177 644.769 Q63.6153 644.769 67.3074 642.064 Q70.9676 639.326 70.9676 634.584 Q70.9676 629.905 67.2755 627.168 Q63.5834 624.431 57.2177 624.431 Q50.8838 624.431 47.1917 627.168 Q43.4678 629.905 43.4678 634.584 M38.5025 634.584 Q38.5025 626.945 43.4678 622.585 Q48.433 618.224 57.2177 618.224 Q65.9706 618.224 70.9676 622.585 Q75.9329 626.945 75.9329 634.584 Q75.9329 642.255 70.9676 646.615 Q65.9706 650.944 57.2177 650.944 Q48.433 650.944 43.4678 646.615 Q38.5025 642.255 38.5025 634.584 Z" fill="#000000" fill-rule="nonzero" fill-opacity="1" /><path clip-path="url(#clip080)" d="M25.4847 608.516 L25.4847 602.66 L75.0099 602.66 L75.0099 608.516 L25.4847 608.516 Z" fill="#000000" fill-rule="nonzero" fill-opacity="1" /><path clip-path="url(#clip080)" d="M57.0904 574.205 Q57.0904 581.303 58.7137 584.04 Q60.3369 586.778 64.2518 586.778 Q67.371 586.778 69.2171 584.74 Q71.0313 582.672 71.0313 579.139 Q71.0313 574.269 67.5938 571.341 Q64.1245 568.381 58.3954 568.381 L57.0904 568.381 L57.0904 574.205 M54.6714 562.524 L75.0099 562.524 L75.0099 568.381 L69.599 568.381 Q72.8455 570.386 74.4051 573.378 Q75.9329 576.37 75.9329 580.698 Q75.9329 586.173 72.8774 589.419 Q69.79 592.634 64.6338 592.634 Q58.6182 592.634 55.5626 588.624 Q52.5071 584.581 52.5071 576.592 L52.5071 568.381 L51.9342 568.381 Q47.892 568.381 45.6958 571.054 Q43.4678 573.696 43.4678 578.502 Q43.4678 581.558 44.1999 584.454 Q44.9319 587.35 46.396 590.024 L40.9852 590.024 Q39.7439 586.809 39.1391 583.786 Q38.5025 580.762 38.5025 577.897 Q38.5025 570.163 42.5129 566.344 Q46.5233 562.524 54.6714 562.524 Z" fill="#000000" fill-rule="nonzero" fill-opacity="1" /><path clip-path="url(#clip080)" d="M44.8364 529.804 Q44.2635 530.791 44.0089 531.969 Q43.7224 533.115 43.7224 534.515 Q43.7224 539.48 46.9689 542.154 Q50.1836 544.796 56.231 544.796 L75.0099 544.796 L75.0099 550.684 L39.3619 550.684 L39.3619 544.796 L44.9001 544.796 Q41.6536 542.95 40.094 539.99 Q38.5025 537.03 38.5025 532.796 Q38.5025 532.192 38.598 531.46 Q38.6617 530.727 38.8208 529.836 L44.8364 529.804 Z" fill="#000000" fill-rule="nonzero" fill-opacity="1" /><path clip-path="url(#clip080)" d="M39.3619 523.662 L39.3619 517.805 L75.0099 517.805 L75.0099 523.662 L39.3619 523.662 M25.4847 523.662 L25.4847 517.805 L32.9007 517.805 L32.9007 523.662 L25.4847 523.662 Z" fill="#000000" fill-rule="nonzero" fill-opacity="1" /><path clip-path="url(#clip080)" d="M40.4123 482.826 L45.9504 482.826 Q44.6773 485.308 44.0407 487.982 Q43.4041 490.655 43.4041 493.52 Q43.4041 497.88 44.7409 500.077 Q46.0777 502.241 48.7513 502.241 Q50.7884 502.241 51.966 500.681 Q53.1118 499.122 54.1622 494.411 L54.6078 492.406 Q55.9446 486.168 58.3954 483.558 Q60.8143 480.916 65.1749 480.916 Q70.1401 480.916 73.0365 484.863 Q75.9329 488.777 75.9329 495.652 Q75.9329 498.517 75.36 501.636 Q74.8189 504.724 73.7049 508.161 L67.6575 508.161 Q69.3444 504.915 70.2038 501.763 Q71.0313 498.612 71.0313 495.525 Q71.0313 491.387 69.6308 489.159 Q68.1986 486.931 65.6205 486.931 Q63.2333 486.931 61.9602 488.555 Q60.687 490.146 59.5094 495.589 L59.0319 497.626 Q57.8861 503.068 55.5308 505.487 Q53.1437 507.906 49.006 507.906 Q43.9771 507.906 41.2398 504.342 Q38.5025 500.777 38.5025 494.22 Q38.5025 490.974 38.98 488.109 Q39.4574 485.244 40.4123 482.826 Z" fill="#000000" fill-rule="nonzero" fill-opacity="1" /><path clip-path="url(#clip080)" d="M57.0904 455.389 Q57.0904 462.487 58.7137 465.224 Q60.3369 467.962 64.2518 467.962 Q67.371 467.962 69.2171 465.925 Q71.0313 463.856 71.0313 460.323 Q71.0313 455.453 67.5938 452.525 Q64.1245 449.565 58.3954 449.565 L57.0904 449.565 L57.0904 455.389 M54.6714 443.708 L75.0099 443.708 L75.0099 449.565 L69.599 449.565 Q72.8455 451.57 74.4051 454.562 Q75.9329 457.554 75.9329 461.882 Q75.9329 467.357 72.8774 470.603 Q69.79 473.818 64.6338 473.818 Q58.6182 473.818 55.5626 469.808 Q52.5071 465.765 52.5071 457.776 L52.5071 449.565 L51.9342 449.565 Q47.892 449.565 45.6958 452.238 Q43.4678 454.88 43.4678 459.686 Q43.4678 462.742 44.1999 465.638 Q44.9319 468.535 46.396 471.208 L40.9852 471.208 Q39.7439 467.993 39.1391 464.97 Q38.5025 461.946 38.5025 459.081 Q38.5025 451.347 42.5129 447.528 Q46.5233 443.708 54.6714 443.708 Z" fill="#000000" fill-rule="nonzero" fill-opacity="1" /><path clip-path="url(#clip080)" d="M29.2404 425.852 L39.3619 425.852 L39.3619 413.789 L43.9134 413.789 L43.9134 425.852 L63.2651 425.852 Q67.6257 425.852 68.867 424.675 Q70.1083 423.465 70.1083 419.805 L70.1083 413.789 L75.0099 413.789 L75.0099 419.805 Q75.0099 426.584 72.4954 429.163 Q69.9491 431.741 63.2651 431.741 L43.9134 431.741 L43.9134 436.038 L39.3619 436.038 L39.3619 431.741 L29.2404 431.741 L29.2404 425.852 Z" fill="#000000" fill-rule="nonzero" fill-opacity="1" /><path clip-path="url(#clip080)" d="M39.3619 406.087 L39.3619 400.23 L75.0099 400.23 L75.0099 406.087 L39.3619 406.087 M25.4847 406.087 L25.4847 400.23 L32.9007 400.23 L32.9007 406.087 L25.4847 406.087 Z" fill="#000000" fill-rule="nonzero" fill-opacity="1" /><path clip-path="url(#clip080)" d="M43.4678 374.163 Q43.4678 378.874 47.1599 381.611 Q50.8202 384.348 57.2177 384.348 Q63.6153 384.348 67.3074 381.643 Q70.9676 378.905 70.9676 374.163 Q70.9676 369.484 67.2755 366.747 Q63.5834 364.01 57.2177 364.01 Q50.8838 364.01 47.1917 366.747 Q43.4678 369.484 43.4678 374.163 M38.5025 374.163 Q38.5025 366.524 43.4678 362.164 Q48.433 357.803 57.2177 357.803 Q65.9706 357.803 70.9676 362.164 Q75.9329 366.524 75.9329 374.163 Q75.9329 381.834 70.9676 386.194 Q65.9706 390.523 57.2177 390.523 Q48.433 390.523 43.4678 386.194 Q38.5025 381.834 38.5025 374.163 Z" fill="#000000" fill-rule="nonzero" fill-opacity="1" /><path clip-path="url(#clip080)" d="M53.4938 318.463 L75.0099 318.463 L75.0099 324.319 L53.6848 324.319 Q48.624 324.319 46.1096 326.293 Q43.5951 328.266 43.5951 332.213 Q43.5951 336.955 46.6188 339.693 Q49.6425 342.43 54.8624 342.43 L75.0099 342.43 L75.0099 348.318 L39.3619 348.318 L39.3619 342.43 L44.9001 342.43 Q41.6854 340.329 40.094 337.496 Q38.5025 334.632 38.5025 330.908 Q38.5025 324.765 42.322 321.614 Q46.1096 318.463 53.4938 318.463 Z" fill="#000000" fill-rule="nonzero" fill-opacity="1" /><path clip-path="url(#clip080)" d="M25.4847 286.284 L25.4847 280.396 L54.7351 280.396 L39.3619 262.922 L39.3619 255.442 L56.0401 274.349 L75.0099 254.647 L75.0099 262.286 L57.5997 280.396 L75.0099 280.396 L75.0099 286.284 L25.4847 286.284 Z" fill="#000000" fill-rule="nonzero" fill-opacity="1" /><path clip-path="url(#clip080)" d="M71.5087 249.491 L71.5087 242.998 L52.0615 242.998 L53.3665 250.095 L49.6744 250.095 L48.433 242.775 L48.433 238.414 L71.5087 238.414 L71.5087 231.889 L75.0099 231.889 L75.0099 249.491 L71.5087 249.491 Z" fill="#000000" fill-rule="nonzero" fill-opacity="1" /><circle clip-path="url(#clip082)" cx="255.042" cy="851.226" r="10.8" fill="#009af9" fill-rule="evenodd" fill-opacity="1" stroke="#000000" stroke-opacity="1" stroke-width="2.08"/>
<circle clip-path="url(#clip082)" cx="264.291" cy="851.226" r="10.8" fill="#009af9" fill-rule="evenodd" fill-opacity="1" stroke="#000000" stroke-opacity="1" stroke-width="2.08"/>
<circle clip-path="url(#clip082)" cx="273.54" cy="851.226" r="10.8" fill="#009af9" fill-rule="evenodd" fill-opacity="1" stroke="#000000" stroke-opacity="1" stroke-width="2.08"/>
<circle clip-path="url(#clip082)" cx="282.789" cy="851.226" r="10.8" fill="#009af9" fill-rule="evenodd" fill-opacity="1" stroke="#000000" stroke-opacity="1" stroke-width="2.08"/>
<circle clip-path="url(#clip082)" cx="292.039" cy="851.226" r="10.8" fill="#009af9" fill-rule="evenodd" fill-opacity="1" stroke="#000000" stroke-opacity="1" stroke-width="2.08"/>
<circle clip-path="url(#clip082)" cx="301.288" cy="851.226" r="10.8" fill="#009af9" fill-rule="evenodd" fill-opacity="1" stroke="#000000" stroke-opacity="1" stroke-width="2.08"/>
<circle clip-path="url(#clip082)" cx="310.537" cy="851.226" r="10.8" fill="#009af9" fill-rule="evenodd" fill-opacity="1" stroke="#000000" stroke-opacity="1" stroke-width="2.08"/>
<circle clip-path="url(#clip082)" cx="319.786" cy="851.226" r="10.8" fill="#009af9" fill-rule="evenodd" fill-opacity="1" stroke="#000000" stroke-opacity="1" stroke-width="2.08"/>
<circle clip-path="url(#clip082)" cx="329.036" cy="851.226" r="10.8" fill="#009af9" fill-rule="evenodd" fill-opacity="1" stroke="#000000" stroke-opacity="1" stroke-width="2.08"/>
<circle clip-path="url(#clip082)" cx="338.285" cy="851.226" r="10.8" fill="#009af9" fill-rule="evenodd" fill-opacity="1" stroke="#000000" stroke-opacity="1" stroke-width="2.08"/>
<circle clip-path="url(#clip082)" cx="347.534" cy="851.226" r="10.8" fill="#009af9" fill-rule="evenodd" fill-opacity="1" stroke="#000000" stroke-opacity="1" stroke-width="2.08"/>
<circle clip-path="url(#clip082)" cx="356.784" cy="851.226" r="10.8" fill="#009af9" fill-rule="evenodd" fill-opacity="1" stroke="#000000" stroke-opacity="1" stroke-width="2.08"/>
<circle clip-path="url(#clip082)" cx="366.033" cy="851.226" r="10.8" fill="#009af9" fill-rule="evenodd" fill-opacity="1" stroke="#000000" stroke-opacity="1" stroke-width="2.08"/>
<circle clip-path="url(#clip082)" cx="375.282" cy="851.226" r="10.8" fill="#009af9" fill-rule="evenodd" fill-opacity="1" stroke="#000000" stroke-opacity="1" stroke-width="2.08"/>
<circle clip-path="url(#clip082)" cx="384.531" cy="851.226" r="10.8" fill="#009af9" fill-rule="evenodd" fill-opacity="1" stroke="#000000" stroke-opacity="1" stroke-width="2.08"/>
<circle clip-path="url(#clip082)" cx="393.781" cy="851.226" r="10.8" fill="#009af9" fill-rule="evenodd" fill-opacity="1" stroke="#000000" stroke-opacity="1" stroke-width="2.08"/>
<circle clip-path="url(#clip082)" cx="403.03" cy="851.226" r="10.8" fill="#009af9" fill-rule="evenodd" fill-opacity="1" stroke="#000000" stroke-opacity="1" stroke-width="2.08"/>
<circle clip-path="url(#clip082)" cx="412.279" cy="851.226" r="10.8" fill="#009af9" fill-rule="evenodd" fill-opacity="1" stroke="#000000" stroke-opacity="1" stroke-width="2.08"/>
<circle clip-path="url(#clip082)" cx="421.529" cy="851.226" r="10.8" fill="#009af9" fill-rule="evenodd" fill-opacity="1" stroke="#000000" stroke-opacity="1" stroke-width="2.08"/>
<circle clip-path="url(#clip082)" cx="430.778" cy="851.226" r="10.8" fill="#009af9" fill-rule="evenodd" fill-opacity="1" stroke="#000000" stroke-opacity="1" stroke-width="2.08"/>
<circle clip-path="url(#clip082)" cx="440.027" cy="851.226" r="10.8" fill="#009af9" fill-rule="evenodd" fill-opacity="1" stroke="#000000" stroke-opacity="1" stroke-width="2.08"/>
<circle clip-path="url(#clip082)" cx="449.276" cy="851.226" r="10.8" fill="#009af9" fill-rule="evenodd" fill-opacity="1" stroke="#000000" stroke-opacity="1" stroke-width="2.08"/>
<circle clip-path="url(#clip082)" cx="458.526" cy="851.226" r="10.8" fill="#009af9" fill-rule="evenodd" fill-opacity="1" stroke="#000000" stroke-opacity="1" stroke-width="2.08"/>
<circle clip-path="url(#clip082)" cx="467.775" cy="851.226" r="10.8" fill="#009af9" fill-rule="evenodd" fill-opacity="1" stroke="#000000" stroke-opacity="1" stroke-width="2.08"/>
<circle clip-path="url(#clip082)" cx="477.024" cy="851.226" r="10.8" fill="#009af9" fill-rule="evenodd" fill-opacity="1" stroke="#000000" stroke-opacity="1" stroke-width="2.08"/>
<circle clip-path="url(#clip082)" cx="486.274" cy="851.226" r="10.8" fill="#009af9" fill-rule="evenodd" fill-opacity="1" stroke="#000000" stroke-opacity="1" stroke-width="2.08"/>
<circle clip-path="url(#clip082)" cx="495.523" cy="851.226" r="10.8" fill="#009af9" fill-rule="evenodd" fill-opacity="1" stroke="#000000" stroke-opacity="1" stroke-width="2.08"/>
<circle clip-path="url(#clip082)" cx="504.772" cy="851.226" r="10.8" fill="#009af9" fill-rule="evenodd" fill-opacity="1" stroke="#000000" stroke-opacity="1" stroke-width="2.08"/>
<circle clip-path="url(#clip082)" cx="514.021" cy="851.226" r="10.8" fill="#009af9" fill-rule="evenodd" fill-opacity="1" stroke="#000000" stroke-opacity="1" stroke-width="2.08"/>
<circle clip-path="url(#clip082)" cx="523.271" cy="851.226" r="10.8" fill="#009af9" fill-rule="evenodd" fill-opacity="1" stroke="#000000" stroke-opacity="1" stroke-width="2.08"/>
<circle clip-path="url(#clip082)" cx="532.52" cy="851.226" r="10.8" fill="#009af9" fill-rule="evenodd" fill-opacity="1" stroke="#000000" stroke-opacity="1" stroke-width="2.08"/>
<circle clip-path="url(#clip082)" cx="541.769" cy="851.226" r="10.8" fill="#009af9" fill-rule="evenodd" fill-opacity="1" stroke="#000000" stroke-opacity="1" stroke-width="2.08"/>
<circle clip-path="url(#clip082)" cx="551.019" cy="851.226" r="10.8" fill="#009af9" fill-rule="evenodd" fill-opacity="1" stroke="#000000" stroke-opacity="1" stroke-width="2.08"/>
<circle clip-path="url(#clip082)" cx="560.268" cy="851.226" r="10.8" fill="#009af9" fill-rule="evenodd" fill-opacity="1" stroke="#000000" stroke-opacity="1" stroke-width="2.08"/>
<circle clip-path="url(#clip082)" cx="569.517" cy="851.226" r="10.8" fill="#009af9" fill-rule="evenodd" fill-opacity="1" stroke="#000000" stroke-opacity="1" stroke-width="2.08"/>
<circle clip-path="url(#clip082)" cx="578.766" cy="851.226" r="10.8" fill="#009af9" fill-rule="evenodd" fill-opacity="1" stroke="#000000" stroke-opacity="1" stroke-width="2.08"/>
<circle clip-path="url(#clip082)" cx="588.016" cy="851.226" r="10.8" fill="#009af9" fill-rule="evenodd" fill-opacity="1" stroke="#000000" stroke-opacity="1" stroke-width="2.08"/>
<circle clip-path="url(#clip082)" cx="597.265" cy="851.226" r="10.8" fill="#009af9" fill-rule="evenodd" fill-opacity="1" stroke="#000000" stroke-opacity="1" stroke-width="2.08"/>
<circle clip-path="url(#clip082)" cx="606.514" cy="851.226" r="10.8" fill="#009af9" fill-rule="evenodd" fill-opacity="1" stroke="#000000" stroke-opacity="1" stroke-width="2.08"/>
<circle clip-path="url(#clip082)" cx="615.764" cy="851.226" r="10.8" fill="#009af9" fill-rule="evenodd" fill-opacity="1" stroke="#000000" stroke-opacity="1" stroke-width="2.08"/>
<circle clip-path="url(#clip082)" cx="625.013" cy="851.226" r="10.8" fill="#009af9" fill-rule="evenodd" fill-opacity="1" stroke="#000000" stroke-opacity="1" stroke-width="2.08"/>
<circle clip-path="url(#clip082)" cx="634.262" cy="851.226" r="10.8" fill="#009af9" fill-rule="evenodd" fill-opacity="1" stroke="#000000" stroke-opacity="1" stroke-width="2.08"/>
<circle clip-path="url(#clip082)" cx="643.511" cy="851.226" r="10.8" fill="#009af9" fill-rule="evenodd" fill-opacity="1" stroke="#000000" stroke-opacity="1" stroke-width="2.08"/>
<circle clip-path="url(#clip082)" cx="652.761" cy="851.226" r="10.8" fill="#009af9" fill-rule="evenodd" fill-opacity="1" stroke="#000000" stroke-opacity="1" stroke-width="2.08"/>
<circle clip-path="url(#clip082)" cx="662.01" cy="851.226" r="10.8" fill="#009af9" fill-rule="evenodd" fill-opacity="1" stroke="#000000" stroke-opacity="1" stroke-width="2.08"/>
<circle clip-path="url(#clip082)" cx="671.259" cy="851.226" r="10.8" fill="#009af9" fill-rule="evenodd" fill-opacity="1" stroke="#000000" stroke-opacity="1" stroke-width="2.08"/>
<circle clip-path="url(#clip082)" cx="680.509" cy="851.226" r="10.8" fill="#009af9" fill-rule="evenodd" fill-opacity="1" stroke="#000000" stroke-opacity="1" stroke-width="2.08"/>
<circle clip-path="url(#clip082)" cx="689.758" cy="851.226" r="10.8" fill="#009af9" fill-rule="evenodd" fill-opacity="1" stroke="#000000" stroke-opacity="1" stroke-width="2.08"/>
<circle clip-path="url(#clip082)" cx="699.007" cy="851.226" r="10.8" fill="#009af9" fill-rule="evenodd" fill-opacity="1" stroke="#000000" stroke-opacity="1" stroke-width="2.08"/>
<circle clip-path="url(#clip082)" cx="708.256" cy="851.226" r="10.8" fill="#009af9" fill-rule="evenodd" fill-opacity="1" stroke="#000000" stroke-opacity="1" stroke-width="2.08"/>
<circle clip-path="url(#clip082)" cx="717.506" cy="851.226" r="10.8" fill="#009af9" fill-rule="evenodd" fill-opacity="1" stroke="#000000" stroke-opacity="1" stroke-width="2.08"/>
<circle clip-path="url(#clip082)" cx="726.755" cy="851.226" r="10.8" fill="#009af9" fill-rule="evenodd" fill-opacity="1" stroke="#000000" stroke-opacity="1" stroke-width="2.08"/>
<circle clip-path="url(#clip082)" cx="736.004" cy="851.226" r="10.8" fill="#009af9" fill-rule="evenodd" fill-opacity="1" stroke="#000000" stroke-opacity="1" stroke-width="2.08"/>
<circle clip-path="url(#clip082)" cx="745.254" cy="851.226" r="10.8" fill="#009af9" fill-rule="evenodd" fill-opacity="1" stroke="#000000" stroke-opacity="1" stroke-width="2.08"/>
<circle clip-path="url(#clip082)" cx="754.503" cy="851.226" r="10.8" fill="#009af9" fill-rule="evenodd" fill-opacity="1" stroke="#000000" stroke-opacity="1" stroke-width="2.08"/>
<circle clip-path="url(#clip082)" cx="763.752" cy="851.226" r="10.8" fill="#009af9" fill-rule="evenodd" fill-opacity="1" stroke="#000000" stroke-opacity="1" stroke-width="2.08"/>
<circle clip-path="url(#clip082)" cx="773.001" cy="851.226" r="10.8" fill="#009af9" fill-rule="evenodd" fill-opacity="1" stroke="#000000" stroke-opacity="1" stroke-width="2.08"/>
<circle clip-path="url(#clip082)" cx="782.251" cy="851.226" r="10.8" fill="#009af9" fill-rule="evenodd" fill-opacity="1" stroke="#000000" stroke-opacity="1" stroke-width="2.08"/>
<circle clip-path="url(#clip082)" cx="791.5" cy="851.226" r="10.8" fill="#009af9" fill-rule="evenodd" fill-opacity="1" stroke="#000000" stroke-opacity="1" stroke-width="2.08"/>
<path clip-path="url(#clip080)" d="M711.196 178.504 L788.639 178.504 L788.639 74.824 L711.196 74.824  Z" fill="#ffffff" fill-rule="evenodd" fill-opacity="1"/>
<polyline clip-path="url(#clip080)" style="stroke:#000000; stroke-linecap:round; stroke-linejoin:round; stroke-width:4; stroke-opacity:1; fill:none" points="711.196,178.504 788.639,178.504 788.639,74.824 711.196,74.824 711.196,178.504 "/>
<circle clip-path="url(#clip080)" cx="736.469" cy="126.664" r="19.7486" fill="#009af9" fill-rule="evenodd" fill-opacity="1" stroke="#000000" stroke-opacity="1" stroke-width="3.80343"/>
<path clip-path="url(#clip080)" d="M762.413 140.009 L770.052 140.009 L770.052 113.643 L761.742 115.31 L761.742 111.051 L770.006 109.384 L774.682 109.384 L774.682 140.009 L782.321 140.009 L782.321 143.944 L762.413 143.944 L762.413 140.009 Z" fill="#000000" fill-rule="nonzero" fill-opacity="1" /><path clip-path="url(#clip080)" d="M1064.11 874.643 L1632.76 874.643 L1632.76 47.2441 L1064.11 47.2441  Z" fill="#ffffff" fill-rule="evenodd" fill-opacity="1"/>
<defs>
  <clipPath id="clip083">
    <rect x="1064" y="47" width="570" height="828"/>
  </clipPath>
</defs>
<polyline clip-path="url(#clip083)" style="stroke:#000000; stroke-linecap:round; stroke-linejoin:round; stroke-width:2; stroke-opacity:0.1; fill:none" points="1070.95,874.643 1070.95,47.2441 "/>
<polyline clip-path="url(#clip083)" style="stroke:#000000; stroke-linecap:round; stroke-linejoin:round; stroke-width:2; stroke-opacity:0.1; fill:none" points="1163.45,874.643 1163.45,47.2441 "/>
<polyline clip-path="url(#clip083)" style="stroke:#000000; stroke-linecap:round; stroke-linejoin:round; stroke-width:2; stroke-opacity:0.1; fill:none" points="1255.94,874.643 1255.94,47.2441 "/>
<polyline clip-path="url(#clip083)" style="stroke:#000000; stroke-linecap:round; stroke-linejoin:round; stroke-width:2; stroke-opacity:0.1; fill:none" points="1348.43,874.643 1348.43,47.2441 "/>
<polyline clip-path="url(#clip083)" style="stroke:#000000; stroke-linecap:round; stroke-linejoin:round; stroke-width:2; stroke-opacity:0.1; fill:none" points="1440.93,874.643 1440.93,47.2441 "/>
<polyline clip-path="url(#clip083)" style="stroke:#000000; stroke-linecap:round; stroke-linejoin:round; stroke-width:2; stroke-opacity:0.1; fill:none" points="1533.42,874.643 1533.42,47.2441 "/>
<polyline clip-path="url(#clip083)" style="stroke:#000000; stroke-linecap:round; stroke-linejoin:round; stroke-width:2; stroke-opacity:0.1; fill:none" points="1625.91,874.643 1625.91,47.2441 "/>
<polyline clip-path="url(#clip083)" style="stroke:#000000; stroke-linecap:round; stroke-linejoin:round; stroke-width:2; stroke-opacity:0.1; fill:none" points="1064.11,851.226 1632.76,851.226 "/>
<polyline clip-path="url(#clip083)" style="stroke:#000000; stroke-linecap:round; stroke-linejoin:round; stroke-width:2; stroke-opacity:0.1; fill:none" points="1064.11,695.113 1632.76,695.113 "/>
<polyline clip-path="url(#clip083)" style="stroke:#000000; stroke-linecap:round; stroke-linejoin:round; stroke-width:2; stroke-opacity:0.1; fill:none" points="1064.11,539 1632.76,539 "/>
<polyline clip-path="url(#clip083)" style="stroke:#000000; stroke-linecap:round; stroke-linejoin:round; stroke-width:2; stroke-opacity:0.1; fill:none" points="1064.11,382.887 1632.76,382.887 "/>
<polyline clip-path="url(#clip083)" style="stroke:#000000; stroke-linecap:round; stroke-linejoin:round; stroke-width:2; stroke-opacity:0.1; fill:none" points="1064.11,226.774 1632.76,226.774 "/>
<polyline clip-path="url(#clip083)" style="stroke:#000000; stroke-linecap:round; stroke-linejoin:round; stroke-width:2; stroke-opacity:0.1; fill:none" points="1064.11,70.661 1632.76,70.661 "/>
<polyline clip-path="url(#clip080)" style="stroke:#000000; stroke-linecap:round; stroke-linejoin:round; stroke-width:4; stroke-opacity:1; fill:none" points="1064.11,874.643 1632.76,874.643 "/>
<polyline clip-path="url(#clip080)" style="stroke:#000000; stroke-linecap:round; stroke-linejoin:round; stroke-width:4; stroke-opacity:1; fill:none" points="1070.95,874.643 1070.95,855.745 "/>
<polyline clip-path="url(#clip080)" style="stroke:#000000; stroke-linecap:round; stroke-linejoin:round; stroke-width:4; stroke-opacity:1; fill:none" points="1163.45,874.643 1163.45,855.745 "/>
<polyline clip-path="url(#clip080)" style="stroke:#000000; stroke-linecap:round; stroke-linejoin:round; stroke-width:4; stroke-opacity:1; fill:none" points="1255.94,874.643 1255.94,855.745 "/>
<polyline clip-path="url(#clip080)" style="stroke:#000000; stroke-linecap:round; stroke-linejoin:round; stroke-width:4; stroke-opacity:1; fill:none" points="1348.43,874.643 1348.43,855.745 "/>
<polyline clip-path="url(#clip080)" style="stroke:#000000; stroke-linecap:round; stroke-linejoin:round; stroke-width:4; stroke-opacity:1; fill:none" points="1440.93,874.643 1440.93,855.745 "/>
<polyline clip-path="url(#clip080)" style="stroke:#000000; stroke-linecap:round; stroke-linejoin:round; stroke-width:4; stroke-opacity:1; fill:none" points="1533.42,874.643 1533.42,855.745 "/>
<polyline clip-path="url(#clip080)" style="stroke:#000000; stroke-linecap:round; stroke-linejoin:round; stroke-width:4; stroke-opacity:1; fill:none" points="1625.91,874.643 1625.91,855.745 "/>
<path clip-path="url(#clip080)" d="M1070.95 899.801 Q1067.34 899.801 1065.51 903.366 Q1063.71 906.908 1063.71 914.037 Q1063.71 921.144 1065.51 924.709 Q1067.34 928.25 1070.95 928.25 Q1074.59 928.25 1076.39 924.709 Q1078.22 921.144 1078.22 914.037 Q1078.22 906.908 1076.39 903.366 Q1074.59 899.801 1070.95 899.801 M1070.95 896.098 Q1076.76 896.098 1079.82 900.704 Q1082.9 905.287 1082.9 914.037 Q1082.9 922.764 1079.82 927.371 Q1076.76 931.954 1070.95 931.954 Q1065.14 931.954 1062.07 927.371 Q1059.01 922.764 1059.01 914.037 Q1059.01 905.287 1062.07 900.704 Q1065.14 896.098 1070.95 896.098 Z" fill="#000000" fill-rule="nonzero" fill-opacity="1" /><path clip-path="url(#clip080)" d="M1138.13 927.348 L1145.77 927.348 L1145.77 900.982 L1137.46 902.649 L1137.46 898.389 L1145.73 896.723 L1150.4 896.723 L1150.4 927.348 L1158.04 927.348 L1158.04 931.283 L1138.13 931.283 L1138.13 927.348 Z" fill="#000000" fill-rule="nonzero" fill-opacity="1" /><path clip-path="url(#clip080)" d="M1177.49 899.801 Q1173.88 899.801 1172.05 903.366 Q1170.24 906.908 1170.24 914.037 Q1170.24 921.144 1172.05 924.709 Q1173.88 928.25 1177.49 928.25 Q1181.12 928.25 1182.93 924.709 Q1184.75 921.144 1184.75 914.037 Q1184.75 906.908 1182.93 903.366 Q1181.12 899.801 1177.49 899.801 M1177.49 896.098 Q1183.3 896.098 1186.35 900.704 Q1189.43 905.287 1189.43 914.037 Q1189.43 922.764 1186.35 927.371 Q1183.3 931.954 1177.49 931.954 Q1171.68 931.954 1168.6 927.371 Q1165.54 922.764 1165.54 914.037 Q1165.54 905.287 1168.6 900.704 Q1171.68 896.098 1177.49 896.098 Z" fill="#000000" fill-rule="nonzero" fill-opacity="1" /><path clip-path="url(#clip080)" d="M1234.71 927.348 L1251.03 927.348 L1251.03 931.283 L1229.09 931.283 L1229.09 927.348 Q1231.75 924.593 1236.33 919.963 Q1240.94 915.311 1242.12 913.968 Q1244.37 911.445 1245.25 909.709 Q1246.15 907.949 1246.15 906.26 Q1246.15 903.505 1244.2 901.769 Q1242.28 900.033 1239.18 900.033 Q1236.98 900.033 1234.53 900.797 Q1232.1 901.561 1229.32 903.112 L1229.32 898.389 Q1232.14 897.255 1234.6 896.676 Q1237.05 896.098 1239.09 896.098 Q1244.46 896.098 1247.65 898.783 Q1250.85 901.468 1250.85 905.959 Q1250.85 908.088 1250.04 910.01 Q1249.25 911.908 1247.14 914.5 Q1246.57 915.172 1243.46 918.389 Q1240.36 921.584 1234.71 927.348 Z" fill="#000000" fill-rule="nonzero" fill-opacity="1" /><path clip-path="url(#clip080)" d="M1270.85 899.801 Q1267.24 899.801 1265.41 903.366 Q1263.6 906.908 1263.6 914.037 Q1263.6 921.144 1265.41 924.709 Q1267.24 928.25 1270.85 928.25 Q1274.48 928.25 1276.29 924.709 Q1278.12 921.144 1278.12 914.037 Q1278.12 906.908 1276.29 903.366 Q1274.48 899.801 1270.85 899.801 M1270.85 896.098 Q1276.66 896.098 1279.71 900.704 Q1282.79 905.287 1282.79 914.037 Q1282.79 922.764 1279.71 927.371 Q1276.66 931.954 1270.85 931.954 Q1265.04 931.954 1261.96 927.371 Q1258.9 922.764 1258.9 914.037 Q1258.9 905.287 1261.96 900.704 Q1265.04 896.098 1270.85 896.098 Z" fill="#000000" fill-rule="nonzero" fill-opacity="1" /><path clip-path="url(#clip080)" d="M1337.28 912.649 Q1340.63 913.366 1342.51 915.635 Q1344.41 917.903 1344.41 921.236 Q1344.41 926.352 1340.89 929.153 Q1337.37 931.954 1330.89 931.954 Q1328.71 931.954 1326.4 931.514 Q1324.1 931.098 1321.65 930.241 L1321.65 925.727 Q1323.6 926.861 1325.91 927.44 Q1328.22 928.019 1330.75 928.019 Q1335.15 928.019 1337.44 926.283 Q1339.75 924.547 1339.75 921.236 Q1339.75 918.181 1337.6 916.468 Q1335.47 914.732 1331.65 914.732 L1327.62 914.732 L1327.62 910.889 L1331.84 910.889 Q1335.28 910.889 1337.11 909.524 Q1338.94 908.135 1338.94 905.542 Q1338.94 902.88 1337.04 901.468 Q1335.17 900.033 1331.65 900.033 Q1329.73 900.033 1327.53 900.45 Q1325.33 900.866 1322.69 901.746 L1322.69 897.579 Q1325.35 896.838 1327.67 896.468 Q1330.01 896.098 1332.07 896.098 Q1337.39 896.098 1340.49 898.528 Q1343.59 900.936 1343.59 905.056 Q1343.59 907.926 1341.95 909.917 Q1340.31 911.885 1337.28 912.649 Z" fill="#000000" fill-rule="nonzero" fill-opacity="1" /><path clip-path="url(#clip080)" d="M1363.27 899.801 Q1359.66 899.801 1357.83 903.366 Q1356.03 906.908 1356.03 914.037 Q1356.03 921.144 1357.83 924.709 Q1359.66 928.25 1363.27 928.25 Q1366.91 928.25 1368.71 924.709 Q1370.54 921.144 1370.54 914.037 Q1370.54 906.908 1368.71 903.366 Q1366.91 899.801 1363.27 899.801 M1363.27 896.098 Q1369.08 896.098 1372.14 900.704 Q1375.22 905.287 1375.22 914.037 Q1375.22 922.764 1372.14 927.371 Q1369.08 931.954 1363.27 931.954 Q1357.46 931.954 1354.38 927.371 Q1351.33 922.764 1351.33 914.037 Q1351.33 905.287 1354.38 900.704 Q1357.46 896.098 1363.27 896.098 Z" fill="#000000" fill-rule="nonzero" fill-opacity="1" /><path clip-path="url(#clip080)" d="M1429.1 900.797 L1417.29 919.246 L1429.1 919.246 L1429.1 900.797 M1427.87 896.723 L1433.75 896.723 L1433.75 919.246 L1438.68 919.246 L1438.68 923.135 L1433.75 923.135 L1433.75 931.283 L1429.1 931.283 L1429.1 923.135 L1413.5 923.135 L1413.5 918.621 L1427.87 896.723 Z" fill="#000000" fill-rule="nonzero" fill-opacity="1" /><path clip-path="url(#clip080)" d="M1456.41 899.801 Q1452.8 899.801 1450.97 903.366 Q1449.17 906.908 1449.17 914.037 Q1449.17 921.144 1450.97 924.709 Q1452.8 928.25 1456.41 928.25 Q1460.05 928.25 1461.85 924.709 Q1463.68 921.144 1463.68 914.037 Q1463.68 906.908 1461.85 903.366 Q1460.05 899.801 1456.41 899.801 M1456.41 896.098 Q1462.22 896.098 1465.28 900.704 Q1468.36 905.287 1468.36 914.037 Q1468.36 922.764 1465.28 927.371 Q1462.22 931.954 1456.41 931.954 Q1450.6 931.954 1447.52 927.371 Q1444.47 922.764 1444.47 914.037 Q1444.47 905.287 1447.52 900.704 Q1450.6 896.098 1456.41 896.098 Z" fill="#000000" fill-rule="nonzero" fill-opacity="1" /><path clip-path="url(#clip080)" d="M1508.12 896.723 L1526.47 896.723 L1526.47 900.658 L1512.4 900.658 L1512.4 909.13 Q1513.42 908.783 1514.44 908.621 Q1515.46 908.436 1516.47 908.436 Q1522.26 908.436 1525.64 911.607 Q1529.02 914.778 1529.02 920.195 Q1529.02 925.773 1525.55 928.875 Q1522.08 931.954 1515.76 931.954 Q1513.58 931.954 1511.31 931.584 Q1509.07 931.213 1506.66 930.473 L1506.66 925.773 Q1508.74 926.908 1510.97 927.463 Q1513.19 928.019 1515.66 928.019 Q1519.67 928.019 1522.01 925.912 Q1524.34 923.806 1524.34 920.195 Q1524.34 916.584 1522.01 914.477 Q1519.67 912.371 1515.66 912.371 Q1513.79 912.371 1511.91 912.787 Q1510.06 913.204 1508.12 914.084 L1508.12 896.723 Z" fill="#000000" fill-rule="nonzero" fill-opacity="1" /><path clip-path="url(#clip080)" d="M1548.23 899.801 Q1544.62 899.801 1542.79 903.366 Q1540.99 906.908 1540.99 914.037 Q1540.99 921.144 1542.79 924.709 Q1544.62 928.25 1548.23 928.25 Q1551.87 928.25 1553.67 924.709 Q1555.5 921.144 1555.5 914.037 Q1555.5 906.908 1553.67 903.366 Q1551.87 899.801 1548.23 899.801 M1548.23 896.098 Q1554.04 896.098 1557.1 900.704 Q1560.18 905.287 1560.18 914.037 Q1560.18 922.764 1557.1 927.371 Q1554.04 931.954 1548.23 931.954 Q1542.42 931.954 1539.34 927.371 Q1536.29 922.764 1536.29 914.037 Q1536.29 905.287 1539.34 900.704 Q1542.42 896.098 1548.23 896.098 Z" fill="#000000" fill-rule="nonzero" fill-opacity="1" /><path clip-path="url(#clip080)" d="M1611.32 912.139 Q1608.17 912.139 1606.32 914.292 Q1604.49 916.445 1604.49 920.195 Q1604.49 923.922 1606.32 926.098 Q1608.17 928.25 1611.32 928.25 Q1614.46 928.25 1616.29 926.098 Q1618.15 923.922 1618.15 920.195 Q1618.15 916.445 1616.29 914.292 Q1614.46 912.139 1611.32 912.139 M1620.6 897.487 L1620.6 901.746 Q1618.84 900.912 1617.03 900.473 Q1615.25 900.033 1613.49 900.033 Q1608.86 900.033 1606.41 903.158 Q1603.98 906.283 1603.63 912.602 Q1605 910.588 1607.06 909.524 Q1609.12 908.436 1611.59 908.436 Q1616.8 908.436 1619.81 911.607 Q1622.84 914.755 1622.84 920.195 Q1622.84 925.519 1619.7 928.736 Q1616.55 931.954 1611.32 931.954 Q1605.32 931.954 1602.15 927.371 Q1598.98 922.764 1598.98 914.037 Q1598.98 905.843 1602.87 900.982 Q1606.76 896.098 1613.31 896.098 Q1615.07 896.098 1616.85 896.445 Q1618.65 896.792 1620.6 897.487 Z" fill="#000000" fill-rule="nonzero" fill-opacity="1" /><path clip-path="url(#clip080)" d="M1640.9 899.801 Q1637.29 899.801 1635.46 903.366 Q1633.65 906.908 1633.65 914.037 Q1633.65 921.144 1635.46 924.709 Q1637.29 928.25 1640.9 928.25 Q1644.53 928.25 1646.34 924.709 Q1648.17 921.144 1648.17 914.037 Q1648.17 906.908 1646.34 903.366 Q1644.53 899.801 1640.9 899.801 M1640.9 896.098 Q1646.71 896.098 1649.77 900.704 Q1652.84 905.287 1652.84 914.037 Q1652.84 922.764 1649.77 927.371 Q1646.71 931.954 1640.9 931.954 Q1635.09 931.954 1632.01 927.371 Q1628.96 922.764 1628.96 914.037 Q1628.96 905.287 1632.01 900.704 Q1635.09 896.098 1640.9 896.098 Z" fill="#000000" fill-rule="nonzero" fill-opacity="1" /><path clip-path="url(#clip080)" d="M1220.99 959.182 L1226.88 959.182 L1226.88 988.432 L1244.35 973.059 L1251.83 973.059 L1232.93 989.737 L1252.63 1008.71 L1244.99 1008.71 L1226.88 991.296 L1226.88 1008.71 L1220.99 1008.71 L1220.99 959.182 Z" fill="#000000" fill-rule="nonzero" fill-opacity="1" /><path clip-path="url(#clip080)" d="M1261.35 1005.08 L1274.85 1005.08 L1274.85 1008.71 L1255.81 1008.71 L1255.81 1005.21 Q1256.89 1004.22 1258.9 1002.44 Q1269.85 992.729 1269.85 989.737 Q1269.85 987.636 1268.19 986.363 Q1266.54 985.058 1263.83 985.058 Q1262.18 985.058 1260.24 985.631 Q1258.29 986.172 1256 987.286 L1256 983.371 Q1258.45 982.48 1260.55 982.034 Q1262.69 981.589 1264.5 981.589 Q1269.12 981.589 1271.89 983.689 Q1274.65 985.79 1274.65 989.228 Q1274.65 993.652 1264.12 1002.69 Q1262.34 1004.22 1261.35 1005.08 Z" fill="#000000" fill-rule="nonzero" fill-opacity="1" /><path clip-path="url(#clip080)" d="M1305.81 973.059 L1311.67 973.059 L1311.67 1008.71 L1305.81 1008.71 L1305.81 973.059 M1305.81 959.182 L1311.67 959.182 L1311.67 966.598 L1305.81 966.598 L1305.81 959.182 Z" fill="#000000" fill-rule="nonzero" fill-opacity="1" /><path clip-path="url(#clip080)" d="M1353.56 987.191 L1353.56 1008.71 L1347.7 1008.71 L1347.7 987.382 Q1347.7 982.321 1345.73 979.806 Q1343.75 977.292 1339.81 977.292 Q1335.06 977.292 1332.33 980.316 Q1329.59 983.339 1329.59 988.559 L1329.59 1008.71 L1323.7 1008.71 L1323.7 973.059 L1329.59 973.059 L1329.59 978.597 Q1331.69 975.382 1334.52 973.791 Q1337.39 972.199 1341.11 972.199 Q1347.26 972.199 1350.41 976.019 Q1353.56 979.806 1353.56 987.191 Z" fill="#000000" fill-rule="nonzero" fill-opacity="1" /><path clip-path="url(#clip080)" d="M1388.7 978.47 L1388.7 959.182 L1394.55 959.182 L1394.55 1008.71 L1388.7 1008.71 L1388.7 1003.36 Q1386.85 1006.54 1384.02 1008.1 Q1381.22 1009.63 1377.27 1009.63 Q1370.81 1009.63 1366.73 1004.47 Q1362.69 999.317 1362.69 990.915 Q1362.69 982.512 1366.73 977.356 Q1370.81 972.199 1377.27 972.199 Q1381.22 972.199 1384.02 973.759 Q1386.85 975.287 1388.7 978.47 M1368.74 990.915 Q1368.74 997.376 1371.38 1001.07 Q1374.05 1004.73 1378.7 1004.73 Q1383.35 1004.73 1386.02 1001.07 Q1388.7 997.376 1388.7 990.915 Q1388.7 984.453 1386.02 980.793 Q1383.35 977.101 1378.7 977.101 Q1374.05 977.101 1371.38 980.793 Q1368.74 984.453 1368.74 990.915 Z" fill="#000000" fill-rule="nonzero" fill-opacity="1" /><path clip-path="url(#clip080)" d="M1437.11 989.419 L1437.11 992.283 L1410.18 992.283 Q1410.56 998.331 1413.81 1001.51 Q1417.09 1004.66 1422.91 1004.66 Q1426.29 1004.66 1429.44 1003.84 Q1432.62 1003.01 1435.74 1001.35 L1435.74 1006.89 Q1432.59 1008.23 1429.28 1008.93 Q1425.97 1009.63 1422.56 1009.63 Q1414.03 1009.63 1409.03 1004.66 Q1404.07 999.699 1404.07 991.233 Q1404.07 982.48 1408.78 977.356 Q1413.52 972.199 1421.54 972.199 Q1428.74 972.199 1432.91 976.846 Q1437.11 981.461 1437.11 989.419 M1431.25 987.7 Q1431.19 982.894 1428.55 980.029 Q1425.94 977.165 1421.61 977.165 Q1416.71 977.165 1413.75 979.934 Q1410.82 982.703 1410.37 987.732 L1431.25 987.7 Z" fill="#000000" fill-rule="nonzero" fill-opacity="1" /><path clip-path="url(#clip080)" d="M1475.21 973.059 L1462.32 990.405 L1475.87 1008.71 L1468.97 1008.71 L1458.59 994.702 L1448.22 1008.71 L1441.31 1008.71 L1455.15 990.055 L1442.49 973.059 L1449.39 973.059 L1458.85 985.758 L1468.3 973.059 L1475.21 973.059 Z" fill="#000000" fill-rule="nonzero" fill-opacity="1" /><polyline clip-path="url(#clip080)" style="stroke:#000000; stroke-linecap:round; stroke-linejoin:round; stroke-width:4; stroke-opacity:1; fill:none" points="1064.11,874.643 1064.11,47.2441 "/>
<polyline clip-path="url(#clip080)" style="stroke:#000000; stroke-linecap:round; stroke-linejoin:round; stroke-width:4; stroke-opacity:1; fill:none" points="1064.11,851.226 1083.01,851.226 "/>
<polyline clip-path="url(#clip080)" style="stroke:#000000; stroke-linecap:round; stroke-linejoin:round; stroke-width:4; stroke-opacity:1; fill:none" points="1064.11,695.113 1083.01,695.113 "/>
<polyline clip-path="url(#clip080)" style="stroke:#000000; stroke-linecap:round; stroke-linejoin:round; stroke-width:4; stroke-opacity:1; fill:none" points="1064.11,539 1083.01,539 "/>
<polyline clip-path="url(#clip080)" style="stroke:#000000; stroke-linecap:round; stroke-linejoin:round; stroke-width:4; stroke-opacity:1; fill:none" points="1064.11,382.887 1083.01,382.887 "/>
<polyline clip-path="url(#clip080)" style="stroke:#000000; stroke-linecap:round; stroke-linejoin:round; stroke-width:4; stroke-opacity:1; fill:none" points="1064.11,226.774 1083.01,226.774 "/>
<polyline clip-path="url(#clip080)" style="stroke:#000000; stroke-linecap:round; stroke-linejoin:round; stroke-width:4; stroke-opacity:1; fill:none" points="1064.11,70.661 1083.01,70.661 "/>
<path clip-path="url(#clip080)" d="M981.734 837.024 Q978.123 837.024 976.294 840.589 Q974.489 844.131 974.489 851.26 Q974.489 858.367 976.294 861.932 Q978.123 865.473 981.734 865.473 Q985.368 865.473 987.174 861.932 Q989.003 858.367 989.003 851.26 Q989.003 844.131 987.174 840.589 Q985.368 837.024 981.734 837.024 M981.734 833.321 Q987.544 833.321 990.6 837.927 Q993.679 842.511 993.679 851.26 Q993.679 859.987 990.6 864.594 Q987.544 869.177 981.734 869.177 Q975.924 869.177 972.845 864.594 Q969.79 859.987 969.79 851.26 Q969.79 842.511 972.845 837.927 Q975.924 833.321 981.734 833.321 Z" fill="#000000" fill-rule="nonzero" fill-opacity="1" /><path clip-path="url(#clip080)" d="M1001.9 862.626 L1006.78 862.626 L1006.78 868.506 L1001.9 868.506 L1001.9 862.626 Z" fill="#000000" fill-rule="nonzero" fill-opacity="1" /><path clip-path="url(#clip080)" d="M1026.97 837.024 Q1023.35 837.024 1021.53 840.589 Q1019.72 844.131 1019.72 851.26 Q1019.72 858.367 1021.53 861.932 Q1023.35 865.473 1026.97 865.473 Q1030.6 865.473 1032.41 861.932 Q1034.23 858.367 1034.23 851.26 Q1034.23 844.131 1032.41 840.589 Q1030.6 837.024 1026.97 837.024 M1026.97 833.321 Q1032.78 833.321 1035.83 837.927 Q1038.91 842.511 1038.91 851.26 Q1038.91 859.987 1035.83 864.594 Q1032.78 869.177 1026.97 869.177 Q1021.16 869.177 1018.08 864.594 Q1015.02 859.987 1015.02 851.26 Q1015.02 842.511 1018.08 837.927 Q1021.16 833.321 1026.97 833.321 Z" fill="#000000" fill-rule="nonzero" fill-opacity="1" /><path clip-path="url(#clip080)" d="M982.961 680.912 Q979.35 680.912 977.521 684.476 Q975.716 688.018 975.716 695.148 Q975.716 702.254 977.521 705.819 Q979.35 709.36 982.961 709.36 Q986.595 709.36 988.401 705.819 Q990.23 702.254 990.23 695.148 Q990.23 688.018 988.401 684.476 Q986.595 680.912 982.961 680.912 M982.961 677.208 Q988.771 677.208 991.827 681.814 Q994.905 686.398 994.905 695.148 Q994.905 703.874 991.827 708.481 Q988.771 713.064 982.961 713.064 Q977.151 713.064 974.072 708.481 Q971.017 703.874 971.017 695.148 Q971.017 686.398 974.072 681.814 Q977.151 677.208 982.961 677.208 Z" fill="#000000" fill-rule="nonzero" fill-opacity="1" /><path clip-path="url(#clip080)" d="M1003.12 706.513 L1008.01 706.513 L1008.01 712.393 L1003.12 712.393 L1003.12 706.513 Z" fill="#000000" fill-rule="nonzero" fill-opacity="1" /><path clip-path="url(#clip080)" d="M1019 708.458 L1026.64 708.458 L1026.64 682.092 L1018.33 683.759 L1018.33 679.499 L1026.6 677.833 L1031.27 677.833 L1031.27 708.458 L1038.91 708.458 L1038.91 712.393 L1019 712.393 L1019 708.458 Z" fill="#000000" fill-rule="nonzero" fill-opacity="1" /><path clip-path="url(#clip080)" d="M983.331 524.799 Q979.72 524.799 977.892 528.363 Q976.086 531.905 976.086 539.035 Q976.086 546.141 977.892 549.706 Q979.72 553.247 983.331 553.247 Q986.966 553.247 988.771 549.706 Q990.6 546.141 990.6 539.035 Q990.6 531.905 988.771 528.363 Q986.966 524.799 983.331 524.799 M983.331 521.095 Q989.142 521.095 992.197 525.701 Q995.276 530.285 995.276 539.035 Q995.276 547.761 992.197 552.368 Q989.142 556.951 983.331 556.951 Q977.521 556.951 974.443 552.368 Q971.387 547.761 971.387 539.035 Q971.387 530.285 974.443 525.701 Q977.521 521.095 983.331 521.095 Z" fill="#000000" fill-rule="nonzero" fill-opacity="1" /><path clip-path="url(#clip080)" d="M1003.49 550.4 L1008.38 550.4 L1008.38 556.28 L1003.49 556.28 L1003.49 550.4 Z" fill="#000000" fill-rule="nonzero" fill-opacity="1" /><path clip-path="url(#clip080)" d="M1022.59 552.345 L1038.91 552.345 L1038.91 556.28 L1016.97 556.28 L1016.97 552.345 Q1019.63 549.59 1024.21 544.96 Q1028.82 540.308 1030 538.965 Q1032.24 536.442 1033.12 534.706 Q1034.03 532.947 1034.03 531.257 Q1034.03 528.502 1032.08 526.766 Q1030.16 525.03 1027.06 525.03 Q1024.86 525.03 1022.41 525.794 Q1019.97 526.558 1017.2 528.109 L1017.2 523.387 Q1020.02 522.252 1022.47 521.674 Q1024.93 521.095 1026.97 521.095 Q1032.34 521.095 1035.53 523.78 Q1038.72 526.465 1038.72 530.956 Q1038.72 533.086 1037.91 535.007 Q1037.13 536.905 1035.02 539.498 Q1034.44 540.169 1031.34 543.386 Q1028.24 546.581 1022.59 552.345 Z" fill="#000000" fill-rule="nonzero" fill-opacity="1" /><path clip-path="url(#clip080)" d="M982.382 368.686 Q978.771 368.686 976.943 372.25 Q975.137 375.792 975.137 382.922 Q975.137 390.028 976.943 393.593 Q978.771 397.135 982.382 397.135 Q986.017 397.135 987.822 393.593 Q989.651 390.028 989.651 382.922 Q989.651 375.792 987.822 372.25 Q986.017 368.686 982.382 368.686 M982.382 364.982 Q988.193 364.982 991.248 369.588 Q994.327 374.172 994.327 382.922 Q994.327 391.648 991.248 396.255 Q988.193 400.838 982.382 400.838 Q976.572 400.838 973.494 396.255 Q970.438 391.648 970.438 382.922 Q970.438 374.172 973.494 369.588 Q976.572 364.982 982.382 364.982 Z" fill="#000000" fill-rule="nonzero" fill-opacity="1" /><path clip-path="url(#clip080)" d="M1002.54 394.287 L1007.43 394.287 L1007.43 400.167 L1002.54 400.167 L1002.54 394.287 Z" fill="#000000" fill-rule="nonzero" fill-opacity="1" /><path clip-path="url(#clip080)" d="M1031.78 381.533 Q1035.14 382.25 1037.01 384.519 Q1038.91 386.787 1038.91 390.121 Q1038.91 395.236 1035.39 398.037 Q1031.87 400.838 1025.39 400.838 Q1023.22 400.838 1020.9 400.398 Q1018.61 399.982 1016.16 399.125 L1016.16 394.611 Q1018.1 395.746 1020.41 396.324 Q1022.73 396.903 1025.25 396.903 Q1029.65 396.903 1031.94 395.167 Q1034.26 393.431 1034.26 390.121 Q1034.26 387.065 1032.1 385.352 Q1029.97 383.616 1026.16 383.616 L1022.13 383.616 L1022.13 379.774 L1026.34 379.774 Q1029.79 379.774 1031.62 378.408 Q1033.45 377.019 1033.45 374.426 Q1033.45 371.764 1031.55 370.352 Q1029.67 368.917 1026.16 368.917 Q1024.23 368.917 1022.03 369.334 Q1019.84 369.75 1017.2 370.63 L1017.2 366.463 Q1019.86 365.723 1022.17 365.352 Q1024.51 364.982 1026.57 364.982 Q1031.9 364.982 1035 367.412 Q1038.1 369.82 1038.1 373.94 Q1038.1 376.811 1036.46 378.801 Q1034.81 380.769 1031.78 381.533 Z" fill="#000000" fill-rule="nonzero" fill-opacity="1" /><path clip-path="url(#clip080)" d="M981.248 212.573 Q977.637 212.573 975.808 216.137 Q974.003 219.679 974.003 226.809 Q974.003 233.915 975.808 237.48 Q977.637 241.022 981.248 241.022 Q984.882 241.022 986.688 237.48 Q988.517 233.915 988.517 226.809 Q988.517 219.679 986.688 216.137 Q984.882 212.573 981.248 212.573 M981.248 208.869 Q987.058 208.869 990.114 213.475 Q993.193 218.059 993.193 226.809 Q993.193 235.536 990.114 240.142 Q987.058 244.725 981.248 244.725 Q975.438 244.725 972.359 240.142 Q969.304 235.536 969.304 226.809 Q969.304 218.059 972.359 213.475 Q975.438 208.869 981.248 208.869 Z" fill="#000000" fill-rule="nonzero" fill-opacity="1" /><path clip-path="url(#clip080)" d="M1001.41 238.174 L1006.29 238.174 L1006.29 244.054 L1001.41 244.054 L1001.41 238.174 Z" fill="#000000" fill-rule="nonzero" fill-opacity="1" /><path clip-path="url(#clip080)" d="M1029.33 213.568 L1017.52 232.017 L1029.33 232.017 L1029.33 213.568 M1028.1 209.494 L1033.98 209.494 L1033.98 232.017 L1038.91 232.017 L1038.91 235.906 L1033.98 235.906 L1033.98 244.054 L1029.33 244.054 L1029.33 235.906 L1013.72 235.906 L1013.72 231.392 L1028.1 209.494 Z" fill="#000000" fill-rule="nonzero" fill-opacity="1" /><path clip-path="url(#clip080)" d="M982.73 56.4597 Q979.119 56.4597 977.29 60.0245 Q975.484 63.5662 975.484 70.6958 Q975.484 77.8022 977.29 81.367 Q979.119 84.9086 982.73 84.9086 Q986.364 84.9086 988.169 81.367 Q989.998 77.8022 989.998 70.6958 Q989.998 63.5662 988.169 60.0245 Q986.364 56.4597 982.73 56.4597 M982.73 52.756 Q988.54 52.756 991.595 57.3625 Q994.674 61.9458 994.674 70.6958 Q994.674 79.4226 991.595 84.029 Q988.54 88.6123 982.73 88.6123 Q976.919 88.6123 973.841 84.029 Q970.785 79.4226 970.785 70.6958 Q970.785 61.9458 973.841 57.3625 Q976.919 52.756 982.73 52.756 Z" fill="#000000" fill-rule="nonzero" fill-opacity="1" /><path clip-path="url(#clip080)" d="M1002.89 82.0614 L1007.78 82.0614 L1007.78 87.941 L1002.89 87.941 L1002.89 82.0614 Z" fill="#000000" fill-rule="nonzero" fill-opacity="1" /><path clip-path="url(#clip080)" d="M1018.01 53.381 L1036.36 53.381 L1036.36 57.3162 L1022.29 57.3162 L1022.29 65.7884 Q1023.31 65.4412 1024.33 65.2791 Q1025.35 65.0939 1026.36 65.0939 Q1032.15 65.0939 1035.53 68.2652 Q1038.91 71.4365 1038.91 76.8531 Q1038.91 82.4318 1035.44 85.5336 Q1031.97 88.6123 1025.65 88.6123 Q1023.47 88.6123 1021.2 88.242 Q1018.96 87.8716 1016.55 87.1309 L1016.55 82.4318 Q1018.63 83.5661 1020.85 84.1216 Q1023.08 84.6772 1025.55 84.6772 Q1029.56 84.6772 1031.9 82.5707 Q1034.23 80.4642 1034.23 76.8531 Q1034.23 73.242 1031.9 71.1356 Q1029.56 69.0291 1025.55 69.0291 Q1023.68 69.0291 1021.8 69.4458 Q1019.95 69.8624 1018.01 70.7421 L1018.01 53.381 Z" fill="#000000" fill-rule="nonzero" fill-opacity="1" /><path clip-path="url(#clip080)" d="M924.501 684.109 L943.407 684.109 L943.407 689.997 L894.2 689.997 L894.2 684.109 L899.611 684.109 Q896.428 682.263 894.9 679.462 Q893.34 676.629 893.34 672.715 Q893.34 666.222 898.497 662.179 Q903.653 658.105 912.056 658.105 Q920.458 658.105 925.615 662.179 Q930.771 666.222 930.771 672.715 Q930.771 676.629 929.243 679.462 Q927.683 682.263 924.501 684.109 M912.056 664.184 Q905.594 664.184 901.934 666.858 Q898.242 669.5 898.242 674.147 Q898.242 678.794 901.934 681.467 Q905.594 684.109 912.056 684.109 Q918.517 684.109 922.209 681.467 Q925.869 678.794 925.869 674.147 Q925.869 669.5 922.209 666.858 Q918.517 664.184 912.056 664.184 Z" fill="#000000" fill-rule="nonzero" fill-opacity="1" /><path clip-path="url(#clip080)" d="M898.306 634.584 Q898.306 639.295 901.998 642.032 Q905.658 644.769 912.056 644.769 Q918.453 644.769 922.145 642.064 Q925.806 639.326 925.806 634.584 Q925.806 629.905 922.113 627.168 Q918.421 624.431 912.056 624.431 Q905.722 624.431 902.03 627.168 Q898.306 629.905 898.306 634.584 M893.34 634.584 Q893.34 626.945 898.306 622.585 Q903.271 618.224 912.056 618.224 Q920.808 618.224 925.806 622.585 Q930.771 626.945 930.771 634.584 Q930.771 642.255 925.806 646.615 Q920.808 650.944 912.056 650.944 Q903.271 650.944 898.306 646.615 Q893.34 642.255 893.34 634.584 Z" fill="#000000" fill-rule="nonzero" fill-opacity="1" /><path clip-path="url(#clip080)" d="M880.323 608.516 L880.323 602.66 L929.848 602.66 L929.848 608.516 L880.323 608.516 Z" fill="#000000" fill-rule="nonzero" fill-opacity="1" /><path clip-path="url(#clip080)" d="M911.928 574.205 Q911.928 581.303 913.552 584.04 Q915.175 586.778 919.09 586.778 Q922.209 586.778 924.055 584.74 Q925.869 582.672 925.869 579.139 Q925.869 574.269 922.432 571.341 Q918.962 568.381 913.233 568.381 L911.928 568.381 L911.928 574.205 M909.509 562.524 L929.848 562.524 L929.848 568.381 L924.437 568.381 Q927.683 570.386 929.243 573.378 Q930.771 576.37 930.771 580.698 Q930.771 586.173 927.715 589.419 Q924.628 592.634 919.472 592.634 Q913.456 592.634 910.401 588.624 Q907.345 584.581 907.345 576.592 L907.345 568.381 L906.772 568.381 Q902.73 568.381 900.534 571.054 Q898.306 573.696 898.306 578.502 Q898.306 581.558 899.038 584.454 Q899.77 587.35 901.234 590.024 L895.823 590.024 Q894.582 586.809 893.977 583.786 Q893.34 580.762 893.34 577.897 Q893.34 570.163 897.351 566.344 Q901.361 562.524 909.509 562.524 Z" fill="#000000" fill-rule="nonzero" fill-opacity="1" /><path clip-path="url(#clip080)" d="M899.674 529.804 Q899.101 530.791 898.847 531.969 Q898.56 533.115 898.56 534.515 Q898.56 539.48 901.807 542.154 Q905.021 544.796 911.069 544.796 L929.848 544.796 L929.848 550.684 L894.2 550.684 L894.2 544.796 L899.738 544.796 Q896.491 542.95 894.932 539.99 Q893.34 537.03 893.34 532.796 Q893.34 532.192 893.436 531.46 Q893.5 530.727 893.659 529.836 L899.674 529.804 Z" fill="#000000" fill-rule="nonzero" fill-opacity="1" /><path clip-path="url(#clip080)" d="M894.2 523.662 L894.2 517.805 L929.848 517.805 L929.848 523.662 L894.2 523.662 M880.323 523.662 L880.323 517.805 L887.739 517.805 L887.739 523.662 L880.323 523.662 Z" fill="#000000" fill-rule="nonzero" fill-opacity="1" /><path clip-path="url(#clip080)" d="M895.25 482.826 L900.788 482.826 Q899.515 485.308 898.879 487.982 Q898.242 490.655 898.242 493.52 Q898.242 497.88 899.579 500.077 Q900.916 502.241 903.589 502.241 Q905.626 502.241 906.804 500.681 Q907.95 499.122 909 494.411 L909.446 492.406 Q910.782 486.168 913.233 483.558 Q915.652 480.916 920.013 480.916 Q924.978 480.916 927.874 484.863 Q930.771 488.777 930.771 495.652 Q930.771 498.517 930.198 501.636 Q929.657 504.724 928.543 508.161 L922.495 508.161 Q924.182 504.915 925.042 501.763 Q925.869 498.612 925.869 495.525 Q925.869 491.387 924.469 489.159 Q923.036 486.931 920.458 486.931 Q918.071 486.931 916.798 488.555 Q915.525 490.146 914.347 495.589 L913.87 497.626 Q912.724 503.068 910.369 505.487 Q907.982 507.906 903.844 507.906 Q898.815 507.906 896.078 504.342 Q893.34 500.777 893.34 494.22 Q893.34 490.974 893.818 488.109 Q894.295 485.244 895.25 482.826 Z" fill="#000000" fill-rule="nonzero" fill-opacity="1" /><path clip-path="url(#clip080)" d="M911.928 455.389 Q911.928 462.487 913.552 465.224 Q915.175 467.962 919.09 467.962 Q922.209 467.962 924.055 465.925 Q925.869 463.856 925.869 460.323 Q925.869 455.453 922.432 452.525 Q918.962 449.565 913.233 449.565 L911.928 449.565 L911.928 455.389 M909.509 443.708 L929.848 443.708 L929.848 449.565 L924.437 449.565 Q927.683 451.57 929.243 454.562 Q930.771 457.554 930.771 461.882 Q930.771 467.357 927.715 470.603 Q924.628 473.818 919.472 473.818 Q913.456 473.818 910.401 469.808 Q907.345 465.765 907.345 457.776 L907.345 449.565 L906.772 449.565 Q902.73 449.565 900.534 452.238 Q898.306 454.88 898.306 459.686 Q898.306 462.742 899.038 465.638 Q899.77 468.535 901.234 471.208 L895.823 471.208 Q894.582 467.993 893.977 464.97 Q893.34 461.946 893.34 459.081 Q893.34 451.347 897.351 447.528 Q901.361 443.708 909.509 443.708 Z" fill="#000000" fill-rule="nonzero" fill-opacity="1" /><path clip-path="url(#clip080)" d="M884.078 425.852 L894.2 425.852 L894.2 413.789 L898.751 413.789 L898.751 425.852 L918.103 425.852 Q922.464 425.852 923.705 424.675 Q924.946 423.465 924.946 419.805 L924.946 413.789 L929.848 413.789 L929.848 419.805 Q929.848 426.584 927.333 429.163 Q924.787 431.741 918.103 431.741 L898.751 431.741 L898.751 436.038 L894.2 436.038 L894.2 431.741 L884.078 431.741 L884.078 425.852 Z" fill="#000000" fill-rule="nonzero" fill-opacity="1" /><path clip-path="url(#clip080)" d="M894.2 406.087 L894.2 400.23 L929.848 400.23 L929.848 406.087 L894.2 406.087 M880.323 406.087 L880.323 400.23 L887.739 400.23 L887.739 406.087 L880.323 406.087 Z" fill="#000000" fill-rule="nonzero" fill-opacity="1" /><path clip-path="url(#clip080)" d="M898.306 374.163 Q898.306 378.874 901.998 381.611 Q905.658 384.348 912.056 384.348 Q918.453 384.348 922.145 381.643 Q925.806 378.905 925.806 374.163 Q925.806 369.484 922.113 366.747 Q918.421 364.01 912.056 364.01 Q905.722 364.01 902.03 366.747 Q898.306 369.484 898.306 374.163 M893.34 374.163 Q893.34 366.524 898.306 362.164 Q903.271 357.803 912.056 357.803 Q920.808 357.803 925.806 362.164 Q930.771 366.524 930.771 374.163 Q930.771 381.834 925.806 386.194 Q920.808 390.523 912.056 390.523 Q903.271 390.523 898.306 386.194 Q893.34 381.834 893.34 374.163 Z" fill="#000000" fill-rule="nonzero" fill-opacity="1" /><path clip-path="url(#clip080)" d="M908.332 318.463 L929.848 318.463 L929.848 324.319 L908.523 324.319 Q903.462 324.319 900.947 326.293 Q898.433 328.266 898.433 332.213 Q898.433 336.955 901.457 339.693 Q904.48 342.43 909.7 342.43 L929.848 342.43 L929.848 348.318 L894.2 348.318 L894.2 342.43 L899.738 342.43 Q896.523 340.329 894.932 337.496 Q893.34 334.632 893.34 330.908 Q893.34 324.765 897.16 321.614 Q900.947 318.463 908.332 318.463 Z" fill="#000000" fill-rule="nonzero" fill-opacity="1" /><path clip-path="url(#clip080)" d="M880.323 286.284 L880.323 280.396 L909.573 280.396 L894.2 262.922 L894.2 255.442 L910.878 274.349 L929.848 254.647 L929.848 262.286 L912.438 280.396 L929.848 280.396 L929.848 286.284 L880.323 286.284 Z" fill="#000000" fill-rule="nonzero" fill-opacity="1" /><path clip-path="url(#clip080)" d="M926.347 249.491 L926.347 242.998 L906.899 242.998 L908.204 250.095 L904.512 250.095 L903.271 242.775 L903.271 238.414 L926.347 238.414 L926.347 231.889 L929.848 231.889 L929.848 249.491 L926.347 249.491 Z" fill="#000000" fill-rule="nonzero" fill-opacity="1" /><circle clip-path="url(#clip083)" cx="1080.2" cy="851.226" r="10.8" fill="#009af9" fill-rule="evenodd" fill-opacity="1" stroke="#000000" stroke-opacity="1" stroke-width="2.08"/>
<circle clip-path="url(#clip083)" cx="1089.45" cy="851.226" r="10.8" fill="#009af9" fill-rule="evenodd" fill-opacity="1" stroke="#000000" stroke-opacity="1" stroke-width="2.08"/>
<circle clip-path="url(#clip083)" cx="1098.7" cy="851.226" r="10.8" fill="#009af9" fill-rule="evenodd" fill-opacity="1" stroke="#000000" stroke-opacity="1" stroke-width="2.08"/>
<circle clip-path="url(#clip083)" cx="1107.95" cy="851.226" r="10.8" fill="#009af9" fill-rule="evenodd" fill-opacity="1" stroke="#000000" stroke-opacity="1" stroke-width="2.08"/>
<circle clip-path="url(#clip083)" cx="1117.2" cy="851.226" r="10.8" fill="#009af9" fill-rule="evenodd" fill-opacity="1" stroke="#000000" stroke-opacity="1" stroke-width="2.08"/>
<circle clip-path="url(#clip083)" cx="1126.45" cy="851.226" r="10.8" fill="#009af9" fill-rule="evenodd" fill-opacity="1" stroke="#000000" stroke-opacity="1" stroke-width="2.08"/>
<circle clip-path="url(#clip083)" cx="1135.7" cy="851.226" r="10.8" fill="#009af9" fill-rule="evenodd" fill-opacity="1" stroke="#000000" stroke-opacity="1" stroke-width="2.08"/>
<circle clip-path="url(#clip083)" cx="1144.95" cy="851.226" r="10.8" fill="#009af9" fill-rule="evenodd" fill-opacity="1" stroke="#000000" stroke-opacity="1" stroke-width="2.08"/>
<circle clip-path="url(#clip083)" cx="1154.2" cy="851.226" r="10.8" fill="#009af9" fill-rule="evenodd" fill-opacity="1" stroke="#000000" stroke-opacity="1" stroke-width="2.08"/>
<circle clip-path="url(#clip083)" cx="1163.45" cy="851.226" r="10.8" fill="#009af9" fill-rule="evenodd" fill-opacity="1" stroke="#000000" stroke-opacity="1" stroke-width="2.08"/>
<circle clip-path="url(#clip083)" cx="1172.7" cy="851.226" r="10.8" fill="#009af9" fill-rule="evenodd" fill-opacity="1" stroke="#000000" stroke-opacity="1" stroke-width="2.08"/>
<circle clip-path="url(#clip083)" cx="1181.95" cy="851.226" r="10.8" fill="#009af9" fill-rule="evenodd" fill-opacity="1" stroke="#000000" stroke-opacity="1" stroke-width="2.08"/>
<circle clip-path="url(#clip083)" cx="1191.2" cy="851.226" r="10.8" fill="#009af9" fill-rule="evenodd" fill-opacity="1" stroke="#000000" stroke-opacity="1" stroke-width="2.08"/>
<circle clip-path="url(#clip083)" cx="1200.44" cy="851.226" r="10.8" fill="#009af9" fill-rule="evenodd" fill-opacity="1" stroke="#000000" stroke-opacity="1" stroke-width="2.08"/>
<circle clip-path="url(#clip083)" cx="1209.69" cy="851.226" r="10.8" fill="#009af9" fill-rule="evenodd" fill-opacity="1" stroke="#000000" stroke-opacity="1" stroke-width="2.08"/>
<circle clip-path="url(#clip083)" cx="1218.94" cy="851.226" r="10.8" fill="#009af9" fill-rule="evenodd" fill-opacity="1" stroke="#000000" stroke-opacity="1" stroke-width="2.08"/>
<circle clip-path="url(#clip083)" cx="1228.19" cy="851.226" r="10.8" fill="#009af9" fill-rule="evenodd" fill-opacity="1" stroke="#000000" stroke-opacity="1" stroke-width="2.08"/>
<circle clip-path="url(#clip083)" cx="1237.44" cy="851.226" r="10.8" fill="#009af9" fill-rule="evenodd" fill-opacity="1" stroke="#000000" stroke-opacity="1" stroke-width="2.08"/>
<circle clip-path="url(#clip083)" cx="1246.69" cy="851.226" r="10.8" fill="#009af9" fill-rule="evenodd" fill-opacity="1" stroke="#000000" stroke-opacity="1" stroke-width="2.08"/>
<circle clip-path="url(#clip083)" cx="1255.94" cy="70.661" r="10.8" fill="#009af9" fill-rule="evenodd" fill-opacity="1" stroke="#000000" stroke-opacity="1" stroke-width="2.08"/>
<circle clip-path="url(#clip083)" cx="1265.19" cy="70.661" r="10.8" fill="#009af9" fill-rule="evenodd" fill-opacity="1" stroke="#000000" stroke-opacity="1" stroke-width="2.08"/>
<circle clip-path="url(#clip083)" cx="1274.44" cy="70.661" r="10.8" fill="#009af9" fill-rule="evenodd" fill-opacity="1" stroke="#000000" stroke-opacity="1" stroke-width="2.08"/>
<circle clip-path="url(#clip083)" cx="1283.69" cy="70.661" r="10.8" fill="#009af9" fill-rule="evenodd" fill-opacity="1" stroke="#000000" stroke-opacity="1" stroke-width="2.08"/>
<circle clip-path="url(#clip083)" cx="1292.94" cy="70.661" r="10.8" fill="#009af9" fill-rule="evenodd" fill-opacity="1" stroke="#000000" stroke-opacity="1" stroke-width="2.08"/>
<circle clip-path="url(#clip083)" cx="1302.19" cy="70.661" r="10.8" fill="#009af9" fill-rule="evenodd" fill-opacity="1" stroke="#000000" stroke-opacity="1" stroke-width="2.08"/>
<circle clip-path="url(#clip083)" cx="1311.44" cy="70.661" r="10.8" fill="#009af9" fill-rule="evenodd" fill-opacity="1" stroke="#000000" stroke-opacity="1" stroke-width="2.08"/>
<circle clip-path="url(#clip083)" cx="1320.69" cy="70.661" r="10.8" fill="#009af9" fill-rule="evenodd" fill-opacity="1" stroke="#000000" stroke-opacity="1" stroke-width="2.08"/>
<circle clip-path="url(#clip083)" cx="1329.93" cy="70.661" r="10.8" fill="#009af9" fill-rule="evenodd" fill-opacity="1" stroke="#000000" stroke-opacity="1" stroke-width="2.08"/>
<circle clip-path="url(#clip083)" cx="1339.18" cy="70.661" r="10.8" fill="#009af9" fill-rule="evenodd" fill-opacity="1" stroke="#000000" stroke-opacity="1" stroke-width="2.08"/>
<circle clip-path="url(#clip083)" cx="1348.43" cy="70.661" r="10.8" fill="#009af9" fill-rule="evenodd" fill-opacity="1" stroke="#000000" stroke-opacity="1" stroke-width="2.08"/>
<circle clip-path="url(#clip083)" cx="1357.68" cy="70.661" r="10.8" fill="#009af9" fill-rule="evenodd" fill-opacity="1" stroke="#000000" stroke-opacity="1" stroke-width="2.08"/>
<circle clip-path="url(#clip083)" cx="1366.93" cy="70.661" r="10.8" fill="#009af9" fill-rule="evenodd" fill-opacity="1" stroke="#000000" stroke-opacity="1" stroke-width="2.08"/>
<circle clip-path="url(#clip083)" cx="1376.18" cy="70.661" r="10.8" fill="#009af9" fill-rule="evenodd" fill-opacity="1" stroke="#000000" stroke-opacity="1" stroke-width="2.08"/>
<circle clip-path="url(#clip083)" cx="1385.43" cy="70.661" r="10.8" fill="#009af9" fill-rule="evenodd" fill-opacity="1" stroke="#000000" stroke-opacity="1" stroke-width="2.08"/>
<circle clip-path="url(#clip083)" cx="1394.68" cy="70.661" r="10.8" fill="#009af9" fill-rule="evenodd" fill-opacity="1" stroke="#000000" stroke-opacity="1" stroke-width="2.08"/>
<circle clip-path="url(#clip083)" cx="1403.93" cy="70.661" r="10.8" fill="#009af9" fill-rule="evenodd" fill-opacity="1" stroke="#000000" stroke-opacity="1" stroke-width="2.08"/>
<circle clip-path="url(#clip083)" cx="1413.18" cy="70.661" r="10.8" fill="#009af9" fill-rule="evenodd" fill-opacity="1" stroke="#000000" stroke-opacity="1" stroke-width="2.08"/>
<circle clip-path="url(#clip083)" cx="1422.43" cy="70.661" r="10.8" fill="#009af9" fill-rule="evenodd" fill-opacity="1" stroke="#000000" stroke-opacity="1" stroke-width="2.08"/>
<circle clip-path="url(#clip083)" cx="1431.68" cy="70.661" r="10.8" fill="#009af9" fill-rule="evenodd" fill-opacity="1" stroke="#000000" stroke-opacity="1" stroke-width="2.08"/>
<circle clip-path="url(#clip083)" cx="1440.93" cy="70.661" r="10.8" fill="#009af9" fill-rule="evenodd" fill-opacity="1" stroke="#000000" stroke-opacity="1" stroke-width="2.08"/>
<circle clip-path="url(#clip083)" cx="1450.18" cy="70.661" r="10.8" fill="#009af9" fill-rule="evenodd" fill-opacity="1" stroke="#000000" stroke-opacity="1" stroke-width="2.08"/>
<circle clip-path="url(#clip083)" cx="1459.42" cy="851.226" r="10.8" fill="#009af9" fill-rule="evenodd" fill-opacity="1" stroke="#000000" stroke-opacity="1" stroke-width="2.08"/>
<circle clip-path="url(#clip083)" cx="1468.67" cy="851.226" r="10.8" fill="#009af9" fill-rule="evenodd" fill-opacity="1" stroke="#000000" stroke-opacity="1" stroke-width="2.08"/>
<circle clip-path="url(#clip083)" cx="1477.92" cy="851.226" r="10.8" fill="#009af9" fill-rule="evenodd" fill-opacity="1" stroke="#000000" stroke-opacity="1" stroke-width="2.08"/>
<circle clip-path="url(#clip083)" cx="1487.17" cy="851.226" r="10.8" fill="#009af9" fill-rule="evenodd" fill-opacity="1" stroke="#000000" stroke-opacity="1" stroke-width="2.08"/>
<circle clip-path="url(#clip083)" cx="1496.42" cy="851.226" r="10.8" fill="#009af9" fill-rule="evenodd" fill-opacity="1" stroke="#000000" stroke-opacity="1" stroke-width="2.08"/>
<circle clip-path="url(#clip083)" cx="1505.67" cy="851.226" r="10.8" fill="#009af9" fill-rule="evenodd" fill-opacity="1" stroke="#000000" stroke-opacity="1" stroke-width="2.08"/>
<circle clip-path="url(#clip083)" cx="1514.92" cy="851.226" r="10.8" fill="#009af9" fill-rule="evenodd" fill-opacity="1" stroke="#000000" stroke-opacity="1" stroke-width="2.08"/>
<circle clip-path="url(#clip083)" cx="1524.17" cy="851.226" r="10.8" fill="#009af9" fill-rule="evenodd" fill-opacity="1" stroke="#000000" stroke-opacity="1" stroke-width="2.08"/>
<circle clip-path="url(#clip083)" cx="1533.42" cy="851.226" r="10.8" fill="#009af9" fill-rule="evenodd" fill-opacity="1" stroke="#000000" stroke-opacity="1" stroke-width="2.08"/>
<circle clip-path="url(#clip083)" cx="1542.67" cy="851.226" r="10.8" fill="#009af9" fill-rule="evenodd" fill-opacity="1" stroke="#000000" stroke-opacity="1" stroke-width="2.08"/>
<circle clip-path="url(#clip083)" cx="1551.92" cy="851.226" r="10.8" fill="#009af9" fill-rule="evenodd" fill-opacity="1" stroke="#000000" stroke-opacity="1" stroke-width="2.08"/>
<circle clip-path="url(#clip083)" cx="1561.17" cy="851.226" r="10.8" fill="#009af9" fill-rule="evenodd" fill-opacity="1" stroke="#000000" stroke-opacity="1" stroke-width="2.08"/>
<circle clip-path="url(#clip083)" cx="1570.42" cy="851.226" r="10.8" fill="#009af9" fill-rule="evenodd" fill-opacity="1" stroke="#000000" stroke-opacity="1" stroke-width="2.08"/>
<circle clip-path="url(#clip083)" cx="1579.67" cy="851.226" r="10.8" fill="#009af9" fill-rule="evenodd" fill-opacity="1" stroke="#000000" stroke-opacity="1" stroke-width="2.08"/>
<circle clip-path="url(#clip083)" cx="1588.91" cy="851.226" r="10.8" fill="#009af9" fill-rule="evenodd" fill-opacity="1" stroke="#000000" stroke-opacity="1" stroke-width="2.08"/>
<circle clip-path="url(#clip083)" cx="1598.16" cy="851.226" r="10.8" fill="#009af9" fill-rule="evenodd" fill-opacity="1" stroke="#000000" stroke-opacity="1" stroke-width="2.08"/>
<circle clip-path="url(#clip083)" cx="1607.41" cy="851.226" r="10.8" fill="#009af9" fill-rule="evenodd" fill-opacity="1" stroke="#000000" stroke-opacity="1" stroke-width="2.08"/>
<circle clip-path="url(#clip083)" cx="1616.66" cy="851.226" r="10.8" fill="#009af9" fill-rule="evenodd" fill-opacity="1" stroke="#000000" stroke-opacity="1" stroke-width="2.08"/>
<path clip-path="url(#clip080)" d="M1534.99 178.504 L1613.8 178.504 L1613.8 74.824 L1534.99 74.824  Z" fill="#ffffff" fill-rule="evenodd" fill-opacity="1"/>
<polyline clip-path="url(#clip080)" style="stroke:#000000; stroke-linecap:round; stroke-linejoin:round; stroke-width:4; stroke-opacity:1; fill:none" points="1534.99,178.504 1613.8,178.504 1613.8,74.824 1534.99,74.824 1534.99,178.504 "/>
<circle clip-path="url(#clip080)" cx="1560.27" cy="126.664" r="19.7486" fill="#009af9" fill-rule="evenodd" fill-opacity="1" stroke="#000000" stroke-opacity="1" stroke-width="3.80343"/>
<path clip-path="url(#clip080)" d="M1591.16 140.009 L1607.48 140.009 L1607.48 143.944 L1585.54 143.944 L1585.54 140.009 Q1588.2 137.254 1592.78 132.625 Q1597.39 127.972 1598.57 126.629 Q1600.82 124.106 1601.7 122.37 Q1602.6 120.611 1602.6 118.921 Q1602.6 116.166 1600.65 114.43 Q1598.73 112.694 1595.63 112.694 Q1593.43 112.694 1590.98 113.458 Q1588.55 114.222 1585.77 115.773 L1585.77 111.051 Q1588.59 109.916 1591.05 109.338 Q1593.5 108.759 1595.54 108.759 Q1600.91 108.759 1604.1 111.444 Q1607.3 114.129 1607.3 118.62 Q1607.3 120.75 1606.49 122.671 Q1605.7 124.569 1603.59 127.162 Q1603.02 127.833 1599.91 131.051 Q1596.81 134.245 1591.16 140.009 Z" fill="#000000" fill-rule="nonzero" fill-opacity="1" /></svg>
