<?xml version="1.0" encoding="utf-8"?>
<svg xmlns="http://www.w3.org/2000/svg" xmlns:xlink="http://www.w3.org/1999/xlink" width="320" height="220" viewBox="0 0 1280 880">
<defs>
  <clipPath id="clip420">
    <rect x="0" y="0" width="1280" height="880"/>
  </clipPath>
</defs>
<path clip-path="url(#clip420)" d="M0 880 L1280 880 L1280 0 L0 0  Z" fill="#ffffff" fill-rule="evenodd" fill-opacity="1"/>
<defs>
  <clipPath id="clip421">
    <rect x="256" y="0" width="897" height="880"/>
  </clipPath>
</defs>
<path clip-path="url(#clip420)" d="M239.827 707.815 L1232.76 707.815 L1232.76 47.2441 L239.827 47.2441  Z" fill="#d3d3d3" fill-rule="evenodd" fill-opacity="1"/>
<defs>
  <clipPath id="clip422">
    <rect x="239" y="47" width="994" height="662"/>
  </clipPath>
</defs>
<polyline clip-path="url(#clip420)" style="stroke:#000000; stroke-linecap:round; stroke-linejoin:round; stroke-width:4; stroke-opacity:1; fill:none" points="239.827,707.815 1232.76,707.815 "/>
<polyline clip-path="url(#clip420)" style="stroke:#000000; stroke-linecap:round; stroke-linejoin:round; stroke-width:4; stroke-opacity:1; fill:none" points="310.652,707.815 310.652,688.917 "/>
<polyline clip-path="url(#clip420)" style="stroke:#000000; stroke-linecap:round; stroke-linejoin:round; stroke-width:4; stroke-opacity:1; fill:none" points="466.447,707.815 466.447,688.917 "/>
<polyline clip-path="url(#clip420)" style="stroke:#000000; stroke-linecap:round; stroke-linejoin:round; stroke-width:4; stroke-opacity:1; fill:none" points="622.242,707.815 622.242,688.917 "/>
<polyline clip-path="url(#clip420)" style="stroke:#000000; stroke-linecap:round; stroke-linejoin:round; stroke-width:4; stroke-opacity:1; fill:none" points="778.037,707.815 778.037,688.917 "/>
<polyline clip-path="url(#clip420)" style="stroke:#000000; stroke-linecap:round; stroke-linejoin:round; stroke-width:4; stroke-opacity:1; fill:none" points="933.832,707.815 933.832,688.917 "/>
<polyline clip-path="url(#clip420)" style="stroke:#000000; stroke-linecap:round; stroke-linejoin:round; stroke-width:4; stroke-opacity:1; fill:none" points="1089.63,707.815 1089.63,688.917 "/>
<path clip-path="url(#clip420)" d="M242.596 744.426 L272.272 744.426 L272.272 748.361 L242.596 748.361 L242.596 744.426 Z" fill="#000000" fill-rule="nonzero" fill-opacity="1" /><path clip-path="url(#clip420)" d="M292.365 729.774 Q288.754 729.774 286.925 733.338 Q285.119 736.88 285.119 744.01 Q285.119 751.116 286.925 754.681 Q288.754 758.222 292.365 758.222 Q295.999 758.222 297.804 754.681 Q299.633 751.116 299.633 744.01 Q299.633 736.88 297.804 733.338 Q295.999 729.774 292.365 729.774 M292.365 726.07 Q298.175 726.07 301.23 730.676 Q304.309 735.26 304.309 744.01 Q304.309 752.736 301.23 757.343 Q298.175 761.926 292.365 761.926 Q286.555 761.926 283.476 757.343 Q280.42 752.736 280.42 744.01 Q280.42 735.26 283.476 730.676 Q286.555 726.07 292.365 726.07 Z" fill="#000000" fill-rule="nonzero" fill-opacity="1" /><path clip-path="url(#clip420)" d="M312.527 755.375 L317.411 755.375 L317.411 761.255 L312.527 761.255 L312.527 755.375 Z" fill="#000000" fill-rule="nonzero" fill-opacity="1" /><path clip-path="url(#clip420)" d="M331.624 757.32 L347.943 757.32 L347.943 761.255 L325.999 761.255 L325.999 757.32 Q328.661 754.565 333.244 749.935 Q337.851 745.283 339.031 743.94 Q341.276 741.417 342.156 739.681 Q343.059 737.922 343.059 736.232 Q343.059 733.477 341.114 731.741 Q339.193 730.005 336.091 730.005 Q333.892 730.005 331.439 730.769 Q329.008 731.533 326.23 733.084 L326.23 728.362 Q329.054 727.227 331.508 726.649 Q333.962 726.07 335.999 726.07 Q341.369 726.07 344.564 728.755 Q347.758 731.44 347.758 735.931 Q347.758 738.061 346.948 739.982 Q346.161 741.88 344.054 744.473 Q343.476 745.144 340.374 748.361 Q337.272 751.556 331.624 757.32 Z" fill="#000000" fill-rule="nonzero" fill-opacity="1" /><path clip-path="url(#clip420)" d="M357.804 726.695 L376.161 726.695 L376.161 730.63 L362.087 730.63 L362.087 739.102 Q363.105 738.755 364.124 738.593 Q365.142 738.408 366.161 738.408 Q371.948 738.408 375.327 741.579 Q378.707 744.75 378.707 750.167 Q378.707 755.746 375.235 758.847 Q371.762 761.926 365.443 761.926 Q363.267 761.926 360.999 761.556 Q358.753 761.185 356.346 760.445 L356.346 755.746 Q358.429 756.88 360.651 757.435 Q362.874 757.991 365.35 757.991 Q369.355 757.991 371.693 755.885 Q374.031 753.778 374.031 750.167 Q374.031 746.556 371.693 744.449 Q369.355 742.343 365.35 742.343 Q363.475 742.343 361.6 742.76 Q359.749 743.176 357.804 744.056 L357.804 726.695 Z" fill="#000000" fill-rule="nonzero" fill-opacity="1" /><path clip-path="url(#clip420)" d="M428.75 729.774 Q425.139 729.774 423.31 733.338 Q421.505 736.88 421.505 744.01 Q421.505 751.116 423.31 754.681 Q425.139 758.222 428.75 758.222 Q432.384 758.222 434.19 754.681 Q436.019 751.116 436.019 744.01 Q436.019 736.88 434.19 733.338 Q432.384 729.774 428.75 729.774 M428.75 726.07 Q434.56 726.07 437.616 730.676 Q440.694 735.26 440.694 744.01 Q440.694 752.736 437.616 757.343 Q434.56 761.926 428.75 761.926 Q422.94 761.926 419.861 757.343 Q416.806 752.736 416.806 744.01 Q416.806 735.26 419.861 730.676 Q422.94 726.07 428.75 726.07 Z" fill="#000000" fill-rule="nonzero" fill-opacity="1" /><path clip-path="url(#clip420)" d="M448.912 755.375 L453.796 755.375 L453.796 761.255 L448.912 761.255 L448.912 755.375 Z" fill="#000000" fill-rule="nonzero" fill-opacity="1" /><path clip-path="url(#clip420)" d="M473.981 729.774 Q470.37 729.774 468.542 733.338 Q466.736 736.88 466.736 744.01 Q466.736 751.116 468.542 754.681 Q470.37 758.222 473.981 758.222 Q477.616 758.222 479.421 754.681 Q481.25 751.116 481.25 744.01 Q481.25 736.88 479.421 733.338 Q477.616 729.774 473.981 729.774 M473.981 726.07 Q479.791 726.07 482.847 730.676 Q485.926 735.26 485.926 744.01 Q485.926 752.736 482.847 757.343 Q479.791 761.926 473.981 761.926 Q468.171 761.926 465.092 757.343 Q462.037 752.736 462.037 744.01 Q462.037 735.26 465.092 730.676 Q468.171 726.07 473.981 726.07 Z" fill="#000000" fill-rule="nonzero" fill-opacity="1" /><path clip-path="url(#clip420)" d="M504.143 729.774 Q500.532 729.774 498.703 733.338 Q496.898 736.88 496.898 744.01 Q496.898 751.116 498.703 754.681 Q500.532 758.222 504.143 758.222 Q507.777 758.222 509.583 754.681 Q511.412 751.116 511.412 744.01 Q511.412 736.88 509.583 733.338 Q507.777 729.774 504.143 729.774 M504.143 726.07 Q509.953 726.07 513.009 730.676 Q516.088 735.26 516.088 744.01 Q516.088 752.736 513.009 757.343 Q509.953 761.926 504.143 761.926 Q498.333 761.926 495.254 757.343 Q492.199 752.736 492.199 744.01 Q492.199 735.26 495.254 730.676 Q498.333 726.07 504.143 726.07 Z" fill="#000000" fill-rule="nonzero" fill-opacity="1" /><path clip-path="url(#clip420)" d="M585.043 729.774 Q581.432 729.774 579.603 733.338 Q577.797 736.88 577.797 744.01 Q577.797 751.116 579.603 754.681 Q581.432 758.222 585.043 758.222 Q588.677 758.222 590.483 754.681 Q592.311 751.116 592.311 744.01 Q592.311 736.88 590.483 733.338 Q588.677 729.774 585.043 729.774 M585.043 726.07 Q590.853 726.07 593.908 730.676 Q596.987 735.26 596.987 744.01 Q596.987 752.736 593.908 757.343 Q590.853 761.926 585.043 761.926 Q579.233 761.926 576.154 757.343 Q573.098 752.736 573.098 744.01 Q573.098 735.26 576.154 730.676 Q579.233 726.07 585.043 726.07 Z" fill="#000000" fill-rule="nonzero" fill-opacity="1" /><path clip-path="url(#clip420)" d="M605.205 755.375 L610.089 755.375 L610.089 761.255 L605.205 761.255 L605.205 755.375 Z" fill="#000000" fill-rule="nonzero" fill-opacity="1" /><path clip-path="url(#clip420)" d="M624.302 757.32 L640.621 757.32 L640.621 761.255 L618.677 761.255 L618.677 757.32 Q621.339 754.565 625.922 749.935 Q630.529 745.283 631.709 743.94 Q633.955 741.417 634.834 739.681 Q635.737 737.922 635.737 736.232 Q635.737 733.477 633.792 731.741 Q631.871 730.005 628.769 730.005 Q626.57 730.005 624.117 730.769 Q621.686 731.533 618.908 733.084 L618.908 728.362 Q621.732 727.227 624.186 726.649 Q626.64 726.07 628.677 726.07 Q634.047 726.07 637.242 728.755 Q640.436 731.44 640.436 735.931 Q640.436 738.061 639.626 739.982 Q638.839 741.88 636.732 744.473 Q636.154 745.144 633.052 748.361 Q629.95 751.556 624.302 757.32 Z" fill="#000000" fill-rule="nonzero" fill-opacity="1" /><path clip-path="url(#clip420)" d="M650.482 726.695 L668.839 726.695 L668.839 730.63 L654.765 730.63 L654.765 739.102 Q655.783 738.755 656.802 738.593 Q657.82 738.408 658.839 738.408 Q664.626 738.408 668.005 741.579 Q671.385 744.75 671.385 750.167 Q671.385 755.746 667.913 758.847 Q664.44 761.926 658.121 761.926 Q655.945 761.926 653.677 761.556 Q651.431 761.185 649.024 760.445 L649.024 755.746 Q651.107 756.88 653.329 757.435 Q655.552 757.991 658.028 757.991 Q662.033 757.991 664.371 755.885 Q666.709 753.778 666.709 750.167 Q666.709 746.556 664.371 744.449 Q662.033 742.343 658.028 742.343 Q656.153 742.343 654.278 742.76 Q652.427 743.176 650.482 744.056 L650.482 726.695 Z" fill="#000000" fill-rule="nonzero" fill-opacity="1" /><path clip-path="url(#clip420)" d="M740.34 729.774 Q736.729 729.774 734.9 733.338 Q733.095 736.88 733.095 744.01 Q733.095 751.116 734.9 754.681 Q736.729 758.222 740.34 758.222 Q743.974 758.222 745.78 754.681 Q747.609 751.116 747.609 744.01 Q747.609 736.88 745.78 733.338 Q743.974 729.774 740.34 729.774 M740.34 726.07 Q746.15 726.07 749.206 730.676 Q752.284 735.26 752.284 744.01 Q752.284 752.736 749.206 757.343 Q746.15 761.926 740.34 761.926 Q734.53 761.926 731.451 757.343 Q728.396 752.736 728.396 744.01 Q728.396 735.26 731.451 730.676 Q734.53 726.07 740.34 726.07 Z" fill="#000000" fill-rule="nonzero" fill-opacity="1" /><path clip-path="url(#clip420)" d="M760.502 755.375 L765.386 755.375 L765.386 761.255 L760.502 761.255 L760.502 755.375 Z" fill="#000000" fill-rule="nonzero" fill-opacity="1" /><path clip-path="url(#clip420)" d="M775.618 726.695 L793.974 726.695 L793.974 730.63 L779.9 730.63 L779.9 739.102 Q780.919 738.755 781.937 738.593 Q782.956 738.408 783.974 738.408 Q789.761 738.408 793.141 741.579 Q796.52 744.75 796.52 750.167 Q796.52 755.746 793.048 758.847 Q789.576 761.926 783.256 761.926 Q781.081 761.926 778.812 761.556 Q776.567 761.185 774.159 760.445 L774.159 755.746 Q776.243 756.88 778.465 757.435 Q780.687 757.991 783.164 757.991 Q787.169 757.991 789.506 755.885 Q791.844 753.778 791.844 750.167 Q791.844 746.556 789.506 744.449 Q787.169 742.343 783.164 742.343 Q781.289 742.343 779.414 742.76 Q777.562 743.176 775.618 744.056 L775.618 726.695 Z" fill="#000000" fill-rule="nonzero" fill-opacity="1" /><path clip-path="url(#clip420)" d="M815.733 729.774 Q812.122 729.774 810.293 733.338 Q808.488 736.88 808.488 744.01 Q808.488 751.116 810.293 754.681 Q812.122 758.222 815.733 758.222 Q819.367 758.222 821.173 754.681 Q823.002 751.116 823.002 744.01 Q823.002 736.88 821.173 733.338 Q819.367 729.774 815.733 729.774 M815.733 726.07 Q821.543 726.07 824.599 730.676 Q827.678 735.26 827.678 744.01 Q827.678 752.736 824.599 757.343 Q821.543 761.926 815.733 761.926 Q809.923 761.926 806.844 757.343 Q803.789 752.736 803.789 744.01 Q803.789 735.26 806.844 730.676 Q809.923 726.07 815.733 726.07 Z" fill="#000000" fill-rule="nonzero" fill-opacity="1" /><path clip-path="url(#clip420)" d="M896.633 729.774 Q893.022 729.774 891.193 733.338 Q889.387 736.88 889.387 744.01 Q889.387 751.116 891.193 754.681 Q893.022 758.222 896.633 758.222 Q900.267 758.222 902.073 754.681 Q903.901 751.116 903.901 744.01 Q903.901 736.88 902.073 733.338 Q900.267 729.774 896.633 729.774 M896.633 726.07 Q902.443 726.07 905.498 730.676 Q908.577 735.26 908.577 744.01 Q908.577 752.736 905.498 757.343 Q902.443 761.926 896.633 761.926 Q890.823 761.926 887.744 757.343 Q884.688 752.736 884.688 744.01 Q884.688 735.26 887.744 730.676 Q890.823 726.07 896.633 726.07 Z" fill="#000000" fill-rule="nonzero" fill-opacity="1" /><path clip-path="url(#clip420)" d="M916.795 755.375 L921.679 755.375 L921.679 761.255 L916.795 761.255 L916.795 755.375 Z" fill="#000000" fill-rule="nonzero" fill-opacity="1" /><path clip-path="url(#clip420)" d="M930.683 726.695 L952.906 726.695 L952.906 728.686 L940.359 761.255 L935.475 761.255 L947.281 730.63 L930.683 730.63 L930.683 726.695 Z" fill="#000000" fill-rule="nonzero" fill-opacity="1" /><path clip-path="url(#clip420)" d="M962.072 726.695 L980.429 726.695 L980.429 730.63 L966.355 730.63 L966.355 739.102 Q967.373 738.755 968.392 738.593 Q969.41 738.408 970.429 738.408 Q976.216 738.408 979.595 741.579 Q982.975 744.75 982.975 750.167 Q982.975 755.746 979.503 758.847 Q976.03 761.926 969.711 761.926 Q967.535 761.926 965.267 761.556 Q963.021 761.185 960.614 760.445 L960.614 755.746 Q962.697 756.88 964.919 757.435 Q967.142 757.991 969.618 757.991 Q973.623 757.991 975.961 755.885 Q978.299 753.778 978.299 750.167 Q978.299 746.556 975.961 744.449 Q973.623 742.343 969.618 742.343 Q967.743 742.343 965.868 742.76 Q964.017 743.176 962.072 744.056 L962.072 726.695 Z" fill="#000000" fill-rule="nonzero" fill-opacity="1" /><path clip-path="url(#clip420)" d="M1041.7 757.32 L1049.34 757.32 L1049.34 730.954 L1041.03 732.621 L1041.03 728.362 L1049.29 726.695 L1053.97 726.695 L1053.97 757.32 L1061.61 757.32 L1061.61 761.255 L1041.7 761.255 L1041.7 757.32 Z" fill="#000000" fill-rule="nonzero" fill-opacity="1" /><path clip-path="url(#clip420)" d="M1071.05 755.375 L1075.93 755.375 L1075.93 761.255 L1071.05 761.255 L1071.05 755.375 Z" fill="#000000" fill-rule="nonzero" fill-opacity="1" /><path clip-path="url(#clip420)" d="M1096.12 729.774 Q1092.51 729.774 1090.68 733.338 Q1088.87 736.88 1088.87 744.01 Q1088.87 751.116 1090.68 754.681 Q1092.51 758.222 1096.12 758.222 Q1099.75 758.222 1101.56 754.681 Q1103.39 751.116 1103.39 744.01 Q1103.39 736.88 1101.56 733.338 Q1099.75 729.774 1096.12 729.774 M1096.12 726.07 Q1101.93 726.07 1104.99 730.676 Q1108.06 735.26 1108.06 744.01 Q1108.06 752.736 1104.99 757.343 Q1101.93 761.926 1096.12 761.926 Q1090.31 761.926 1087.23 757.343 Q1084.18 752.736 1084.18 744.01 Q1084.18 735.26 1087.23 730.676 Q1090.31 726.07 1096.12 726.07 Z" fill="#000000" fill-rule="nonzero" fill-opacity="1" /><path clip-path="url(#clip420)" d="M1126.28 729.774 Q1122.67 729.774 1120.84 733.338 Q1119.04 736.88 1119.04 744.01 Q1119.04 751.116 1120.84 754.681 Q1122.67 758.222 1126.28 758.222 Q1129.92 758.222 1131.72 754.681 Q1133.55 751.116 1133.55 744.01 Q1133.55 736.88 1131.72 733.338 Q1129.92 729.774 1126.28 729.774 M1126.28 726.07 Q1132.09 726.07 1135.15 730.676 Q1138.23 735.26 1138.23 744.01 Q1138.23 752.736 1135.15 757.343 Q1132.09 761.926 1126.28 761.926 Q1120.47 761.926 1117.39 757.343 Q1114.34 752.736 1114.34 744.01 Q1114.34 735.26 1117.39 730.676 Q1120.47 726.07 1126.28 726.07 Z" fill="#000000" fill-rule="nonzero" fill-opacity="1" /><path clip-path="url(#clip420)" d="M752.906 800.231 L740.015 817.577 L753.574 835.879 L746.668 835.879 L736.291 821.874 L725.915 835.879 L719.009 835.879 L732.854 817.227 L720.186 800.231 L727.093 800.231 L736.546 812.93 L745.999 800.231 L752.906 800.231 Z" fill="#000000" fill-rule="nonzero" fill-opacity="1" /><polyline clip-path="url(#clip420)" style="stroke:#000000; stroke-linecap:round; stroke-linejoin:round; stroke-width:4; stroke-opacity:1; fill:none" points="239.827,707.815 239.827,47.2441 "/>
<polyline clip-path="url(#clip420)" style="stroke:#000000; stroke-linecap:round; stroke-linejoin:round; stroke-width:4; stroke-opacity:1; fill:none" points="239.827,689.119 258.725,689.119 "/>
<polyline clip-path="url(#clip420)" style="stroke:#000000; stroke-linecap:round; stroke-linejoin:round; stroke-width:4; stroke-opacity:1; fill:none" points="239.827,533.324 258.725,533.324 "/>
<polyline clip-path="url(#clip420)" style="stroke:#000000; stroke-linecap:round; stroke-linejoin:round; stroke-width:4; stroke-opacity:1; fill:none" points="239.827,377.529 258.725,377.529 "/>
<polyline clip-path="url(#clip420)" style="stroke:#000000; stroke-linecap:round; stroke-linejoin:round; stroke-width:4; stroke-opacity:1; fill:none" points="239.827,221.734 258.725,221.734 "/>
<polyline clip-path="url(#clip420)" style="stroke:#000000; stroke-linecap:round; stroke-linejoin:round; stroke-width:4; stroke-opacity:1; fill:none" points="239.827,65.9395 258.725,65.9395 "/>
<path clip-path="url(#clip420)" d="M133.29 674.918 Q129.678 674.918 127.85 678.483 Q126.044 682.025 126.044 689.154 Q126.044 696.261 127.85 699.825 Q129.678 703.367 133.29 703.367 Q136.924 703.367 138.729 699.825 Q140.558 696.261 140.558 689.154 Q140.558 682.025 138.729 678.483 Q136.924 674.918 133.29 674.918 M133.29 671.214 Q139.1 671.214 142.155 675.821 Q145.234 680.404 145.234 689.154 Q145.234 697.881 142.155 702.487 Q139.1 707.071 133.29 707.071 Q127.479 707.071 124.401 702.487 Q121.345 697.881 121.345 689.154 Q121.345 680.404 124.401 675.821 Q127.479 671.214 133.29 671.214 Z" fill="#000000" fill-rule="nonzero" fill-opacity="1" /><path clip-path="url(#clip420)" d="M153.451 700.52 L158.336 700.52 L158.336 706.399 L153.451 706.399 L153.451 700.52 Z" fill="#000000" fill-rule="nonzero" fill-opacity="1" /><path clip-path="url(#clip420)" d="M178.521 674.918 Q174.91 674.918 173.081 678.483 Q171.275 682.025 171.275 689.154 Q171.275 696.261 173.081 699.825 Q174.91 703.367 178.521 703.367 Q182.155 703.367 183.961 699.825 Q185.789 696.261 185.789 689.154 Q185.789 682.025 183.961 678.483 Q182.155 674.918 178.521 674.918 M178.521 671.214 Q184.331 671.214 187.386 675.821 Q190.465 680.404 190.465 689.154 Q190.465 697.881 187.386 702.487 Q184.331 707.071 178.521 707.071 Q172.711 707.071 169.632 702.487 Q166.576 697.881 166.576 689.154 Q166.576 680.404 169.632 675.821 Q172.711 671.214 178.521 671.214 Z" fill="#000000" fill-rule="nonzero" fill-opacity="1" /><path clip-path="url(#clip420)" d="M208.683 674.918 Q205.072 674.918 203.243 678.483 Q201.437 682.025 201.437 689.154 Q201.437 696.261 203.243 699.825 Q205.072 703.367 208.683 703.367 Q212.317 703.367 214.122 699.825 Q215.951 696.261 215.951 689.154 Q215.951 682.025 214.122 678.483 Q212.317 674.918 208.683 674.918 M208.683 671.214 Q214.493 671.214 217.548 675.821 Q220.627 680.404 220.627 689.154 Q220.627 697.881 217.548 702.487 Q214.493 707.071 208.683 707.071 Q202.872 707.071 199.794 702.487 Q196.738 697.881 196.738 689.154 Q196.738 680.404 199.794 675.821 Q202.872 671.214 208.683 671.214 Z" fill="#000000" fill-rule="nonzero" fill-opacity="1" /><path clip-path="url(#clip420)" d="M134.285 519.123 Q130.674 519.123 128.845 522.688 Q127.04 526.23 127.04 533.359 Q127.04 540.466 128.845 544.03 Q130.674 547.572 134.285 547.572 Q137.919 547.572 139.725 544.03 Q141.553 540.466 141.553 533.359 Q141.553 526.23 139.725 522.688 Q137.919 519.123 134.285 519.123 M134.285 515.419 Q140.095 515.419 143.151 520.026 Q146.229 524.609 146.229 533.359 Q146.229 542.086 143.151 546.692 Q140.095 551.276 134.285 551.276 Q128.475 551.276 125.396 546.692 Q122.341 542.086 122.341 533.359 Q122.341 524.609 125.396 520.026 Q128.475 515.419 134.285 515.419 Z" fill="#000000" fill-rule="nonzero" fill-opacity="1" /><path clip-path="url(#clip420)" d="M154.447 544.725 L159.331 544.725 L159.331 550.604 L154.447 550.604 L154.447 544.725 Z" fill="#000000" fill-rule="nonzero" fill-opacity="1" /><path clip-path="url(#clip420)" d="M173.544 546.669 L189.863 546.669 L189.863 550.604 L167.919 550.604 L167.919 546.669 Q170.581 543.915 175.164 539.285 Q179.771 534.632 180.951 533.29 Q183.197 530.767 184.076 529.03 Q184.979 527.271 184.979 525.581 Q184.979 522.827 183.035 521.091 Q181.113 519.355 178.012 519.355 Q175.812 519.355 173.359 520.119 Q170.928 520.882 168.15 522.433 L168.15 517.711 Q170.975 516.577 173.428 515.998 Q175.882 515.419 177.919 515.419 Q183.289 515.419 186.484 518.105 Q189.678 520.79 189.678 525.281 Q189.678 527.41 188.868 529.331 Q188.081 531.23 185.974 533.822 Q185.396 534.493 182.294 537.711 Q179.192 540.905 173.544 546.669 Z" fill="#000000" fill-rule="nonzero" fill-opacity="1" /><path clip-path="url(#clip420)" d="M199.724 516.044 L218.081 516.044 L218.081 519.98 L204.007 519.98 L204.007 528.452 Q205.025 528.105 206.044 527.943 Q207.062 527.757 208.081 527.757 Q213.868 527.757 217.247 530.929 Q220.627 534.1 220.627 539.517 Q220.627 545.095 217.155 548.197 Q213.683 551.276 207.363 551.276 Q205.187 551.276 202.919 550.905 Q200.673 550.535 198.266 549.794 L198.266 545.095 Q200.349 546.229 202.572 546.785 Q204.794 547.341 207.271 547.341 Q211.275 547.341 213.613 545.234 Q215.951 543.128 215.951 539.517 Q215.951 535.905 213.613 533.799 Q211.275 531.693 207.271 531.693 Q205.396 531.693 203.521 532.109 Q201.669 532.526 199.724 533.405 L199.724 516.044 Z" fill="#000000" fill-rule="nonzero" fill-opacity="1" /><path clip-path="url(#clip420)" d="M133.29 363.328 Q129.678 363.328 127.85 366.893 Q126.044 370.435 126.044 377.564 Q126.044 384.671 127.85 388.235 Q129.678 391.777 133.29 391.777 Q136.924 391.777 138.729 388.235 Q140.558 384.671 140.558 377.564 Q140.558 370.435 138.729 366.893 Q136.924 363.328 133.29 363.328 M133.29 359.624 Q139.1 359.624 142.155 364.231 Q145.234 368.814 145.234 377.564 Q145.234 386.291 142.155 390.897 Q139.1 395.481 133.29 395.481 Q127.479 395.481 124.401 390.897 Q121.345 386.291 121.345 377.564 Q121.345 368.814 124.401 364.231 Q127.479 359.624 133.29 359.624 Z" fill="#000000" fill-rule="nonzero" fill-opacity="1" /><path clip-path="url(#clip420)" d="M153.451 388.93 L158.336 388.93 L158.336 394.809 L153.451 394.809 L153.451 388.93 Z" fill="#000000" fill-rule="nonzero" fill-opacity="1" /><path clip-path="url(#clip420)" d="M168.567 360.249 L186.924 360.249 L186.924 364.185 L172.85 364.185 L172.85 372.657 Q173.868 372.31 174.887 372.148 Q175.905 371.962 176.924 371.962 Q182.711 371.962 186.09 375.134 Q189.47 378.305 189.47 383.722 Q189.47 389.3 185.998 392.402 Q182.525 395.481 176.206 395.481 Q174.03 395.481 171.762 395.11 Q169.516 394.74 167.109 393.999 L167.109 389.3 Q169.192 390.434 171.414 390.99 Q173.637 391.546 176.113 391.546 Q180.118 391.546 182.456 389.439 Q184.794 387.333 184.794 383.722 Q184.794 380.11 182.456 378.004 Q180.118 375.898 176.113 375.898 Q174.238 375.898 172.363 376.314 Q170.512 376.731 168.567 377.61 L168.567 360.249 Z" fill="#000000" fill-rule="nonzero" fill-opacity="1" /><path clip-path="url(#clip420)" d="M208.683 363.328 Q205.072 363.328 203.243 366.893 Q201.437 370.435 201.437 377.564 Q201.437 384.671 203.243 388.235 Q205.072 391.777 208.683 391.777 Q212.317 391.777 214.122 388.235 Q215.951 384.671 215.951 377.564 Q215.951 370.435 214.122 366.893 Q212.317 363.328 208.683 363.328 M208.683 359.624 Q214.493 359.624 217.548 364.231 Q220.627 368.814 220.627 377.564 Q220.627 386.291 217.548 390.897 Q214.493 395.481 208.683 395.481 Q202.872 395.481 199.794 390.897 Q196.738 386.291 196.738 377.564 Q196.738 368.814 199.794 364.231 Q202.872 359.624 208.683 359.624 Z" fill="#000000" fill-rule="nonzero" fill-opacity="1" /><path clip-path="url(#clip420)" d="M134.285 207.533 Q130.674 207.533 128.845 211.098 Q127.04 214.64 127.04 221.769 Q127.04 228.876 128.845 232.44 Q130.674 235.982 134.285 235.982 Q137.919 235.982 139.725 232.44 Q141.553 228.876 141.553 221.769 Q141.553 214.64 139.725 211.098 Q137.919 207.533 134.285 207.533 M134.285 203.829 Q140.095 203.829 143.151 208.436 Q146.229 213.019 146.229 221.769 Q146.229 230.496 143.151 235.102 Q140.095 239.686 134.285 239.686 Q128.475 239.686 125.396 235.102 Q122.341 230.496 122.341 221.769 Q122.341 213.019 125.396 208.436 Q128.475 203.829 134.285 203.829 Z" fill="#000000" fill-rule="nonzero" fill-opacity="1" /><path clip-path="url(#clip420)" d="M154.447 233.135 L159.331 233.135 L159.331 239.014 L154.447 239.014 L154.447 233.135 Z" fill="#000000" fill-rule="nonzero" fill-opacity="1" /><path clip-path="url(#clip420)" d="M168.336 204.454 L190.558 204.454 L190.558 206.445 L178.012 239.014 L173.127 239.014 L184.933 208.39 L168.336 208.39 L168.336 204.454 Z" fill="#000000" fill-rule="nonzero" fill-opacity="1" /><path clip-path="url(#clip420)" d="M199.724 204.454 L218.081 204.454 L218.081 208.39 L204.007 208.39 L204.007 216.862 Q205.025 216.515 206.044 216.353 Q207.062 216.167 208.081 216.167 Q213.868 216.167 217.247 219.339 Q220.627 222.51 220.627 227.927 Q220.627 233.505 217.155 236.607 Q213.683 239.686 207.363 239.686 Q205.187 239.686 202.919 239.315 Q200.673 238.945 198.266 238.204 L198.266 233.505 Q200.349 234.64 202.572 235.195 Q204.794 235.751 207.271 235.751 Q211.275 235.751 213.613 233.644 Q215.951 231.538 215.951 227.927 Q215.951 224.315 213.613 222.209 Q211.275 220.103 207.271 220.103 Q205.396 220.103 203.521 220.519 Q201.669 220.936 199.724 221.815 L199.724 204.454 Z" fill="#000000" fill-rule="nonzero" fill-opacity="1" /><path clip-path="url(#clip420)" d="M124.1 79.2843 L131.739 79.2843 L131.739 52.9187 L123.428 54.5854 L123.428 50.3262 L131.692 48.6595 L136.368 48.6595 L136.368 79.2843 L144.007 79.2843 L144.007 83.2195 L124.1 83.2195 L124.1 79.2843 Z" fill="#000000" fill-rule="nonzero" fill-opacity="1" /><path clip-path="url(#clip420)" d="M153.451 77.3399 L158.336 77.3399 L158.336 83.2195 L153.451 83.2195 L153.451 77.3399 Z" fill="#000000" fill-rule="nonzero" fill-opacity="1" /><path clip-path="url(#clip420)" d="M178.521 51.7382 Q174.91 51.7382 173.081 55.303 Q171.275 58.8446 171.275 65.9742 Q171.275 73.0807 173.081 76.6455 Q174.91 80.1871 178.521 80.1871 Q182.155 80.1871 183.961 76.6455 Q185.789 73.0807 185.789 65.9742 Q185.789 58.8446 183.961 55.303 Q182.155 51.7382 178.521 51.7382 M178.521 48.0345 Q184.331 48.0345 187.386 52.641 Q190.465 57.2243 190.465 65.9742 Q190.465 74.701 187.386 79.3075 Q184.331 83.8908 178.521 83.8908 Q172.711 83.8908 169.632 79.3075 Q166.576 74.701 166.576 65.9742 Q166.576 57.2243 169.632 52.641 Q172.711 48.0345 178.521 48.0345 Z" fill="#000000" fill-rule="nonzero" fill-opacity="1" /><path clip-path="url(#clip420)" d="M208.683 51.7382 Q205.072 51.7382 203.243 55.303 Q201.437 58.8446 201.437 65.9742 Q201.437 73.0807 203.243 76.6455 Q205.072 80.1871 208.683 80.1871 Q212.317 80.1871 214.122 76.6455 Q215.951 73.0807 215.951 65.9742 Q215.951 58.8446 214.122 55.303 Q212.317 51.7382 208.683 51.7382 M208.683 48.0345 Q214.493 48.0345 217.548 52.641 Q220.627 57.2243 220.627 65.9742 Q220.627 74.701 217.548 79.3075 Q214.493 83.8908 208.683 83.8908 Q202.872 83.8908 199.794 79.3075 Q196.738 74.701 196.738 65.9742 Q196.738 57.2243 199.794 52.641 Q202.872 48.0345 208.683 48.0345 Z" fill="#000000" fill-rule="nonzero" fill-opacity="1" /><path clip-path="url(#clip420)" d="M91.1993 375.843 Q97.565 378.325 99.5066 380.68 Q101.448 383.036 101.448 386.983 L101.448 391.661 L96.5465 391.661 L96.5465 388.224 Q96.5465 385.805 95.4007 384.468 Q94.2549 383.131 89.9898 381.508 L87.3162 380.458 L52.2412 394.876 L52.2412 388.669 L80.123 377.529 L52.2412 366.389 L52.2412 360.183 L91.1993 375.843 Z" fill="#000000" fill-rule="nonzero" fill-opacity="1" /><circle clip-path="url(#clip422)" cx="466.447" cy="689.119" r="14.4" fill="#a40025" fill-rule="evenodd" fill-opacity="1" stroke="none"/>
<circle clip-path="url(#clip422)" cx="1006.14" cy="377.529" r="14.4" fill="#a40025" fill-rule="evenodd" fill-opacity="1" stroke="none"/>
<circle clip-path="url(#clip422)" cx="466.447" cy="65.9395" r="14.4" fill="#a40025" fill-rule="evenodd" fill-opacity="1" stroke="none"/>
</svg>
