<?xml version="1.0" encoding="utf-8"?>
<svg xmlns="http://www.w3.org/2000/svg" xmlns:xlink="http://www.w3.org/1999/xlink" width="380" height="280" viewBox="0 0 1520 1120">
<defs>
  <clipPath id="clip600">
    <rect x="0" y="0" width="1520" height="1120"/>
  </clipPath>
</defs>
<path clip-path="url(#clip600)" d="M0 1120 L1520 1120 L1520 0 L0 0  Z" fill="#ffffff" fill-rule="evenodd" fill-opacity="1"/>
<defs>
  <clipPath id="clip601">
    <rect x="208" y="47" width="1265" height="893"/>
  </clipPath>
</defs>
<path clip-path="url(#clip600)" d="M208.661 939.34 L1472.76 939.34 L1472.76 47.2441 L208.661 47.2441  Z" fill="#d3d3d3" fill-rule="evenodd" fill-opacity="1"/>
<polyline clip-path="url(#clip600)" style="stroke:#000000; stroke-linecap:round; stroke-linejoin:round; stroke-width:4; stroke-opacity:1; fill:none" points="208.661,939.34 1472.76,939.34 "/>
<polyline clip-path="url(#clip600)" style="stroke:#000000; stroke-linecap:round; stroke-linejoin:round; stroke-width:4; stroke-opacity:1; fill:none" points="363.692,939.34 363.692,920.442 "/>
<polyline clip-path="url(#clip600)" style="stroke:#000000; stroke-linecap:round; stroke-linejoin:round; stroke-width:4; stroke-opacity:1; fill:none" points="522.697,939.34 522.697,920.442 "/>
<polyline clip-path="url(#clip600)" style="stroke:#000000; stroke-linecap:round; stroke-linejoin:round; stroke-width:4; stroke-opacity:1; fill:none" points="681.703,939.34 681.703,920.442 "/>
<polyline clip-path="url(#clip600)" style="stroke:#000000; stroke-linecap:round; stroke-linejoin:round; stroke-width:4; stroke-opacity:1; fill:none" points="840.708,939.34 840.708,920.442 "/>
<polyline clip-path="url(#clip600)" style="stroke:#000000; stroke-linecap:round; stroke-linejoin:round; stroke-width:4; stroke-opacity:1; fill:none" points="999.714,939.34 999.714,920.442 "/>
<polyline clip-path="url(#clip600)" style="stroke:#000000; stroke-linecap:round; stroke-linejoin:round; stroke-width:4; stroke-opacity:1; fill:none" points="1158.72,939.34 1158.72,920.442 "/>
<polyline clip-path="url(#clip600)" style="stroke:#000000; stroke-linecap:round; stroke-linejoin:round; stroke-width:4; stroke-opacity:1; fill:none" points="1317.73,939.34 1317.73,920.442 "/>
<path clip-path="url(#clip600)" d="M332.754 977.871 L362.43 977.871 L362.43 981.806 L332.754 981.806 L332.754 977.871 Z" fill="#000000" fill-rule="nonzero" fill-opacity="1" /><path clip-path="url(#clip600)" d="M383.101 975.556 Q379.953 975.556 378.101 977.709 Q376.272 979.862 376.272 983.612 Q376.272 987.339 378.101 989.515 Q379.953 991.667 383.101 991.667 Q386.249 991.667 388.078 989.515 Q389.93 987.339 389.93 983.612 Q389.93 979.862 388.078 977.709 Q386.249 975.556 383.101 975.556 M392.383 960.904 L392.383 965.163 Q390.624 964.33 388.819 963.89 Q387.036 963.45 385.277 963.45 Q380.647 963.45 378.194 966.575 Q375.763 969.7 375.416 976.019 Q376.782 974.006 378.842 972.941 Q380.902 971.853 383.379 971.853 Q388.587 971.853 391.596 975.024 Q394.629 978.172 394.629 983.612 Q394.629 988.936 391.481 992.154 Q388.333 995.371 383.101 995.371 Q377.106 995.371 373.935 990.788 Q370.763 986.181 370.763 977.455 Q370.763 969.26 374.652 964.399 Q378.541 959.515 385.092 959.515 Q386.851 959.515 388.634 959.862 Q390.439 960.209 392.383 960.904 Z" fill="#000000" fill-rule="nonzero" fill-opacity="1" /><path clip-path="url(#clip600)" d="M491.598 977.871 L521.274 977.871 L521.274 981.806 L491.598 981.806 L491.598 977.871 Z" fill="#000000" fill-rule="nonzero" fill-opacity="1" /><path clip-path="url(#clip600)" d="M544.213 964.214 L532.408 982.663 L544.213 982.663 L544.213 964.214 M542.986 960.14 L548.866 960.14 L548.866 982.663 L553.797 982.663 L553.797 986.552 L548.866 986.552 L548.866 994.7 L544.213 994.7 L544.213 986.552 L528.611 986.552 L528.611 982.038 L542.986 960.14 Z" fill="#000000" fill-rule="nonzero" fill-opacity="1" /><path clip-path="url(#clip600)" d="M651.645 977.871 L681.321 977.871 L681.321 981.806 L651.645 981.806 L651.645 977.871 Z" fill="#000000" fill-rule="nonzero" fill-opacity="1" /><path clip-path="url(#clip600)" d="M695.441 990.765 L711.761 990.765 L711.761 994.7 L689.816 994.7 L689.816 990.765 Q692.478 988.01 697.062 983.38 Q701.668 978.728 702.849 977.385 Q705.094 974.862 705.974 973.126 Q706.876 971.367 706.876 969.677 Q706.876 966.922 704.932 965.186 Q703.011 963.45 699.909 963.45 Q697.71 963.45 695.256 964.214 Q692.825 964.978 690.048 966.529 L690.048 961.807 Q692.872 960.672 695.325 960.094 Q697.779 959.515 699.816 959.515 Q705.186 959.515 708.381 962.2 Q711.575 964.885 711.575 969.376 Q711.575 971.506 710.765 973.427 Q709.978 975.325 707.872 977.918 Q707.293 978.589 704.191 981.806 Q701.089 985.001 695.441 990.765 Z" fill="#000000" fill-rule="nonzero" fill-opacity="1" /><path clip-path="url(#clip600)" d="M840.708 963.219 Q837.097 963.219 835.269 966.783 Q833.463 970.325 833.463 977.455 Q833.463 984.561 835.269 988.126 Q837.097 991.667 840.708 991.667 Q844.343 991.667 846.148 988.126 Q847.977 984.561 847.977 977.455 Q847.977 970.325 846.148 966.783 Q844.343 963.219 840.708 963.219 M840.708 959.515 Q846.519 959.515 849.574 964.121 Q852.653 968.705 852.653 977.455 Q852.653 986.181 849.574 990.788 Q846.519 995.371 840.708 995.371 Q834.898 995.371 831.82 990.788 Q828.764 986.181 828.764 977.455 Q828.764 968.705 831.82 964.121 Q834.898 959.515 840.708 959.515 Z" fill="#000000" fill-rule="nonzero" fill-opacity="1" /><path clip-path="url(#clip600)" d="M994.367 990.765 L1010.69 990.765 L1010.69 994.7 L988.742 994.7 L988.742 990.765 Q991.404 988.01 995.987 983.38 Q1000.59 978.728 1001.77 977.385 Q1004.02 974.862 1004.9 973.126 Q1005.8 971.367 1005.8 969.677 Q1005.8 966.922 1003.86 965.186 Q1001.94 963.45 998.834 963.45 Q996.635 963.45 994.182 964.214 Q991.751 964.978 988.973 966.529 L988.973 961.807 Q991.797 960.672 994.251 960.094 Q996.705 959.515 998.742 959.515 Q1004.11 959.515 1007.31 962.2 Q1010.5 964.885 1010.5 969.376 Q1010.5 971.506 1009.69 973.427 Q1008.9 975.325 1006.8 977.918 Q1006.22 978.589 1003.12 981.806 Q1000.02 985.001 994.367 990.765 Z" fill="#000000" fill-rule="nonzero" fill-opacity="1" /><path clip-path="url(#clip600)" d="M1161.73 964.214 L1149.92 982.663 L1161.73 982.663 L1161.73 964.214 M1160.5 960.14 L1166.38 960.14 L1166.38 982.663 L1171.31 982.663 L1171.31 986.552 L1166.38 986.552 L1166.38 994.7 L1161.73 994.7 L1161.73 986.552 L1146.13 986.552 L1146.13 982.038 L1160.5 960.14 Z" fill="#000000" fill-rule="nonzero" fill-opacity="1" /><path clip-path="url(#clip600)" d="M1318.13 975.556 Q1314.98 975.556 1313.13 977.709 Q1311.3 979.862 1311.3 983.612 Q1311.3 987.339 1313.13 989.515 Q1314.98 991.667 1318.13 991.667 Q1321.28 991.667 1323.11 989.515 Q1324.96 987.339 1324.96 983.612 Q1324.96 979.862 1323.11 977.709 Q1321.28 975.556 1318.13 975.556 M1327.41 960.904 L1327.41 965.163 Q1325.65 964.33 1323.85 963.89 Q1322.07 963.45 1320.31 963.45 Q1315.68 963.45 1313.22 966.575 Q1310.79 969.7 1310.45 976.019 Q1311.81 974.006 1313.87 972.941 Q1315.93 971.853 1318.41 971.853 Q1323.62 971.853 1326.63 975.024 Q1329.66 978.172 1329.66 983.612 Q1329.66 988.936 1326.51 992.154 Q1323.36 995.371 1318.13 995.371 Q1312.14 995.371 1308.96 990.788 Q1305.79 986.181 1305.79 977.455 Q1305.79 969.26 1309.68 964.399 Q1313.57 959.515 1320.12 959.515 Q1321.88 959.515 1323.66 959.862 Q1325.47 960.209 1327.41 960.904 Z" fill="#000000" fill-rule="nonzero" fill-opacity="1" /><path clip-path="url(#clip600)" d="M857.323 1035.36 L844.432 1052.7 L857.991 1071 L851.085 1071 L840.708 1057 L830.332 1071 L823.426 1071 L837.271 1052.35 L824.603 1035.36 L831.51 1035.36 L840.963 1048.06 L850.416 1035.36 L857.323 1035.36 Z" fill="#000000" fill-rule="nonzero" fill-opacity="1" /><polyline clip-path="url(#clip600)" style="stroke:#000000; stroke-linecap:round; stroke-linejoin:round; stroke-width:4; stroke-opacity:1; fill:none" points="208.661,939.34 208.661,47.2441 "/>
<polyline clip-path="url(#clip600)" style="stroke:#000000; stroke-linecap:round; stroke-linejoin:round; stroke-width:4; stroke-opacity:1; fill:none" points="208.661,811.303 227.559,811.303 "/>
<polyline clip-path="url(#clip600)" style="stroke:#000000; stroke-linecap:round; stroke-linejoin:round; stroke-width:4; stroke-opacity:1; fill:none" points="208.661,652.298 227.559,652.298 "/>
<polyline clip-path="url(#clip600)" style="stroke:#000000; stroke-linecap:round; stroke-linejoin:round; stroke-width:4; stroke-opacity:1; fill:none" points="208.661,493.292 227.559,493.292 "/>
<polyline clip-path="url(#clip600)" style="stroke:#000000; stroke-linecap:round; stroke-linejoin:round; stroke-width:4; stroke-opacity:1; fill:none" points="208.661,334.286 227.559,334.286 "/>
<polyline clip-path="url(#clip600)" style="stroke:#000000; stroke-linecap:round; stroke-linejoin:round; stroke-width:4; stroke-opacity:1; fill:none" points="208.661,175.281 227.559,175.281 "/>
<path clip-path="url(#clip600)" d="M123.662 811.755 L153.338 811.755 L153.338 815.69 L123.662 815.69 L123.662 811.755 Z" fill="#000000" fill-rule="nonzero" fill-opacity="1" /><path clip-path="url(#clip600)" d="M176.278 798.097 L164.472 816.546 L176.278 816.546 L176.278 798.097 M175.051 794.023 L180.93 794.023 L180.93 816.546 L185.861 816.546 L185.861 820.435 L180.93 820.435 L180.93 828.583 L176.278 828.583 L176.278 820.435 L160.676 820.435 L160.676 815.921 L175.051 794.023 Z" fill="#000000" fill-rule="nonzero" fill-opacity="1" /><path clip-path="url(#clip600)" d="M125.746 652.749 L155.421 652.749 L155.421 656.684 L125.746 656.684 L125.746 652.749 Z" fill="#000000" fill-rule="nonzero" fill-opacity="1" /><path clip-path="url(#clip600)" d="M169.542 665.642 L185.861 665.642 L185.861 669.578 L163.917 669.578 L163.917 665.642 Q166.579 662.888 171.162 658.258 Q175.768 653.605 176.949 652.263 Q179.194 649.74 180.074 648.004 Q180.977 646.244 180.977 644.555 Q180.977 641.8 179.032 640.064 Q177.111 638.328 174.009 638.328 Q171.81 638.328 169.356 639.092 Q166.926 639.856 164.148 641.406 L164.148 636.684 Q166.972 635.55 169.426 634.971 Q171.88 634.393 173.917 634.393 Q179.287 634.393 182.481 637.078 Q185.676 639.763 185.676 644.254 Q185.676 646.383 184.866 648.305 Q184.079 650.203 181.972 652.795 Q181.393 653.467 178.292 656.684 Q175.19 659.879 169.542 665.642 Z" fill="#000000" fill-rule="nonzero" fill-opacity="1" /><path clip-path="url(#clip600)" d="M173.917 479.091 Q170.306 479.091 168.477 482.655 Q166.671 486.197 166.671 493.327 Q166.671 500.433 168.477 503.998 Q170.306 507.54 173.917 507.54 Q177.551 507.54 179.356 503.998 Q181.185 500.433 181.185 493.327 Q181.185 486.197 179.356 482.655 Q177.551 479.091 173.917 479.091 M173.917 475.387 Q179.727 475.387 182.782 479.993 Q185.861 484.577 185.861 493.327 Q185.861 502.053 182.782 506.66 Q179.727 511.243 173.917 511.243 Q168.106 511.243 165.028 506.66 Q161.972 502.053 161.972 493.327 Q161.972 484.577 165.028 479.993 Q168.106 475.387 173.917 475.387 Z" fill="#000000" fill-rule="nonzero" fill-opacity="1" /><path clip-path="url(#clip600)" d="M169.542 347.631 L185.861 347.631 L185.861 351.566 L163.917 351.566 L163.917 347.631 Q166.579 344.877 171.162 340.247 Q175.768 335.594 176.949 334.252 Q179.194 331.728 180.074 329.992 Q180.977 328.233 180.977 326.543 Q180.977 323.789 179.032 322.053 Q177.111 320.316 174.009 320.316 Q171.81 320.316 169.356 321.08 Q166.926 321.844 164.148 323.395 L164.148 318.673 Q166.972 317.539 169.426 316.96 Q171.88 316.381 173.917 316.381 Q179.287 316.381 182.481 319.066 Q185.676 321.752 185.676 326.242 Q185.676 328.372 184.866 330.293 Q184.079 332.191 181.972 334.784 Q181.393 335.455 178.292 338.673 Q175.19 341.867 169.542 347.631 Z" fill="#000000" fill-rule="nonzero" fill-opacity="1" /><path clip-path="url(#clip600)" d="M176.278 162.075 L164.472 180.524 L176.278 180.524 L176.278 162.075 M175.051 158.001 L180.93 158.001 L180.93 180.524 L185.861 180.524 L185.861 184.413 L180.93 184.413 L180.93 192.561 L176.278 192.561 L176.278 184.413 L160.676 184.413 L160.676 179.899 L175.051 158.001 Z" fill="#000000" fill-rule="nonzero" fill-opacity="1" /><path clip-path="url(#clip600)" d="M89.9164 491.605 Q96.2821 494.088 98.2237 496.443 Q100.165 498.798 100.165 502.745 L100.165 507.424 L95.2636 507.424 L95.2636 503.986 Q95.2636 501.567 94.1178 500.231 Q92.972 498.894 88.7069 497.271 L86.0333 496.22 L50.9583 510.639 L50.9583 504.432 L78.8401 493.292 L50.9583 482.152 L50.9583 475.945 L89.9164 491.605 Z" fill="#000000" fill-rule="nonzero" fill-opacity="1" /><circle clip-path="url(#clip601)" cx="840.708" cy="355.589" r="14.4" fill="#a40025" fill-rule="evenodd" fill-opacity="1" stroke="none"/>
<circle clip-path="url(#clip601)" cx="920.211" cy="355.589" r="14.4" fill="#303694" fill-rule="evenodd" fill-opacity="1" stroke="none"/>
<circle clip-path="url(#clip601)" cx="959.963" cy="424.441" r="14.4" fill="#a40025" fill-rule="evenodd" fill-opacity="1" stroke="none"/>
<circle clip-path="url(#clip601)" cx="1039.47" cy="424.441" r="14.4" fill="#303694" fill-rule="evenodd" fill-opacity="1" stroke="none"/>
<circle clip-path="url(#clip601)" cx="840.708" cy="217.886" r="14.4" fill="#a40025" fill-rule="evenodd" fill-opacity="1" stroke="none"/>
<circle clip-path="url(#clip601)" cx="920.211" cy="217.886" r="14.4" fill="#303694" fill-rule="evenodd" fill-opacity="1" stroke="none"/>
<circle clip-path="url(#clip601)" cx="959.963" cy="286.738" r="14.4" fill="#a40025" fill-rule="evenodd" fill-opacity="1" stroke="none"/>
<circle clip-path="url(#clip601)" cx="1039.47" cy="286.738" r="14.4" fill="#303694" fill-rule="evenodd" fill-opacity="1" stroke="none"/>
<circle clip-path="url(#clip601)" cx="1079.22" cy="355.589" r="14.4" fill="#a40025" fill-rule="evenodd" fill-opacity="1" stroke="none"/>
<circle clip-path="url(#clip601)" cx="1158.72" cy="355.589" r="14.4" fill="#303694" fill-rule="evenodd" fill-opacity="1" stroke="none"/>
<circle clip-path="url(#clip601)" cx="1198.47" cy="424.441" r="14.4" fill="#a40025" fill-rule="evenodd" fill-opacity="1" stroke="none"/>
<circle clip-path="url(#clip601)" cx="1277.97" cy="424.441" r="14.4" fill="#303694" fill-rule="evenodd" fill-opacity="1" stroke="none"/>
<circle clip-path="url(#clip601)" cx="840.708" cy="768.698" r="14.4" fill="#a40025" fill-rule="evenodd" fill-opacity="1" stroke="none"/>
<circle clip-path="url(#clip601)" cx="920.211" cy="768.698" r="14.4" fill="#303694" fill-rule="evenodd" fill-opacity="1" stroke="none"/>
<circle clip-path="url(#clip601)" cx="959.963" cy="149.035" r="14.4" fill="#a40025" fill-rule="evenodd" fill-opacity="1" stroke="none"/>
<circle clip-path="url(#clip601)" cx="1039.47" cy="149.035" r="14.4" fill="#303694" fill-rule="evenodd" fill-opacity="1" stroke="none"/>
<circle clip-path="url(#clip601)" cx="1079.22" cy="217.886" r="14.4" fill="#a40025" fill-rule="evenodd" fill-opacity="1" stroke="none"/>
<circle clip-path="url(#clip601)" cx="1158.72" cy="217.886" r="14.4" fill="#303694" fill-rule="evenodd" fill-opacity="1" stroke="none"/>
<circle clip-path="url(#clip601)" cx="1198.47" cy="286.738" r="14.4" fill="#a40025" fill-rule="evenodd" fill-opacity="1" stroke="none"/>
<circle clip-path="url(#clip601)" cx="1277.97" cy="286.738" r="14.4" fill="#303694" fill-rule="evenodd" fill-opacity="1" stroke="none"/>
<circle clip-path="url(#clip601)" cx="1317.73" cy="355.589" r="14.4" fill="#a40025" fill-rule="evenodd" fill-opacity="1" stroke="none"/>
<circle clip-path="url(#clip601)" cx="1397.23" cy="355.589" r="14.4" fill="#303694" fill-rule="evenodd" fill-opacity="1" stroke="none"/>
<circle clip-path="url(#clip601)" cx="1436.98" cy="424.441" r="14.4" fill="#a40025" fill-rule="evenodd" fill-opacity="1" stroke="none"/>
<circle clip-path="url(#clip601)" cx="323.94" cy="424.441" r="14.4" fill="#303694" fill-rule="evenodd" fill-opacity="1" stroke="none"/>
<circle clip-path="url(#clip601)" cx="840.708" cy="630.995" r="14.4" fill="#a40025" fill-rule="evenodd" fill-opacity="1" stroke="none"/>
<circle clip-path="url(#clip601)" cx="920.211" cy="630.995" r="14.4" fill="#303694" fill-rule="evenodd" fill-opacity="1" stroke="none"/>
<circle clip-path="url(#clip601)" cx="959.963" cy="699.846" r="14.4" fill="#a40025" fill-rule="evenodd" fill-opacity="1" stroke="none"/>
<circle clip-path="url(#clip601)" cx="1039.47" cy="699.846" r="14.4" fill="#303694" fill-rule="evenodd" fill-opacity="1" stroke="none"/>
<circle clip-path="url(#clip601)" cx="1079.22" cy="768.698" r="14.4" fill="#a40025" fill-rule="evenodd" fill-opacity="1" stroke="none"/>
<circle clip-path="url(#clip601)" cx="1158.72" cy="768.698" r="14.4" fill="#303694" fill-rule="evenodd" fill-opacity="1" stroke="none"/>
<circle clip-path="url(#clip601)" cx="1198.47" cy="149.035" r="14.4" fill="#a40025" fill-rule="evenodd" fill-opacity="1" stroke="none"/>
<circle clip-path="url(#clip601)" cx="1277.97" cy="149.035" r="14.4" fill="#303694" fill-rule="evenodd" fill-opacity="1" stroke="none"/>
<circle clip-path="url(#clip601)" cx="1317.73" cy="217.886" r="14.4" fill="#a40025" fill-rule="evenodd" fill-opacity="1" stroke="none"/>
<circle clip-path="url(#clip601)" cx="1397.23" cy="217.886" r="14.4" fill="#303694" fill-rule="evenodd" fill-opacity="1" stroke="none"/>
<circle clip-path="url(#clip601)" cx="244.437" cy="286.738" r="14.4" fill="#a40025" fill-rule="evenodd" fill-opacity="1" stroke="none"/>
<circle clip-path="url(#clip601)" cx="323.94" cy="286.738" r="14.4" fill="#303694" fill-rule="evenodd" fill-opacity="1" stroke="none"/>
<circle clip-path="url(#clip601)" cx="363.692" cy="355.589" r="14.4" fill="#a40025" fill-rule="evenodd" fill-opacity="1" stroke="none"/>
<circle clip-path="url(#clip601)" cx="443.194" cy="355.589" r="14.4" fill="#303694" fill-rule="evenodd" fill-opacity="1" stroke="none"/>
<circle clip-path="url(#clip601)" cx="482.946" cy="424.441" r="14.4" fill="#a40025" fill-rule="evenodd" fill-opacity="1" stroke="none"/>
<circle clip-path="url(#clip601)" cx="562.449" cy="424.441" r="14.4" fill="#303694" fill-rule="evenodd" fill-opacity="1" stroke="none"/>
<circle clip-path="url(#clip601)" cx="840.708" cy="493.292" r="14.4" fill="#a40025" fill-rule="evenodd" fill-opacity="1" stroke="none"/>
<circle clip-path="url(#clip601)" cx="920.211" cy="493.292" r="14.4" fill="#303694" fill-rule="evenodd" fill-opacity="1" stroke="none"/>
<circle clip-path="url(#clip601)" cx="959.963" cy="562.143" r="14.4" fill="#a40025" fill-rule="evenodd" fill-opacity="1" stroke="none"/>
<circle clip-path="url(#clip601)" cx="1039.47" cy="562.143" r="14.4" fill="#303694" fill-rule="evenodd" fill-opacity="1" stroke="none"/>
<circle clip-path="url(#clip601)" cx="1079.22" cy="630.995" r="14.4" fill="#a40025" fill-rule="evenodd" fill-opacity="1" stroke="none"/>
<circle clip-path="url(#clip601)" cx="1158.72" cy="630.995" r="14.4" fill="#303694" fill-rule="evenodd" fill-opacity="1" stroke="none"/>
<circle clip-path="url(#clip601)" cx="1198.47" cy="699.846" r="14.4" fill="#a40025" fill-rule="evenodd" fill-opacity="1" stroke="none"/>
<circle clip-path="url(#clip601)" cx="1277.97" cy="699.846" r="14.4" fill="#303694" fill-rule="evenodd" fill-opacity="1" stroke="none"/>
<circle clip-path="url(#clip601)" cx="1317.73" cy="768.698" r="14.4" fill="#a40025" fill-rule="evenodd" fill-opacity="1" stroke="none"/>
<circle clip-path="url(#clip601)" cx="1397.23" cy="768.698" r="14.4" fill="#303694" fill-rule="evenodd" fill-opacity="1" stroke="none"/>
<circle clip-path="url(#clip601)" cx="1436.98" cy="149.035" r="14.4" fill="#a40025" fill-rule="evenodd" fill-opacity="1" stroke="none"/>
<circle clip-path="url(#clip601)" cx="323.94" cy="837.549" r="14.4" fill="#303694" fill-rule="evenodd" fill-opacity="1" stroke="none"/>
<circle clip-path="url(#clip601)" cx="363.692" cy="217.886" r="14.4" fill="#a40025" fill-rule="evenodd" fill-opacity="1" stroke="none"/>
<circle clip-path="url(#clip601)" cx="443.194" cy="217.886" r="14.4" fill="#303694" fill-rule="evenodd" fill-opacity="1" stroke="none"/>
<circle clip-path="url(#clip601)" cx="482.946" cy="286.738" r="14.4" fill="#a40025" fill-rule="evenodd" fill-opacity="1" stroke="none"/>
<circle clip-path="url(#clip601)" cx="562.449" cy="286.738" r="14.4" fill="#303694" fill-rule="evenodd" fill-opacity="1" stroke="none"/>
<circle clip-path="url(#clip601)" cx="602.2" cy="355.589" r="14.4" fill="#a40025" fill-rule="evenodd" fill-opacity="1" stroke="none"/>
<circle clip-path="url(#clip601)" cx="681.703" cy="355.589" r="14.4" fill="#303694" fill-rule="evenodd" fill-opacity="1" stroke="none"/>
<circle clip-path="url(#clip601)" cx="721.454" cy="424.441" r="14.4" fill="#a40025" fill-rule="evenodd" fill-opacity="1" stroke="none"/>
<circle clip-path="url(#clip601)" cx="800.957" cy="424.441" r="14.4" fill="#303694" fill-rule="evenodd" fill-opacity="1" stroke="none"/>
<circle clip-path="url(#clip601)" cx="1079.22" cy="493.292" r="14.4" fill="#a40025" fill-rule="evenodd" fill-opacity="1" stroke="none"/>
<circle clip-path="url(#clip601)" cx="1158.72" cy="493.292" r="14.4" fill="#303694" fill-rule="evenodd" fill-opacity="1" stroke="none"/>
<circle clip-path="url(#clip601)" cx="1198.47" cy="562.143" r="14.4" fill="#a40025" fill-rule="evenodd" fill-opacity="1" stroke="none"/>
<circle clip-path="url(#clip601)" cx="1277.97" cy="562.143" r="14.4" fill="#303694" fill-rule="evenodd" fill-opacity="1" stroke="none"/>
<circle clip-path="url(#clip601)" cx="1317.73" cy="630.995" r="14.4" fill="#a40025" fill-rule="evenodd" fill-opacity="1" stroke="none"/>
<circle clip-path="url(#clip601)" cx="1397.23" cy="630.995" r="14.4" fill="#303694" fill-rule="evenodd" fill-opacity="1" stroke="none"/>
<circle clip-path="url(#clip601)" cx="244.437" cy="699.846" r="14.4" fill="#a40025" fill-rule="evenodd" fill-opacity="1" stroke="none"/>
<circle clip-path="url(#clip601)" cx="323.94" cy="699.846" r="14.4" fill="#303694" fill-rule="evenodd" fill-opacity="1" stroke="none"/>
<circle clip-path="url(#clip601)" cx="363.692" cy="768.698" r="14.4" fill="#a40025" fill-rule="evenodd" fill-opacity="1" stroke="none"/>
<circle clip-path="url(#clip601)" cx="443.194" cy="768.698" r="14.4" fill="#303694" fill-rule="evenodd" fill-opacity="1" stroke="none"/>
<circle clip-path="url(#clip601)" cx="482.946" cy="149.035" r="14.4" fill="#a40025" fill-rule="evenodd" fill-opacity="1" stroke="none"/>
<circle clip-path="url(#clip601)" cx="562.449" cy="837.549" r="14.4" fill="#303694" fill-rule="evenodd" fill-opacity="1" stroke="none"/>
<circle clip-path="url(#clip601)" cx="602.2" cy="217.886" r="14.4" fill="#a40025" fill-rule="evenodd" fill-opacity="1" stroke="none"/>
<circle clip-path="url(#clip601)" cx="681.703" cy="217.886" r="14.4" fill="#303694" fill-rule="evenodd" fill-opacity="1" stroke="none"/>
<circle clip-path="url(#clip601)" cx="721.454" cy="286.738" r="14.4" fill="#a40025" fill-rule="evenodd" fill-opacity="1" stroke="none"/>
<circle clip-path="url(#clip601)" cx="800.957" cy="286.738" r="14.4" fill="#303694" fill-rule="evenodd" fill-opacity="1" stroke="none"/>
<circle clip-path="url(#clip601)" cx="1317.73" cy="493.292" r="14.4" fill="#a40025" fill-rule="evenodd" fill-opacity="1" stroke="none"/>
<circle clip-path="url(#clip601)" cx="1397.23" cy="493.292" r="14.4" fill="#303694" fill-rule="evenodd" fill-opacity="1" stroke="none"/>
<circle clip-path="url(#clip601)" cx="244.437" cy="562.143" r="14.4" fill="#a40025" fill-rule="evenodd" fill-opacity="1" stroke="none"/>
<circle clip-path="url(#clip601)" cx="323.94" cy="562.143" r="14.4" fill="#303694" fill-rule="evenodd" fill-opacity="1" stroke="none"/>
<circle clip-path="url(#clip601)" cx="363.692" cy="630.995" r="14.4" fill="#a40025" fill-rule="evenodd" fill-opacity="1" stroke="none"/>
<circle clip-path="url(#clip601)" cx="443.194" cy="630.995" r="14.4" fill="#303694" fill-rule="evenodd" fill-opacity="1" stroke="none"/>
<circle clip-path="url(#clip601)" cx="482.946" cy="699.846" r="14.4" fill="#a40025" fill-rule="evenodd" fill-opacity="1" stroke="none"/>
<circle clip-path="url(#clip601)" cx="562.449" cy="699.846" r="14.4" fill="#303694" fill-rule="evenodd" fill-opacity="1" stroke="none"/>
<circle clip-path="url(#clip601)" cx="602.2" cy="768.698" r="14.4" fill="#a40025" fill-rule="evenodd" fill-opacity="1" stroke="none"/>
<circle clip-path="url(#clip601)" cx="681.703" cy="768.698" r="14.4" fill="#303694" fill-rule="evenodd" fill-opacity="1" stroke="none"/>
<circle clip-path="url(#clip601)" cx="721.454" cy="837.549" r="14.4" fill="#a40025" fill-rule="evenodd" fill-opacity="1" stroke="none"/>
<circle clip-path="url(#clip601)" cx="800.957" cy="837.549" r="14.4" fill="#303694" fill-rule="evenodd" fill-opacity="1" stroke="none"/>
<circle clip-path="url(#clip601)" cx="363.692" cy="493.292" r="14.4" fill="#a40025" fill-rule="evenodd" fill-opacity="1" stroke="none"/>
<circle clip-path="url(#clip601)" cx="443.194" cy="493.292" r="14.4" fill="#303694" fill-rule="evenodd" fill-opacity="1" stroke="none"/>
<circle clip-path="url(#clip601)" cx="482.946" cy="562.143" r="14.4" fill="#a40025" fill-rule="evenodd" fill-opacity="1" stroke="none"/>
<circle clip-path="url(#clip601)" cx="562.449" cy="562.143" r="14.4" fill="#303694" fill-rule="evenodd" fill-opacity="1" stroke="none"/>
<circle clip-path="url(#clip601)" cx="602.2" cy="630.995" r="14.4" fill="#a40025" fill-rule="evenodd" fill-opacity="1" stroke="none"/>
<circle clip-path="url(#clip601)" cx="681.703" cy="630.995" r="14.4" fill="#303694" fill-rule="evenodd" fill-opacity="1" stroke="none"/>
<circle clip-path="url(#clip601)" cx="721.454" cy="699.846" r="14.4" fill="#a40025" fill-rule="evenodd" fill-opacity="1" stroke="none"/>
<circle clip-path="url(#clip601)" cx="800.957" cy="699.846" r="14.4" fill="#303694" fill-rule="evenodd" fill-opacity="1" stroke="none"/>
<circle clip-path="url(#clip601)" cx="602.2" cy="493.292" r="14.4" fill="#a40025" fill-rule="evenodd" fill-opacity="1" stroke="none"/>
<circle clip-path="url(#clip601)" cx="681.703" cy="493.292" r="14.4" fill="#303694" fill-rule="evenodd" fill-opacity="1" stroke="none"/>
<circle clip-path="url(#clip601)" cx="721.454" cy="562.143" r="14.4" fill="#a40025" fill-rule="evenodd" fill-opacity="1" stroke="none"/>
<circle clip-path="url(#clip601)" cx="800.957" cy="562.143" r="14.4" fill="#303694" fill-rule="evenodd" fill-opacity="1" stroke="none"/>
</svg>
